<svg xmlns="http://www.w3.org/2000/svg" width="84" height="84" viewBox="0 0 84 84">
  <g id="Grupo_53507" data-name="Grupo 53507" transform="translate(-22.694 -483.595)">
    <circle id="Elipse_3959" data-name="Elipse 3959" cx="42" cy="42" r="42" transform="translate(22.694 483.595)" fill="#26c6da"/>
    <g id="Grupo_53506" data-name="Grupo 53506" transform="translate(53.904 500.879)">
      <path id="Trazado_100808" data-name="Trazado 100808" d="M65.675,508.905v45.67a.954.954,0,0,0,1.642.662l13.379-13.9a.959.959,0,0,1,.729-.292l18.312.8a.954.954,0,0,0,.7-1.64L67.292,508.218A.954.954,0,0,0,65.675,508.905Z" transform="translate(-64.749 -507.024)" fill="#12263f"/>
      <path id="Trazado_100809" data-name="Trazado 100809" d="M66.319,556.145a1.884,1.884,0,0,1-1.883-1.882v-45.67a1.88,1.88,0,0,1,3.186-1.353l33.15,31.985a1.881,1.881,0,0,1-1.388,3.233l-18.311-.8-13.4,13.91A1.869,1.869,0,0,1,66.319,556.145Zm.016-47.572-.047.02v45.67l13.427-13.882a1.883,1.883,0,0,1,1.437-.574l18.312.8Z" transform="translate(-64.436 -506.712)" fill="#fff"/>
    </g>
  </g>
</svg>
