<svg xmlns="http://www.w3.org/2000/svg" xmlns:xlink="http://www.w3.org/1999/xlink" width="84" height="84" viewBox="0 0 84 84">
  <defs>
    <clipPath id="clip-path">
      <rect id="Rectángulo_5407" data-name="Rectángulo 5407" width="84" height="84" transform="translate(180 13860)" fill="#fff" stroke="#707070" stroke-width="1"/>
    </clipPath>
  </defs>
  <g id="Enmascarar_grupo_27" data-name="Enmascarar grupo 27" transform="translate(-180 -13860)" clip-path="url(#clip-path)">
    <g id="poster" transform="translate(190.694 13860)">
      <path id="Trazado_101403" data-name="Trazado 101403" d="M62.611,1.486V82.514A1.486,1.486,0,0,1,61.125,84H1.486A1.486,1.486,0,0,1,0,82.514V1.486A1.486,1.486,0,0,1,1.486,0H61.125a1.486,1.486,0,0,1,1.486,1.486Zm0,0" fill="#35e298"/>
      <path id="Trazado_101404" data-name="Trazado 101404" d="M62.611,1.486V82.514A1.486,1.486,0,0,1,61.125,84H6.933a1.486,1.486,0,0,1-1.486-1.486V1.486A1.486,1.486,0,0,1,6.933,0H61.125a1.486,1.486,0,0,1,1.486,1.486Zm0,0" fill="#7af4ab"/>
      <g id="Grupo_53842" data-name="Grupo 53842">
        <path id="Trazado_101405" data-name="Trazado 101405" d="M59.165,10.724a1.276,1.276,0,0,0-1.739-.06c-.021-.025-.043-.05-.067-.074L56.1,9.335A1.277,1.277,0,0,0,54.3,11.14L55.554,12.4c.022.022.047.044.07.064l-.167.167a1.277,1.277,0,0,0,1.805,1.805l1.9-1.9a1.276,1.276,0,0,0,0-1.805Zm0,0" fill="#f29500"/>
        <path id="Trazado_101406" data-name="Trazado 101406" d="M50.139,13.494a1.276,1.276,0,0,0,0,1.805l1.255,1.255c.023.023.047.044.071.064l-.167.167A1.277,1.277,0,1,0,53.1,18.591l1.9-1.9a1.276,1.276,0,0,0-1.739-1.865c-.022-.025-.043-.051-.067-.074l-1.255-1.255a1.277,1.277,0,0,0-1.805,0Zm0,0" fill="#f29500"/>
        <path id="Trazado_101407" data-name="Trazado 101407" d="M48.353,6.493a1.271,1.271,0,0,0,.888-.361,1.255,1.255,0,0,0,.137.163l1.255,1.255a1.277,1.277,0,0,0,1.805-1.805L51.183,4.491a1.349,1.349,0,0,0-.162-.136l.138-.138a1.276,1.276,0,0,0-1.805-1.8l-1.9,1.9a1.276,1.276,0,0,0,.9,2.179Zm0,0" fill="#f29500"/>
        <path id="Trazado_101408" data-name="Trazado 101408" d="M44.194,10.653a1.273,1.273,0,0,0,.888-.36,1.255,1.255,0,0,0,.137.163l1.255,1.255a1.277,1.277,0,1,0,1.806-1.805L47.024,8.65a1.2,1.2,0,0,0-.163-.136L47,8.377a1.277,1.277,0,0,0-1.805-1.805l-1.9,1.9a1.276,1.276,0,0,0,.9,2.179Zm0,0" fill="#f29500"/>
        <path id="Trazado_101409" data-name="Trazado 101409" d="M18.244,5.635a2.019,2.019,0,0,0-3-1.13l-5.4,3.347a2.019,2.019,0,0,0-.868,2.3l1.953,6.432a2.961,2.961,0,0,0-2.506,2.928,2.965,2.965,0,1,0,5.8-.861l-1.243-4.095,4.458-2.765.778,2.563a3.042,3.042,0,0,0-.4.092A2.965,2.965,0,1,0,21.539,16.5c-.024-.1-2.447-8.068-3.295-10.863ZM11.393,19.927a.412.412,0,0,1-.119-.806A.412.412,0,1,1,11.393,19.927Zm.827-7.9L11.545,9.8,16,7.04l.675,2.225Zm6.05,5.256a.412.412,0,0,1,.825,0A.412.412,0,0,1,18.271,17.286Zm0,0" fill="#f29500"/>
        <path id="Trazado_101410" data-name="Trazado 101410" d="M54,38.327h-.04l-6.348.124a2.02,2.02,0,0,0-1.922,1.537l-1.6,6.529a2.964,2.964,0,1,0,1.78,3.459c-.006.022,1.014-4.129,1.021-4.155l5.244-.1-.64,2.6A2.964,2.964,0,1,0,53.271,51.8l0-.019h0v0l2.69-10.949A2.017,2.017,0,0,0,54,38.327ZM42.892,49.669a.412.412,0,0,1,.2-.8C43.559,48.984,43.434,49.8,42.892,49.669ZM50.4,51.485a.412.412,0,0,1,0-.824A.412.412,0,0,1,50.4,51.485Zm2.368-8.333-5.244.1L48.076,41l5.244-.1Zm0,0" fill="#f29500"/>
        <path id="Trazado_101411" data-name="Trazado 101411" d="M51.607,20.548A1.276,1.276,0,1,0,49.329,21.7l3.035,6a3.164,3.164,0,0,0-.526.207,3.115,3.115,0,1,0,4.109,1.221Zm1.135,10.4a.562.562,0,0,1,1-.507A.562.562,0,0,1,52.742,30.943Zm0,0" fill="#f29500"/>
      </g>
      <path id="Trazado_101412" data-name="Trazado 101412" d="M16.165,63.037H46.446a1.277,1.277,0,1,0,0-2.553H16.165a1.277,1.277,0,1,0,0,2.553Zm0,0" fill="#5596fb"/>
      <path id="Trazado_101413" data-name="Trazado 101413" d="M6.756,68.682h49.1a1.277,1.277,0,0,0,0-2.553H6.756a1.277,1.277,0,0,0,0,2.553Zm0,0" fill="#5596fb"/>
      <path id="Trazado_101414" data-name="Trazado 101414" d="M55.856,71.347H6.756a1.277,1.277,0,1,0,0,2.553h49.1a1.277,1.277,0,1,0,0-2.553Zm0,0" fill="#5596fb"/>
      <path id="Trazado_101415" data-name="Trazado 101415" d="M55.856,76.565H45.9a1.277,1.277,0,0,0,0,2.553h9.951a1.277,1.277,0,0,0,0-2.553Zm0,0" fill="#5596fb"/>
      <path id="Trazado_101416" data-name="Trazado 101416" d="M40.8,76.565H6.756a1.277,1.277,0,0,0,0,2.553H40.8a1.277,1.277,0,0,0,0-2.553Zm0,0" fill="#5596fb"/>
      <path id="Trazado_101417" data-name="Trazado 101417" d="M41.744,35.589a2,2,0,0,1-1.666.667,9.608,9.608,0,0,0-9.411,13.6,2.022,2.022,0,0,1-.578,2.471,14.657,14.657,0,0,1-17.14.57q-.475-.32-.928-.681A14.642,14.642,0,0,1,9.539,31.77a2.021,2.021,0,0,1,2.471-.577,9.609,9.609,0,0,0,13.6-9.384,2.009,2.009,0,0,1,.684-1.68,10.952,10.952,0,0,1,15.453,15.46Zm0,0" fill="#ae583e"/>
      <path id="Trazado_101418" data-name="Trazado 101418" d="M41.744,35.589a2,2,0,0,1-1.666.667,9.608,9.608,0,0,0-9.411,13.6,2.022,2.022,0,0,1-.578,2.471,14.657,14.657,0,0,1-17.14.57q-.475-.32-.928-.681a14.662,14.662,0,0,1,.965-16.524,2.023,2.023,0,0,1,2.471-.577,9.609,9.609,0,0,0,13.6-9.384,2,2,0,0,1,.684-1.68,10.84,10.84,0,0,1,13.5-.744,10.958,10.958,0,0,1-1.495,12.285Zm0,0" fill="#c0694e"/>
      <path id="Trazado_101419" data-name="Trazado 101419" d="M34.795,27.056a.783.783,0,0,0-1.108,0L23.023,37.729l-1.11-1.11A.784.784,0,0,0,20.8,37.727l1.11,1.11-6.372,6.372a.784.784,0,0,0,1.108,1.108l6.372-6.372,1.11,1.11a.784.784,0,1,0,1.109-1.108l-1.11-1.11L34.8,28.164A.783.783,0,0,0,34.795,27.056Zm0,0" fill="#ffb52d"/>
      <path id="Trazado_101420" data-name="Trazado 101420" d="M19.59,46.168a.55.55,0,0,1-.129.874L11.506,51.3a.582.582,0,0,1-.663-.148l0,0-.019-.019a.587.587,0,0,1-.15-.657l4.15-8.054a.55.55,0,0,1,.878-.137Zm0,0" fill="#7c3f2c"/>
      <path id="Trazado_101421" data-name="Trazado 101421" d="M57.251,7.144a1.621,1.621,0,0,1-.2.243L35.273,29.319a1.72,1.72,0,0,1-2.428,0l-.087-.087-.217-.217a1.724,1.724,0,0,1,0-2.43L54.318,4.655a1.72,1.72,0,0,1,2.429,0l.3.3a1.723,1.723,0,0,1,.2,2.187Zm0,0" fill="#7c3f2c"/>
      <path id="Trazado_101422" data-name="Trazado 101422" d="M57.251,7.144a1.621,1.621,0,0,1-.2.243L35.273,29.319a1.72,1.72,0,0,1-2.428,0l-.087-.087a1.589,1.589,0,0,1,.2-.243L54.736,7.058a1.72,1.72,0,0,1,2.429,0Zm0,0" fill="#954c35"/>
    </g>
  </g>
</svg>
