<svg xmlns="http://www.w3.org/2000/svg" width="812" height="165.328" viewBox="0 0 812 165.328">
  <g id="Grupo_54420" data-name="Grupo 54420" transform="translate(-333 -9812)">
    <path id="Trazado_103720" data-name="Trazado 103720" d="M3.508,0H1.164V-11.375H3.508Zm4.1-8.453.07.977a2.951,2.951,0,0,1,2.43-1.133,2.453,2.453,0,0,1,2,.789,3.682,3.682,0,0,1,.672,2.359V0H10.523V-5.419a1.47,1.47,0,0,0-.312-1.045,1.4,1.4,0,0,0-1.039-.325,1.553,1.553,0,0,0-1.43.814V0H5.484V-8.453ZM15.109,0V-6.8H13.852V-8.453h1.258v-.719a2.918,2.918,0,0,1,.816-2.207,3.162,3.162,0,0,1,2.285-.785,5.321,5.321,0,0,1,1.148.155l-.023,1.736a2.878,2.878,0,0,0-.687-.07q-1.273,0-1.273,1.205v.685h1.68V-6.8h-1.68V0Zm4.766-4.3a5.013,5.013,0,0,1,.484-2.242A3.546,3.546,0,0,1,21.754-8.07a4.069,4.069,0,0,1,2.113-.539A3.849,3.849,0,0,1,26.66-7.562a4.2,4.2,0,0,1,1.207,2.844l.016.578A4.418,4.418,0,0,1,26.8-1.02,3.775,3.775,0,0,1,23.883.156a3.793,3.793,0,0,1-2.918-1.172A4.5,4.5,0,0,1,19.875-4.2Zm2.258.16A3.16,3.16,0,0,0,22.586-2.3a1.5,1.5,0,0,0,1.3.638,1.5,1.5,0,0,0,1.281-.63,3.457,3.457,0,0,0,.461-2.015,3.128,3.128,0,0,0-.461-1.831,1.5,1.5,0,0,0-1.3-.649,1.474,1.474,0,0,0-1.281.646A3.516,3.516,0,0,0,22.133-4.144Zm6.813-.145a4.954,4.954,0,0,1,.926-3.133,3,3,0,0,1,2.5-1.187,2.631,2.631,0,0,1,2.164.953l.094-.8h2.047V-.281a3.613,3.613,0,0,1-.5,1.93A3.236,3.236,0,0,1,34.75,2.9a4.985,4.985,0,0,1-2.141.43A4.635,4.635,0,0,1,30.8,2.957,3.217,3.217,0,0,1,29.461,2l1-1.375a2.645,2.645,0,0,0,2.047.945,1.936,1.936,0,0,0,1.4-.48,1.8,1.8,0,0,0,.5-1.363V-.727a2.612,2.612,0,0,1-2.055.883,2.992,2.992,0,0,1-2.465-1.191,4.953,4.953,0,0,1-.941-3.16Zm2.258.161a3.1,3.1,0,0,0,.461,1.809,1.465,1.465,0,0,0,1.266.655,1.567,1.567,0,0,0,1.477-.777V-6.012a1.563,1.563,0,0,0-1.461-.777,1.474,1.474,0,0,0-1.277.667A3.5,3.5,0,0,0,31.2-4.128ZM43.156-6.336a6.134,6.134,0,0,0-.812-.062,1.654,1.654,0,0,0-1.68.867V0H38.406V-8.453h2.133L40.6-7.445a2.092,2.092,0,0,1,1.883-1.164,2.366,2.366,0,0,1,.7.1ZM48.906,0a2.507,2.507,0,0,1-.227-.758,2.732,2.732,0,0,1-2.133.914,3,3,0,0,1-2.059-.719,2.312,2.312,0,0,1-.816-1.812,2.389,2.389,0,0,1,1-2.062,4.915,4.915,0,0,1,2.879-.727h1.039v-.484a1.393,1.393,0,0,0-.3-.937,1.183,1.183,0,0,0-.949-.352,1.345,1.345,0,0,0-.895.273.929.929,0,0,0-.324.75H43.859a2.268,2.268,0,0,1,.453-1.359,3,3,0,0,1,1.281-.98,4.669,4.669,0,0,1,1.859-.355,3.689,3.689,0,0,1,2.48.785,2.747,2.747,0,0,1,.918,2.207v3.664a4.041,4.041,0,0,0,.336,1.82V0ZM47.039-1.57a1.945,1.945,0,0,0,.922-.223,1.462,1.462,0,0,0,.625-.6V-3.844h-.844q-1.7,0-1.8,1.172l-.008.133a.9.9,0,0,0,.3.7A1.153,1.153,0,0,0,47.039-1.57ZM53.2,0V-6.8H51.945V-8.453H53.2v-.719a2.918,2.918,0,0,1,.816-2.207,3.162,3.162,0,0,1,2.285-.785,5.321,5.321,0,0,1,1.148.155l-.023,1.736a2.878,2.878,0,0,0-.687-.07q-1.273,0-1.273,1.205v.685h1.68V-6.8h-1.68V0Zm7.555,0H58.5V-8.453h2.258Zm-.664-11.883h2.461L60.391-9.461H58.555ZM67.6,0a2.507,2.507,0,0,1-.227-.758,2.732,2.732,0,0,1-2.133.914,3,3,0,0,1-2.059-.719,2.312,2.312,0,0,1-.816-1.812,2.389,2.389,0,0,1,1-2.062,4.915,4.915,0,0,1,2.879-.727h1.039v-.484a1.393,1.393,0,0,0-.3-.937,1.183,1.183,0,0,0-.949-.352,1.345,1.345,0,0,0-.895.273.929.929,0,0,0-.324.75H62.555a2.268,2.268,0,0,1,.453-1.359,3,3,0,0,1,1.281-.98,4.669,4.669,0,0,1,1.859-.355,3.689,3.689,0,0,1,2.48.785,2.747,2.747,0,0,1,.918,2.207v3.664a4.041,4.041,0,0,0,.336,1.82V0ZM65.734-1.57a1.945,1.945,0,0,0,.922-.223,1.462,1.462,0,0,0,.625-.6V-3.844h-.844q-1.7,0-1.8,1.172l-.008.133a.9.9,0,0,0,.3.7A1.153,1.153,0,0,0,65.734-1.57ZM82.875-4.148a5.07,5.07,0,0,1-.887,3.129A2.843,2.843,0,0,1,79.594.156a2.633,2.633,0,0,1-2.07-.891V3.25H75.266v-11.7h2.094l.078.828a2.654,2.654,0,0,1,2.141-.984,2.862,2.862,0,0,1,2.43,1.156,5.207,5.207,0,0,1,.867,3.188Zm-2.258-.172A3.345,3.345,0,0,0,80.2-6.146a1.36,1.36,0,0,0-1.215-.643,1.478,1.478,0,0,0-1.461.815V-2.5A1.5,1.5,0,0,0,79-1.664Q80.617-1.664,80.617-4.321ZM89.336-.859A2.831,2.831,0,0,1,87.023.156a2.67,2.67,0,0,1-2.074-.781,3.335,3.335,0,0,1-.73-2.289V-8.453h2.258v5.467q0,1.322,1.2,1.322a1.63,1.63,0,0,0,1.578-.8V-8.453h2.266V0H89.4Zm11.508-3.289A5.119,5.119,0,0,1,99.977-.98,2.872,2.872,0,0,1,97.555.156,2.639,2.639,0,0,1,95.359-.9l-.1.9H93.227V-12h2.258v4.3a2.571,2.571,0,0,1,2.055-.914,2.9,2.9,0,0,1,2.426,1.137,5.126,5.126,0,0,1,.879,3.2Zm-2.258-.172A3.381,3.381,0,0,0,98.18-6.2a1.372,1.372,0,0,0-1.211-.592,1.489,1.489,0,0,0-1.484.885v3.346a1.509,1.509,0,0,0,1.5.893,1.4,1.4,0,0,0,1.438-1.081A5.6,5.6,0,0,0,98.586-4.321ZM104.617,0h-2.266V-12h2.266Zm4.242,0h-2.266V-8.453h2.266Zm-2.4-10.641a1.112,1.112,0,0,1,.34-.836,1.277,1.277,0,0,1,.926-.328,1.28,1.28,0,0,1,.922.328,1.105,1.105,0,0,1,.344.836,1.108,1.108,0,0,1-.348.844,1.283,1.283,0,0,1-.918.328,1.283,1.283,0,0,1-.918-.328A1.108,1.108,0,0,1,106.461-10.641Zm7.773,8.977a1.481,1.481,0,0,0,1.016-.344,1.2,1.2,0,0,0,.406-.914h2.117a2.9,2.9,0,0,1-.469,1.574,3.093,3.093,0,0,1-1.262,1.109,3.949,3.949,0,0,1-1.77.395A3.67,3.67,0,0,1,111.414-1a4.56,4.56,0,0,1-1.047-3.184v-.148a4.508,4.508,0,0,1,1.039-3.117,3.627,3.627,0,0,1,2.852-1.164,3.555,3.555,0,0,1,2.543.9,3.2,3.2,0,0,1,.973,2.4h-2.117a1.551,1.551,0,0,0-.406-1.072,1.354,1.354,0,0,0-1.031-.412,1.36,1.36,0,0,0-1.191.575,3.333,3.333,0,0,0-.4,1.866v.235a3.375,3.375,0,0,0,.4,1.878A1.377,1.377,0,0,0,114.234-1.664ZM121.445,0H119.18V-8.453h2.266Zm-2.4-10.641a1.112,1.112,0,0,1,.34-.836,1.277,1.277,0,0,1,.926-.328,1.28,1.28,0,0,1,.922.328,1.105,1.105,0,0,1,.344.836,1.108,1.108,0,0,1-.348.844,1.283,1.283,0,0,1-.918.328,1.283,1.283,0,0,1-.918-.328A1.108,1.108,0,0,1,119.047-10.641Zm6.961.109v2.078h1.445V-6.8h-1.445v4.219a1.007,1.007,0,0,0,.18.672.9.9,0,0,0,.688.2,3.6,3.6,0,0,0,.664-.055V-.047a4.648,4.648,0,0,1-1.367.2,2.156,2.156,0,0,1-2.422-2.4V-6.8h-1.234V-8.453h1.234v-2.078ZM133.609,0a2.507,2.507,0,0,1-.227-.758,2.732,2.732,0,0,1-2.133.914,3,3,0,0,1-2.059-.719,2.312,2.312,0,0,1-.816-1.812,2.389,2.389,0,0,1,1-2.062,4.915,4.915,0,0,1,2.879-.727h1.039v-.484a1.393,1.393,0,0,0-.3-.937,1.183,1.183,0,0,0-.949-.352,1.345,1.345,0,0,0-.895.273.929.929,0,0,0-.324.75h-2.258a2.268,2.268,0,0,1,.453-1.359,3,3,0,0,1,1.281-.98,4.669,4.669,0,0,1,1.859-.355,3.689,3.689,0,0,1,2.48.785,2.747,2.747,0,0,1,.918,2.207v3.664a4.041,4.041,0,0,0,.336,1.82V0Zm-1.867-1.57a1.945,1.945,0,0,0,.922-.223,1.462,1.462,0,0,0,.625-.6V-3.844h-.844q-1.7,0-1.8,1.172l-.008.133a.9.9,0,0,0,.3.7A1.153,1.153,0,0,0,131.742-1.57Zm10.3-4.766a6.134,6.134,0,0,0-.812-.062,1.654,1.654,0,0,0-1.68.867V0h-2.258V-8.453h2.133l.063,1.008a2.092,2.092,0,0,1,1.883-1.164,2.366,2.366,0,0,1,.7.1ZM145.508,0h-2.266V-8.453h2.266Zm-2.4-10.641a1.112,1.112,0,0,1,.34-.836,1.277,1.277,0,0,1,.926-.328,1.28,1.28,0,0,1,.922.328,1.105,1.105,0,0,1,.344.836,1.109,1.109,0,0,1-.348.844,1.283,1.283,0,0,1-.918.328,1.283,1.283,0,0,1-.918-.328A1.109,1.109,0,0,1,143.109-10.641ZM152.266,0a2.507,2.507,0,0,1-.227-.758,2.732,2.732,0,0,1-2.133.914,3,3,0,0,1-2.059-.719,2.312,2.312,0,0,1-.816-1.812,2.389,2.389,0,0,1,1-2.062,4.915,4.915,0,0,1,2.879-.727h1.039v-.484a1.393,1.393,0,0,0-.3-.937,1.183,1.183,0,0,0-.949-.352,1.345,1.345,0,0,0-.895.273.929.929,0,0,0-.324.75h-2.258a2.268,2.268,0,0,1,.453-1.359,3,3,0,0,1,1.281-.98,4.669,4.669,0,0,1,1.859-.355,3.689,3.689,0,0,1,2.48.785,2.747,2.747,0,0,1,.918,2.207v3.664a4.041,4.041,0,0,0,.336,1.82V0ZM150.4-1.57a1.945,1.945,0,0,0,.922-.223,1.462,1.462,0,0,0,.625-.6V-3.844H151.1q-1.7,0-1.8,1.172l-.008.133a.9.9,0,0,0,.3.7A1.153,1.153,0,0,0,150.4-1.57Zm5.664.461a1.137,1.137,0,0,1,.363-.875,1.289,1.289,0,0,1,.91-.336,1.3,1.3,0,0,1,.918.336,1.137,1.137,0,0,1,.363.875,1.121,1.121,0,0,1-.359.863,1.305,1.305,0,0,1-.922.332,1.294,1.294,0,0,1-.914-.332A1.121,1.121,0,0,1,156.063-1.109Z" transform="translate(350 9974)" fill="#12263f"/>
    <path id="Trazado_103715" data-name="Trazado 103715" d="M3.508,0H1.164V-11.375H3.508Zm4.1-8.453.07.977a2.951,2.951,0,0,1,2.43-1.133,2.453,2.453,0,0,1,2,.789,3.682,3.682,0,0,1,.672,2.359V0H10.523V-5.419a1.47,1.47,0,0,0-.312-1.045,1.4,1.4,0,0,0-1.039-.325,1.553,1.553,0,0,0-1.43.814V0H5.484V-8.453ZM15.109,0V-6.8H13.852V-8.453h1.258v-.719a2.918,2.918,0,0,1,.816-2.207,3.162,3.162,0,0,1,2.285-.785,5.321,5.321,0,0,1,1.148.155l-.023,1.736a2.878,2.878,0,0,0-.687-.07q-1.273,0-1.273,1.205v.685h1.68V-6.8h-1.68V0Zm4.766-4.3a5.013,5.013,0,0,1,.484-2.242A3.546,3.546,0,0,1,21.754-8.07a4.069,4.069,0,0,1,2.113-.539A3.849,3.849,0,0,1,26.66-7.562a4.2,4.2,0,0,1,1.207,2.844l.016.578A4.418,4.418,0,0,1,26.8-1.02,3.775,3.775,0,0,1,23.883.156a3.793,3.793,0,0,1-2.918-1.172A4.5,4.5,0,0,1,19.875-4.2Zm2.258.16A3.16,3.16,0,0,0,22.586-2.3a1.5,1.5,0,0,0,1.3.638,1.5,1.5,0,0,0,1.281-.63,3.457,3.457,0,0,0,.461-2.015,3.128,3.128,0,0,0-.461-1.831,1.5,1.5,0,0,0-1.3-.649,1.474,1.474,0,0,0-1.281.646A3.516,3.516,0,0,0,22.133-4.144Zm6.813-.145a4.954,4.954,0,0,1,.926-3.133,3,3,0,0,1,2.5-1.187,2.631,2.631,0,0,1,2.164.953l.094-.8h2.047V-.281a3.613,3.613,0,0,1-.5,1.93A3.236,3.236,0,0,1,34.75,2.9a4.985,4.985,0,0,1-2.141.43A4.635,4.635,0,0,1,30.8,2.957,3.217,3.217,0,0,1,29.461,2l1-1.375a2.645,2.645,0,0,0,2.047.945,1.936,1.936,0,0,0,1.4-.48,1.8,1.8,0,0,0,.5-1.363V-.727a2.612,2.612,0,0,1-2.055.883,2.992,2.992,0,0,1-2.465-1.191,4.953,4.953,0,0,1-.941-3.16Zm2.258.161a3.1,3.1,0,0,0,.461,1.809,1.465,1.465,0,0,0,1.266.655,1.567,1.567,0,0,0,1.477-.777V-6.012a1.563,1.563,0,0,0-1.461-.777,1.474,1.474,0,0,0-1.277.667A3.5,3.5,0,0,0,31.2-4.128ZM43.156-6.336a6.134,6.134,0,0,0-.812-.062,1.654,1.654,0,0,0-1.68.867V0H38.406V-8.453h2.133L40.6-7.445a2.092,2.092,0,0,1,1.883-1.164,2.366,2.366,0,0,1,.7.1ZM48.906,0a2.507,2.507,0,0,1-.227-.758,2.732,2.732,0,0,1-2.133.914,3,3,0,0,1-2.059-.719,2.312,2.312,0,0,1-.816-1.812,2.389,2.389,0,0,1,1-2.062,4.915,4.915,0,0,1,2.879-.727h1.039v-.484a1.393,1.393,0,0,0-.3-.937,1.183,1.183,0,0,0-.949-.352,1.345,1.345,0,0,0-.895.273.929.929,0,0,0-.324.75H43.859a2.268,2.268,0,0,1,.453-1.359,3,3,0,0,1,1.281-.98,4.669,4.669,0,0,1,1.859-.355,3.689,3.689,0,0,1,2.48.785,2.747,2.747,0,0,1,.918,2.207v3.664a4.041,4.041,0,0,0,.336,1.82V0ZM47.039-1.57a1.945,1.945,0,0,0,.922-.223,1.462,1.462,0,0,0,.625-.6V-3.844h-.844q-1.7,0-1.8,1.172l-.008.133a.9.9,0,0,0,.3.7A1.153,1.153,0,0,0,47.039-1.57ZM53.2,0V-6.8H51.945V-8.453H53.2v-.719a2.918,2.918,0,0,1,.816-2.207,3.162,3.162,0,0,1,2.285-.785,5.321,5.321,0,0,1,1.148.155l-.023,1.736a2.878,2.878,0,0,0-.687-.07q-1.273,0-1.273,1.205v.685h1.68V-6.8h-1.68V0Zm7.555,0H58.5V-8.453h2.258Zm-.664-11.883h2.461L60.391-9.461H58.555ZM67.6,0a2.507,2.507,0,0,1-.227-.758,2.732,2.732,0,0,1-2.133.914,3,3,0,0,1-2.059-.719,2.312,2.312,0,0,1-.816-1.812,2.389,2.389,0,0,1,1-2.062,4.915,4.915,0,0,1,2.879-.727h1.039v-.484a1.393,1.393,0,0,0-.3-.937,1.183,1.183,0,0,0-.949-.352,1.345,1.345,0,0,0-.895.273.929.929,0,0,0-.324.75H62.555a2.268,2.268,0,0,1,.453-1.359,3,3,0,0,1,1.281-.98,4.669,4.669,0,0,1,1.859-.355,3.689,3.689,0,0,1,2.48.785,2.747,2.747,0,0,1,.918,2.207v3.664a4.041,4.041,0,0,0,.336,1.82V0ZM65.734-1.57a1.945,1.945,0,0,0,.922-.223,1.462,1.462,0,0,0,.625-.6V-3.844h-.844q-1.7,0-1.8,1.172l-.008.133a.9.9,0,0,0,.3.7A1.153,1.153,0,0,0,65.734-1.57Zm13.047-.094A1.481,1.481,0,0,0,79.8-2.008a1.2,1.2,0,0,0,.406-.914H82.32a2.9,2.9,0,0,1-.469,1.574A3.093,3.093,0,0,1,80.59-.238a3.949,3.949,0,0,1-1.77.395A3.67,3.67,0,0,1,75.961-1,4.56,4.56,0,0,1,74.914-4.18v-.148a4.508,4.508,0,0,1,1.039-3.117A3.627,3.627,0,0,1,78.8-8.609a3.555,3.555,0,0,1,2.543.9,3.2,3.2,0,0,1,.973,2.4H80.2A1.551,1.551,0,0,0,79.8-6.377a1.354,1.354,0,0,0-1.031-.412,1.36,1.36,0,0,0-1.191.575,3.333,3.333,0,0,0-.4,1.866v.235a3.375,3.375,0,0,0,.4,1.878A1.377,1.377,0,0,0,78.781-1.664ZM83.258-4.3a5.013,5.013,0,0,1,.484-2.242A3.546,3.546,0,0,1,85.137-8.07a4.069,4.069,0,0,1,2.113-.539,3.849,3.849,0,0,1,2.793,1.047A4.2,4.2,0,0,1,91.25-4.719l.016.578A4.418,4.418,0,0,1,90.18-1.02,3.775,3.775,0,0,1,87.266.156a3.793,3.793,0,0,1-2.918-1.172A4.5,4.5,0,0,1,83.258-4.2Zm2.258.16A3.16,3.16,0,0,0,85.969-2.3a1.5,1.5,0,0,0,1.3.638,1.5,1.5,0,0,0,1.281-.63,3.457,3.457,0,0,0,.461-2.015,3.128,3.128,0,0,0-.461-1.831,1.5,1.5,0,0,0-1.3-.649,1.474,1.474,0,0,0-1.281.646A3.516,3.516,0,0,0,85.516-4.144ZM97.406-6.336a6.134,6.134,0,0,0-.812-.062,1.654,1.654,0,0,0-1.68.867V0H92.656V-8.453h2.133l.063,1.008a2.092,2.092,0,0,1,1.883-1.164,2.366,2.366,0,0,1,.7.1Zm8.7,2.188a5.07,5.07,0,0,1-.887,3.129A2.843,2.843,0,0,1,102.82.156a2.633,2.633,0,0,1-2.07-.891V3.25H98.492v-11.7h2.094l.078.828a2.654,2.654,0,0,1,2.141-.984,2.862,2.862,0,0,1,2.43,1.156,5.207,5.207,0,0,1,.867,3.188Zm-2.258-.172a3.345,3.345,0,0,0-.418-1.826,1.36,1.36,0,0,0-1.215-.643,1.478,1.478,0,0,0-1.461.815V-2.5a1.5,1.5,0,0,0,1.477.839Q103.844-1.664,103.844-4.321Zm3.3.016a5.013,5.013,0,0,1,.484-2.242,3.546,3.546,0,0,1,1.395-1.523,4.069,4.069,0,0,1,2.113-.539,3.849,3.849,0,0,1,2.793,1.047,4.2,4.2,0,0,1,1.207,2.844l.016.578A4.418,4.418,0,0,1,114.07-1.02,3.775,3.775,0,0,1,111.156.156a3.793,3.793,0,0,1-2.918-1.172,4.5,4.5,0,0,1-1.09-3.187Zm2.258.16a3.16,3.16,0,0,0,.453,1.843,1.5,1.5,0,0,0,1.3.638,1.5,1.5,0,0,0,1.281-.63,3.457,3.457,0,0,0,.461-2.015,3.128,3.128,0,0,0-.461-1.831,1.5,1.5,0,0,0-1.3-.649,1.474,1.474,0,0,0-1.281.646A3.516,3.516,0,0,0,109.406-4.144ZM121.3-6.336a6.134,6.134,0,0,0-.812-.062,1.654,1.654,0,0,0-1.68.867V0h-2.258V-8.453h2.133l.063,1.008a2.092,2.092,0,0,1,1.883-1.164,2.366,2.366,0,0,1,.7.1ZM127.047,0a2.507,2.507,0,0,1-.227-.758,2.732,2.732,0,0,1-2.133.914,3,3,0,0,1-2.059-.719,2.312,2.312,0,0,1-.816-1.812,2.389,2.389,0,0,1,1-2.062,4.915,4.915,0,0,1,2.879-.727h1.039v-.484a1.393,1.393,0,0,0-.3-.937,1.183,1.183,0,0,0-.949-.352,1.345,1.345,0,0,0-.895.273.929.929,0,0,0-.324.75H122a2.268,2.268,0,0,1,.453-1.359,3,3,0,0,1,1.281-.98,4.669,4.669,0,0,1,1.859-.355,3.689,3.689,0,0,1,2.48.785,2.747,2.747,0,0,1,.918,2.207v3.664a4.041,4.041,0,0,0,.336,1.82V0ZM125.18-1.57a1.945,1.945,0,0,0,.922-.223,1.462,1.462,0,0,0,.625-.6V-3.844h-.844q-1.7,0-1.8,1.172l-.008.133a.9.9,0,0,0,.3.7A1.153,1.153,0,0,0,125.18-1.57Zm8.25-8.961v2.078h1.445V-6.8H133.43v4.219a1.007,1.007,0,0,0,.18.672.9.9,0,0,0,.688.2,3.6,3.6,0,0,0,.664-.055V-.047a4.648,4.648,0,0,1-1.367.2,2.156,2.156,0,0,1-2.422-2.4V-6.8h-1.234V-8.453h1.234v-2.078ZM138.516,0H136.25V-8.453h2.266Zm-2.4-10.641a1.112,1.112,0,0,1,.34-.836,1.277,1.277,0,0,1,.926-.328,1.28,1.28,0,0,1,.922.328,1.105,1.105,0,0,1,.344.836,1.109,1.109,0,0,1-.348.844,1.283,1.283,0,0,1-.918.328,1.283,1.283,0,0,1-.918-.328A1.109,1.109,0,0,1,136.117-10.641Zm7.422,7.883,1.57-5.7h2.359L144.617,0h-2.156l-2.852-8.453h2.359ZM153.242,0a2.507,2.507,0,0,1-.227-.758,2.732,2.732,0,0,1-2.133.914,3,3,0,0,1-2.059-.719,2.312,2.312,0,0,1-.816-1.812,2.389,2.389,0,0,1,1-2.062,4.915,4.915,0,0,1,2.879-.727h1.039v-.484a1.393,1.393,0,0,0-.3-.937,1.183,1.183,0,0,0-.949-.352,1.345,1.345,0,0,0-.895.273.929.929,0,0,0-.324.75H148.2a2.268,2.268,0,0,1,.453-1.359,3,3,0,0,1,1.281-.98,4.669,4.669,0,0,1,1.859-.355,3.689,3.689,0,0,1,2.48.785,2.747,2.747,0,0,1,.918,2.207v3.664a4.041,4.041,0,0,0,.336,1.82V0Zm-1.867-1.57a1.945,1.945,0,0,0,.922-.223,1.462,1.462,0,0,0,.625-.6V-3.844h-.844q-1.7,0-1.8,1.172l-.008.133a.9.9,0,0,0,.3.7A1.153,1.153,0,0,0,151.375-1.57Zm5.664.461a1.137,1.137,0,0,1,.363-.875,1.289,1.289,0,0,1,.91-.336,1.3,1.3,0,0,1,.918.336,1.137,1.137,0,0,1,.363.875,1.121,1.121,0,0,1-.359.863,1.305,1.305,0,0,1-.922.332,1.294,1.294,0,0,1-.914-.332A1.121,1.121,0,0,1,157.039-1.109Z" transform="translate(558 9974)" fill="#12263f"/>
    <path id="Trazado_103716" data-name="Trazado 103716" d="M3.508,0H1.164V-11.375H3.508Zm4.1-8.453.07.977a2.951,2.951,0,0,1,2.43-1.133,2.453,2.453,0,0,1,2,.789,3.682,3.682,0,0,1,.672,2.359V0H10.523V-5.419a1.47,1.47,0,0,0-.312-1.045,1.4,1.4,0,0,0-1.039-.325,1.553,1.553,0,0,0-1.43.814V0H5.484V-8.453ZM15.109,0V-6.8H13.852V-8.453h1.258v-.719a2.918,2.918,0,0,1,.816-2.207,3.162,3.162,0,0,1,2.285-.785,5.321,5.321,0,0,1,1.148.155l-.023,1.736a2.878,2.878,0,0,0-.687-.07q-1.273,0-1.273,1.205v.685h1.68V-6.8h-1.68V0Zm4.766-4.3a5.013,5.013,0,0,1,.484-2.242A3.546,3.546,0,0,1,21.754-8.07a4.069,4.069,0,0,1,2.113-.539A3.849,3.849,0,0,1,26.66-7.562a4.2,4.2,0,0,1,1.207,2.844l.016.578A4.418,4.418,0,0,1,26.8-1.02,3.775,3.775,0,0,1,23.883.156a3.793,3.793,0,0,1-2.918-1.172A4.5,4.5,0,0,1,19.875-4.2Zm2.258.16A3.16,3.16,0,0,0,22.586-2.3a1.5,1.5,0,0,0,1.3.638,1.5,1.5,0,0,0,1.281-.63,3.457,3.457,0,0,0,.461-2.015,3.128,3.128,0,0,0-.461-1.831,1.5,1.5,0,0,0-1.3-.649,1.474,1.474,0,0,0-1.281.646A3.516,3.516,0,0,0,22.133-4.144Zm6.813-.145a4.954,4.954,0,0,1,.926-3.133,3,3,0,0,1,2.5-1.187,2.631,2.631,0,0,1,2.164.953l.094-.8h2.047V-.281a3.613,3.613,0,0,1-.5,1.93A3.236,3.236,0,0,1,34.75,2.9a4.985,4.985,0,0,1-2.141.43A4.635,4.635,0,0,1,30.8,2.957,3.217,3.217,0,0,1,29.461,2l1-1.375a2.645,2.645,0,0,0,2.047.945,1.936,1.936,0,0,0,1.4-.48,1.8,1.8,0,0,0,.5-1.363V-.727a2.612,2.612,0,0,1-2.055.883,2.992,2.992,0,0,1-2.465-1.191,4.953,4.953,0,0,1-.941-3.16Zm2.258.161a3.1,3.1,0,0,0,.461,1.809,1.465,1.465,0,0,0,1.266.655,1.567,1.567,0,0,0,1.477-.777V-6.012a1.563,1.563,0,0,0-1.461-.777,1.474,1.474,0,0,0-1.277.667A3.5,3.5,0,0,0,31.2-4.128ZM43.156-6.336a6.134,6.134,0,0,0-.812-.062,1.654,1.654,0,0,0-1.68.867V0H38.406V-8.453h2.133L40.6-7.445a2.092,2.092,0,0,1,1.883-1.164,2.366,2.366,0,0,1,.7.1ZM48.906,0a2.507,2.507,0,0,1-.227-.758,2.732,2.732,0,0,1-2.133.914,3,3,0,0,1-2.059-.719,2.312,2.312,0,0,1-.816-1.812,2.389,2.389,0,0,1,1-2.062,4.915,4.915,0,0,1,2.879-.727h1.039v-.484a1.393,1.393,0,0,0-.3-.937,1.183,1.183,0,0,0-.949-.352,1.345,1.345,0,0,0-.895.273.929.929,0,0,0-.324.75H43.859a2.268,2.268,0,0,1,.453-1.359,3,3,0,0,1,1.281-.98,4.669,4.669,0,0,1,1.859-.355,3.689,3.689,0,0,1,2.48.785,2.747,2.747,0,0,1,.918,2.207v3.664a4.041,4.041,0,0,0,.336,1.82V0ZM47.039-1.57a1.945,1.945,0,0,0,.922-.223,1.462,1.462,0,0,0,.625-.6V-3.844h-.844q-1.7,0-1.8,1.172l-.008.133a.9.9,0,0,0,.3.7A1.153,1.153,0,0,0,47.039-1.57ZM53.2,0V-6.8H51.945V-8.453H53.2v-.719a2.918,2.918,0,0,1,.816-2.207,3.162,3.162,0,0,1,2.285-.785,5.321,5.321,0,0,1,1.148.155l-.023,1.736a2.878,2.878,0,0,0-.687-.07q-1.273,0-1.273,1.205v.685h1.68V-6.8h-1.68V0Zm7.555,0H58.5V-8.453h2.258Zm-.664-11.883h2.461L60.391-9.461H58.555ZM67.6,0a2.507,2.507,0,0,1-.227-.758,2.732,2.732,0,0,1-2.133.914,3,3,0,0,1-2.059-.719,2.312,2.312,0,0,1-.816-1.812,2.389,2.389,0,0,1,1-2.062,4.915,4.915,0,0,1,2.879-.727h1.039v-.484a1.393,1.393,0,0,0-.3-.937,1.183,1.183,0,0,0-.949-.352,1.345,1.345,0,0,0-.895.273.929.929,0,0,0-.324.75H62.555a2.268,2.268,0,0,1,.453-1.359,3,3,0,0,1,1.281-.98,4.669,4.669,0,0,1,1.859-.355,3.689,3.689,0,0,1,2.48.785,2.747,2.747,0,0,1,.918,2.207v3.664a4.041,4.041,0,0,0,.336,1.82V0ZM65.734-1.57a1.945,1.945,0,0,0,.922-.223,1.462,1.462,0,0,0,.625-.6V-3.844h-.844q-1.7,0-1.8,1.172l-.008.133a.9.9,0,0,0,.3.7A1.153,1.153,0,0,0,65.734-1.57ZM77.648,0H75.383V-8.453h2.266Zm-2.4-10.641a1.112,1.112,0,0,1,.34-.836,1.277,1.277,0,0,1,.926-.328,1.28,1.28,0,0,1,.922.328,1.105,1.105,0,0,1,.344.836,1.108,1.108,0,0,1-.348.844,1.283,1.283,0,0,1-.918.328A1.283,1.283,0,0,1,75.6-9.8,1.108,1.108,0,0,1,75.25-10.641Zm6.336,2.188.07.977a2.951,2.951,0,0,1,2.43-1.133,2.453,2.453,0,0,1,2,.789,3.682,3.682,0,0,1,.672,2.359V0H84.5V-5.419a1.47,1.47,0,0,0-.312-1.045,1.4,1.4,0,0,0-1.039-.325,1.553,1.553,0,0,0-1.43.814V0H79.461V-8.453ZM89.086,0V-6.8H87.828V-8.453h1.258v-.719a2.918,2.918,0,0,1,.816-2.207,3.162,3.162,0,0,1,2.285-.785,5.321,5.321,0,0,1,1.148.155l-.023,1.736a2.878,2.878,0,0,0-.687-.07q-1.273,0-1.273,1.205v.685h1.68V-6.8h-1.68V0Zm4.766-4.3a5.013,5.013,0,0,1,.484-2.242A3.546,3.546,0,0,1,95.73-8.07a4.069,4.069,0,0,1,2.113-.539,3.849,3.849,0,0,1,2.793,1.047,4.2,4.2,0,0,1,1.207,2.844l.016.578a4.418,4.418,0,0,1-1.086,3.121A3.775,3.775,0,0,1,97.859.156a3.793,3.793,0,0,1-2.918-1.172A4.5,4.5,0,0,1,93.852-4.2Zm2.258.16A3.16,3.16,0,0,0,96.563-2.3a1.5,1.5,0,0,0,1.3.638,1.5,1.5,0,0,0,1.281-.63A3.457,3.457,0,0,0,99.6-4.309a3.128,3.128,0,0,0-.461-1.831,1.5,1.5,0,0,0-1.3-.649,1.474,1.474,0,0,0-1.281.646A3.516,3.516,0,0,0,96.109-4.144ZM108-6.336a6.134,6.134,0,0,0-.812-.062,1.654,1.654,0,0,0-1.68.867V0H103.25V-8.453h2.133l.063,1.008a2.092,2.092,0,0,1,1.883-1.164,2.366,2.366,0,0,1,.7.1Zm3.2-2.117.07.945a2.971,2.971,0,0,1,2.43-1.1,2.255,2.255,0,0,1,2.242,1.289,2.9,2.9,0,0,1,2.539-1.289,2.521,2.521,0,0,1,2.047.8A3.681,3.681,0,0,1,121.2-5.4V0h-2.266V-5.4a1.616,1.616,0,0,0-.281-1.053,1.245,1.245,0,0,0-.992-.333,1.409,1.409,0,0,0-1.406.971L116.266,0h-2.258V-5.4a1.6,1.6,0,0,0-.289-1.065,1.257,1.257,0,0,0-.984-.329,1.463,1.463,0,0,0-1.391.8V0h-2.258V-8.453ZM127.836,0a2.507,2.507,0,0,1-.227-.758,2.732,2.732,0,0,1-2.133.914,3,3,0,0,1-2.059-.719,2.312,2.312,0,0,1-.816-1.812,2.389,2.389,0,0,1,1-2.062,4.915,4.915,0,0,1,2.879-.727h1.039v-.484a1.393,1.393,0,0,0-.3-.937,1.183,1.183,0,0,0-.949-.352,1.345,1.345,0,0,0-.895.273.929.929,0,0,0-.324.75h-2.258a2.268,2.268,0,0,1,.453-1.359,3,3,0,0,1,1.281-.98,4.669,4.669,0,0,1,1.859-.355,3.689,3.689,0,0,1,2.48.785,2.747,2.747,0,0,1,.918,2.207v3.664a4.041,4.041,0,0,0,.336,1.82V0Zm-1.867-1.57a1.945,1.945,0,0,0,.922-.223,1.462,1.462,0,0,0,.625-.6V-3.844h-.844q-1.7,0-1.8,1.172l-.008.133a.9.9,0,0,0,.3.7A1.153,1.153,0,0,0,125.969-1.57ZM126.828-12h2.461l-2.164,2.422h-1.836Zm7.391,1.469v2.078h1.445V-6.8h-1.445v4.219a1.007,1.007,0,0,0,.18.672.9.9,0,0,0,.688.2,3.6,3.6,0,0,0,.664-.055V-.047a4.648,4.648,0,0,1-1.367.2,2.156,2.156,0,0,1-2.422-2.4V-6.8h-1.234V-8.453h1.234v-2.078ZM139.3,0h-2.266V-8.453H139.3Zm-2.4-10.641a1.112,1.112,0,0,1,.34-.836,1.277,1.277,0,0,1,.926-.328,1.28,1.28,0,0,1,.922.328,1.105,1.105,0,0,1,.344.836,1.109,1.109,0,0,1-.348.844,1.283,1.283,0,0,1-.918.328,1.283,1.283,0,0,1-.918-.328A1.109,1.109,0,0,1,136.906-10.641Zm7.773,8.977a1.481,1.481,0,0,0,1.016-.344,1.2,1.2,0,0,0,.406-.914h2.117a2.9,2.9,0,0,1-.469,1.574,3.093,3.093,0,0,1-1.262,1.109,3.949,3.949,0,0,1-1.77.395A3.67,3.67,0,0,1,141.859-1a4.56,4.56,0,0,1-1.047-3.184v-.148a4.508,4.508,0,0,1,1.039-3.117A3.627,3.627,0,0,1,144.7-8.609a3.555,3.555,0,0,1,2.543.9,3.2,3.2,0,0,1,.973,2.4H146.1a1.551,1.551,0,0,0-.406-1.072,1.355,1.355,0,0,0-1.031-.412,1.36,1.36,0,0,0-1.191.575,3.333,3.333,0,0,0-.4,1.866v.235a3.375,3.375,0,0,0,.4,1.878A1.377,1.377,0,0,0,144.68-1.664ZM154.406,0a2.507,2.507,0,0,1-.227-.758,2.732,2.732,0,0,1-2.133.914,3,3,0,0,1-2.059-.719,2.312,2.312,0,0,1-.816-1.812,2.389,2.389,0,0,1,1-2.062,4.915,4.915,0,0,1,2.879-.727h1.039v-.484a1.393,1.393,0,0,0-.3-.937,1.183,1.183,0,0,0-.949-.352,1.345,1.345,0,0,0-.895.273.929.929,0,0,0-.324.75h-2.258a2.268,2.268,0,0,1,.453-1.359,3,3,0,0,1,1.281-.98,4.669,4.669,0,0,1,1.859-.355,3.689,3.689,0,0,1,2.48.785,2.747,2.747,0,0,1,.918,2.207v3.664a4.041,4.041,0,0,0,.336,1.82V0Zm-1.867-1.57a1.945,1.945,0,0,0,.922-.223,1.462,1.462,0,0,0,.625-.6V-3.844h-.844q-1.7,0-1.8,1.172l-.008.133a.9.9,0,0,0,.3.7A1.153,1.153,0,0,0,152.539-1.57Zm5.664.461a1.137,1.137,0,0,1,.363-.875,1.289,1.289,0,0,1,.91-.336,1.3,1.3,0,0,1,.918.336,1.137,1.137,0,0,1,.363.875,1.121,1.121,0,0,1-.359.863,1.305,1.305,0,0,1-.922.332,1.294,1.294,0,0,1-.914-.332A1.121,1.121,0,0,1,158.2-1.109Z" transform="translate(766 9974)" fill="#12263f"/>
    <path id="Trazado_103714" data-name="Trazado 103714" d="M3.508,0H1.164V-11.375H3.508Zm4.1-8.453.07.977a2.951,2.951,0,0,1,2.43-1.133,2.453,2.453,0,0,1,2,.789,3.682,3.682,0,0,1,.672,2.359V0H10.523V-5.419a1.47,1.47,0,0,0-.312-1.045,1.4,1.4,0,0,0-1.039-.325,1.553,1.553,0,0,0-1.43.814V0H5.484V-8.453ZM15.109,0V-6.8H13.852V-8.453h1.258v-.719a2.918,2.918,0,0,1,.816-2.207,3.162,3.162,0,0,1,2.285-.785,5.321,5.321,0,0,1,1.148.155l-.023,1.736a2.878,2.878,0,0,0-.687-.07q-1.273,0-1.273,1.205v.685h1.68V-6.8h-1.68V0Zm4.766-4.3a5.013,5.013,0,0,1,.484-2.242A3.546,3.546,0,0,1,21.754-8.07a4.069,4.069,0,0,1,2.113-.539A3.849,3.849,0,0,1,26.66-7.562a4.2,4.2,0,0,1,1.207,2.844l.016.578A4.418,4.418,0,0,1,26.8-1.02,3.775,3.775,0,0,1,23.883.156a3.793,3.793,0,0,1-2.918-1.172A4.5,4.5,0,0,1,19.875-4.2Zm2.258.16A3.16,3.16,0,0,0,22.586-2.3a1.5,1.5,0,0,0,1.3.638,1.5,1.5,0,0,0,1.281-.63,3.457,3.457,0,0,0,.461-2.015,3.128,3.128,0,0,0-.461-1.831,1.5,1.5,0,0,0-1.3-.649,1.474,1.474,0,0,0-1.281.646A3.516,3.516,0,0,0,22.133-4.144Zm6.813-.145a4.954,4.954,0,0,1,.926-3.133,3,3,0,0,1,2.5-1.187,2.631,2.631,0,0,1,2.164.953l.094-.8h2.047V-.281a3.613,3.613,0,0,1-.5,1.93A3.236,3.236,0,0,1,34.75,2.9a4.985,4.985,0,0,1-2.141.43A4.635,4.635,0,0,1,30.8,2.957,3.217,3.217,0,0,1,29.461,2l1-1.375a2.645,2.645,0,0,0,2.047.945,1.936,1.936,0,0,0,1.4-.48,1.8,1.8,0,0,0,.5-1.363V-.727a2.612,2.612,0,0,1-2.055.883,2.992,2.992,0,0,1-2.465-1.191,4.953,4.953,0,0,1-.941-3.16Zm2.258.161a3.1,3.1,0,0,0,.461,1.809,1.465,1.465,0,0,0,1.266.655,1.567,1.567,0,0,0,1.477-.777V-6.012a1.563,1.563,0,0,0-1.461-.777,1.474,1.474,0,0,0-1.277.667A3.5,3.5,0,0,0,31.2-4.128ZM43.156-6.336a6.134,6.134,0,0,0-.812-.062,1.654,1.654,0,0,0-1.68.867V0H38.406V-8.453h2.133L40.6-7.445a2.092,2.092,0,0,1,1.883-1.164,2.366,2.366,0,0,1,.7.1ZM48.906,0a2.507,2.507,0,0,1-.227-.758,2.732,2.732,0,0,1-2.133.914,3,3,0,0,1-2.059-.719,2.312,2.312,0,0,1-.816-1.812,2.389,2.389,0,0,1,1-2.062,4.915,4.915,0,0,1,2.879-.727h1.039v-.484a1.393,1.393,0,0,0-.3-.937,1.183,1.183,0,0,0-.949-.352,1.345,1.345,0,0,0-.895.273.929.929,0,0,0-.324.75H43.859a2.268,2.268,0,0,1,.453-1.359,3,3,0,0,1,1.281-.98,4.669,4.669,0,0,1,1.859-.355,3.689,3.689,0,0,1,2.48.785,2.747,2.747,0,0,1,.918,2.207v3.664a4.041,4.041,0,0,0,.336,1.82V0ZM47.039-1.57a1.945,1.945,0,0,0,.922-.223,1.462,1.462,0,0,0,.625-.6V-3.844h-.844q-1.7,0-1.8,1.172l-.008.133a.9.9,0,0,0,.3.7A1.153,1.153,0,0,0,47.039-1.57ZM53.2,0V-6.8H51.945V-8.453H53.2v-.719a2.918,2.918,0,0,1,.816-2.207,3.162,3.162,0,0,1,2.285-.785,5.321,5.321,0,0,1,1.148.155l-.023,1.736a2.878,2.878,0,0,0-.687-.07q-1.273,0-1.273,1.205v.685h1.68V-6.8h-1.68V0Zm7.555,0H58.5V-8.453h2.258Zm-.664-11.883h2.461L60.391-9.461H58.555ZM67.6,0a2.507,2.507,0,0,1-.227-.758,2.732,2.732,0,0,1-2.133.914,3,3,0,0,1-2.059-.719,2.312,2.312,0,0,1-.816-1.812,2.389,2.389,0,0,1,1-2.062,4.915,4.915,0,0,1,2.879-.727h1.039v-.484a1.393,1.393,0,0,0-.3-.937,1.183,1.183,0,0,0-.949-.352,1.345,1.345,0,0,0-.895.273.929.929,0,0,0-.324.75H62.555a2.268,2.268,0,0,1,.453-1.359,3,3,0,0,1,1.281-.98,4.669,4.669,0,0,1,1.859-.355,3.689,3.689,0,0,1,2.48.785,2.747,2.747,0,0,1,.918,2.207v3.664a4.041,4.041,0,0,0,.336,1.82V0ZM65.734-1.57a1.945,1.945,0,0,0,.922-.223,1.462,1.462,0,0,0,.625-.6V-3.844h-.844q-1.7,0-1.8,1.172l-.008.133a.9.9,0,0,0,.3.7A1.153,1.153,0,0,0,65.734-1.57Zm9.18-2.719A5.094,5.094,0,0,1,75.8-7.437a2.877,2.877,0,0,1,2.426-1.172,2.589,2.589,0,0,1,2.039.922V-12h2.266V0H80.492l-.109-.9A2.657,2.657,0,0,1,78.211.156,2.869,2.869,0,0,1,75.816-1.02,5.258,5.258,0,0,1,74.914-4.289Zm2.258.161A3.355,3.355,0,0,0,77.586-2.3a1.348,1.348,0,0,0,1.2.636,1.51,1.51,0,0,0,1.477-.887V-5.9A1.489,1.489,0,0,0,78.8-6.789Q77.172-6.789,77.172-4.128ZM86.664,0H84.4V-8.453h2.266Zm-2.4-10.641a1.112,1.112,0,0,1,.34-.836,1.277,1.277,0,0,1,.926-.328,1.28,1.28,0,0,1,.922.328,1.105,1.105,0,0,1,.344.836,1.108,1.108,0,0,1-.348.844,1.283,1.283,0,0,1-.918.328,1.283,1.283,0,0,1-.918-.328A1.108,1.108,0,0,1,84.266-10.641Zm3.906,6.352a5.094,5.094,0,0,1,.887-3.148,2.877,2.877,0,0,1,2.426-1.172,2.589,2.589,0,0,1,2.039.922V-12h2.266V0H93.75l-.109-.9A2.657,2.657,0,0,1,91.469.156,2.869,2.869,0,0,1,89.074-1.02,5.258,5.258,0,0,1,88.172-4.289Zm2.258.161A3.355,3.355,0,0,0,90.844-2.3a1.348,1.348,0,0,0,1.2.636,1.51,1.51,0,0,0,1.477-.887V-5.9a1.489,1.489,0,0,0-1.461-.887Q90.43-6.789,90.43-4.128ZM102.438,0a2.507,2.507,0,0,1-.227-.758,2.732,2.732,0,0,1-2.133.914A3,3,0,0,1,98.02-.562,2.312,2.312,0,0,1,97.2-2.375a2.389,2.389,0,0,1,1-2.062,4.915,4.915,0,0,1,2.879-.727h1.039v-.484a1.393,1.393,0,0,0-.3-.937,1.183,1.183,0,0,0-.949-.352,1.345,1.345,0,0,0-.895.273.929.929,0,0,0-.324.75H97.391a2.268,2.268,0,0,1,.453-1.359,3,3,0,0,1,1.281-.98,4.669,4.669,0,0,1,1.859-.355,3.689,3.689,0,0,1,2.48.785,2.747,2.747,0,0,1,.918,2.207v3.664a4.041,4.041,0,0,0,.336,1.82V0ZM100.57-1.57a1.945,1.945,0,0,0,.922-.223,1.462,1.462,0,0,0,.625-.6V-3.844h-.844q-1.7,0-1.8,1.172l-.008.133a.9.9,0,0,0,.3.7A1.153,1.153,0,0,0,100.57-1.57ZM101.43-12h2.461l-2.164,2.422H99.891Zm8.2,10.336a1.481,1.481,0,0,0,1.016-.344,1.2,1.2,0,0,0,.406-.914h2.117a2.9,2.9,0,0,1-.469,1.574,3.093,3.093,0,0,1-1.262,1.109,3.949,3.949,0,0,1-1.77.395A3.67,3.67,0,0,1,106.813-1a4.56,4.56,0,0,1-1.047-3.184v-.148A4.508,4.508,0,0,1,106.8-7.445a3.627,3.627,0,0,1,2.852-1.164,3.555,3.555,0,0,1,2.543.9,3.2,3.2,0,0,1,.973,2.4h-2.117a1.551,1.551,0,0,0-.406-1.072,1.354,1.354,0,0,0-1.031-.412,1.36,1.36,0,0,0-1.191.575,3.333,3.333,0,0,0-.4,1.866v.235a3.375,3.375,0,0,0,.4,1.878A1.377,1.377,0,0,0,109.633-1.664Zm7.531-8.867v2.078h1.445V-6.8h-1.445v4.219a1.007,1.007,0,0,0,.18.672.9.9,0,0,0,.688.2,3.6,3.6,0,0,0,.664-.055V-.047a4.648,4.648,0,0,1-1.367.2,2.156,2.156,0,0,1-2.422-2.4V-6.8h-1.234V-8.453h1.234v-2.078ZM122.25,0h-2.266V-8.453h2.266Zm-2.4-10.641a1.112,1.112,0,0,1,.34-.836,1.277,1.277,0,0,1,.926-.328,1.28,1.28,0,0,1,.922.328,1.105,1.105,0,0,1,.344.836,1.108,1.108,0,0,1-.348.844,1.283,1.283,0,0,1-.918.328A1.283,1.283,0,0,1,120.2-9.8,1.108,1.108,0,0,1,119.852-10.641Zm7.773,8.977a1.481,1.481,0,0,0,1.016-.344,1.2,1.2,0,0,0,.406-.914h2.117a2.9,2.9,0,0,1-.469,1.574,3.093,3.093,0,0,1-1.262,1.109,3.949,3.949,0,0,1-1.77.395A3.67,3.67,0,0,1,124.8-1a4.56,4.56,0,0,1-1.047-3.184v-.148A4.508,4.508,0,0,1,124.8-7.445a3.627,3.627,0,0,1,2.852-1.164,3.555,3.555,0,0,1,2.543.9,3.2,3.2,0,0,1,.973,2.4h-2.117a1.551,1.551,0,0,0-.406-1.072,1.355,1.355,0,0,0-1.031-.412,1.36,1.36,0,0,0-1.191.575,3.333,3.333,0,0,0-.4,1.866v.235a3.375,3.375,0,0,0,.4,1.878A1.377,1.377,0,0,0,127.625-1.664ZM137.352,0a2.507,2.507,0,0,1-.227-.758,2.732,2.732,0,0,1-2.133.914,3,3,0,0,1-2.059-.719,2.312,2.312,0,0,1-.816-1.812,2.389,2.389,0,0,1,1-2.062,4.915,4.915,0,0,1,2.879-.727h1.039v-.484a1.393,1.393,0,0,0-.3-.937,1.183,1.183,0,0,0-.949-.352,1.345,1.345,0,0,0-.895.273.929.929,0,0,0-.324.75H132.3a2.268,2.268,0,0,1,.453-1.359,3,3,0,0,1,1.281-.98,4.669,4.669,0,0,1,1.859-.355,3.689,3.689,0,0,1,2.48.785,2.747,2.747,0,0,1,.918,2.207v3.664a4.041,4.041,0,0,0,.336,1.82V0Zm-1.867-1.57a1.945,1.945,0,0,0,.922-.223,1.462,1.462,0,0,0,.625-.6V-3.844h-.844q-1.7,0-1.8,1.172l-.008.133a.9.9,0,0,0,.3.7A1.153,1.153,0,0,0,135.484-1.57Zm5.664.461a1.137,1.137,0,0,1,.363-.875,1.289,1.289,0,0,1,.91-.336,1.3,1.3,0,0,1,.918.336,1.137,1.137,0,0,1,.363.875,1.121,1.121,0,0,1-.359.863,1.305,1.305,0,0,1-.922.332,1.294,1.294,0,0,1-.914-.332A1.121,1.121,0,0,1,141.148-1.109Z" transform="translate(974 9974)" fill="#12263f"/>
    <path id="Trazado_103717" data-name="Trazado 103717" d="M0,0H188V61H0Z" transform="translate(541 9887)" fill="#26c6da" opacity="0.5"/>
    <path id="Trazado_103721" data-name="Trazado 103721" d="M0,0H188V61H0Z" transform="translate(333 9887)" fill="#26c6da" opacity="0.5"/>
    <path id="Trazado_103718" data-name="Trazado 103718" d="M0,0H188V61H0Z" transform="translate(749 9887)" fill="#26c6da" opacity="0.5"/>
    <path id="Trazado_103719" data-name="Trazado 103719" d="M0,0H188V61H0Z" transform="translate(957 9887)" fill="#26c6da" opacity="0.5"/>
    <g id="infografia" transform="translate(574 9810)">
      <path id="Trazado_101008" data-name="Trazado 101008" d="M2,2H120V13.8H2Z" fill="#50b6cf"/>
      <path id="Trazado_101009" data-name="Trazado 101009" d="M5,8H111.2V96.5H5Z" transform="translate(2.9 5.8)" fill="#ded8d0"/>
      <path id="Trazado_101010" data-name="Trazado 101010" d="M111.2,25C89.48,47,55.357,63.223,5,67.866v12.2H111.2Z" transform="translate(2.9 22.233)" fill="#c9c4bd"/>
      <path id="Trazado_101011" data-name="Trazado 101011" d="M2,53H120v7.867H2Z" transform="translate(0 49.3)" fill="#50b6cf"/>
      <path id="Trazado_101012" data-name="Trazado 101012" d="M39.373,57.428H17V53.494H37.894L54.272,39.165,70,50.965,84.538,38.247l2.591,2.962L70.2,56.024l-15.733-11.8Z" transform="translate(14.5 35.039)" fill="#223b5a"/>
      <ellipse id="Elipse_4000" data-name="Elipse 4000" cx="4" cy="3.5" rx="4" ry="3.5" transform="translate(49 87)" fill="#e34e4b"/>
      <circle id="Elipse_4001" data-name="Elipse 4001" cx="4" cy="4" r="4" transform="translate(65 73)" fill="#e34e4b"/>
      <ellipse id="Elipse_4002" data-name="Elipse 4002" cx="4" cy="3.5" rx="4" ry="3.5" transform="translate(81 85)" fill="#e34e4b"/>
      <circle id="Elipse_4003" data-name="Elipse 4003" cx="4" cy="4" r="4" transform="translate(96 71)" fill="#e34e4b"/>
      <ellipse id="Elipse_4004" data-name="Elipse 4004" cx="11.5" cy="12" rx="11.5" ry="12" transform="translate(26 31)" fill="#f5a947"/>
      <path id="Trazado_101013" data-name="Trazado 101013" d="M28.344,20.456A11.764,11.764,0,0,0,20,17V28.8Z" transform="translate(17.4 14.5)" fill="#50b6cf"/>
      <path id="Trazado_101014" data-name="Trazado 101014" d="M35,25h7.867V36.8H35Z" transform="translate(31.9 22.233)" fill="#f5a947"/>
      <path id="Trazado_101015" data-name="Trazado 101015" d="M39,19h7.867V42.6H39Z" transform="translate(35.767 16.433)" fill="#f09d3a"/>
      <path id="Trazado_101016" data-name="Trazado 101016" d="M43,22h7.867V39.7H43Z" transform="translate(39.633 19.333)" fill="#f5a947"/>
      <path id="Trazado_101017" data-name="Trazado 101017" d="M47,14h7.867V47.433H47Z" transform="translate(43.5 11.6)" fill="#f09d3a"/>
      <g id="Grupo_53768" data-name="Grupo 53768" transform="translate(15.767 21.667)">
        <path id="Trazado_101018" data-name="Trazado 101018" d="M40.767,66.833H32.9a5.906,5.906,0,0,1-5.9-5.9V57h3.933v3.933A1.969,1.969,0,0,0,32.9,62.9h7.867a1.969,1.969,0,0,0,1.967-1.967V57h3.933v3.933A5.906,5.906,0,0,1,40.767,66.833Z" transform="translate(8.4 31.5)" fill="#223b5a"/>
        <path id="Trazado_101019" data-name="Trazado 101019" d="M30.633,55.267A21.658,21.658,0,0,1,9,33.633h3.933a17.7,17.7,0,1,0,17.7-17.7V12a21.633,21.633,0,0,1,0,43.267Z" transform="translate(-9 -12)" fill="#223b5a"/>
        <path id="Trazado_101020" data-name="Trazado 101020" d="M32,30H75.267v3.933H32Z" transform="translate(13.233 5.4)" fill="#223b5a"/>
        <path id="Trazado_101021" data-name="Trazado 101021" d="M13,46h3.933v3.933H13Z" transform="translate(-5.133 20.867)" fill="#223b5a"/>
        <path id="Trazado_101022" data-name="Trazado 101022" d="M9,46h3.933v3.933H9Z" transform="translate(-9 20.867)" fill="#223b5a"/>
      </g>
    </g>
    <g id="pasos" transform="translate(783.003 9812)">
      <path id="Trazado_101023" data-name="Trazado 101023" d="M188.249,10.23H111.067a17.345,17.345,0,0,1,0,29.982h77.182a14.991,14.991,0,1,0,0-29.982Z" transform="translate(-84.702 -7.872)" fill="#fee55a"/>
      <path id="Trazado_101024" data-name="Trazado 101024" d="M134,25.221a17.337,17.337,0,0,0-8.62-14.991H111.067a17.345,17.345,0,0,1,0,29.982h14.308A17.337,17.337,0,0,0,134,25.221Z" transform="translate(-84.702 -7.872)" fill="#ffd301"/>
      <path id="Trazado_101025" data-name="Trazado 101025" d="M15.989,190.955H93.171a17.345,17.345,0,0,0,0,29.982H15.989a14.991,14.991,0,0,1,0-29.982Z" transform="translate(-0.001 -146.946)" fill="#ff9838"/>
      <path id="Trazado_101026" data-name="Trazado 101026" d="M15.306,205.945A14.991,14.991,0,0,1,30.3,190.954H15.989a14.991,14.991,0,0,0,0,29.982H30.3a14.99,14.99,0,0,1-14.991-14.991Z" transform="translate(-0.001 -146.945)" fill="#ff8706"/>
      <path id="Trazado_101027" data-name="Trazado 101027" d="M188.248,371.679H111.066a17.345,17.345,0,0,1,0,29.982h77.182a14.991,14.991,0,0,0,0-29.982Z" transform="translate(-84.702 -286.019)" fill="#ff656f"/>
      <path id="Trazado_101028" data-name="Trazado 101028" d="M134,386.671a17.337,17.337,0,0,0-8.62-14.991H111.067a17.345,17.345,0,0,1,0,29.982h14.308A17.337,17.337,0,0,0,134,386.671Z" transform="translate(-84.702 -286.019)" fill="#ff4756"/>
      <g id="Grupo_53769" data-name="Grupo 53769" transform="translate(0.997 0)">
        <circle id="Elipse_4005" data-name="Elipse 4005" cx="17.349" cy="17.349" r="17.349" transform="translate(0 0)" fill="#dfebfa"/>
        <circle id="Elipse_4006" data-name="Elipse 4006" cx="17.349" cy="17.349" r="17.349" transform="translate(82.843 41.651)" fill="#dfebfa"/>
        <circle id="Elipse_4007" data-name="Elipse 4007" cx="17.349" cy="17.349" r="17.349" transform="translate(0 83.302)" fill="#dfebfa"/>
      </g>
      <path id="Trazado_101029" data-name="Trazado 101029" d="M10.143,17.349A17.353,17.353,0,0,1,22.919.614a17.349,17.349,0,1,0,0,33.471A17.353,17.353,0,0,1,10.143,17.349Z" transform="translate(-0.001 0)" fill="#b1dbfc"/>
      <path id="Trazado_101030" data-name="Trazado 101030" d="M369.6,198.074a17.353,17.353,0,0,1,12.776-16.735,17.349,17.349,0,1,0,0,33.471A17.354,17.354,0,0,1,369.6,198.074Z" transform="translate(-276.611 -139.074)" fill="#b1dbfc"/>
      <path id="Trazado_101031" data-name="Trazado 101031" d="M10.142,378.8a17.353,17.353,0,0,1,12.776-16.735,17.349,17.349,0,1,0,0,33.471A17.353,17.353,0,0,1,10.142,378.8Z" transform="translate(0 -278.146)" fill="#b1dbfc"/>
      <g id="Grupo_53770" data-name="Grupo 53770" transform="translate(43.84 92.006)">
        <path id="Trazado_101032" data-name="Trazado 101032" d="M210.3,402.761H188.666a1.774,1.774,0,0,1,0-3.547H210.3a1.774,1.774,0,1,1,0,3.547Z" transform="translate(-186.892 -399.214)" fill="#fc2d39"/>
      </g>
      <g id="Grupo_53771" data-name="Grupo 53771" transform="translate(43.84 98.969)">
        <path id="Trazado_101033" data-name="Trazado 101033" d="M235.512,432.971H188.666a1.774,1.774,0,0,1,0-3.547h46.847a1.774,1.774,0,1,1,0,3.547Z" transform="translate(-186.892 -429.424)" fill="#fc2d39"/>
      </g>
      <g id="Grupo_53772" data-name="Grupo 53772" transform="translate(43.84 105.931)">
        <path id="Trazado_101034" data-name="Trazado 101034" d="M235.512,463.181H188.666a1.774,1.774,0,1,1,0-3.547h46.847a1.774,1.774,0,1,1,0,3.547Z" transform="translate(-186.892 -459.634)" fill="#fc2d39"/>
      </g>
      <g id="Grupo_53773" data-name="Grupo 53773" transform="translate(43.84 8.522)">
        <path id="Trazado_101035" data-name="Trazado 101035" d="M210.3,40.522H188.666a1.774,1.774,0,0,1,0-3.547H210.3a1.774,1.774,0,1,1,0,3.547Z" transform="translate(-186.892 -36.975)" fill="#ffc20c"/>
      </g>
      <g id="Grupo_53774" data-name="Grupo 53774" transform="translate(43.84 15.484)">
        <path id="Trazado_101036" data-name="Trazado 101036" d="M235.512,70.732H188.666a1.774,1.774,0,0,1,0-3.547h46.847a1.774,1.774,0,1,1,0,3.547Z" transform="translate(-186.892 -67.185)" fill="#ffc20c"/>
      </g>
      <g id="Grupo_53775" data-name="Grupo 53775" transform="translate(43.84 22.446)">
        <path id="Trazado_101037" data-name="Trazado 101037" d="M235.512,100.941H188.666a1.774,1.774,0,0,1,0-3.547h46.847a1.774,1.774,0,1,1,0,3.547Z" transform="translate(-186.892 -97.394)" fill="#ffc20c"/>
      </g>
      <g id="Grupo_53776" data-name="Grupo 53776" transform="translate(21.532 50.264)">
        <path id="Trazado_101038" data-name="Trazado 101038" d="M113.5,221.642H91.871a1.774,1.774,0,1,1,0-3.547H113.5a1.774,1.774,0,0,1,0,3.547Z" transform="translate(-90.097 -218.095)" fill="#f70"/>
      </g>
      <g id="Grupo_53777" data-name="Grupo 53777" transform="translate(21.532 57.226)">
        <path id="Trazado_101039" data-name="Trazado 101039" d="M138.717,251.851H91.871a1.774,1.774,0,0,1,0-3.547h46.847a1.774,1.774,0,1,1,0,3.547Z" transform="translate(-90.097 -248.304)" fill="#f70"/>
      </g>
      <g id="Grupo_53778" data-name="Grupo 53778" transform="translate(21.532 64.189)">
        <path id="Trazado_101040" data-name="Trazado 101040" d="M138.717,282.061H91.871a1.774,1.774,0,0,1,0-3.547h46.847a1.774,1.774,0,1,1,0,3.547Z" transform="translate(-90.097 -278.514)" fill="#f70"/>
      </g>
      <g id="Grupo_53779" data-name="Grupo 53779" transform="translate(14.483 8.762)">
        <path id="Trazado_101041" data-name="Trazado 101041" d="M63.569,55.191A1.774,1.774,0,0,1,61.8,53.417V42.6a1.774,1.774,0,0,1-1.282-3.3L62.8,38.2a1.774,1.774,0,0,1,2.546,1.6V53.417a1.775,1.775,0,0,1-1.774,1.774Z" transform="translate(-59.512 -38.018)" fill="#ffd301"/>
      </g>
      <g id="Grupo_53780" data-name="Grupo 53780" transform="translate(95.254 50.354)">
        <path id="Trazado_101042" data-name="Trazado 101042" d="M420.072,235.775h-8.321a1.774,1.774,0,0,1-1.289-2.993l6.427-6.8a2.8,2.8,0,0,0,.785-2.062,2.126,2.126,0,0,0-.823-1.512,1.869,1.869,0,0,0-1.578-.333,2.953,2.953,0,0,0-1.959,1.468,1.774,1.774,0,1,1-3.128-1.674,6.5,6.5,0,0,1,4.376-3.27,5.361,5.361,0,0,1,4.507,1.04,5.67,5.67,0,0,1,2.141,3.993,6.305,6.305,0,0,1-1.7,4.738l-.03.032-3.613,3.82h4.2a1.774,1.774,0,0,1,0,3.547Z" transform="translate(-409.977 -218.484)" fill="#ff9838"/>
      </g>
      <path id="Trazado_101043" data-name="Trazado 101043" d="M69.4,404.423a5.215,5.215,0,0,0-5.21-5.209H60.646a1.774,1.774,0,0,0,0,3.547h3.549a1.662,1.662,0,1,1,0,3.324H60.646a1.774,1.774,0,1,0,0,3.547h3.549a1.662,1.662,0,1,1,0,3.324H60.646a1.774,1.774,0,0,0,0,3.547h3.549a5.207,5.207,0,0,0,3.913-8.645,5.188,5.188,0,0,0,1.3-3.436Z" transform="translate(-44.537 -307.208)" fill="#ff656f"/>
    </g>
    <g id="infografia_1_" data-name="infografia (1)" transform="translate(367.5 9812)">
      <g id="Circle_Grid" data-name="Circle Grid" transform="translate(0.5)">
        <ellipse id="Elipse_4008" data-name="Elipse 4008" cx="58.5" cy="59" rx="58.5" ry="59" fill="#2cbfae"/>
      </g>
      <g id="icon" transform="translate(21.535 21.667)">
        <path id="Trazado_101044" data-name="Trazado 101044" d="M0,0H3.52V32.367H0Z" transform="translate(38.555 36.483) rotate(-61.691)" fill="#575b6d"/>
        <path id="Trazado_101045" data-name="Trazado 101045" d="M51.644,94.085,29.52,67.5l-2.4.466,17.513-36.9,44.039,2.313,4.949,42.22ZM33.463,66.73,52.654,89.8,89.822,73.422,85.775,38.89,64.1,60.777ZM46.805,34.7,33.29,63.178l29.074-5.65L83.088,36.6Z" transform="translate(-23.798 -24.222)" fill="#575b6d"/>
        <path id="Trazado_101046" data-name="Trazado 101046" d="M74.475,60.875A8.794,8.794,0,1,1,65.682,52.1,8.794,8.794,0,0,1,74.475,60.875Z" transform="translate(-26.247 -25.953)" fill="#ef5261"/>
        <path id="Trazado_101047" data-name="Trazado 101047" d="M55.271,32.268a8.652,8.652,0,1,1-2.534-6.124,8.659,8.659,0,0,1,2.534,6.124Z" transform="translate(-24.689 -23.609)" fill="#eeefee"/>
        <circle id="Elipse_4009" data-name="Elipse 4009" cx="6.486" cy="6.486" r="6.486" transform="translate(56.817 4.346)" fill="#eeefee"/>
        <g id="Grupo_53781" data-name="Grupo 53781" transform="translate(0 34.933)">
          <path id="Trazado_101048" data-name="Trazado 101048" d="M103.351,77.837a6.411,6.411,0,1,1-1.872-4.541A6.408,6.408,0,0,1,103.351,77.837Z" transform="translate(-29.015 -62.475)" fill="#f6c863"/>
          <path id="Trazado_101049" data-name="Trazado 101049" d="M60.227,96.832a6.411,6.411,0,1,1-1.872-4.541A6.408,6.408,0,0,1,60.227,96.832Z" transform="translate(-25.467 -64.038)" fill="#f6c863"/>
          <path id="Trazado_101050" data-name="Trazado 101050" d="M36.317,68.1a6.411,6.411,0,1,1-1.872-4.541A6.408,6.408,0,0,1,36.317,68.1Z" transform="translate(-23.5 -61.674)" fill="#f6c863"/>
        </g>
      </g>
    </g>
    <g id="elementos" transform="translate(992 9810.872)">
      <g id="Grupo_53783" data-name="Grupo 53783" transform="translate(0 1.128)">
        <path id="Trazado_101051" data-name="Trazado 101051" d="M398.026,176.471H368.283a2.232,2.232,0,0,1-2.232-2.232V74.1h34.207V174.239A2.232,2.232,0,0,1,398.026,176.471Z" transform="translate(-280.258 -57)" fill="#ffdff3"/>
        <path id="Trazado_101052" data-name="Trazado 101052" d="M488.472,74.105V174.182a2.289,2.289,0,0,1-2.288,2.29h-4.915a2.289,2.289,0,0,0,2.288-2.29V74.105Z" transform="translate(-368.472 -57.001)" fill="#ffceed"/>
        <path id="Trazado_101053" data-name="Trazado 101053" d="M185.257,1.129H215a2.232,2.232,0,0,1,2.232,2.232V103.5H183.024V3.361a2.233,2.233,0,0,1,2.233-2.232Z" transform="translate(-140.128 -1.129)" fill="#eaf6ff"/>
        <path id="Trazado_101054" data-name="Trazado 101054" d="M305.794,3.418V103.495h-4.807V3.418a2.291,2.291,0,0,0-2.29-2.29H303.5a2.291,2.291,0,0,1,2.29,2.29Z" transform="translate(-228.69 -1.128)" fill="#d8ecfe"/>
        <path id="Trazado_101055" data-name="Trazado 101055" d="M31.975,176.471H2.232A2.232,2.232,0,0,1,0,174.239V74.1H34.207V174.239A2.232,2.232,0,0,1,31.975,176.471Z" transform="translate(0 -57)" fill="#fff2e2"/>
        <path id="Trazado_101056" data-name="Trazado 101056" d="M122.919,74.105V174.182a2.289,2.289,0,0,1-2.288,2.29H115.87a2.289,2.289,0,0,0,2.288-2.29V74.105Z" transform="translate(-88.713 -57.001)" fill="#fee8c7"/>
        <path id="Trazado_101057" data-name="Trazado 101057" d="M34.207,18.233a17.1,17.1,0,1,0-22.29,16.3l4.6,6.506a.721.721,0,0,0,1.177,0l4.6-6.506a17.109,17.109,0,0,0,11.918-16.3Z" transform="translate(0 -1.129)" fill="#fece85"/>
        <path id="Trazado_101058" data-name="Trazado 101058" d="M80.376,25.714a17.109,17.109,0,0,1-11.915,16.3l-4.6,6.506a.721.721,0,0,1-1.177,0L60.3,45.151l4.34-6.14A17.106,17.106,0,0,0,71.828,10.9a17.1,17.1,0,0,1,8.548,14.814Z" transform="translate(-46.17 -8.61)" fill="#fec165"/>
        <path id="Trazado_101059" data-name="Trazado 101059" d="M183.025,362.4a17.1,17.1,0,1,0,22.289-16.3l-4.6-6.506a.721.721,0,0,0-1.178,0l-4.6,6.506A17.109,17.109,0,0,0,183.025,362.4Z" transform="translate(-140.129 -260.032)" fill="#b3dafe"/>
        <path id="Trazado_101060" data-name="Trazado 101060" d="M263.406,362.4a17.109,17.109,0,0,0-11.915-16.3l-4.6-6.506a.721.721,0,0,0-1.178,0l-2.382,3.369,4.34,6.14a17.106,17.106,0,0,1,7.183,28.111A17.1,17.1,0,0,0,263.406,362.4Z" transform="translate(-186.303 -260.032)" fill="#8ac9fe"/>
        <path id="Trazado_101061" data-name="Trazado 101061" d="M400.257,18.233a17.1,17.1,0,1,0-22.289,16.3l4.6,6.506a.721.721,0,0,0,1.178,0l4.6-6.506a17.109,17.109,0,0,0,11.917-16.3Z" transform="translate(-280.258 -1.129)" fill="#ffbee7"/>
        <path id="Trazado_101062" data-name="Trazado 101062" d="M446.431,25.713a17.109,17.109,0,0,1-11.915,16.3l-4.6,6.506a.721.721,0,0,1-1.178,0l-2.382-3.369,4.34-6.14A17.106,17.106,0,0,0,437.883,10.9a17.1,17.1,0,0,1,8.548,14.814Z" transform="translate(-326.431 -8.609)" fill="#feaee1"/>
        <path id="Trazado_101063" data-name="Trazado 101063" d="M53.47,38.353,53.45,38.3a2.085,2.085,0,0,0-3.858,0l-.016.041L45.047,50.239A1.812,1.812,0,0,0,46.1,52.577a1.832,1.832,0,0,0,2.338-1.048l.683-1.794h4.775l.675,1.789a1.812,1.812,0,1,0,3.39-1.279ZM50.5,46.11l1.018-2.674,1.009,2.674Z" transform="translate(-34.398 -28.601)" fill="#fdb441"/>
        <g id="Grupo_53782" data-name="Grupo 53782" transform="translate(6.118 57.599)">
          <path id="Trazado_101064" data-name="Trazado 101064" d="M27.914,250.509H46.261a1.812,1.812,0,0,0,0-3.624H27.914a1.812,1.812,0,0,0,0,3.624Z" transform="translate(-26.102 -246.885)" fill="#fedba6"/>
          <path id="Trazado_101065" data-name="Trazado 101065" d="M27.914,285.83H46.261a1.812,1.812,0,0,0,0-3.624H27.914a1.812,1.812,0,0,0,0,3.624Z" transform="translate(-26.102 -273.928)" fill="#fedba6"/>
          <path id="Trazado_101066" data-name="Trazado 101066" d="M27.914,321.151H46.261a1.812,1.812,0,0,0,0-3.624H27.914a1.812,1.812,0,0,0,0,3.624Z" transform="translate(-26.102 -300.97)" fill="#fedba6"/>
          <path id="Trazado_101067" data-name="Trazado 101067" d="M27.914,356.472H46.261a1.812,1.812,0,0,0,0-3.624H27.914a1.812,1.812,0,0,0,0,3.624Z" transform="translate(-26.102 -328.013)" fill="#fedba6"/>
          <path id="Trazado_101068" data-name="Trazado 101068" d="M27.914,391.793H46.261a1.812,1.812,0,0,0,0-3.624H27.914a1.812,1.812,0,0,0,0,3.624Z" transform="translate(-26.102 -355.056)" fill="#fedba6"/>
          <path id="Trazado_101069" data-name="Trazado 101069" d="M27.914,427.114h7.645a1.812,1.812,0,1,0,0-3.624H27.914a1.812,1.812,0,0,0,0,3.624Z" transform="translate(-26.102 -382.098)" fill="#fedba6"/>
        </g>
      </g>
      <path id="Trazado_101070" data-name="Trazado 101070" d="M423.132,47.795a1.812,1.812,0,0,0-2.553.222,2.941,2.941,0,0,1-2.412,1.056,4.218,4.218,0,1,1,2.357-7.717,1.812,1.812,0,0,0,2.028-3A7.842,7.842,0,1,0,418.167,52.7a6.559,6.559,0,0,0,5.186-2.349,1.812,1.812,0,0,0-.222-2.553Z" transform="translate(-314.156 -27.474)" fill="#fe93d3"/>
      <g id="Grupo_53784" data-name="Grupo 53784" transform="translate(91.91 58.727)">
        <path id="Trazado_101071" data-name="Trazado 101071" d="M412.312,246.886H393.965a1.812,1.812,0,0,0,0,3.624h18.348a1.812,1.812,0,0,0,0-3.624Z" transform="translate(-392.153 -246.886)" fill="#ffbee7"/>
        <path id="Trazado_101072" data-name="Trazado 101072" d="M412.312,282.207H393.965a1.812,1.812,0,0,0,0,3.624h18.348a1.812,1.812,0,1,0,0-3.624Z" transform="translate(-392.153 -273.929)" fill="#ffbee7"/>
        <path id="Trazado_101073" data-name="Trazado 101073" d="M412.312,317.528H393.965a1.812,1.812,0,0,0,0,3.624h18.348a1.812,1.812,0,1,0,0-3.624Z" transform="translate(-392.153 -300.971)" fill="#ffbee7"/>
        <path id="Trazado_101074" data-name="Trazado 101074" d="M412.312,352.849H393.965a1.812,1.812,0,0,0,0,3.624h18.348a1.812,1.812,0,0,0,0-3.624Z" transform="translate(-392.153 -328.014)" fill="#ffbee7"/>
        <path id="Trazado_101075" data-name="Trazado 101075" d="M412.312,388.17H393.965a1.812,1.812,0,0,0,0,3.624h18.348a1.812,1.812,0,1,0,0-3.624Z" transform="translate(-392.153 -355.057)" fill="#ffbee7"/>
        <path id="Trazado_101076" data-name="Trazado 101076" d="M401.61,423.491h-7.645a1.812,1.812,0,0,0,0,3.624h7.645a1.812,1.812,0,0,0,0-3.624Z" transform="translate(-392.153 -382.099)" fill="#ffbee7"/>
      </g>
      <path id="Trazado_101077" data-name="Trazado 101077" d="M234.6,420.12h.008s3.22-.014,4.107-.014a5.051,5.051,0,0,0,3.372-8.818,4.58,4.58,0,0,0-3.984-6.852h-3.5a1.812,1.812,0,0,0-1.812,1.812v12.061a1.812,1.812,0,0,0,1.812,1.812Zm4.115-3.638c-.431,0-1.408,0-2.3.007v-2.874l.447,0h1.857a1.434,1.434,0,1,1,0,2.869Zm-.612-8.422a.963.963,0,1,1,0,1.927l-1.243,0h-.448v-1.93Z" transform="translate(-178.229 -308.783)" fill="#60b7ff"/>
      <path id="Trazado_101078" data-name="Trazado 101078" d="M229.287,73.049H210.94a1.812,1.812,0,0,0,0,3.624h18.348a1.812,1.812,0,0,0,0-3.624Z" transform="translate(-160.114 -55.065)" fill="#b3dafe"/>
      <path id="Trazado_101079" data-name="Trazado 101079" d="M229.287,108.369H210.94a1.812,1.812,0,1,0,0,3.624h18.348a1.812,1.812,0,1,0,0-3.624Z" transform="translate(-160.114 -82.106)" fill="#b3dafe"/>
      <path id="Trazado_101080" data-name="Trazado 101080" d="M229.287,143.69H210.94a1.812,1.812,0,1,0,0,3.624h18.348a1.812,1.812,0,1,0,0-3.624Z" transform="translate(-160.114 -109.149)" fill="#b3dafe"/>
      <path id="Trazado_101081" data-name="Trazado 101081" d="M229.287,179.011H210.94a1.812,1.812,0,1,0,0,3.624h18.348a1.812,1.812,0,1,0,0-3.624Z" transform="translate(-160.114 -136.192)" fill="#b3dafe"/>
      <path id="Trazado_101082" data-name="Trazado 101082" d="M231.1,216.144a1.812,1.812,0,0,0-1.812-1.812H210.939a1.812,1.812,0,1,0,0,3.624h18.348A1.812,1.812,0,0,0,231.1,216.144Z" transform="translate(-160.113 -163.234)" fill="#b3dafe"/>
      <path id="Trazado_101083" data-name="Trazado 101083" d="M210.939,249.653a1.812,1.812,0,0,0,0,3.624h7.645a1.812,1.812,0,1,0,0-3.624Z" transform="translate(-160.113 -190.277)" fill="#b3dafe"/>
    </g>
  </g>
</svg>
