<svg xmlns="http://www.w3.org/2000/svg" width="77" height="78" viewBox="0 0 77 78">
  <g id="Grupo_54427" data-name="Grupo 54427" transform="translate(-163 -1817)">
    <ellipse id="Elipse_3989" data-name="Elipse 3989" cx="38.5" cy="39" rx="38.5" ry="39" transform="translate(163 1817)" fill="#26c6da"/>
    <g id="description" transform="translate(174.565 1828.036)">
      <path id="Trazado_101460" data-name="Trazado 101460" d="M64,264h40.815v3.14H64Zm0,0" transform="translate(-57.565 -219.774)" fill="#fff"/>
      <path id="Trazado_101464" data-name="Trazado 101464" d="M124.256,105.415V86.263L110.128,79.2,96,86.263v19.152l14.128,7.064ZM110.128,93.17,106.2,90.816l9.419-5.337,3.924,1.884Zm2.04-9.419-8.947,5.181-2.512-1.57,9.419-4.709ZM99.14,90.031l9.419,5.809v9.1h3.14v-9.1l9.419-5.809v13.5l-10.989,5.494L99.14,103.531Zm0,0" transform="translate(-83.285 -71.236)" fill="#fff"/>
    </g>
  </g>
</svg>
