<svg xmlns="http://www.w3.org/2000/svg" width="84" height="79.198" viewBox="0 0 84 79.198">
  <g id="fuente" transform="translate(0 -14.2)">
    <g id="Grupo_54336" data-name="Grupo 54336" transform="translate(3.111 78.755)">
      <path id="Trazado_103478" data-name="Trazado 103478" d="M37.841,398.5H19.664a1.268,1.268,0,1,1,0-2.536H37.841a1.268,1.268,0,1,1,0,2.536Z" transform="translate(-18.396 -395.963)" fill="#c9bfc8"/>
    </g>
    <path id="Trazado_103479" data-name="Trazado 103479" d="M186.293,395.963H176.248a1.268,1.268,0,0,0,0,2.536h10.044Z" transform="translate(-145.392 -317.208)" fill="#c9bfc8"/>
    <path id="Trazado_103480" data-name="Trazado 103480" d="M149.351,85.86h-4.062L130.615,16a2.2,2.2,0,0,0-2.148-1.73h-9.143l-.011.042-.021-.11-4.566,5.242L100.015,81.331,99.027,87.7l-3.408.73L95.566,93.4H116.3a1.069,1.069,0,0,0,1.069-1.07v-5.4a1.069,1.069,0,0,0-1.069-1.07h-4.287l1.968-12.008h14.684l1.968,12.008h-4.287a1.069,1.069,0,0,0-1.069,1.07v5.4a1.069,1.069,0,0,0,1.069,1.07h23.006a1.069,1.069,0,0,0,1.069-1.07v-5.4A1.069,1.069,0,0,0,149.351,85.86ZM116.31,62.244l4.435-22.1a.588.588,0,0,1,1.153,0l4.435,22.1Z" transform="translate(-79.406)" fill="#fee45a"/>
    <path id="Trazado_103481" data-name="Trazado 103481" d="M81.887,90.983a1.069,1.069,0,0,1,1.069-1.07h2.588a1.815,1.815,0,0,0,1.777-1.442l14.371-68.42a2.2,2.2,0,0,1,.065-.229l1.108-5.221H97.752A2.2,2.2,0,0,0,95.6,16.33L80.93,86.192H76.869a1.069,1.069,0,0,0-1.069,1.07v5.4a1.069,1.069,0,0,0,1.069,1.07h5.019Z" transform="translate(-62.983 -0.332)" fill="#fed402"/>
    <g id="Grupo_54337" data-name="Grupo 54337" transform="translate(79.19 22.01)">
      <path id="Trazado_103482" data-name="Trazado 103482" d="M469.579,119.087a1.268,1.268,0,0,1-1.268-1.268V61.653a1.268,1.268,0,1,1,2.536,0v56.166A1.268,1.268,0,0,1,469.579,119.087Z" transform="translate(-468.311 -60.385)" fill="#c9bfc8"/>
    </g>
    <path id="Trazado_103483" data-name="Trazado 103483" d="M279.417,395.963H241.88V398.5h37.537a1.268,1.268,0,1,0,0-2.536Z" transform="translate(-200.979 -317.208)" fill="#c9bfc8"/>
    <g id="Grupo_54338" data-name="Grupo 54338" transform="translate(2.274 22.01)">
      <path id="Trazado_103484" data-name="Trazado 103484" d="M14.716,118.58a1.268,1.268,0,0,1-1.268-1.268V61.653a1.268,1.268,0,1,1,2.536,0v55.658A1.268,1.268,0,0,1,14.716,118.58Z" transform="translate(-13.448 -60.385)" fill="#c9bfc8"/>
    </g>
    <g id="Grupo_54339" data-name="Grupo 54339" transform="translate(2.603 21.849)">
      <path id="Trazado_103485" data-name="Trazado 103485" d="M93.09,61.972H16.664a1.268,1.268,0,0,1,0-2.536H93.09a1.268,1.268,0,0,1,0,2.536Z" transform="translate(-15.396 -59.436)" fill="#c9bfc8"/>
    </g>
    <g id="Grupo_54340" data-name="Grupo 54340" transform="translate(0 19.575)">
      <path id="Trazado_103486" data-name="Trazado 103486" d="M6.094,53.073H.99a.99.99,0,0,1-.99-.99v-5.1a.99.99,0,0,1,.99-.99h5.1a.99.99,0,0,1,.99.99v5.1A.99.99,0,0,1,6.094,53.073Z" transform="translate(0 -45.989)" fill="#f47c7c"/>
      <path id="Trazado_103487" data-name="Trazado 103487" d="M6.094,385.12H.99a.99.99,0,0,1-.99-.99v-5.1a.99.99,0,0,1,.99-.99h5.1a.99.99,0,0,1,.99.99v5.1A.99.99,0,0,1,6.094,385.12Z" transform="translate(0 -321.888)" fill="#f47c7c"/>
      <path id="Trazado_103488" data-name="Trazado 103488" d="M455.853,53.073h5.1a.99.99,0,0,0,.99-.99v-5.1a.99.99,0,0,0-.99-.99h-5.1a.99.99,0,0,0-.99.99v5.1A.99.99,0,0,0,455.853,53.073Z" transform="translate(-377.947 -45.989)" fill="#f47c7c"/>
      <path id="Trazado_103489" data-name="Trazado 103489" d="M455.853,385.12h5.1a.99.99,0,0,0,.99-.99v-5.1a.99.99,0,0,0-.99-.99h-5.1a.99.99,0,0,0-.99.99v5.1A.99.99,0,0,0,455.853,385.12Z" transform="translate(-377.947 -321.888)" fill="#f47c7c"/>
    </g>
  </g>
</svg>
