<svg xmlns="http://www.w3.org/2000/svg" xmlns:xlink="http://www.w3.org/1999/xlink" width="84" height="84" viewBox="0 0 84 84">
  <defs>
    <clipPath id="clip-path">
      <rect id="Rectángulo_5406" data-name="Rectángulo 5406" width="84" height="84" transform="translate(180 13764)" fill="#fff" stroke="#707070" stroke-width="1"/>
    </clipPath>
  </defs>
  <g id="Enmascarar_grupo_24" data-name="Enmascarar grupo 24" transform="translate(-180 -13764)" clip-path="url(#clip-path)">
    <g id="cup" transform="translate(180 13764)">
      <g id="Grupo_53831" data-name="Grupo 53831">
        <path id="Trazado_101370" data-name="Trazado 101370" d="M58.193,84H27.442a10.958,10.958,0,0,1-5.322-1.557A6.908,6.908,0,0,1,18.486,77.6l-.948-7.064L30.214,44.789,11.591,26.246l-1.222-9.1a2.461,2.461,0,0,1,2.439-2.788H71.193a2.46,2.46,0,0,1,2.439,2.788l-1.224,9.111L58.484,48.391l7.974,22.145L65.509,77.6A7.316,7.316,0,0,1,58.193,84Z" fill="#fff4f4"/>
      </g>
      <path id="Trazado_101371" data-name="Trazado 101371" d="M73.045,15.194a2.461,2.461,0,0,0-1.852-.841H42V84H58.193a7.316,7.316,0,0,0,7.316-6.4l.949-7.065L58.484,48.391,72.408,26.252l1.224-9.111a2.461,2.461,0,0,0-.587-1.947Z" fill="#f6efea"/>
      <path id="Trazado_101372" data-name="Trazado 101372" d="M70.712,4.675h-.656V2.461A2.461,2.461,0,0,0,67.6,0H52.012a2.462,2.462,0,0,0-1.2.313l-7.8,4.362H13.288a7.39,7.39,0,0,0-7.382,7.382v4.921a2.461,2.461,0,0,0,2.461,2.461H75.633a2.461,2.461,0,0,0,2.461-2.461V12.057a7.39,7.39,0,0,0-7.382-7.382Z" fill="#4ff6d8"/>
      <path id="Trazado_101373" data-name="Trazado 101373" d="M17.537,70.536H66.458l5.95-44.29H11.591Z" fill="#4ff6d8"/>
      <path id="Trazado_101374" data-name="Trazado 101374" d="M42,26.246v44.29H66.458l5.95-44.29Z" fill="#00ddc1"/>
      <g id="Grupo_53832" data-name="Grupo 53832">
        <path id="Trazado_101375" data-name="Trazado 101375" d="M48.743,60.954a2.459,2.459,0,0,1-.918-.178L42,58.433l-5.825,2.343A2.461,2.461,0,0,1,32.8,58.326l.429-6.264L29.2,47.246A2.461,2.461,0,0,1,30.49,43.28l6.09-1.528,3.335-5.32a2.46,2.46,0,0,1,4.17,0l3.335,5.32,6.09,1.528A2.461,2.461,0,0,1,54.8,47.246l-4.029,4.816.429,6.264a2.461,2.461,0,0,1-2.454,2.629Z" fill="#ff4a4a"/>
      </g>
      <path id="Trazado_101376" data-name="Trazado 101376" d="M55.251,44.907A2.461,2.461,0,0,0,53.51,43.28l-6.09-1.528-3.335-5.32A2.46,2.46,0,0,0,42,35.279V58.433l5.825,2.343A2.461,2.461,0,0,0,51.2,58.326l-.429-6.264L54.8,47.246a2.461,2.461,0,0,0,.453-2.339Z" fill="#d01273"/>
      <path id="Trazado_101377" data-name="Trazado 101377" d="M70.712,4.675h-.656V2.461A2.461,2.461,0,0,0,67.6,0H52.012a2.462,2.462,0,0,0-1.2.313l-7.8,4.362H42V19.438H75.633a2.461,2.461,0,0,0,2.461-2.461V12.057A7.39,7.39,0,0,0,70.712,4.675Z" fill="#00ddc1"/>
    </g>
  </g>
</svg>
