<svg xmlns="http://www.w3.org/2000/svg" xmlns:xlink="http://www.w3.org/1999/xlink" width="84" height="84" viewBox="0 0 84 84">
  <defs>
    <clipPath id="clip-path">
      <rect id="Rectángulo_5405" data-name="Rectángulo 5405" width="84" height="84" transform="translate(180 13668)" fill="#fff" stroke="#707070" stroke-width="1"/>
    </clipPath>
  </defs>
  <g id="Enmascarar_grupo_23" data-name="Enmascarar grupo 23" transform="translate(-180 -13668)" clip-path="url(#clip-path)">
    <g id="brochure" transform="translate(180 13668)">
      <g id="Grupo_53823" data-name="Grupo 53823">
        <path id="Trazado_101358" data-name="Trazado 101358" d="M78.679,0H31.429a2.461,2.461,0,0,0-2.461,2.461V65.623a2.461,2.461,0,0,0,2.461,2.461h47.25a2.461,2.461,0,0,0,2.461-2.461V2.461A2.461,2.461,0,0,0,78.679,0Z" fill="#525cdd"/>
      </g>
      <g id="Grupo_53824" data-name="Grupo 53824">
        <path id="Trazado_101359" data-name="Trazado 101359" d="M54.06,16.385,32.161.317A2.1,2.1,0,0,0,28.946,2.1V18.172a2.1,2.1,0,0,0,2.1,2.1h21.9a2.1,2.1,0,0,0,1.11-3.891Z" fill="#4793ff"/>
      </g>
      <g id="Grupo_53825" data-name="Grupo 53825">
        <path id="Trazado_101360" data-name="Trazado 101360" d="M52.571,15.916H5.321A2.461,2.461,0,0,0,2.86,18.377V81.539A2.461,2.461,0,0,0,5.321,84h47.25a2.461,2.461,0,0,0,2.461-2.461V18.377a2.461,2.461,0,0,0-2.461-2.461Z" fill="#fff4f4"/>
      </g>
      <path id="Trazado_101361" data-name="Trazado 101361" d="M52.571,15.916H28.946V84H52.571a2.461,2.461,0,0,0,2.461-2.461V18.377a2.461,2.461,0,0,0-2.461-2.461Z" fill="#f6efea"/>
      <g id="Grupo_53826" data-name="Grupo 53826">
        <path id="Trazado_101362" data-name="Trazado 101362" d="M24.364,44.707a2.461,2.461,0,0,1-2.455-2.629l.27-3.94-2.534-3.029a2.461,2.461,0,0,1,1.289-3.966l3.831-.961,2.1-3.346a2.461,2.461,0,0,1,4.17,0l2.1,3.346,3.831.961a2.461,2.461,0,0,1,1.289,3.966l-2.534,3.029.27,3.94a2.461,2.461,0,0,1-3.374,2.451l-3.664-1.474-3.664,1.474a2.465,2.465,0,0,1-.919.178Z" fill="#ff4a4a"/>
      </g>
      <g id="Grupo_53827" data-name="Grupo 53827">
        <path id="Trazado_101363" data-name="Trazado 101363" d="M42.727,54.469H15.165a2.461,2.461,0,0,1,0-4.922H42.727a2.461,2.461,0,0,1,0,4.922Z" fill="#00429d"/>
      </g>
      <g id="Grupo_53828" data-name="Grupo 53828">
        <path id="Trazado_101364" data-name="Trazado 101364" d="M42.727,64.313H15.165a2.461,2.461,0,0,1,0-4.922H42.727a2.461,2.461,0,0,1,0,4.922Z" fill="#00429d"/>
      </g>
      <g id="Grupo_53829" data-name="Grupo 53829">
        <path id="Trazado_101365" data-name="Trazado 101365" d="M42.727,74.156H15.165a2.461,2.461,0,0,1,0-4.922H42.727a2.461,2.461,0,0,1,0,4.922Z" fill="#00429d"/>
      </g>
      <path id="Trazado_101366" data-name="Trazado 101366" d="M38.7,32.77a2.461,2.461,0,0,0-1.742-1.627l-3.831-.961-2.1-3.346a2.461,2.461,0,0,0-2.085-1.154V43.055l3.664,1.474a2.461,2.461,0,0,0,3.374-2.451l-.27-3.94,2.534-3.029A2.46,2.46,0,0,0,38.7,32.77Z" fill="#d01273"/>
      <g id="Grupo_53830" data-name="Grupo 53830">
        <path id="Trazado_101367" data-name="Trazado 101367" d="M42.727,49.547H28.946v4.922H42.727a2.461,2.461,0,0,0,0-4.922Z" fill="#00347b"/>
        <path id="Trazado_101368" data-name="Trazado 101368" d="M42.727,59.391H28.946v4.922H42.727a2.461,2.461,0,0,0,0-4.922Z" fill="#00347b"/>
        <path id="Trazado_101369" data-name="Trazado 101369" d="M42.727,69.234H28.946v4.922H42.727a2.461,2.461,0,0,0,0-4.922Z" fill="#00347b"/>
      </g>
    </g>
  </g>
</svg>
