<svg xmlns="http://www.w3.org/2000/svg" width="77" height="78" viewBox="0 0 77 78">
  <g id="Grupo_54431" data-name="Grupo 54431" transform="translate(-163 -2025)">
    <g id="Grupo_54429" data-name="Grupo 54429">
      <ellipse id="Elipse_3990" data-name="Elipse 3990" cx="38.5" cy="39" rx="38.5" ry="39" transform="translate(163 2025)" fill="#26c6da"/>
    </g>
    <g id="miyagi-japan-flag-abstract-symbol" transform="translate(176.833 2034.447)">
      <g id="Grupo_53854" data-name="Grupo 53854" transform="translate(0 10.734)">
        <path id="Trazado_101465" data-name="Trazado 101465" d="M42.485,25.677c-4.973,0-10.571,4.358-15.359,11.957l-.1.164-.18-.072c-.314-.126-.618-.261-.918-.4l-.278-.129.2-.232c4.082-4.787,6.519-10.663,6.519-15.72,0-8.315-4.867-10.512-7.44-10.512-5,0-7.87,3.831-7.87,10.512,0,5.6,1.577,9.191,4.69,10.668.078-.1.156-.2.233-.3l2.717-4.423a1.383,1.383,0,0,1-1.068-.5,8.394,8.394,0,0,1-1.693-5.456c.117-3.515,1.207-5.532,2.991-5.532,1.6,0,2.814,2.381,2.814,5.539,0,3.483-2.672,8.941-6.352,12.979l-.147.161-.17-.136c-.962-.771-1.869-1.568-2.746-2.339-3.393-2.981-6.6-5.8-11.927-6.02C2.942,25.744,0,28.872,0,32.586c0,3.832,5.707,11.161,14.654,11.161a11.419,11.419,0,0,0,7.068-2.86l.123-.1.138.079a23.438,23.438,0,0,0,2.4,1.188l.225.095-.106.22a40.108,40.108,0,0,0-2.881,7.741h5.417A34.025,34.025,0,0,1,29.223,43.7l.074-.165.179.032a30.617,30.617,0,0,0,5.484.472c8.917,0,14.374-7.32,14.374-11.306C49.335,30.9,48.077,25.677,42.485,25.677ZM17.154,37.771a7.7,7.7,0,0,1-3.809,1.174c-4.29,0-8.3-4.037-8.3-5.871A2.057,2.057,0,0,1,6.983,30.9c3.132,0,5.448,2.142,8.13,4.621.661.611,1.345,1.244,2.076,1.879l.245.213Zm17.659,1.392a24.713,24.713,0,0,1-2.658-.141l-.378-.041.209-.317c3.3-5.019,7.047-7.9,10.28-7.9a2.059,2.059,0,0,1,2.149,2.106C44.415,35.459,38.761,39.163,34.813,39.163Z" transform="translate(0 -10.734)" fill="#fff"/>
      </g>
    </g>
  </g>
</svg>
