<svg xmlns="http://www.w3.org/2000/svg" width="82.218" height="112.564" viewBox="0 0 82.218 112.564">
  <g id="lona" transform="translate(-66.982)">
    <path id="Trazado_103518" data-name="Trazado 103518" d="M121.922,407.579l-7,14.5a3.563,3.563,0,0,1-6.772-1.549V402.766h17.021Z" transform="translate(-31.841 -311.53)" fill="#e9b665"/>
    <path id="Trazado_103519" data-name="Trazado 103519" d="M330.683,403.227v12.952a3.563,3.563,0,0,1-6.772,1.549l-7-14.5-3.238-6.088h17.013v6.088Z" transform="translate(-190.808 -307.178)" fill="#e9b665"/>
    <path id="Trazado_103520" data-name="Trazado 103520" d="M159.882,40.023a3.314,3.314,0,0,1,3.314,3.314v80.186H92.57V43.337a3.314,3.314,0,0,1,3.314-3.314Z" transform="translate(-19.792 -30.957)" fill="#fdd79b"/>
    <path id="Trazado_103521" data-name="Trazado 103521" d="M109.434,114.689a6.043,6.043,0,0,1-6.043-6.043V43.337a3.314,3.314,0,0,1,3.314-3.314H95.883a3.314,3.314,0,0,0-3.314,3.314v77.031h8.55v3.155h62.076v-8.834Z" transform="translate(-19.791 -30.957)" fill="#fccd7f"/>
    <path id="Trazado_103522" data-name="Trazado 103522" d="M145.658,386.64H81.815v.248H72.778v-.248H70.524a3.542,3.542,0,0,0-3.542,3.542v1.382a3.542,3.542,0,0,0,3.542,3.542h75.134a3.542,3.542,0,0,0,3.542-3.542v-1.382A3.542,3.542,0,0,0,145.658,386.64Z" transform="translate(0 -299.057)" fill="#fdd79b"/>
    <path id="Trazado_103523" data-name="Trazado 103523" d="M79.574,391.564v-1.382a3.542,3.542,0,0,1,3.542-3.542H70.524a3.542,3.542,0,0,0-3.542,3.542v1.382a3.542,3.542,0,0,0,3.542,3.542H83.116A3.542,3.542,0,0,1,79.574,391.564Z" transform="translate(0 -299.057)" fill="#fccd7f"/>
    <path id="Trazado_103524" data-name="Trazado 103524" d="M163.926,40.023h38.3v8.686h-38.3Z" transform="translate(-74.984 -30.957)" fill="#fccd7f"/>
    <path id="Trazado_103525" data-name="Trazado 103525" d="M177.875,70.02H124.3a1.73,1.73,0,0,0-1.73,1.73v57.1l8.8,1.978h45.5l2.739-7.2V71.749a1.729,1.729,0,0,0-1.73-1.73Z" transform="translate(-42.997 -54.159)" fill="#99e6fc"/>
    <path id="Trazado_103526" data-name="Trazado 103526" d="M163.926,70.02v3.2a5.568,5.568,0,0,0,5.561,5.561h27.176a5.568,5.568,0,0,0,5.561-5.561v-3.2Z" transform="translate(-74.984 -54.159)" fill="#62dbfb"/>
    <path id="Trazado_103527" data-name="Trazado 103527" d="M126.6,70.02h-2.3a1.73,1.73,0,0,0-1.73,1.73v57.1l4.026.905Z" transform="translate(-42.997 -54.159)" fill="#62dbfb"/>
    <g id="Grupo_54353" data-name="Grupo 54353" transform="translate(79.574 50.387)">
      <path id="Trazado_103528" data-name="Trazado 103528" d="M241.084,223.731a3.026,3.026,0,0,0-4.866-.131L227.307,235l-9.186,11.745,21.644,6.1h12.548a1.2,1.2,0,0,0,1.2-1.2V241.524Z" transform="translate(-196.477 -222.436)" fill="#57be92"/>
      <path id="Trazado_103529" data-name="Trazado 103529" d="M236.483,241.41a10.039,10.039,0,0,1,.323-11.932l3.9-4.982a3.034,3.034,0,0,1,.541-.537l-.159-.228a3.026,3.026,0,0,0-4.866-.131l-6.43,8.223L227.307,235l-9.186,11.745,21.644,6.1h4.7Z" transform="translate(-196.477 -222.436)" fill="#22b27f"/>
      <path id="Trazado_103530" data-name="Trazado 103530" d="M153.4,235l12.459,17.841H123.769a1.2,1.2,0,0,1-1.2-1.2v-4.9L140.666,223.6a3.026,3.026,0,0,1,4.866.131Z" transform="translate(-122.571 -222.436)" fill="#09a76d"/>
    </g>
    <circle id="Elipse_4094" data-name="Elipse 4094" cx="4.04" cy="4.04" r="4.04" transform="translate(108.593 34.925)" fill="#fedf30"/>
    <path id="Trazado_103531" data-name="Trazado 103531" d="M207.744,4.685H204.16a.423.423,0,0,1-.423-.423V2.318A2.318,2.318,0,0,0,201.419,0H191.031a2.318,2.318,0,0,0-2.318,2.318V4.327a.359.359,0,0,1-.359.359h-3.649a3.778,3.778,0,0,0-3.778,3.778v10.6a1.71,1.71,0,0,0,1.71,1.71h27.176a1.71,1.71,0,0,0,1.71-1.71V8.464a3.779,3.779,0,0,0-3.779-3.778Z" transform="translate(-88.134 0)" fill="#fddeb0"/>
    <g id="Grupo_54354" data-name="Grupo 54354" transform="translate(92.793 0)">
      <path id="Trazado_103532" data-name="Trazado 103532" d="M185.1,12.315a3.778,3.778,0,0,1,3.778-3.778h1.64a2.367,2.367,0,0,0,2.367-2.367A2.318,2.318,0,0,1,195.2,3.851h8.535V2.318A2.318,2.318,0,0,0,201.418,0H191.03a2.318,2.318,0,0,0-2.318,2.318V4.257a.429.429,0,0,1-.429.429H184.7a3.778,3.778,0,0,0-3.778,3.778v10.6a1.71,1.71,0,0,0,1.71,1.71h2.46Z" transform="translate(-180.926 0)" fill="#fdd79b"/>
    </g>
    <g id="Grupo_54355" data-name="Grupo 54355" transform="translate(103.754 10.415)">
      <path id="Trazado_103533" data-name="Trazado 103533" d="M236.731,49.375h-5.717a1.7,1.7,0,1,1,0-3.4h5.717a1.7,1.7,0,1,1,0,3.4Z" transform="translate(-229.316 -45.977)" fill="#fdd79b"/>
    </g>
    <path id="Trazado_103534" data-name="Trazado 103534" d="M162.981,248.714h-24.9a5.027,5.027,0,0,1-3.95-8.137c5.664-7.2,11.285-14.288,11.285-14.288a3,3,0,0,1,1.249-.938l-1.133-1.622a3.026,3.026,0,0,0-4.866-.131L122.57,246.74v4.9a1.194,1.194,0,0,0,.842,1.138l0,0,.042.01c.036.01.072.02.11.026a1.113,1.113,0,0,0,.205.021h42.091Z" transform="translate(-42.996 -172.049)" fill="#02905d"/>
  </g>
</svg>
