<svg xmlns="http://www.w3.org/2000/svg" width="90.328" height="95" viewBox="0 0 90.328 95">
  <g id="vector" transform="translate(-12)">
    <path id="Trazado_99446" data-name="Trazado 99446" d="M159.87,77.756l19.156,19.156-9.344,9.189a1.682,1.682,0,0,0-.467,1.09v14.484h-21.8V107.19a1.414,1.414,0,0,0-.467-1.09L137.6,96.911,156.756,77.6V94.731a6.248,6.248,0,1,0,7.787,6.074,6.352,6.352,0,0,0-4.672-6.074Z" transform="translate(-101.149 -62.493)" fill="#fff8ef"/>
    <g id="Grupo_53373" data-name="Grupo 53373" transform="translate(76.475 8.877)">
      <path id="Trazado_99447" data-name="Trazado 99447" d="M431.4,167.072l-3.115.623a44.618,44.618,0,0,0-1.09-4.361l2.959-.934A40.9,40.9,0,0,1,431.4,167.072Z" transform="translate(-410.848 -139.662)" fill="#42210b"/>
      <path id="Trazado_99448" data-name="Trazado 99448" d="M412.984,120.361l-2.8,1.246c-.623-1.4-1.4-2.648-2.18-4.049L410.648,116A29.749,29.749,0,0,1,412.984,120.361Z" transform="translate(-395.385 -102.295)" fill="#42210b"/>
      <path id="Trazado_99449" data-name="Trazado 99449" d="M418.23,217.344a3.115,3.115,0,1,0-3.115-3.115A3.124,3.124,0,0,0,418.23,217.344Zm0-9.344a6.23,6.23,0,1,1-6.23,6.23A6.248,6.248,0,0,1,418.23,208Z" transform="translate(-398.607 -176.385)" fill="#42210b"/>
      <path id="Trazado_99450" data-name="Trazado 99450" d="M385.451,79.738l-2.492,1.869A31.133,31.133,0,0,0,380,78.18L382.18,76Z" transform="translate(-372.836 -70.082)" fill="#42210b"/>
      <path id="Trazado_99451" data-name="Trazado 99451" d="M348.807,48.4,346.938,50.9c-1.246-.934-2.492-1.869-3.738-2.648l1.557-2.648C346.159,46.534,347.561,47.469,348.807,48.4Z" transform="translate(-343.2 -45.6)" fill="#42210b"/>
    </g>
    <rect id="Rectángulo_5053" data-name="Rectángulo 5053" width="3" height="16" transform="translate(69 76)" fill="#ffc600"/>
    <path id="Trazado_99452" data-name="Trazado 99452" d="M189.23,320h3.582c1.246,0,2.336,1.4,2.336,3.115v3.115c0,1.713-1.09,3.115-2.336,3.115H166.336c-1.246,0-2.336-1.4-2.336-3.115v-3.115c0-1.713,1.09-3.115,2.336-3.115H189.23Z" transform="translate(-122.41 -257.705)" fill="#ee5656"/>
    <path id="Trazado_99453" data-name="Trazado 99453" d="M315.893,320a3.124,3.124,0,0,1,3.115,3.115v3.115a3.124,3.124,0,0,1-3.115,3.115H312c1.246,0,2.336-1.4,2.336-3.115v-3.115c0-1.713-1.09-3.115-2.336-3.115Z" transform="translate(-241.598 -257.705)" fill="#f69494"/>
    <path id="Trazado_99454" data-name="Trazado 99454" d="M194.016,387.115v3.115H201.8v-3.115ZM180,384h24.918v17.131H180v-10.9h9.344v-3.115H180Z" transform="translate(-135.295 -309.246)" fill="#f90"/>
    <rect id="Rectángulo_5054" data-name="Rectángulo 5054" width="8" height="4" transform="translate(58 78)" fill="#42210b"/>
    <g id="Grupo_53374" data-name="Grupo 53374" transform="translate(41.147 75.568)">
      <rect id="Rectángulo_5055" data-name="Rectángulo 5055" width="3" height="2" transform="translate(-0.147 0.433)" fill="#ff7d00"/>
      <rect id="Rectángulo_5056" data-name="Rectángulo 5056" width="3" height="10" transform="translate(-0.147 6.433)" fill="#ff7d00"/>
    </g>
    <path id="Trazado_99455" data-name="Trazado 99455" d="M143.115,320h4.049c-1.246,0-2.336,1.4-2.336,3.115v3.115c0,1.713,1.09,3.115,2.336,3.115h-4.049A3.124,3.124,0,0,1,140,326.23v-3.115A3.124,3.124,0,0,1,143.115,320Z" transform="translate(-103.082 -257.705)" fill="#e94545"/>
    <g id="Grupo_53375" data-name="Grupo 53375" transform="translate(12)">
      <path id="Trazado_99456" data-name="Trazado 99456" d="M119.893,46.4l1.557,2.648c-1.246.779-2.492,1.713-3.738,2.492L116,49.048A34.2,34.2,0,0,1,119.893,46.4Z" transform="translate(-95.754 -37.367)" fill="#42210b"/>
      <path id="Trazado_99457" data-name="Trazado 99457" d="M142.851,81.859a3.115,3.115,0,1,0-3.115-3.115A3.124,3.124,0,0,0,142.851,81.859Zm1.557-9.189a6.248,6.248,0,1,1-7.787,6.074,6.352,6.352,0,0,1,4.672-6.074V55.539L122.138,75.007l9.344,9.189a1.414,1.414,0,0,1,.467,1.09V99.769h21.8V85.285a1.414,1.414,0,0,1,.467-1.09l9.344-9.189L144.408,55.851Zm-14.016,42.672h-3.115v3.115h12.459v3.115H127.277v10.9h31.148V115.343H130.392Zm35.82-6.23a6.169,6.169,0,0,1-4.672,5.918v19a1.675,1.675,0,0,1-1.557,1.557H125.72a1.675,1.675,0,0,1-1.557-1.557V115.187a6.169,6.169,0,0,1-4.672-5.918V106a6.248,6.248,0,0,1,6.23-6.23h3.115V85.908L118.867,76.1a1.506,1.506,0,0,1,0-2.18L141.6,50.867a1.682,1.682,0,0,1,1.09-.467,1.414,1.414,0,0,1,1.09.467l23.049,23.049a1.506,1.506,0,0,1,0,2.18l-9.967,9.811V99.769h3.115a6.248,6.248,0,0,1,6.23,6.23Zm-6.23,3.115a3.124,3.124,0,0,0,3.115-3.115V106a3.124,3.124,0,0,0-3.115-3.115H125.72A3.124,3.124,0,0,0,122.6,106v3.115a3.124,3.124,0,0,0,3.115,3.115h34.262Z" transform="translate(-97.687 -40.589)" fill="#42210b"/>
      <path id="Trazado_99458" data-name="Trazado 99458" d="M83.271,76.8l2.18,2.18a31.139,31.139,0,0,0-2.959,3.426L80,80.538C81.09,79.136,82.18,78.046,83.271,76.8Z" transform="translate(-66.762 -61.849)" fill="#42210b"/>
      <path id="Trazado_99459" data-name="Trazado 99459" d="M56.58,116l2.648,1.557a32.731,32.731,0,0,0-2.025,4.049l-2.8-1.246C55.023,118.959,55.8,117.557,56.58,116Z" transform="translate(-46.146 -93.418)" fill="#42210b"/>
      <path id="Trazado_99460" data-name="Trazado 99460" d="M40.446,162.4l2.959.934a44.6,44.6,0,0,0-1.09,4.361l-3.115-.623C39.511,165.515,39.979,163.957,40.446,162.4Z" transform="translate(-33.905 -130.785)" fill="#42210b"/>
      <path id="Trazado_99461" data-name="Trazado 99461" d="M108.984,6.23V3.115h-3.115V6.23ZM37.344,3.115H65.689a4.61,4.61,0,0,1,8.721,0h28.344V1.557A1.675,1.675,0,0,1,104.311,0h6.23A1.675,1.675,0,0,1,112.1,1.557v6.23a1.561,1.561,0,0,1-1.557,1.557h-6.23a1.561,1.561,0,0,1-1.557-1.557V6.23H85.623c.311.156.779.311,1.09.467L85.467,9.5c-1.4-.623-2.8-1.09-4.2-1.557l.467-1.713H76.9l-.156.623a12.021,12.021,0,0,0-2.336-.311,4.793,4.793,0,0,1-8.721,0c-.779.156-1.557.156-2.492.311V6.23H58.369l.467,1.713c-1.4.467-2.8.934-4.2,1.557L53.385,6.7c.311-.156.779-.311,1.09-.467H37.344V7.787a1.471,1.471,0,0,1-1.557,1.557h-6.23A1.471,1.471,0,0,1,28,7.787V1.557A1.561,1.561,0,0,1,29.557,0h6.23a1.561,1.561,0,0,1,1.557,1.557ZM31.115,6.23H34.23V3.115H31.115Z" transform="translate(-24.885)" fill="#42210b"/>
      <path id="Trazado_99462" data-name="Trazado 99462" d="M12,214.23a6.23,6.23,0,1,1,6.23,6.23A6.248,6.248,0,0,1,12,214.23Zm9.344,0a3.115,3.115,0,1,0-3.115,3.115A3.124,3.124,0,0,0,21.344,214.23Z" transform="translate(-12 -167.508)" fill="#42210b"/>
    </g>
    <g id="Grupo_53376" data-name="Grupo 53376" transform="translate(36.451 15.262)">
      <path id="Trazado_99463" data-name="Trazado 99463" d="M261.811,106.744l9.344-9.189L252,78.4v.311l14.016,16.82a2.848,2.848,0,0,1-.156,3.738l-7.631,7.475v15.574h3.115V107.834A1.414,1.414,0,0,1,261.811,106.744Z" transform="translate(-229.729 -78.4)" fill="#d9cdc1"/>
      <path id="Trazado_99464" data-name="Trazado 99464" d="M146.944,106.744,137.6,97.556,156.756,78.4v.311l-14.016,16.82a2.848,2.848,0,0,0,.156,3.738l7.631,7.475v15.574h-3.115V107.834A1.414,1.414,0,0,0,146.944,106.744Z" transform="translate(-137.6 -78.4)" fill="#d9cdc1"/>
    </g>
  </g>
</svg>
