<svg xmlns="http://www.w3.org/2000/svg" width="84" height="108.138" viewBox="0 0 84 108.138">
  <g id="carpeta" transform="translate(-55.375)">
    <path id="Trazado_103502" data-name="Trazado 103502" d="M252.351,23.388H216.468v61.29h-6.673v20h46.079V26.845Z" transform="translate(-120.764 -18.291)" fill="#f9f7f8"/>
    <path id="Trazado_103503" data-name="Trazado 103503" d="M219.646,62.561V26.845l5.552-3.457h-9.851l-5.552,3.457v77.834h46.079V71.5c-.119-.006-15.982,0-27.273.01a8.949,8.949,0,0,1-8.955-8.95Z" transform="translate(-120.764 -18.291)" fill="#efedef"/>
    <path id="Trazado_103504" data-name="Trazado 103504" d="M131.748,86a1.634,1.634,0,0,0-1.635-1.635h-47.6a1.634,1.634,0,0,0-.231,3.251v43.322a1.635,1.635,0,1,0,3.269,0V87.63h42.177v48.044a1.635,1.635,0,0,0,3.269,0V87.369A1.632,1.632,0,0,0,131.748,86Z" transform="translate(-19.945 -65.975)" fill="#c8effe"/>
    <g id="XMLID_936_" transform="translate(55.375 50.58)">
      <g id="Grupo_54344" data-name="Grupo 54344" transform="translate(0)">
        <path id="Trazado_103505" data-name="Trazado 103505" d="M139.375,244.955v39.854a4.82,4.82,0,0,1-4.821,4.819H60.2a4.82,4.82,0,0,1-4.821-4.819V236.891A4.821,4.821,0,0,1,60.2,232.07H85.042a4.817,4.817,0,0,1,2.9.97l8.147,6.127a4.823,4.823,0,0,0,2.9.968h35.569A4.821,4.821,0,0,1,139.375,244.955Z" transform="translate(-55.375 -232.07)" fill="#fdd79b"/>
      </g>
    </g>
    <path id="Trazado_103506" data-name="Trazado 103506" d="M69.885,267.016V232.07H60.2a4.821,4.821,0,0,0-4.821,4.821v47.918a4.82,4.82,0,0,0,4.821,4.819h74.358a4.82,4.82,0,0,0,4.821-4.819V282.8h-53.7A15.788,15.788,0,0,1,69.885,267.016Z" transform="translate(0 -181.49)" fill="#fccd7f"/>
    <path id="Trazado_103507" data-name="Trazado 103507" d="M284.163,0H250.438V8.555h37.221V3.5A3.5,3.5,0,0,0,284.163,0Z" transform="translate(-152.549)" fill="#ee6161"/>
    <path id="Trazado_103508" data-name="Trazado 103508" d="M223.142,0h-9.851a3.5,3.5,0,0,0-3.5,3.5V8.555h9.851V3.5A3.5,3.5,0,0,1,223.142,0Z" transform="translate(-120.764)" fill="#e94444"/>
    <path id="Trazado_103509" data-name="Trazado 103509" d="M83.262,81.392H77.35A1.089,1.089,0,0,1,76.261,80.3V74.391A1.089,1.089,0,0,1,77.35,73.3h5.912a1.089,1.089,0,0,1,1.089,1.089V80.3A1.089,1.089,0,0,1,83.262,81.392Z" transform="translate(-16.334 -57.326)" fill="#01c0fa"/>
    <path id="Trazado_103510" data-name="Trazado 103510" d="M215.141,326.866l5.072-9.162a1.052,1.052,0,0,0-.121-1.193l-10.047-11.759a.435.435,0,0,0-.661,0l-10.047,11.759a1.052,1.052,0,0,0-.121,1.193l5.072,9.162,2.623,5.087h5.947Z" transform="translate(-112.389 -238.213)" fill="#f9f7f8"/>
    <path id="Trazado_103511" data-name="Trazado 103511" d="M221.8,406.76H208.756a2.453,2.453,0,0,0-2.453,2.453v4.457a2.453,2.453,0,0,0,2.453,2.453H221.8a2.453,2.453,0,0,0,2.453-2.453v-4.457A2.453,2.453,0,0,0,221.8,406.76Z" transform="translate(-118.033 -318.107)" fill="#d7d0d6"/>
    <path id="Trazado_103512" data-name="Trazado 103512" d="M242.035,304.753a.435.435,0,0,0-.661,0l-1.384,1.619v11.744a1.635,1.635,0,0,0,3.269,0v-11.93Z" transform="translate(-144.379 -238.213)" fill="#efedef"/>
    <g id="Grupo_54346" data-name="Grupo 54346" transform="translate(117.48 24.521)">
      <g id="Grupo_54345" data-name="Grupo 54345" transform="translate(0)">
        <path id="Trazado_103513" data-name="Trazado 103513" d="M349.5,115.776h-7.544a1.635,1.635,0,0,1,0-3.269H349.5a1.635,1.635,0,0,1,0,3.269Z" transform="translate(-340.324 -112.507)" fill="#efedef"/>
      </g>
    </g>
    <g id="Grupo_54348" data-name="Grupo 54348" transform="translate(117.48 31.66)">
      <g id="Grupo_54347" data-name="Grupo 54347" transform="translate(0)">
        <path id="Trazado_103514" data-name="Trazado 103514" d="M349.5,148.533h-7.544a1.635,1.635,0,0,1,0-3.269H349.5a1.635,1.635,0,0,1,0,3.269Z" transform="translate(-340.324 -145.264)" fill="#efedef"/>
      </g>
    </g>
    <g id="Grupo_54350" data-name="Grupo 54350" transform="translate(117.48 38.8)">
      <g id="Grupo_54349" data-name="Grupo 54349" transform="translate(0)">
        <path id="Trazado_103515" data-name="Trazado 103515" d="M349.5,181.291h-7.544a1.635,1.635,0,0,1,0-3.269H349.5a1.635,1.635,0,0,1,0,3.269Z" transform="translate(-340.324 -178.022)" fill="#efedef"/>
      </g>
    </g>
    <g id="Grupo_54352" data-name="Grupo 54352" transform="translate(117.48 45.939)">
      <g id="Grupo_54351" data-name="Grupo 54351" transform="translate(0)">
        <path id="Trazado_103516" data-name="Trazado 103516" d="M349.5,214.049h-7.544a1.635,1.635,0,0,1,0-3.269H349.5a1.635,1.635,0,0,1,0,3.269Z" transform="translate(-340.324 -210.78)" fill="#efedef"/>
      </g>
    </g>
    <path id="Trazado_103517" data-name="Trazado 103517" d="M291.778,81.392h-5.912a1.089,1.089,0,0,1-1.089-1.089V74.391a1.089,1.089,0,0,1,1.089-1.089h5.912a1.089,1.089,0,0,1,1.089,1.089V80.3A1.089,1.089,0,0,1,291.778,81.392Z" transform="translate(-179.404 -57.326)" fill="#01c0fa"/>
  </g>
</svg>
