<svg xmlns="http://www.w3.org/2000/svg" width="84" height="84" viewBox="0 0 84 84">
  <g id="Grupo_53545" data-name="Grupo 53545" transform="translate(1120.294 -367.175)">
    <rect id="Rect치ngulo_5254" data-name="Rect치ngulo 5254" width="84" height="84" rx="5" transform="translate(-1120.294 367.175)" fill="#26c6da"/>
    <g id="Grupo_53544" data-name="Grupo 53544" transform="translate(-1108.719 378.75)">
      <g id="Grupo_53539" data-name="Grupo 53539" transform="translate(34.221)">
        <g id="Grupo_53538" data-name="Grupo 53538">
          <path id="Trazado_100828" data-name="Trazado 100828" d="M-987.162,409.882l-15.183-15.183a1.788,1.788,0,0,0-2.53,0l-8.068,8.068a1.789,1.789,0,0,0,0,2.531l15.183,15.183a1.784,1.784,0,0,0,1.265.524,1.784,1.784,0,0,0,1.265-.524l8.068-8.068A1.789,1.789,0,0,0-987.162,409.882Z" transform="translate(1013.468 -394.175)" fill="#fff"/>
        </g>
      </g>
      <g id="Grupo_53541" data-name="Grupo 53541" transform="translate(0 13.581)">
        <g id="Grupo_53540" data-name="Grupo 53540">
          <path id="Trazado_100829" data-name="Trazado 100829" d="M-1045.9,441.109l-15.183-15.183c-.022-.022-.037-.05-.059-.072l-17.116,8.558a1.792,1.792,0,0,0-.861.937l-14.179,35.446,21.746-21.746a5.3,5.3,0,0,1-.538-2.3,5.374,5.374,0,0,1,5.368-5.368,5.374,5.374,0,0,1,5.368,5.368,5.374,5.374,0,0,1-5.368,5.368,5.308,5.308,0,0,1-2.3-.538l-21.746,21.746,35.446-14.179a1.789,1.789,0,0,0,.937-.861l8.557-17.116C-1045.846,441.147-1045.873,441.131-1045.9,441.109Z" transform="translate(1093.294 -425.854)" fill="#fff"/>
        </g>
      </g>
      <g id="Grupo_53543" data-name="Grupo 53543" transform="translate(24.787 32.685)">
        <g id="Grupo_53542" data-name="Grupo 53542">
          <path id="Trazado_100830" data-name="Trazado 100830" d="M-1033.685,470.419a1.79,1.79,0,0,0-1.789,1.789,1.79,1.79,0,0,0,1.789,1.789,1.791,1.791,0,0,0,1.789-1.789A1.79,1.79,0,0,0-1033.685,470.419Z" transform="translate(1035.474 -470.419)" fill="#fff"/>
        </g>
      </g>
    </g>
    <rect id="Rect치ngulo_5255" data-name="Rect치ngulo 5255" width="20.652" height="4.687" rx="2.344" transform="translate(-1113.515 386.561)" fill="#fff"/>
  </g>
</svg>
