<svg xmlns="http://www.w3.org/2000/svg" width="183.949" height="145.44" viewBox="0 0 183.949 145.44">
  <g id="graphics" transform="translate(0)">
    <g id="Grupo_53380" data-name="Grupo 53380" transform="translate(0)">
      <path id="Trazado_99520" data-name="Trazado 99520" d="M434.318,181.459c-9.481-16.268-30.414-25.037-54.637-16.249-4.768,1.729-11.022,4.235-16.872,6.646l21.389-28.3a4.738,4.738,0,0,0-7.561-5.714L347.7,176.126l-28.935-38.288a4.739,4.739,0,0,0-7.561,5.714l21.931,29.02c-6.324-2.62-13.364-5.46-18.606-7.362-24.015-8.712-45.059-.185-54.637,16.248A35.014,35.014,0,0,0,272.5,229.317c11.491,6.7,26.034,7.04,39.641-.149-4.894,16.98.461,32.391,9.87,41.8A35.411,35.411,0,0,0,347.248,281.4h.078A35.373,35.373,0,0,0,372.5,270.967c9.909-9.908,14.266-25.191,9.54-41.814,13.909,7.359,28.442,6.706,39.667.164A35.014,35.014,0,0,0,434.318,181.459ZM319.729,240.831h54.74A32.682,32.682,0,0,1,373,252.481h-51.66A31.921,31.921,0,0,1,319.729,240.831Zm1.643-9.442a49,49,0,0,1,6.676-13.57h38.414a51.8,51.8,0,0,1,6.369,13.57Zm25.75-38.673c3.37,4.481,8.462,11.153,13.242,17.007H334.152C336.815,206.424,340.822,201.224,347.123,192.716Zm-55.442,30.512a26.887,26.887,0,0,1-13.529-3.606,23.809,23.809,0,0,1-8.563-32.512c8.055-13.818,24.73-17.3,41.114-11.351,7.634,2.77,19.6,7.761,26.956,10.881C324.373,204.558,311.492,223.229,291.681,223.228Zm55.645,48.689h-.135a26.179,26.179,0,0,1-20.765-10.207h41.647A26.109,26.109,0,0,1,347.326,271.917Zm68.735-52.3c-13.177,7.681-29.554,2.727-41.469-10.487-5.378-5.964-13.21-16.153-18-22.51,7.363-3.121,19.3-8.1,26.919-10.866,16.15-5.859,32.965-2.631,41.115,11.352A23.808,23.808,0,0,1,416.061,219.621Z" transform="translate(-255.131 -135.956)" fill="#42210b"/>
      <path id="Trazado_99521" data-name="Trazado 99521" d="M302.617,259.286a26.886,26.886,0,0,1-13.529-3.606,23.809,23.809,0,0,1-8.563-32.512c8.055-13.818,24.73-17.3,41.114-11.351,7.634,2.77,19.6,7.762,26.956,10.881C335.309,240.616,322.428,259.286,302.617,259.286Z" transform="translate(-266.068 -172.014)" fill="#d39c00"/>
      <g id="Grupo_53379" data-name="Grupo 53379" transform="translate(64.567 56.76)">
        <path id="Trazado_99522" data-name="Trazado 99522" d="M424.091,248c-6.3,8.508-10.308,13.708-12.971,17.007h12.971Z" transform="translate(-396.667 -248.002)" fill="#d39c00"/>
        <path id="Trazado_99523" data-name="Trazado 99523" d="M411.644,297.558H392.57a49,49,0,0,0-6.676,13.57h25.75Z" transform="translate(-384.219 -272.454)" fill="#d39c00"/>
        <path id="Trazado_99524" data-name="Trazado 99524" d="M410.013,342.984H382.619a31.923,31.923,0,0,0,1.614,11.65h25.78Z" transform="translate(-382.588 -294.869)" fill="#d39c00"/>
        <path id="Trazado_99525" data-name="Trazado 99525" d="M416.566,384.2h-20.7a26.177,26.177,0,0,0,20.7,10.2Z" transform="translate(-389.141 -315.206)" fill="#d39c00"/>
      </g>
      <path id="Trazado_99526" data-name="Trazado 99526" d="M552.157,234.44c-1.548-2.493-4.585-5.007-7.883-5.007a3.883,3.883,0,1,1,0-7.766c6.709,0,11.88,4.483,14.482,8.68a3.883,3.883,0,1,1-6.6,4.094Z" transform="translate(-395.885 -178.248)" fill="#fff"/>
    </g>
  </g>
</svg>
