<svg xmlns="http://www.w3.org/2000/svg" width="84" height="84" viewBox="0 0 84 84">
  <g id="Grupo_53537" data-name="Grupo 53537" transform="translate(1120.294 -154.205)">
    <rect id="Rectángulo_5253" data-name="Rectángulo 5253" width="84" height="84" rx="5" transform="translate(-1120.294 154.205)" fill="#26c6da"/>
    <g id="Grupo_53536" data-name="Grupo 53536" transform="translate(-1108.747 165.752)">
      <g id="Grupo_53531" data-name="Grupo 53531" transform="translate(34.14)">
        <g id="Grupo_53530" data-name="Grupo 53530">
          <path id="Trazado_100824" data-name="Trazado 100824" d="M-987.224,196.875l-15.147-15.147a1.785,1.785,0,0,0-2.524,0l-8.049,8.049a1.785,1.785,0,0,0,0,2.524l15.147,15.147a1.778,1.778,0,0,0,1.262.523,1.778,1.778,0,0,0,1.262-.523l8.049-8.048A1.785,1.785,0,0,0-987.224,196.875Z" transform="translate(1013.468 -181.206)" fill="#fff"/>
        </g>
      </g>
      <g id="Grupo_53533" data-name="Grupo 53533" transform="translate(0 13.548)">
        <g id="Grupo_53532" data-name="Grupo 53532">
          <path id="Trazado_100825" data-name="Trazado 100825" d="M-1046.008,228.1l-15.147-15.147c-.022-.022-.037-.05-.059-.072l-17.075,8.537a1.788,1.788,0,0,0-.859.934l-14.145,35.361,21.695-21.694a5.3,5.3,0,0,1-.537-2.294,5.361,5.361,0,0,1,5.355-5.355,5.361,5.361,0,0,1,5.355,5.355,5.361,5.361,0,0,1-5.355,5.355,5.293,5.293,0,0,1-2.294-.537l-21.695,21.695,35.362-14.145a1.785,1.785,0,0,0,.934-.859l8.537-17.075C-1045.959,228.14-1045.986,228.125-1046.008,228.1Z" transform="translate(1093.294 -212.884)" fill="#fff"/>
        </g>
      </g>
      <g id="Grupo_53535" data-name="Grupo 53535" transform="translate(24.728 32.607)">
        <g id="Grupo_53534" data-name="Grupo 53534">
          <path id="Trazado_100826" data-name="Trazado 100826" d="M-1033.689,257.449a1.786,1.786,0,0,0-1.785,1.785,1.786,1.786,0,0,0,1.785,1.785,1.786,1.786,0,0,0,1.785-1.785A1.786,1.786,0,0,0-1033.689,257.449Z" transform="translate(1035.474 -257.449)" fill="#fff"/>
        </g>
      </g>
    </g>
    <path id="Trazado_100827" data-name="Trazado 100827" d="M-1085.169,188.443h-6.6v-6.918a1.29,1.29,0,0,0-1.29-1.29h-2.235a1.29,1.29,0,0,0-1.29,1.29v6.918h-6.6a1.29,1.29,0,0,0-1.29,1.29v2.1a1.29,1.29,0,0,0,1.29,1.29h6.6v6.988a1.29,1.29,0,0,0,1.29,1.29h2.235a1.29,1.29,0,0,0,1.29-1.29v-6.988h6.6a1.29,1.29,0,0,0,1.289-1.29v-2.1A1.29,1.29,0,0,0-1085.169,188.443Z" transform="translate(-9.049 -14.898)" fill="#fff"/>
  </g>
</svg>
