<svg xmlns="http://www.w3.org/2000/svg" width="84" height="84" viewBox="0 0 84 84">
  <g id="Grupo_53529" data-name="Grupo 53529" transform="translate(1120.294 58.765)">
    <rect id="Rectángulo_5252" data-name="Rectángulo 5252" width="84" height="84" rx="5" transform="translate(-1120.294 -58.765)" fill="#26c6da"/>
    <g id="Grupo_53528" data-name="Grupo 53528" transform="translate(-1108.747 -47.217)">
      <g id="Grupo_53523" data-name="Grupo 53523" transform="translate(34.14 0)">
        <g id="Grupo_53522" data-name="Grupo 53522">
          <path id="Trazado_100821" data-name="Trazado 100821" d="M-987.224-16.095l-15.147-15.147a1.785,1.785,0,0,0-2.524,0l-8.049,8.049a1.784,1.784,0,0,0,0,2.524L-997.8-5.522A1.778,1.778,0,0,0-996.535-5a1.778,1.778,0,0,0,1.262-.523l8.049-8.048A1.785,1.785,0,0,0-987.224-16.095Z" transform="translate(1013.468 31.764)" fill="#fff"/>
        </g>
      </g>
      <g id="Grupo_53525" data-name="Grupo 53525" transform="translate(0 13.548)">
        <g id="Grupo_53524" data-name="Grupo 53524" transform="translate(0 0)">
          <path id="Trazado_100822" data-name="Trazado 100822" d="M-1046.008,15.133-1061.156-.014c-.022-.022-.037-.049-.059-.072l-17.075,8.537a1.789,1.789,0,0,0-.859.934l-14.145,35.362,21.695-21.695a5.3,5.3,0,0,1-.537-2.294,5.361,5.361,0,0,1,5.355-5.355,5.361,5.361,0,0,1,5.355,5.355,5.361,5.361,0,0,1-5.355,5.355,5.294,5.294,0,0,1-2.294-.537l-21.695,21.695,35.362-14.144a1.787,1.787,0,0,0,.935-.86l8.537-17.075C-1045.959,15.17-1045.986,15.155-1046.008,15.133Z" transform="translate(1093.294 0.086)" fill="#fff"/>
        </g>
      </g>
      <g id="Grupo_53527" data-name="Grupo 53527" transform="translate(24.728 32.608)">
        <g id="Grupo_53526" data-name="Grupo 53526">
          <path id="Trazado_100823" data-name="Trazado 100823" d="M-1033.689,44.48a1.786,1.786,0,0,0-1.785,1.785,1.786,1.786,0,0,0,1.785,1.785,1.786,1.786,0,0,0,1.785-1.785A1.786,1.786,0,0,0-1033.689,44.48Z" transform="translate(1035.474 -44.48)" fill="#fff"/>
        </g>
      </g>
    </g>
  </g>
</svg>
