<svg xmlns="http://www.w3.org/2000/svg" width="85" height="85" viewBox="0 0 85 85">
  <g id="Grupo_53557" data-name="Grupo 53557" transform="translate(1169.794 58.765)">
    <rect id="Rectángulo_5258" data-name="Rectángulo 5258" width="85" height="85" rx="5" transform="translate(-1169.794 -58.765)" fill="#26c6da"/>
    <g id="Grupo_53555" data-name="Grupo 53555" transform="translate(-1152.064 -47.08)">
      <g id="Grupo_53550" data-name="Grupo 53550" transform="translate(34.546 0)">
        <g id="Grupo_53549" data-name="Grupo 53549">
          <path id="Trazado_100832" data-name="Trazado 100832" d="M-1022.441-15.908l-15.327-15.327a1.806,1.806,0,0,0-2.555,0l-8.144,8.145a1.806,1.806,0,0,0,0,2.554l15.327,15.327a1.8,1.8,0,0,0,1.277.53,1.8,1.8,0,0,0,1.277-.53l8.145-8.144A1.806,1.806,0,0,0-1022.441-15.908Z" transform="translate(1048.997 31.765)" fill="#fff"/>
        </g>
      </g>
      <g id="Grupo_53552" data-name="Grupo 53552" transform="translate(0 13.709)">
        <g id="Grupo_53551" data-name="Grupo 53551" transform="translate(0 0)">
          <path id="Trazado_100833" data-name="Trazado 100833" d="M-1080.975,15.314-1096.3-.013c-.023-.023-.038-.05-.06-.073l-17.279,8.639a1.811,1.811,0,0,0-.87.946l-14.313,35.783,21.953-21.953a5.357,5.357,0,0,1-.543-2.322A5.425,5.425,0,0,1-1102,15.587a5.425,5.425,0,0,1,5.419,5.419A5.425,5.425,0,0,1-1102,26.426a5.358,5.358,0,0,1-2.322-.543l-21.952,21.953,35.783-14.313a1.812,1.812,0,0,0,.946-.87l8.638-17.279C-1080.925,15.352-1080.953,15.337-1080.975,15.314Z" transform="translate(1128.824 0.086)" fill="#fff"/>
        </g>
      </g>
      <g id="Grupo_53554" data-name="Grupo 53554" transform="translate(25.022 32.996)">
        <g id="Grupo_53553" data-name="Grupo 53553">
          <path id="Trazado_100834" data-name="Trazado 100834" d="M-1069.2,44.48A1.808,1.808,0,0,0-1071,46.286a1.808,1.808,0,0,0,1.806,1.806,1.807,1.807,0,0,0,1.806-1.806A1.807,1.807,0,0,0-1069.2,44.48Z" transform="translate(1071.004 -44.48)" fill="#fff"/>
        </g>
      </g>
    </g>
    <g id="Grupo_53556" data-name="Grupo 53556" transform="translate(-1164.155 -27.606)">
      <path id="Trazado_100835" data-name="Trazado 100835" d="M-1147.522,56.282a8.982,8.982,0,0,1-6.861-2.871,9.4,9.4,0,0,1-1.883-9.271,8.282,8.282,0,0,1,6.692-5.5c3.6-.613,5.939-2.243,6.958-4.847,1.768-4.513-.625-11.856-6.243-19.162a.865.865,0,0,1,.158-1.214.865.865,0,0,1,1.214.158c6.077,7.9,8.5,15.7,6.483,20.849-1.239,3.163-4.1,5.211-8.28,5.922a6.514,6.514,0,0,0-5.346,4.36,7.745,7.745,0,0,0,1.526,7.541c1.916,2.1,4.9,2.8,8.392,1.949a.867.867,0,0,1,1.045.637.866.866,0,0,1-.638,1.045A13.683,13.683,0,0,1-1147.522,56.282Z" transform="translate(1156.765 -13.235)" fill="#fff"/>
    </g>
  </g>
</svg>
