<svg xmlns="http://www.w3.org/2000/svg" width="84" height="84" viewBox="0 0 84 84">
  <g id="Grupo_53583" data-name="Grupo 53583" transform="translate(1171.095 -980.896)">
    <rect id="Rectángulo_5264" data-name="Rectángulo 5264" width="84" height="84" rx="5" transform="translate(-1171.095 980.896)" fill="#26c6da"/>
    <g id="Grupo_53582" data-name="Grupo 53582" transform="translate(-1158.607 993.384)">
      <g id="Grupo_53575" data-name="Grupo 53575" transform="translate(0 0)">
        <g id="Grupo_53573" data-name="Grupo 53573">
          <path id="Trazado_100844" data-name="Trazado 100844" d="M-1112.384,1069.12a29.546,29.546,0,0,1-29.512-29.512,29.546,29.546,0,0,1,29.512-29.512,29.546,29.546,0,0,1,29.513,29.512A29.546,29.546,0,0,1-1112.384,1069.12Zm0-54.748a25.264,25.264,0,0,0-25.236,25.236,25.264,25.264,0,0,0,25.236,25.236,25.264,25.264,0,0,0,25.236-25.236A25.264,25.264,0,0,0-1112.384,1014.372Z" transform="translate(1141.896 -1010.095)" fill="#fff"/>
        </g>
        <g id="Grupo_53574" data-name="Grupo 53574" transform="translate(13.687 13.687)">
          <path id="Trazado_100845" data-name="Trazado 100845" d="M-1094.067,1073.749a15.843,15.843,0,0,1-15.826-15.825,15.844,15.844,0,0,1,15.826-15.826,15.843,15.843,0,0,1,15.826,15.826A15.843,15.843,0,0,1-1094.067,1073.749Zm0-27.374a11.562,11.562,0,0,0-11.549,11.549,11.562,11.562,0,0,0,11.549,11.548,11.562,11.562,0,0,0,11.549-11.548A11.562,11.562,0,0,0-1094.067,1046.375Z" transform="translate(1109.893 -1042.098)" fill="#fff"/>
        </g>
      </g>
      <g id="Grupo_53581" data-name="Grupo 53581" transform="translate(1.339 5.228)">
        <g id="Grupo_53576" data-name="Grupo 53576" transform="translate(26.035 22.146)">
          <path id="Trazado_100846" data-name="Trazado 100846" d="M-1075.751,1105.753a2.138,2.138,0,0,1-2.138-2.138V1076.24a2.138,2.138,0,0,1,2.138-2.138,2.138,2.138,0,0,1,2.138,2.138v27.374A2.138,2.138,0,0,1-1075.751,1105.753Z" transform="translate(1077.889 -1074.102)" fill="#fff"/>
        </g>
        <g id="Grupo_53577" data-name="Grupo 53577" transform="translate(26.035 22.146)">
          <path id="Trazado_100847" data-name="Trazado 100847" d="M-1049.716,1086.837a2.136,2.136,0,0,1-.661-.105l-26.035-8.459a2.138,2.138,0,0,1-1.373-2.694,2.138,2.138,0,0,1,2.694-1.373l26.035,8.459a2.138,2.138,0,0,1,1.373,2.694A2.14,2.14,0,0,1-1049.716,1086.837Z" transform="translate(1077.89 -1074.101)" fill="#fff"/>
        </g>
        <g id="Grupo_53578" data-name="Grupo 53578" transform="translate(26.035 0)">
          <path id="Trazado_100848" data-name="Trazado 100848" d="M-1075.752,1048.742a2.129,2.129,0,0,1-1.255-.409,2.138,2.138,0,0,1-.473-2.986l16.09-22.146a2.139,2.139,0,0,1,2.987-.473,2.138,2.138,0,0,1,.473,2.987l-16.09,22.146A2.135,2.135,0,0,1-1075.752,1048.742Z" transform="translate(1077.889 -1022.319)" fill="#fff"/>
        </g>
        <g id="Grupo_53579" data-name="Grupo 53579" transform="translate(9.945)">
          <path id="Trazado_100849" data-name="Trazado 100849" d="M-1097.281,1048.742a2.135,2.135,0,0,1-1.732-.882l-16.09-22.146a2.138,2.138,0,0,1,.473-2.987,2.139,2.139,0,0,1,2.987.473l16.09,22.146a2.138,2.138,0,0,1-.473,2.986A2.128,2.128,0,0,1-1097.281,1048.742Z" transform="translate(1115.511 -1022.319)" fill="#fff"/>
        </g>
        <g id="Grupo_53580" data-name="Grupo 53580" transform="translate(0 22.145)">
          <path id="Trazado_100850" data-name="Trazado 100850" d="M-1136.627,1086.837a2.139,2.139,0,0,1-2.033-1.478,2.138,2.138,0,0,1,1.373-2.694l26.035-8.459a2.137,2.137,0,0,1,2.695,1.373,2.138,2.138,0,0,1-1.373,2.694l-26.035,8.459A2.134,2.134,0,0,1-1136.627,1086.837Z" transform="translate(1138.765 -1074.1)" fill="#fff"/>
        </g>
      </g>
    </g>
  </g>
</svg>
