<svg xmlns="http://www.w3.org/2000/svg" width="84" height="84" viewBox="0 0 84 84">
  <g id="Grupo_53565" data-name="Grupo 53565" transform="translate(1170.729 -563.433)">
    <rect id="Rectángulo_5262" data-name="Rectángulo 5262" width="84" height="84" rx="5" transform="translate(-1170.729 563.433)" fill="#26c6da"/>
    <g id="Grupo_53564" data-name="Grupo 53564" transform="translate(-1156.569 578.165)">
      <path id="Trazado_100838" data-name="Trazado 100838" d="M-1106.125,652.411a33.231,33.231,0,0,1-23.571-9.748,27.127,27.127,0,0,1,0-38.32,22.13,22.13,0,0,1,31.26,0,18.131,18.131,0,0,1,0,25.613,14.817,14.817,0,0,1-10.548,4.369,14.818,14.818,0,0,1-10.547-4.369,12.375,12.375,0,0,1,0-17.481,10.329,10.329,0,0,1,14.59,0,8.624,8.624,0,0,1,2.542,6.138,8.624,8.624,0,0,1-2.542,6.138,7.381,7.381,0,0,1-10.426,0,2.138,2.138,0,0,1,0-3.024,2.139,2.139,0,0,1,3.024,0,3.1,3.1,0,0,0,4.378,0,4.409,4.409,0,0,0,0-6.228,6,6,0,0,0-4.271-1.769,6,6,0,0,0-4.271,1.769,8.093,8.093,0,0,0,0,11.433,10.57,10.57,0,0,0,7.523,3.116,10.57,10.57,0,0,0,7.524-3.116,13.85,13.85,0,0,0,0-19.565,17.848,17.848,0,0,0-25.212,0,22.845,22.845,0,0,0,0,32.271,29.09,29.09,0,0,0,41.095,0,2.139,2.139,0,0,1,3.024,0,2.139,2.139,0,0,1,0,3.025A33.232,33.232,0,0,1-1106.125,652.411Z" transform="translate(1137.619 -597.88)" fill="#fff"/>
    </g>
  </g>
</svg>
