<svg xmlns="http://www.w3.org/2000/svg" width="84" height="84" viewBox="0 0 84 84">
  <g id="Grupo_53597" data-name="Grupo 53597" transform="translate(2193.235 -667.272)">
    <rect id="Rectángulo_5274" data-name="Rectángulo 5274" width="84" height="84" rx="5" transform="translate(-2193.235 667.272)" fill="#26c6da"/>
    <g id="Grupo_53596" data-name="Grupo 53596" transform="translate(-2179.298 682.478)">
      <path id="Trazado_100856" data-name="Trazado 100856" d="M-2129.722,707.827l8.011,16.232,17.914,2.6L-2116.76,739.3l3.06,17.841-16.022-8.423-16.022,8.423,3.06-17.841-12.962-12.635,17.913-2.6Z" transform="translate(2157.785 -705.689)" fill="#afafaf"/>
      <path id="Trazado_100857" data-name="Trazado 100857" d="M-2148.606,756.415a2.138,2.138,0,0,1-1.257-.408,2.138,2.138,0,0,1-.851-2.091l2.87-16.733L-2160,725.332a2.139,2.139,0,0,1-.541-2.192,2.138,2.138,0,0,1,1.726-1.455l16.8-2.441,7.514-15.224a2.138,2.138,0,0,1,1.917-1.192,2.139,2.139,0,0,1,1.918,1.192l7.513,15.224,16.8,2.441a2.139,2.139,0,0,1,1.726,1.455,2.14,2.14,0,0,1-.541,2.192l-12.157,11.85,2.87,16.733a2.139,2.139,0,0,1-.851,2.092,2.14,2.14,0,0,1-2.252.163l-15.027-7.9-15.028,7.9A2.136,2.136,0,0,1-2148.606,756.415Zm-5.307-31.122,9.86,9.611a2.138,2.138,0,0,1,.615,1.892l-2.328,13.57,12.188-6.407a2.138,2.138,0,0,1,1.99,0l12.187,6.407-2.328-13.57a2.138,2.138,0,0,1,.615-1.892l9.86-9.611-13.626-1.98a2.139,2.139,0,0,1-1.61-1.17l-6.094-12.347-6.094,12.347a2.14,2.14,0,0,1-1.61,1.17Z" transform="translate(2160.647 -702.827)" fill="#fff"/>
    </g>
  </g>
</svg>
