<svg xmlns="http://www.w3.org/2000/svg" width="84" height="84" viewBox="0 0 84 84">
  <g id="Grupo_53591" data-name="Grupo 53591" transform="translate(2193.235 -55.999)">
    <rect id="Rect치ngulo_5270" data-name="Rect치ngulo 5270" width="84" height="84" rx="5" transform="translate(-2193.235 55.999)" fill="#26c6da"/>
    <g id="Grupo_53590" data-name="Grupo 53590" transform="translate(-2184.231 75.289)">
      <path id="Rect치ngulo_5271" data-name="Rect치ngulo 5271" d="M13,0H47.714a14,14,0,0,1,14,14V36.143a5,5,0,0,1-5,5H13a13,13,0,0,1-13-13V13A13,13,0,0,1,13,0Z" transform="translate(2.138 2.138)" fill="#afafaf"/>
      <path id="Trazado_100852" data-name="Trazado 100852" d="M-2117.863,146.524h-42.645a11.686,11.686,0,0,1-11.673-11.673V112.777a11.686,11.686,0,0,1,11.673-11.673h42.645a11.686,11.686,0,0,1,11.673,11.673v22.074A11.686,11.686,0,0,1-2117.863,146.524Zm-42.645-41.143a7.4,7.4,0,0,0-7.4,7.4v22.074a7.4,7.4,0,0,0,7.4,7.4h42.645a7.4,7.4,0,0,0,7.4-7.4V112.777a7.4,7.4,0,0,0-7.4-7.4Z" transform="translate(2172.181 -101.104)" fill="#fff"/>
    </g>
  </g>
</svg>
