<svg xmlns="http://www.w3.org/2000/svg" width="84" height="84" viewBox="0 0 84 84">
  <g id="Grupo_53604" data-name="Grupo 53604" transform="translate(2585 147.758)">
    <rect id="Rectángulo_5279" data-name="Rectángulo 5279" width="84" height="84" rx="5" transform="translate(-2585 -147.758)" fill="#26c6da"/>
    <g id="Grupo_53603" data-name="Grupo 53603" transform="translate(-2570.022 -132.36)">
      <path id="Trazado_100860" data-name="Trazado 100860" d="M-2534.539-81.266l33.829-29.769a2.875,2.875,0,0,1,4.06.258,2.878,2.878,0,0,1,0,3.8l-29.769,33.83a5.754,5.754,0,0,1-8.12.52,5.754,5.754,0,0,1-.517-8.12A6.629,6.629,0,0,1-2534.539-81.266Zm-15.436,22.306c-.212.87,10.087.8,14.434-4.787,2.811-3.614,2.086-7.144-.732-8.916-3.7-2.317-7.6-.085-8.053,2.638C-2545.336-63.938-2545.471-62.061-2549.975-58.96Z" transform="translate(2549.979 111.753)" fill="#fff"/>
    </g>
  </g>
</svg>
