<svg xmlns="http://www.w3.org/2000/svg" width="84.333" height="84.333" viewBox="0 0 84.333 84.333">
  <g id="Grupo_53595" data-name="Grupo 53595" transform="translate(2193.235 -463.514)">
    <rect id="Rectángulo_5273" data-name="Rectángulo 5273" width="84.334" height="84.334" rx="5" transform="translate(-2193.235 463.514)" fill="#26c6da"/>
    <g id="Grupo_53594" data-name="Grupo 53594" transform="translate(-2184.195 476.705)">
      <path id="Trazado_100854" data-name="Trazado 100854" d="M-2120.711,499.235h-30.98l-15.49,26.829,15.49,26.829h30.98l15.49-26.829Z" transform="translate(2169.328 -497.088)" fill="#afafaf"/>
      <path id="Trazado_100855" data-name="Trazado 100855" d="M-2123.564,552.187h-30.979a2.147,2.147,0,0,1-1.859-1.073l-15.49-26.829a2.147,2.147,0,0,1,0-2.147l15.49-26.829a2.147,2.147,0,0,1,1.859-1.073h30.979a2.146,2.146,0,0,1,1.859,1.073l15.49,26.829a2.147,2.147,0,0,1,0,2.147l-15.49,26.829A2.146,2.146,0,0,1-2123.564,552.187Zm-29.74-4.294h28.5l14.25-24.682-14.25-24.682h-28.5l-14.25,24.682Z" transform="translate(2172.181 -494.235)" fill="#fff"/>
    </g>
  </g>
</svg>
