<svg xmlns="http://www.w3.org/2000/svg" width="84" height="84" viewBox="0 0 84 84">
  <g id="Grupo_53609" data-name="Grupo 53609" transform="translate(2585 -297.823)">
    <rect id="Rectángulo_5287" data-name="Rectángulo 5287" width="84" height="84" rx="5" transform="translate(-2585 297.824)" fill="#26c6da"/>
    <g id="Grupo_53608" data-name="Grupo 53608" transform="translate(-2570.022 311.6)">
      <path id="Trazado_100863" data-name="Trazado 100863" d="M-2446.389,351.542l5.931-5.883a4.885,4.885,0,0,0,1.439-3.477,4.884,4.884,0,0,0-1.439-3.477l-7.37-7.376a4.783,4.783,0,0,0-2.465-1.294A38.15,38.15,0,0,0-2446.389,351.542Z" transform="translate(2493.063 -330.036)" fill="#fff"/>
      <path id="Trazado_100864" data-name="Trazado 100864" d="M-2471.07,366.088l4.331-4.3a45.064,45.064,0,0,1-5.906-22.626l-.247.249-4.148,4.189A32.588,32.588,0,0,0-2471.07,366.088Z" transform="translate(2508.347 -335.261)" fill="#fff"/>
      <path id="Trazado_100865" data-name="Trazado 100865" d="M-2498.326,365.777l-4.094,4.134c.326,5.673,2.015,13.786,8.238,20.036l3.774-3.744A40.348,40.348,0,0,1-2498.326,365.777Z" transform="translate(2522.76 -350.492)" fill="#fff"/>
      <path id="Trazado_100866" data-name="Trazado 100866" d="M-2535.808,390.009l-8.9,8.989c-.012.012-.012.031-.023.044a1.191,1.191,0,0,0-.286.485l-2.133,7.468-2.78,9.742a1.228,1.228,0,0,0,.313,1.206,1.225,1.225,0,0,0,.869.361,1.248,1.248,0,0,0,.337-.047l9.734-2.783,7.462-2.135c.022-.006.038-.024.06-.031a1.211,1.211,0,0,0,.216-.112,1.215,1.215,0,0,0,.2-.132c.016-.014.037-.019.052-.034l4.426-4.39A35.167,35.167,0,0,1-2535.808,390.009Zm3.025,21.22-5.876,1.682-5.931-5.937,1.68-5.881h3.227l.96,1.919a1.222,1.222,0,0,0,.544.545l2.934,2.937a1.224,1.224,0,0,0,.544.545l1.918.961Z" transform="translate(2549.979 -364.36)" fill="#fff"/>
    </g>
  </g>
</svg>
