<svg xmlns="http://www.w3.org/2000/svg" width="85" height="85" viewBox="0 0 85 85">
  <g id="Grupo_53630" data-name="Grupo 53630" transform="translate(4693.588 -495.029)">
    <rect id="Rectángulo_5340" data-name="Rectángulo 5340" width="85" height="85" rx="5" transform="translate(-4693.588 495.029)" fill="#26c6da"/>
    <path id="Trazado_100895" data-name="Trazado 100895" d="M-4622.03,613.5a10.187,10.187,0,0,1-7.227-2.989l-27.876-27.876a5.359,5.359,0,0,0-7.571,0l-3.441-3.442a10.233,10.233,0,0,1,14.454,0l27.876,27.876a5.36,5.36,0,0,0,7.571,0l3.441,3.441A10.193,10.193,0,0,1-4622.03,613.5Z" transform="translate(-14.432 -46.045)" fill="#fff"/>
    <path id="Trazado_100896" data-name="Trazado 100896" d="M-4604.224,522.089l-6.588,6.589,3.039,3.039,2.334-2.334,6.387,6.387-16.022,16.023-4.593-4.593-3.647,3.647,13.421,13.421,3.647-3.647-4.574-4.573,16.023-16.023,6.366,6.366-2.334,2.334,3.039,3.039,6.589-6.589Z" transform="translate(-39.862 -15.349)" fill="#fff"/>
  </g>
</svg>
