<svg xmlns="http://www.w3.org/2000/svg" width="83.667" height="83.667" viewBox="0 0 83.667 83.667">
  <g id="Grupo_53623" data-name="Grupo 53623" transform="translate(4693.588 -290.323)">
    <rect id="Rectángulo_5338" data-name="Rectángulo 5338" width="83.667" height="83.667" rx="5" transform="translate(-4693.588 290.323)" fill="#26c6da"/>
    <path id="Trazado_100868" data-name="Trazado 100868" d="M-4647.618,338.941v12.691h4.868v-7.823h12.168V376.32h-6.955v4.867h24.337V376.32h-6.952V343.809h12.168v7.823h4.867V338.941Z" transform="translate(-26.388 -27.908)" fill="#fff"/>
    <g id="Grupo_53622" data-name="Grupo 53622" transform="translate(-4681.798 304.821)">
      <path id="Trazado_100869" data-name="Trazado 100869" d="M-4622.466,379.028h-26.8a7.8,7.8,0,0,1-7.651-6.117l-8.8-38.985a7.806,7.806,0,0,1,1.525-6.624,7.8,7.8,0,0,1,6.126-2.945h44.4a7.8,7.8,0,0,1,6.126,2.945,7.8,7.8,0,0,1,1.525,6.624l-8.8,38.985A7.8,7.8,0,0,1-4622.466,379.028Zm-35.6-52.542a5.687,5.687,0,0,0-4.463,2.146,5.688,5.688,0,0,0-1.11,4.825l8.8,38.985a5.682,5.682,0,0,0,5.573,4.456h26.8a5.683,5.683,0,0,0,5.573-4.456l8.8-38.985a5.685,5.685,0,0,0-1.111-4.825,5.685,5.685,0,0,0-4.462-2.146Z" transform="translate(4665.911 -324.357)" fill="#fff"/>
    </g>
  </g>
</svg>
