<svg xmlns="http://www.w3.org/2000/svg" xmlns:xlink="http://www.w3.org/1999/xlink" width="812" height="474.482" viewBox="0 0 812 474.482">
  <defs>
    <clipPath id="clip-path">
      <path id="Trazado_99680" data-name="Trazado 99680" d="M130.672,156.91c-13.8-28.965-42.109-30.483-39.632-18.066s26.893,16.953,26.893,46.349,11.323,48.234,11.323,48.234L150.9,218.783C127.961,204.983,144.472,185.874,130.672,156.91Z" transform="translate(-90.887 -131.466)" fill="#fff" stroke="#813e38" stroke-linecap="round" stroke-linejoin="round" stroke-width="1"/>
    </clipPath>
    <clipPath id="clip-path-2">
      <path id="Trazado_99684" data-name="Trazado 99684" d="M187.652,126.805s-10.991,7.88-18.438,24.243a171.49,171.49,0,0,1-22.485,36.037c-18.166,22.676-25.294,43.411-10.921,57.784,18.294,18.293,82.6,19.765,107.2-25.864s-2.468-92.2-2.468-92.2Z" transform="translate(-128.154 -126.805)" fill="#fff" stroke="#813e38" stroke-linecap="round" stroke-linejoin="round" stroke-width="1"/>
    </clipPath>
    <clipPath id="clip-path-3">
      <path id="Trazado_99688" data-name="Trazado 99688" d="M551.5,228.557s-12.247-18.037-33.485-2.218c-6.777-15.45,5.585-42.115,32.047-38.118s40.829,50.582,3.021,67.168c-18.9,8.292-35.912-.765-38.4-9.446,0,0-20.186-32.874,11.106-50.851" transform="translate(-508.276 -187.818)" fill="#f0b571" stroke="#813e38" stroke-linecap="round" stroke-linejoin="round" stroke-width="1"/>
    </clipPath>
    <clipPath id="clip-path-4">
      <path id="Trazado_99693" data-name="Trazado 99693" d="M472.261,123.031s10.362,9.4,16.079,27.093a177.4,177.4,0,0,0,18.843,39.69c15.985,25.45,20.858,47.6,4.388,60.669-20.961,16.634-103.33,5.362-123.216-44.436s29.558-89.271,29.558-89.271Z" transform="translate(-383.639 -116.776)" fill="#f0b571" stroke="#813e38" stroke-linecap="round" stroke-linejoin="round" stroke-width="1"/>
    </clipPath>
    <clipPath id="clip-path-5">
      <path id="Trazado_99697" data-name="Trazado 99697" d="M175.723,134.54s-7.105,5.329-5.192,12.024c-14.484,21.726-38.791,31.234-28.4,49.463,6.684,6.685,24.429,15.851,24.429,15.851l96.721-40.061-16.37-33.179Z" transform="translate(-139.621 -134.54)" fill="#b6e3f6" stroke="#813e38" stroke-linecap="round" stroke-linejoin="round" stroke-width="1"/>
    </clipPath>
    <clipPath id="clip-path-6">
      <path id="Trazado_99701" data-name="Trazado 99701" d="M419.887,130.957s-.822,19.472,24.1,36.379c-12.713,30.863-17.3,27.621-17.3,27.621l-29.705-29.705s11.19-18.453,11.3-29.08S419.887,130.957,419.887,130.957Z" transform="translate(-396.983 -129.579)" fill="#fdbdbd" stroke="#813e38" stroke-linecap="round" stroke-linejoin="round" stroke-width="1"/>
    </clipPath>
    <clipPath id="clip-path-7">
      <path id="Trazado_99706" data-name="Trazado 99706" d="M450.439,136.877s-20.26,14.9-21.125,49.246c3.5,28,47.56,35.341,47.56,35.341s30.094-2.684,43.91-20.447c-13.252-21-25.234-64.282-38.344-72.6C458.9,135.89,450.439,136.877,450.439,136.877Z" transform="translate(-429.314 -128.419)" fill="#fdbdbd" stroke="#813e38" stroke-linecap="round" stroke-linejoin="round" stroke-width="1"/>
    </clipPath>
    <clipPath id="clip-path-8">
      <path id="Trazado_99714" data-name="Trazado 99714" d="M316.014,152.428,130.835,208.956l155.872,56.528,185.179-56.528Z" transform="translate(-130.835 -152.428)" fill="#bb6d47" stroke="#813e38" stroke-linecap="round" stroke-linejoin="round" stroke-width="1"/>
    </clipPath>
    <clipPath id="clip-path-9">
      <path id="Trazado_99721" data-name="Trazado 99721" d="M390.948,129.572s-11.094,2.287-21.933,13.126c14.439,22.388,25.455,25.8,25.455,25.8S423.8,127.912,390.948,129.572Z" transform="translate(-369.015 -129.523)" fill="#fdbdbd" stroke="#813e38" stroke-linecap="round" stroke-linejoin="round" stroke-width="1"/>
    </clipPath>
    <clipPath id="clip-path-10">
      <path id="Trazado_99728" data-name="Trazado 99728" d="M486.758,97.093c0,27.375-24.532,37.425-54.795,37.425s-54.795-10.05-54.795-37.425S401.7,51.466,431.963,51.466,486.758,69.718,486.758,97.093Z" transform="translate(-377.168 -51.466)" fill="#fff" stroke="#813e38" stroke-linecap="round" stroke-linejoin="round" stroke-width="1"/>
    </clipPath>
    <clipPath id="clip-path-11">
      <path id="Trazado_99758" data-name="Trazado 99758" d="M510.321,305.65c-2.159-9.5-7.585-21.069-20.368-30.947a56.43,56.43,0,0,0-24.3-46.553l-35.2,10.743L379.6,254.414l-46.748,14.266-52.424,16-48.066-17.432-43.624-15.82L152.91,238.435l-28.357-10.284a56.43,56.43,0,0,0-24.3,46.553c-13.271,10.254-18.614,22.331-20.6,32.025a20.665,20.665,0,0,0,12.288,23.155l29.7,12.483,41.3,17.36,49.971,21,35.115,14.76a89.424,89.424,0,0,0,65.389,1.516l1.708-.627a89.539,89.539,0,0,0,35.685-24.114l.191-.213c7.059-7.834,15.717-17.551,26.075-29.354,9.82-11.19,19.162-17.874,27.877-21.586,20.043-8.537,36.764-1.327,48.319,3.137q2.431.938,4.862,1.815a130.859,130.859,0,0,0,17.678,5.17,39.337,39.337,0,0,0,21.418-1.655h0A20.668,20.668,0,0,0,510.321,305.65Z" transform="translate(-79.235 -228.151)" fill="none"/>
    </clipPath>
    <clipPath id="clip-path-12">
      <path id="Trazado_99767" data-name="Trazado 99767" d="M242.788,164.436s21-8.234,34.7-1.656c17.215-12.512,29.48-8.007,29.48-8.007L293.2,185.657c-7.808-.232-10.765-.952-20.826,5.47,0,0-20.987-2.453-33.72,6.8Z" transform="translate(-238.65 -153.984)" fill="#ff6b79" stroke="#813e38" stroke-linecap="round" stroke-linejoin="round" stroke-width="1"/>
    </clipPath>
    <clipPath id="clip-path-13">
      <path id="Trazado_99781" data-name="Trazado 99781" d="M537.335,366.269c-9.108,19.593-31.4,23.246-31.4,23.246-9.327-.247-19.7-3.054-30.277-7.586-26.778-11.48-44.673-29.679-34.289-53.9s39.015-31.066,65.792-19.587S548.445,342.371,537.335,366.269Z" transform="translate(-438.381 -303.017)" fill="#e1904e" stroke="#813e38" stroke-linecap="round" stroke-linejoin="round" stroke-width="1"/>
    </clipPath>
    <clipPath id="clip-path-14">
      <path id="Trazado_99835" data-name="Trazado 99835" d="M244.331,408.722c-16.144-7.409-12.149-29.823-57.084-8.213-24.552,11.807-13.762,35.754,5.632,35.754S244.331,408.722,244.331,408.722Z" transform="translate(-173.029 -391.346)" fill="#9d4c31" stroke="#813e38" stroke-linecap="round" stroke-linejoin="round" stroke-width="1"/>
    </clipPath>
    <clipPath id="clip-path-15">
      <path id="Trazado_99839" data-name="Trazado 99839" d="M244.844,210.561s-1.23,18.707,17.726,18.707S280.3,210.561,280.3,210.561Z" transform="translate(-244.827 -210.561)" fill="#f5d977" stroke="#813e38" stroke-linecap="round" stroke-linejoin="round" stroke-width="1"/>
    </clipPath>
    <clipPath id="clip-path-16">
      <path id="Trazado_99843" data-name="Trazado 99843" d="M244.846,210.064c0,1.981,7.936,3.589,17.726,3.589s17.726-1.607,17.726-3.589-7.936-3.589-17.726-3.589S244.846,208.081,244.846,210.064Z" transform="translate(-244.846 -206.475)" fill="#c38763" stroke="#813e38" stroke-linecap="round" stroke-linejoin="round" stroke-width="1"/>
    </clipPath>
    <clipPath id="clip-path-17">
      <path id="Trazado_99847" data-name="Trazado 99847" d="M331.682,184.78s-1.23,18.707,17.726,18.707,17.726-18.707,17.726-18.707Z" transform="translate(-331.666 -184.78)" fill="#f5d977" stroke="#813e38" stroke-linecap="round" stroke-linejoin="round" stroke-width="1"/>
    </clipPath>
    <clipPath id="clip-path-18">
      <path id="Trazado_99851" data-name="Trazado 99851" d="M331.684,184.283c0,1.982,7.936,3.589,17.726,3.589s17.726-1.606,17.726-3.589-7.936-3.589-17.726-3.589S331.684,182.3,331.684,184.283Z" transform="translate(-331.684 -180.694)" fill="#c38763" stroke="#813e38" stroke-linecap="round" stroke-linejoin="round" stroke-width="1"/>
    </clipPath>
    <clipPath id="clip-path-19">
      <path id="Trazado_99898" data-name="Trazado 99898" d="M170.3,100.634c0,27.375,24.533,37.425,54.795,37.425s54.795-10.05,54.795-37.425-24.532-45.627-54.795-45.627S170.3,73.26,170.3,100.634Z" transform="translate(-170.296 -55.007)" fill="#fff" stroke="#813e38" stroke-linecap="round" stroke-linejoin="round" stroke-width="1"/>
    </clipPath>
    <clipPath id="clip-path-20">
      <path id="Trazado_99910" data-name="Trazado 99910" d="M493.852,181.09s-4.855,9.916-14.045,15.2l-6.883-2.5c-11.076-20.086-20.511-18.425-20.511-18.425s1.894-27.034,18.535-33.977" transform="translate(-452.413 -141.388)" fill="#fdbdbd" stroke="#813e38" stroke-linecap="round" stroke-linejoin="round" stroke-width="1"/>
    </clipPath>
    <clipPath id="clip-path-21">
      <path id="Trazado_99916" data-name="Trazado 99916" d="M412.3,213.953q-.353-.37-.72-.724c-8.235-7.941-19.408-7.942-27.638.011q-.361.348-.709.713c-5.825,6.1,3.8,7.8,14.5,7.805h.06C408.5,221.752,418.119,220.058,412.3,213.953Z" transform="translate(-381.47 -207.275)" fill="#f4d096" stroke="#813e38" stroke-linecap="round" stroke-linejoin="round" stroke-width="1"/>
    </clipPath>
    <clipPath id="clip-path-22">
      <path id="Trazado_99922" data-name="Trazado 99922" d="M302.362,239.119q-.354-.37-.721-.724c-8.235-7.941-19.408-7.941-27.638.011q-.361.349-.709.713c-5.824,6.1,3.8,7.8,14.5,7.805h.059C298.562,246.918,308.185,245.224,302.362,239.119Z" transform="translate(-271.536 -232.441)" fill="#f4d096" stroke="#813e38" stroke-linecap="round" stroke-linejoin="round" stroke-width="1"/>
    </clipPath>
    <clipPath id="clip-path-23">
      <path id="Trazado_99928" data-name="Trazado 99928" d="M434.431,222.2q-.354-.37-.721-.724c-8.235-7.941-19.408-7.942-27.638.011q-.361.348-.709.713c-5.824,6.1,3.8,7.8,14.5,7.805h.059C430.631,230,440.254,228.3,434.431,222.2Z" transform="translate(-403.605 -215.521)" fill="#f4d096" stroke="#813e38" stroke-linecap="round" stroke-linejoin="round" stroke-width="1"/>
    </clipPath>
  </defs>
  <g id="Grupo_53485" data-name="Grupo 53485" transform="translate(7031 10198.938)">
    <rect id="dylan-shaw-UxyWwU6n_ts-unsplash" width="812" height="474.482" transform="translate(-7031 -10198.938)" fill="#f9e1e1"/>
    <g id="OBJECTS" transform="translate(-6914.309 -10184.483)">
      <g id="Grupo_53479" data-name="Grupo 53479" transform="translate(31.851 26.483)">
        <g id="Grupo_53393" data-name="Grupo 53393" transform="translate(51.849 92.201)">
          <path id="Trazado_99677" data-name="Trazado 99677" d="M130.672,156.91c-13.8-28.965-42.109-30.483-39.632-18.066s26.893,16.953,26.893,46.349,11.323,48.234,11.323,48.234L150.9,218.783C127.961,204.983,144.472,185.874,130.672,156.91Z" transform="translate(-90.887 -131.466)" fill="#fff"/>
          <g id="Grupo_53392" data-name="Grupo 53392" clip-path="url(#clip-path)">
            <path id="Trazado_99678" data-name="Trazado 99678" d="M124.739,137.149c-7.688,20.77-33.852,21.5-33.852,21.5l17.236,20.177c23.065,0,33.481-18.805,33.481-18.805S144.239,156.649,124.739,137.149Z" transform="translate(-90.887 -132.158)" fill="#f0b571"/>
            <path id="Trazado_99679" data-name="Trazado 99679" d="M138.057,194.033c-7.688,20.77-33.852,21.5-33.852,21.5l17.236,20.177c23.065,0,33.481-18.805,33.481-18.805S157.557,213.533,138.057,194.033Z" transform="translate(-92.509 -139.083)" fill="#f0b571"/>
          </g>
          <path id="Trazado_99681" data-name="Trazado 99681" d="M130.672,156.91c-13.8-28.965-42.109-30.483-39.632-18.066s26.893,16.953,26.893,46.349,11.323,48.234,11.323,48.234L150.9,218.783C127.961,204.983,144.472,185.874,130.672,156.91Z" transform="translate(-90.887 -131.466)" fill="none" stroke="#813e38" stroke-linecap="round" stroke-linejoin="round" stroke-width="1"/>
        </g>
        <ellipse id="Elipse_3955" data-name="Elipse 3955" cx="257.458" cy="114.061" rx="257.458" ry="114.061" transform="translate(0 164.485)" fill="#f09d6b" stroke="#813e38" stroke-linecap="round" stroke-linejoin="round" stroke-width="1"/>
        <ellipse id="Elipse_3956" data-name="Elipse 3956" cx="228.787" cy="86.813" rx="228.787" ry="86.813" transform="translate(28.671 191.733)" fill="#f4d096"/>
        <g id="Grupo_53395" data-name="Grupo 53395" transform="translate(84.578 88.108)">
          <path id="Trazado_99682" data-name="Trazado 99682" d="M187.652,126.805s-10.991,7.88-18.438,24.243a171.49,171.49,0,0,1-22.485,36.037c-18.166,22.676-25.294,43.411-10.921,57.784,18.294,18.293,82.6,19.765,107.2-25.864s-2.468-92.2-2.468-92.2Z" transform="translate(-128.154 -126.805)" fill="#fff"/>
          <g id="Grupo_53394" data-name="Grupo 53394" transform="translate(0)" clip-path="url(#clip-path-2)">
            <path id="Trazado_99683" data-name="Trazado 99683" d="M161.911,146.031l-48.858,73.36C207.048,226.336,161.911,146.031,161.911,146.031Z" transform="translate(-126.315 -129.146)" fill="#f0b571"/>
          </g>
          <path id="Trazado_99685" data-name="Trazado 99685" d="M187.652,126.805s-10.991,7.88-18.438,24.243a171.49,171.49,0,0,1-22.485,36.037c-18.166,22.676-25.294,43.411-10.921,57.784,18.294,18.293,82.6,19.765,107.2-25.864s-2.468-92.2-2.468-92.2Z" transform="translate(-128.154 -126.805)" fill="none" stroke="#813e38" stroke-linecap="round" stroke-linejoin="round" stroke-width="1"/>
        </g>
        <g id="Grupo_53397" data-name="Grupo 53397" transform="translate(418.42 141.692)">
          <path id="Trazado_99686" data-name="Trazado 99686" d="M551.5,228.557s-12.247-18.037-33.485-2.218c-6.777-15.45,5.585-42.115,32.047-38.118s40.829,50.582,3.021,67.168c-18.9,8.292-35.912-.765-38.4-9.446,0,0-20.186-32.874,11.106-50.851" transform="translate(-508.276 -187.818)" fill="#f0b571"/>
          <g id="Grupo_53396" data-name="Grupo 53396" clip-path="url(#clip-path-3)">
            <path id="Trazado_99687" data-name="Trazado 99687" d="M530.842,168.983s39.556,63.356-16.936,131.339L499.763,176.4Z" transform="translate(-507.239 -185.525)" fill="#bb6d47" opacity="0.15" style="mix-blend-mode: multiply;isolation: isolate"/>
          </g>
          <path id="Trazado_99689" data-name="Trazado 99689" d="M551.5,228.557s-12.247-18.037-33.485-2.218c-6.777-15.45,5.585-42.115,32.047-38.118s40.829,50.582,3.021,67.168c-18.9,8.292-35.912-.765-38.4-9.446,0,0-20.186-32.874,11.106-50.851" transform="translate(-508.276 -187.818)" fill="none" stroke="#813e38" stroke-linecap="round" stroke-linejoin="round" stroke-width="1"/>
        </g>
        <g id="Grupo_53399" data-name="Grupo 53399" transform="translate(308.958 79.3)">
          <path id="Trazado_99690" data-name="Trazado 99690" d="M472.261,123.031s10.362,9.4,16.079,27.093a177.4,177.4,0,0,0,18.843,39.69c15.985,25.45,20.858,47.6,4.388,60.669-20.961,16.634-103.33,5.362-123.216-44.436s29.558-89.271,29.558-89.271Z" transform="translate(-383.639 -116.776)" fill="#f0b571"/>
          <g id="Grupo_53398" data-name="Grupo 53398" clip-path="url(#clip-path-4)">
            <path id="Trazado_99691" data-name="Trazado 99691" d="M460.064,110.759s-33.122,97.939,33.68,145.557c-91.828,6.294-111.979-35.407-114.569-84.747S429.795,93.565,460.064,110.759Z" transform="translate(-383.084 -115.433)" fill="#fff"/>
            <path id="Trazado_99692" data-name="Trazado 99692" d="M451,117.685" transform="translate(-391.84 -116.887)" fill="#fdbdbd" stroke="#813e38" stroke-linecap="round" stroke-linejoin="round" stroke-width="1"/>
          </g>
          <path id="Trazado_99694" data-name="Trazado 99694" d="M472.261,123.031s10.362,9.4,16.079,27.093a177.4,177.4,0,0,0,18.843,39.69c15.985,25.45,20.858,47.6,4.388,60.669-20.961,16.634-103.33,5.362-123.216-44.436s29.558-89.271,29.558-89.271Z" transform="translate(-383.639 -116.776)" fill="none" stroke="#813e38" stroke-linecap="round" stroke-linejoin="round" stroke-width="1"/>
        </g>
        <g id="Grupo_53401" data-name="Grupo 53401" transform="translate(94.649 94.901)">
          <path id="Trazado_99695" data-name="Trazado 99695" d="M175.723,134.54s-7.105,5.329-5.192,12.024c-14.484,21.726-38.791,31.234-28.4,49.463,6.684,6.685,24.429,15.851,24.429,15.851l96.721-40.061-16.37-33.179Z" transform="translate(-139.621 -134.54)" fill="#b6e3f6"/>
          <g id="Grupo_53400" data-name="Grupo 53400" clip-path="url(#clip-path-5)">
            <path id="Trazado_99696" data-name="Trazado 99696" d="M261.707,170.5s-79.4-22.853-111.244,59.6l115.11-48.019Z" transform="translate(-140.941 -138.564)" fill="#bb6d47" opacity="0.15" style="mix-blend-mode: multiply;isolation: isolate"/>
          </g>
          <path id="Trazado_99698" data-name="Trazado 99698" d="M175.723,134.54s-7.105,5.329-5.192,12.024c-14.484,21.726-38.791,31.234-28.4,49.463,6.684,6.685,24.429,15.851,24.429,15.851l96.721-40.061-16.37-33.179Z" transform="translate(-139.621 -134.54)" fill="none" stroke="#813e38" stroke-linecap="round" stroke-linejoin="round" stroke-width="1"/>
        </g>
        <g id="Grupo_53403" data-name="Grupo 53403" transform="translate(320.677 90.544)">
          <path id="Trazado_99699" data-name="Trazado 99699" d="M419.887,130.957s-.822,19.472,24.1,36.379c-12.713,30.863-17.3,27.621-17.3,27.621l-29.705-29.705s11.19-18.453,11.3-29.08S419.887,130.957,419.887,130.957Z" transform="translate(-396.983 -129.579)" fill="#fdbdbd"/>
          <g id="Grupo_53402" data-name="Grupo 53402" clip-path="url(#clip-path-6)">
            <path id="Trazado_99700" data-name="Trazado 99700" d="M451.8,183.162l5.378-4.593s-37.254-15.736-41.008-51.98c-3.163,1.863-7.14,3.99-7.14,3.99S415.468,169.088,451.8,183.162Z" transform="translate(-398.45 -129.215)" fill="#ff6b79"/>
          </g>
          <path id="Trazado_99702" data-name="Trazado 99702" d="M419.887,130.957s-.822,19.472,24.1,36.379c-12.713,30.863-17.3,27.621-17.3,27.621l-29.705-29.705s11.19-18.453,11.3-29.08S419.887,130.957,419.887,130.957Z" transform="translate(-396.983 -129.579)" fill="none" stroke="#813e38" stroke-linecap="round" stroke-linejoin="round" stroke-width="1"/>
        </g>
        <g id="Grupo_53405" data-name="Grupo 53405" transform="translate(349.072 89.525)">
          <path id="Trazado_99703" data-name="Trazado 99703" d="M450.439,136.877s-20.26,14.9-21.125,49.246c3.5,28,47.56,35.341,47.56,35.341s30.094-2.684,43.91-20.447c-13.252-21-25.234-64.282-38.344-72.6C458.9,135.89,450.439,136.877,450.439,136.877Z" transform="translate(-429.314 -128.419)" fill="#fdbdbd"/>
          <g id="Grupo_53404" data-name="Grupo 53404" clip-path="url(#clip-path-7)">
            <path id="Trazado_99704" data-name="Trazado 99704" d="M528.143,199.387l-7.116-6.229s-5.8,20.728-43.3,22.887c1.362,3.408,3.085,7.828,3.085,7.828S518.1,225.421,528.143,199.387Z" transform="translate(-435.208 -136.301)" fill="#ff6b79"/>
            <path id="Trazado_99705" data-name="Trazado 99705" d="M434.105,200.279l6.757,2.088s-6.625-39.895,21.991-62.45c-3.265-1.677-7.189-3.9-7.189-3.9S426.565,162.049,434.105,200.279Z" transform="translate(-429.745 -129.344)" fill="#ff6b79"/>
          </g>
          <path id="Trazado_99707" data-name="Trazado 99707" d="M450.439,136.877s-20.26,14.9-21.125,49.246c3.5,28,47.56,35.341,47.56,35.341s30.094-2.684,43.91-20.447c-13.252-21-25.234-64.282-38.344-72.6C458.9,135.89,450.439,136.877,450.439,136.877Z" transform="translate(-429.314 -128.419)" fill="none" stroke="#813e38" stroke-linecap="round" stroke-linejoin="round" stroke-width="1"/>
        </g>
        <path id="Trazado_99708" data-name="Trazado 99708" d="M93.7,342.585s78.161,42.654,116.412,60.079,75.344,18.564,99.49,11.27c40.4-12.2,49.425-30.279,49.425-30.279s15.5-35.349,39.427-49.243C380.185,327.154,93.7,342.585,93.7,342.585Z" transform="translate(-39.382 -63.737)" fill="#bb6d47" opacity="0.15" style="mix-blend-mode: multiply;isolation: isolate"/>
        <path id="Trazado_99709" data-name="Trazado 99709" d="M316.014,163.787,130.835,220.315l155.872,56.528,185.179-56.528Z" transform="translate(-43.902 -43.2)" fill="#fff" stroke="#813e38" stroke-linecap="round" stroke-linejoin="round" stroke-width="1"/>
        <g id="Grupo_53408" data-name="Grupo 53408" transform="translate(86.933 110.611)">
          <g id="Grupo_53407" data-name="Grupo 53407" transform="translate(0)">
            <path id="Trazado_99710" data-name="Trazado 99710" d="M316.014,152.428,130.835,208.956l155.872,56.528,185.179-56.528Z" transform="translate(-130.835 -152.428)" fill="#bb6d47"/>
            <g id="Grupo_53406" data-name="Grupo 53406" clip-path="url(#clip-path-8)">
              <path id="Trazado_99711" data-name="Trazado 99711" d="M177.068,185.764,359.428,251.9l105.9-33.081L283.4,152.839Z" transform="translate(-136.464 -152.478)" fill="none" stroke="#9d4c31" stroke-miterlimit="10" stroke-width="1"/>
              <path id="Trazado_99712" data-name="Trazado 99712" d="M133.147,199.329l182.36,66.134L425.4,231.918,243.465,165.939Z" transform="translate(-131.117 -154.073)" fill="none" stroke="#9d4c31" stroke-miterlimit="10" stroke-width="1"/>
              <path id="Trazado_99713" data-name="Trazado 99713" d="M199.149,174.556l182.36,66.134L491.4,207.145,309.467,141.167Z" transform="translate(-139.152 -151.057)" fill="none" stroke="#9d4c31" stroke-miterlimit="10" stroke-width="1"/>
              <line id="Línea_137" data-name="Línea 137" x2="140.847" y2="50.54" transform="translate(55.078 59.032)" fill="none" stroke="#9d4c31" stroke-miterlimit="10" stroke-width="1"/>
              <line id="Línea_138" data-name="Línea 138" x2="140.847" y2="50.54" transform="translate(57.016 27.61)" fill="none" stroke="#9d4c31" stroke-miterlimit="10" stroke-width="1"/>
              <line id="Línea_139" data-name="Línea 139" x2="140.847" y2="50.54" transform="translate(143.86 38.716)" fill="none" stroke="#9d4c31" stroke-miterlimit="10" stroke-width="1"/>
              <line id="Línea_140" data-name="Línea 140" x2="140.847" y2="50.54" transform="translate(136.153 7.533)" fill="none" stroke="#9d4c31" stroke-miterlimit="10" stroke-width="1"/>
              <line id="Línea_141" data-name="Línea 141" x2="140.847" y2="50.54" transform="translate(243.873 31.878)" fill="none" stroke="#9d4c31" stroke-miterlimit="10" stroke-width="1"/>
              <line id="Línea_142" data-name="Línea 142" x2="140.847" y2="50.54" transform="translate(92.063 -4.665)" fill="none" stroke="#9d4c31" stroke-miterlimit="10" stroke-width="1"/>
              <line id="Línea_143" data-name="Línea 143" x2="140.847" y2="50.54" transform="translate(81.21 22.28)" fill="none" stroke="#9d4c31" stroke-miterlimit="10" stroke-width="1"/>
            </g>
            <path id="Trazado_99715" data-name="Trazado 99715" d="M316.014,152.428,130.835,208.956l155.872,56.528,185.179-56.528Z" transform="translate(-130.835 -152.428)" fill="none" stroke="#813e38" stroke-linecap="round" stroke-linejoin="round" stroke-width="1"/>
          </g>
          <path id="Trazado_99716" data-name="Trazado 99716" d="M130.835,226.768v-9.976l155.872,56.528V283.3Z" transform="translate(-130.835 -160.265)" fill="#9d4c31" stroke="#813e38" stroke-linecap="round" stroke-linejoin="round" stroke-width="1"/>
          <path id="Trazado_99717" data-name="Trazado 99717" d="M493.494,216.793v9.976L308.315,283.3v-9.976Z" transform="translate(-152.443 -160.265)" fill="#9d4c31" stroke="#813e38" stroke-linecap="round" stroke-linejoin="round" stroke-width="1"/>
        </g>
        <path id="Trazado_99718" data-name="Trazado 99718" d="M355.49,154.372S371.76,136.1,385.5,132.279a61.29,61.29,0,0,0,13.694,6.77c20.246,6.737-14.22,33.281-35.5,31.732" transform="translate(-71.254 -39.364)" fill="#f0b571" stroke="#813e38" stroke-linecap="round" stroke-linejoin="round" stroke-width="1"/>
        <g id="Grupo_53410" data-name="Grupo 53410" transform="translate(296.114 90.494)">
          <path id="Trazado_99719" data-name="Trazado 99719" d="M390.948,129.572s-11.094,2.287-21.933,13.126c14.439,22.388,25.455,25.8,25.455,25.8S423.8,127.912,390.948,129.572Z" transform="translate(-369.015 -129.523)" fill="#fdbdbd"/>
          <g id="Grupo_53409" data-name="Grupo 53409" clip-path="url(#clip-path-9)">
            <path id="Trazado_99720" data-name="Trazado 99720" d="M360.088,133.169l-3.249,8.881s21.428-2.05,36.944,32.158c2.689-2.5,6.193-5.7,6.193-5.7S387.993,133.169,360.088,133.169Z" transform="translate(-367.533 -129.966)" fill="#ff6b79"/>
          </g>
          <path id="Trazado_99722" data-name="Trazado 99722" d="M390.948,129.572s-11.094,2.287-21.933,13.126c14.439,22.388,25.455,25.8,25.455,25.8S423.8,127.912,390.948,129.572Z" transform="translate(-369.015 -129.523)" fill="none" stroke="#813e38" stroke-linecap="round" stroke-linejoin="round" stroke-width="1"/>
        </g>
        <g id="Grupo_53414" data-name="Grupo 53414" transform="translate(303.275)">
          <path id="Trazado_99723" data-name="Trazado 99723" d="M430.594,83.3s-1.787-35.87-26.529-52.534c-3.023-2.036-7.748-1.065-9.162,1.835-7.032,14.419-1.113,40.215-1.113,40.215" transform="translate(-378.908 -26.873)" fill="#f0b571" stroke="#813e38" stroke-linecap="round" stroke-linejoin="round" stroke-width="1"/>
          <path id="Trazado_99724" data-name="Trazado 99724" d="M397.205,61.318s-.86-21.637,3.816-21.226,14.823,30.351,14.823,30.351A53.735,53.735,0,0,0,397.205,61.318Z" transform="translate(-379.6 -28.139)" fill="#fff"/>
          <g id="Grupo_53412" data-name="Grupo 53412" transform="translate(0 21.941)">
            <path id="Trazado_99725" data-name="Trazado 99725" d="M486.758,97.093c0,27.375-24.532,37.425-54.795,37.425s-54.795-10.05-54.795-37.425S401.7,51.466,431.963,51.466,486.758,69.718,486.758,97.093Z" transform="translate(-377.168 -51.466)" fill="#fff"/>
            <g id="Grupo_53411" data-name="Grupo 53411" clip-path="url(#clip-path-10)">
              <path id="Trazado_99726" data-name="Trazado 99726" d="M371.223,112.219c0,2.229,3.549,4.036,7.928,4.036s7.927-1.807,7.927-4.036-3.549-4.036-7.927-4.036S371.223,109.99,371.223,112.219Z" transform="translate(-376.444 -58.371)" fill="#ffa7ad"/>
              <path id="Trazado_99727" data-name="Trazado 99727" d="M372.8,97.434s13.893-2.583,24.753,5.912c0,0,10.787-12.274,24.612-.332,18.318-13.783,59.135-19.976,67.723,5.2,0,0,10.588-66.078-61.778-66.078S372.8,97.434,372.8,97.434Z" transform="translate(-376.423 -50.33)" fill="#f0b571"/>
            </g>
            <path id="Trazado_99729" data-name="Trazado 99729" d="M486.758,97.093c0,27.375-24.532,37.425-54.795,37.425s-54.795-10.05-54.795-37.425S401.7,51.466,431.963,51.466,486.758,69.718,486.758,97.093Z" transform="translate(-377.168 -51.466)" fill="none" stroke="#813e38" stroke-linecap="round" stroke-linejoin="round" stroke-width="1"/>
          </g>
          <path id="Trazado_99730" data-name="Trazado 99730" d="M494.341,85.723s-7.412-41.495-32.155-58.159c-3.022-2.036-7.747-1.065-9.162,1.835-7.032,14.42-7.032,25.483-7.032,25.483" transform="translate(-385.547 -26.483)" fill="#f0b571" stroke="#813e38" stroke-linecap="round" stroke-linejoin="round" stroke-width="1"/>
          <g id="Grupo_53413" data-name="Grupo 53413" transform="translate(18.295 69.544)">
            <path id="Trazado_99731" data-name="Trazado 99731" d="M418.406,106.711h0c-10.331-4.01-21.974,4.038-20.232,15.508a26.123,26.123,0,0,0,11.105,17.575" transform="translate(-398 -105.667)" fill="#fff"/>
            <path id="Trazado_99732" data-name="Trazado 99732" d="M418.406,106.711h0c-10.331-4.01-21.974,4.038-20.232,15.508a26.123,26.123,0,0,0,11.105,17.575" transform="translate(-398 -105.667)" fill="none" stroke="#222221" stroke-miterlimit="10" stroke-width="0.702"/>
            <path id="Trazado_99733" data-name="Trazado 99733" d="M418.406,106.711h0c-10.331-4.01-21.974,4.038-20.232,15.508a26.123,26.123,0,0,0,11.105,17.575" transform="translate(-398 -105.667)" fill="none" stroke="#813e38" stroke-linecap="round" stroke-linejoin="round" stroke-width="1"/>
          </g>
          <path id="Trazado_99734" data-name="Trazado 99734" d="M453.683,56.679s.617-20.423,5.272-19.826c3.5.449,8.813,16.468,11.54,25a1.58,1.58,0,0,1-2.4,1.785A53.287,53.287,0,0,0,453.683,56.679Z" transform="translate(-386.484 -27.744)" fill="#fff"/>
        </g>
        <g id="Grupo_53420" data-name="Grupo 53420" transform="translate(41.615 177.115)">
          <path id="Trazado_99735" data-name="Trazado 99735" d="M554.172,343.643,546.93,346.3A15.007,15.007,0,0,0,554.172,343.643Z" transform="translate(-136.177 -242.212)" fill="none" stroke="#813e38" stroke-linecap="round" stroke-linejoin="round" stroke-width="1"/>
          <path id="Trazado_99736" data-name="Trazado 99736" d="M432.621,292.11l0,0A233.735,233.735,0,0,1,482.842,279.3h0c4.606-29.868-7.237-37.37-10.748-38.913L421.235,255.9S435.765,268.737,432.621,292.11Z" transform="translate(-120.874 -229.64)" fill="#fdbdbd" stroke="#813e38" stroke-linecap="round" stroke-linejoin="round" stroke-width="1"/>
          <path id="Trazado_99737" data-name="Trazado 99737" d="M489.89,277.806h0a321.722,321.722,0,0,1,48.75-3.1,56.43,56.43,0,0,0-24.3-46.553l-35.2,10.743C482.653,240.437,494.5,247.939,489.89,277.806Z" transform="translate(-127.924 -228.151)" fill="#c5da8b" stroke="#813e38" stroke-linecap="round" stroke-linejoin="round" stroke-width="1"/>
          <path id="Trazado_99738" data-name="Trazado 99738" d="M448.17,328c20.043-8.537,36.764-1.327,48.319,3.137q2.431.938,4.862,1.815c.605-2.592,6.285-29.747-16.931-48.259A233.735,233.735,0,0,0,434.2,297.506C448.363,311.67,448.17,328,448.17,328Z" transform="translate(-122.452 -235.035)" fill="#aabc68" stroke="#813e38" stroke-linecap="round" stroke-linejoin="round" stroke-width="1"/>
          <path id="Trazado_99739" data-name="Trazado 99739" d="M306.466,344.55a73.159,73.159,0,0,0,42.616-10.187c4.664-2.794,9.437-5.868,14.454-9.089,7.059-29.85-3.568-50.975-3.568-50.975l-52.424,16S295.8,309.6,306.466,344.55Z" transform="translate(-106.355 -233.77)" fill="#aabc68" stroke="#813e38" stroke-linecap="round" stroke-linejoin="round" stroke-width="1"/>
          <path id="Trazado_99740" data-name="Trazado 99740" d="M371.574,323.3c14.875-9.549,31.9-20.389,54.567-29.033l0,0c3.144-23.373-11.386-36.207-11.386-36.207l-46.748,14.266S378.633,293.447,371.574,323.3Z" transform="translate(-114.393 -231.792)" fill="#ff6b79" stroke="#813e38" stroke-linecap="round" stroke-linejoin="round" stroke-width="1"/>
          <path id="Trazado_99741" data-name="Trazado 99741" d="M560.5,312.1c-2.159-9.5-7.585-21.069-20.368-30.947a321.723,321.723,0,0,0-48.75,3.1c23.216,18.512,17.536,45.667,16.931,48.259a130.864,130.864,0,0,0,17.678,5.17,39.337,39.337,0,0,0,21.418-1.655h0A20.668,20.668,0,0,0,560.5,312.1Z" transform="translate(-129.414 -234.603)" fill="#fdbdbd" stroke="#813e38" stroke-linecap="round" stroke-linejoin="round" stroke-width="1"/>
          <path id="Trazado_99742" data-name="Trazado 99742" d="M241.422,326.08l36.265,13.687a73.872,73.872,0,0,0,21.053,4.584c-10.67-34.952,1.078-54.253,1.078-54.253l-48.066-17.432S231.075,290.761,241.422,326.08Z" transform="translate(-98.628 -233.571)" fill="#c5da8b" stroke="#813e38" stroke-linecap="round" stroke-linejoin="round" stroke-width="1"/>
          <g id="Grupo_53416" data-name="Grupo 53416" transform="translate(0 46.553)">
            <g id="Grupo_53415" data-name="Grupo 53415">
              <path id="Trazado_99743" data-name="Trazado 99743" d="M183.913,312.4l-42.175-15.917c-16.269,16.27-15.038,45.564-14.272,54.207l41.3,17.36C168.011,358.661,167.145,329.163,183.913,312.4Z" transform="translate(-85.06 -283.022)" fill="#c5da8b" stroke="#813e38" stroke-linecap="round" stroke-linejoin="round" stroke-width="1"/>
              <path id="Trazado_99744" data-name="Trazado 99744" d="M233.588,331.186,189.646,314.6c-16.768,16.767-15.9,46.264-15.145,55.65l49.971,21C222.826,380.213,220.035,350.523,233.588,331.186Z" transform="translate(-90.794 -285.229)" fill="#aabc68" stroke="#813e38" stroke-linecap="round" stroke-linejoin="round" stroke-width="1"/>
              <path id="Trazado_99745" data-name="Trazado 99745" d="M135.912,294.614l-35.656-13.457c-13.271,10.254-18.614,22.331-20.6,32.025a20.665,20.665,0,0,0,12.288,23.155l29.7,12.483C120.874,340.177,119.643,310.883,135.912,294.614Z" transform="translate(-79.235 -281.157)" fill="#ff6b79" stroke="#813e38" stroke-linecap="round" stroke-linejoin="round" stroke-width="1"/>
              <path id="Trazado_99746" data-name="Trazado 99746" d="M297.682,351.756a73.872,73.872,0,0,1-21.053-4.584l-36.265-13.687c-13.552,19.336-10.762,49.027-9.116,60.071l35.115,14.76A89.334,89.334,0,0,0,297.7,415.23C295.392,405.635,290.653,379.9,297.682,351.756Z" transform="translate(-97.571 -287.528)" fill="#fdbdbd" stroke="#813e38" stroke-linecap="round" stroke-linejoin="round" stroke-width="1"/>
              <path id="Trazado_99747" data-name="Trazado 99747" d="M363.645,332.341h0c-5.017,3.221-9.791,6.3-14.454,9.089a73.159,73.159,0,0,1-42.616,10.187c-7.029,28.143-2.29,53.879.019,63.474a89.341,89.341,0,0,0,34.052-5.4l1.708-.627a89.539,89.539,0,0,0,35.685-24.114l.191-.213C377.449,372.349,374.527,348.588,363.645,332.341Z" transform="translate(-106.464 -287.389)" fill="#ff6b79" stroke="#813e38" stroke-linecap="round" stroke-linejoin="round" stroke-width="1"/>
            </g>
            <path id="Trazado_99748" data-name="Trazado 99748" d="M426.636,299.283c-22.668,8.645-39.693,19.484-54.567,29.033h0c10.882,16.247,13.8,40.008,14.585,52.4,7.059-7.834,15.717-17.551,26.075-29.354,9.82-11.19,19.162-17.874,27.877-21.586C440.606,329.773,440.8,313.447,426.636,299.283Z" transform="translate(-114.888 -283.364)" fill="#c5da8b" stroke="#813e38" stroke-linecap="round" stroke-linejoin="round" stroke-width="1"/>
          </g>
          <g id="Grupo_53417" data-name="Grupo 53417" transform="translate(21.021)">
            <path id="Trazado_99749" data-name="Trazado 99749" d="M155.824,238.435l-28.357-10.284a56.43,56.43,0,0,0-24.3,46.553l35.656,13.457C133.448,262.311,148.579,245.021,155.824,238.435Z" transform="translate(-103.17 -228.151)" fill="#aabc68" stroke="#813e38" stroke-linecap="round" stroke-linejoin="round" stroke-width="1"/>
            <path id="Trazado_99750" data-name="Trazado 99750" d="M196.435,252.853,160.61,239.861c-7.245,6.586-22.376,23.876-17,49.725L185.787,305.5C179.034,276.667,196.435,252.853,196.435,252.853Z" transform="translate(-107.956 -229.577)" fill="#ff6b79" stroke="#813e38" stroke-linecap="round" stroke-linejoin="round" stroke-width="1"/>
          </g>
          <path id="Trazado_99751" data-name="Trazado 99751" d="M191.575,307.3l43.941,16.583c-10.347-35.32,10.329-53.413,10.33-53.413l-43.624-15.82S184.822,278.468,191.575,307.3Z" transform="translate(-92.723 -231.378)" fill="#fdbdbd" stroke="#813e38" stroke-linecap="round" stroke-linejoin="round" stroke-width="1"/>
          <path id="Trazado_99752" data-name="Trazado 99752" d="M554.172,343.643,546.93,346.3A15.007,15.007,0,0,0,554.172,343.643Z" transform="translate(-136.177 -242.212)" fill="#813e38"/>
          <g id="Grupo_53419" data-name="Grupo 53419">
            <g id="Grupo_53418" data-name="Grupo 53418" clip-path="url(#clip-path-11)">
              <path id="Trazado_99753" data-name="Trazado 99753" d="M338.406,342.462s68.251-38.071,160.054-61.153C421.473,260.473,338.406,342.462,338.406,342.462Z" transform="translate(-110.789 -234.21)" fill="#bb6d47" opacity="0.15" style="mix-blend-mode: multiply;isolation: isolate"/>
              <path id="Trazado_99754" data-name="Trazado 99754" d="M555.131,334.995,539.6,302.83s-3.942,21.784-52.62,3.036c-50.814-19.569-95.463,30.51-118.042,68.942-21.5,36.586-53.407,38.207-53.407,38.207,30.695.461,70.034-13.948,88.63-30.161l110.765-28.5Z" transform="translate(-108.004 -237.079)" fill="#bb6d47" opacity="0.15" style="mix-blend-mode: multiply;isolation: isolate"/>
              <path id="Trazado_99755" data-name="Trazado 99755" d="M149.8,238.805c37.012,14.368,91.716,24.7,129.123,51.625,86.133-45.008,150.647-34.787,202.157-62.641,44.42-24.022-36.959-28.109-36.959-28.109S151.743,130,103.17,245.423C103.17,245.423,112.509,224.331,149.8,238.805Z" transform="translate(-82.149 -222.146)" fill="#bb6d47" opacity="0.15" style="mix-blend-mode: multiply;isolation: isolate"/>
              <path id="Trazado_99756" data-name="Trazado 99756" d="M187.664,317.944c44.081,18.407,87.972,26.838,87.972,26.838s-73.034-43.244-166.571-61.4C109.065,283.382,143.582,299.537,187.664,317.944Z" transform="translate(-82.867 -234.875)" fill="#bb6d47" opacity="0.15" style="mix-blend-mode: multiply;isolation: isolate"/>
              <path id="Trazado_99757" data-name="Trazado 99757" d="M211.222,378.937s.84,4.913,7.4,11.05c-7.546-2.372-49.6-25.211-80.539-42.042-68.753-37.4-45.045-63.254-45.045-63.254-97.2,43.9,72.073,118.2,196.143,129.581a132.236,132.236,0,0,1-20.351-4.28c7.2,1.21,15.273,2.192,24.368,2.858C249.548,404,211.222,378.937,211.222,378.937Z" transform="translate(-77.401 -235.035)" fill="#bb6d47" opacity="0.15" style="mix-blend-mode: multiply;isolation: isolate"/>
            </g>
          </g>
        </g>
        <path id="Trazado_99759" data-name="Trazado 99759" d="M546.615,390.894s18.268-23.737,0-33.2c-15.857-8.214-16.805,8.174-28.753,20.122-18.851,18.851-34.169,7.179-34.169,20.572S517.264,424.414,546.615,390.894Z" transform="translate(-86.863 -66.538)" fill="#9d4c31" stroke="#813e38" stroke-linecap="round" stroke-linejoin="round" stroke-width="1"/>
        <path id="Trazado_99760" data-name="Trazado 99760" d="M458.021,342.076s-38.255-35.146-74.677,47.793c40.714,17.229,84.135,12.46,84.135,12.46Z" transform="translate(-74.645 -64.006)" fill="#9d4c31" stroke="#813e38" stroke-linecap="round" stroke-linejoin="round" stroke-width="1"/>
        <g id="Grupo_53421" data-name="Grupo 53421" transform="translate(191.098 78.864)">
          <path id="Trazado_99761" data-name="Trazado 99761" d="M292.722,152.389c-22.222-2.218-13.024-16.8-27.835-31.614-5.23-5.231-10.909-5.232-15.446-3.346,2.763,11.773,13.83,27.29,16.559,49.557,17.944,10.509,29.8,6.591,29.8,6.591C319.294,169.726,301.555,153.271,292.722,152.389Z" transform="translate(-249.441 -116.28)" fill="#fff" stroke="#813e38" stroke-linecap="round" stroke-linejoin="round" stroke-width="1"/>
        </g>
        <path id="Trazado_99762" data-name="Trazado 99762" d="M259.57,140.639s7.412,20.894,13.834,36.548c0,6.062,13.106,8.353,15.434,1.264s10.474-19.788,12.66-24.707-8.246-7.093-10.744-4.6c-18.687-3.479-15.343-18.438-24.635-25.216" transform="translate(-59.576 -38.347)" fill="#b6e3f6" stroke="#813e38" stroke-linecap="round" stroke-linejoin="round" stroke-width="1"/>
        <g id="Grupo_53424" data-name="Grupo 53424" transform="translate(181.621 105.884)">
          <path id="Trazado_99763" data-name="Trazado 99763" d="M244.665,176.782l3.044-16.993s17.765-12.094,30.513,2.147a29.767,29.767,0,0,1,26.233-14.871l-4.075,15.527S268.188,183.575,244.665,176.782Z" transform="translate(-239.382 -147.045)" fill="#f4d096" stroke="#813e38" stroke-linecap="round" stroke-linejoin="round" stroke-width="1"/>
          <path id="Trazado_99764" data-name="Trazado 99764" d="M244.665,178.887l1.163-18.291s21.644-7.489,32.394,1.613c13.182-13.81,28.682-12.9,28.682-12.9L300.38,164.7S268.188,185.682,244.665,178.887Z" transform="translate(-239.382 -147.319)" fill="#f4d096" stroke="#813e38" stroke-linecap="round" stroke-linejoin="round" stroke-width="1"/>
          <g id="Grupo_53423" data-name="Grupo 53423" transform="translate(0 6.094)">
            <path id="Trazado_99765" data-name="Trazado 99765" d="M242.788,164.436s21-8.234,34.7-1.656c17.215-12.512,29.48-8.007,29.48-8.007L293.2,185.657c-7.808-.232-10.765-.952-20.826,5.47,0,0-20.987-2.453-33.72,6.8Z" transform="translate(-238.65 -153.984)" fill="#ff6b79"/>
            <g id="Grupo_53422" data-name="Grupo 53422" clip-path="url(#clip-path-12)">
              <path id="Trazado_99766" data-name="Trazado 99766" d="M286.437,165.265l-1.6,8.725c15.045-11.878,26.716-8.061,26.716-8.061s-.107.68,2.426-7.1C299.313,154.709,286.437,165.265,286.437,165.265Z" transform="translate(-244.273 -154.458)" fill="#f5d977"/>
            </g>
            <path id="Trazado_99768" data-name="Trazado 99768" d="M242.788,164.436s21-8.234,34.7-1.656c17.215-12.512,29.48-8.007,29.48-8.007L293.2,185.657c-7.808-.232-10.765-.952-20.826,5.47,0,0-20.987-2.453-33.72,6.8Z" transform="translate(-238.65 -153.984)" fill="none" stroke="#813e38" stroke-linecap="round" stroke-linejoin="round" stroke-width="1"/>
          </g>
          <line id="Línea_144" data-name="Línea 144" x1="5.103" y2="27.746" transform="translate(33.737 14.89)" fill="#fff" stroke="#813e38" stroke-linecap="round" stroke-linejoin="round" stroke-width="1"/>
        </g>
        <path id="Trazado_99769" data-name="Trazado 99769" d="M403.153,149.084s74.6-3.679,106.448,78.775l-115.11-48.019Z" transform="translate(-76.003 -41.407)" fill="#bb6d47" opacity="0.15" style="mix-blend-mode: multiply;isolation: isolate"/>
        <path id="Trazado_99770" data-name="Trazado 99770" d="M210.747,152.428c14.81,14.811,3.032,29.666,31.271,29.666s25.956,18.571,2.464,22.422c0,0-44.761,9.443-57.543-22.712" transform="translate(-50.733 -41.817)" fill="#f0b571" stroke="#813e38" stroke-linecap="round" stroke-linejoin="round" stroke-width="1"/>
        <path id="Trazado_99771" data-name="Trazado 99771" d="M310.887,163.508s-10.486,5.327-13.123,19.741,14.878,5.142,17.377-3.063S316.105,168.726,310.887,163.508Z" transform="translate(-64.193 -43.166)" fill="#fff" stroke="#813e38" stroke-linecap="round" stroke-linejoin="round" stroke-width="1"/>
        <g id="Grupo_53429" data-name="Grupo 53429" transform="translate(357.035 221.605)">
          <path id="Trazado_99772" data-name="Trazado 99772" d="M500.105,340.78s24.081-24.812,52.565-21.148c3.48.447,6.281,4.151,5.462,7.147-4.073,14.9-11.1,22.9-11.1,22.9" transform="translate(-445.896 -283.734)" fill="#fff" stroke="#813e38" stroke-linecap="round" stroke-linejoin="round" stroke-width="1"/>
          <path id="Trazado_99773" data-name="Trazado 99773" d="M525.863,338.6s22.927-10.994,27.892-8.23-4.4,16.62-4.4,16.62" transform="translate(-449.032 -285.032)" fill="#9d4c31" stroke="#813e38" stroke-linecap="round" stroke-linejoin="round" stroke-width="1"/>
          <g id="Grupo_53427" data-name="Grupo 53427" transform="translate(0 21.261)">
            <path id="Trazado_99774" data-name="Trazado 99774" d="M537.335,366.269c-9.108,19.593-31.4,23.246-31.4,23.246-9.327-.247-19.7-3.054-30.277-7.586-26.778-11.48-44.673-29.679-34.289-53.9s39.015-31.066,65.792-19.587S548.445,342.371,537.335,366.269Z" transform="translate(-438.381 -303.017)" fill="#e1904e"/>
            <g id="Grupo_53426" data-name="Grupo 53426" clip-path="url(#clip-path-13)">
              <path id="Trazado_99775" data-name="Trazado 99775" d="M447.831,373.538,468.115,388.7s11.412-8.326,33.117-23.741C469.958,348.971,447.831,373.538,447.831,373.538Z" transform="translate(-439.532 -309.9)" fill="#fff"/>
              <path id="Trazado_99776" data-name="Trazado 99776" d="M503.61,365.669c-31.776-3.06-36.25,20.906-36.25,20.906l18.285,13.206S481.9,381.084,503.61,365.669Z" transform="translate(-441.909 -310.612)" fill="#9d4c31"/>
              <path id="Trazado_99777" data-name="Trazado 99777" d="M571.672,404.733l-25.143,3.019s-5.737-12.909-16.857-37.1C564.751,372.4,571.672,404.733,571.672,404.733Z" transform="translate(-449.496 -311.252)" fill="#fff"/>
              <path id="Trazado_99778" data-name="Trazado 99778" d="M529.471,370.655c29.065,13.2,20.987,36.2,20.987,36.2l-22.435,2.324S540.592,394.843,529.471,370.655Z" transform="translate(-449.295 -311.252)" fill="#9d4c31"/>
              <g id="Grupo_53425" data-name="Grupo 53425" transform="translate(80.272 58.013)">
                <path id="Trazado_99779" data-name="Trazado 99779" d="M540.574,370.4a5.417,5.417,0,1,1-10.752-1.328" transform="translate(-529.781 -369.072)" fill="#e1904e" stroke="#813e38" stroke-linecap="round" stroke-linejoin="round" stroke-width="1"/>
              </g>
              <path id="Trazado_99780" data-name="Trazado 99780" d="M486.032,397.1s-2.5-36.267,30.585-30.932c18.171,3.394,12.78,24.894,10.855,30.967S486.032,397.1,486.032,397.1Z" transform="translate(-444.177 -310.641)" fill="#fff"/>
            </g>
            <path id="Trazado_99782" data-name="Trazado 99782" d="M537.335,366.269c-9.108,19.593-31.4,23.246-31.4,23.246-9.327-.247-19.7-3.054-30.277-7.586-26.778-11.48-44.673-29.679-34.289-53.9s39.015-31.066,65.792-19.587S548.445,342.371,537.335,366.269Z" transform="translate(-438.381 -303.017)" fill="none" stroke="#813e38" stroke-linecap="round" stroke-linejoin="round" stroke-width="1"/>
          </g>
          <path id="Trazado_99783" data-name="Trazado 99783" d="M454.713,315.33s15.188-31.061,43.4-36.421c3.447-.655,7.26,2,7.412,5.1.752,15.426-3.444,25.216-3.444,25.216" transform="translate(-440.37 -278.809)" fill="#fff" stroke="#813e38" stroke-linecap="round" stroke-linejoin="round" stroke-width="1"/>
          <path id="Trazado_99784" data-name="Trazado 99784" d="M516.692,366s9.708-.422,14.92,10.851c2.19,4.737,1.328,12.979-4.5,16.634-4.9,3.075-14.051,5.509-28.259,1.568" transform="translate(-445.744 -289.424)" fill="#fff" stroke="#813e38" stroke-linecap="round" stroke-linejoin="round" stroke-width="1"/>
          <g id="Grupo_53428" data-name="Grupo 53428" transform="translate(51.116 72.192)">
            <path id="Trazado_99785" data-name="Trazado 99785" d="M507.168,364.261a5.417,5.417,0,0,1-10.334-3.252" transform="translate(-496.583 -361.009)" fill="#e1904e" stroke="#813e38" stroke-linecap="round" stroke-linejoin="round" stroke-width="1"/>
          </g>
          <path id="Trazado_99786" data-name="Trazado 99786" d="M492.538,365.818c-.669,2.126-4.6,2.785-8.773,1.47s-7.02-4.1-6.351-6.229,4.6-2.784,8.774-1.47S493.207,363.691,492.538,365.818Z" transform="translate(-443.122 -288.561)" fill="#ffa7ad"/>
          <path id="Trazado_99787" data-name="Trazado 99787" d="M530.644,381.486c1.188,2.81-5.81,2.6-5.81,2.6s-4.14-5.645-1.152-6.258A6.261,6.261,0,0,1,530.644,381.486Z" transform="translate(-448.635 -290.849)" fill="#813e38" stroke="#813e38" stroke-linecap="round" stroke-linejoin="round" stroke-width="1"/>
          <path id="Trazado_99788" data-name="Trazado 99788" d="M522.41,387.927s-1.742,2.981-5.921,1.708" transform="translate(-447.891 -292.094)" fill="none" stroke="#813e38" stroke-linecap="round" stroke-linejoin="round" stroke-width="1"/>
          <path id="Trazado_99789" data-name="Trazado 99789" d="M520.837,391.473s-.425-.475,0-1.679" transform="translate(-448.397 -292.321)" fill="#fff" stroke="#813e38" stroke-linecap="round" stroke-linejoin="round" stroke-width="1"/>
          <path id="Trazado_99790" data-name="Trazado 99790" d="M504.548,346.931c-1.524,1.48-.184,3.605,1.929,5.782s4.2,3.579,5.722,2.1,1.046-4.442-1.066-6.619S506.072,345.452,504.548,346.931Z" transform="translate(-446.357 -287.002)" fill="#fff"/>
          <path id="Trazado_99791" data-name="Trazado 99791" d="M540.955,355.508c.716,2-1.424,3.318-4.279,4.34s-5.345,1.362-6.062-.637,1.019-4.449,3.874-5.472S540.239,353.509,540.955,355.508Z" transform="translate(-449.591 -287.877)" fill="#fff"/>
        </g>
        <g id="Grupo_53434" data-name="Grupo 53434" transform="translate(282.239 52.254)">
          <path id="Trazado_99792" data-name="Trazado 99792" d="M385.373,147.244l38.468-10.071a.723.723,0,0,1,.9.589h0a.723.723,0,0,1-.487.8L386.531,151.1Z" transform="translate(-357.131 -92.211)" fill="#bb6d47" stroke="#813e38" stroke-linecap="round" stroke-linejoin="round" stroke-width="1"/>
          <path id="Trazado_99793" data-name="Trazado 99793" d="M377.168,177.684c0,2.092,11.833,3.788,26.43,3.788s26.429-1.7,26.429-3.788S418.195,173.9,403.6,173.9,377.168,175.592,377.168,177.684Z" transform="translate(-356.133 -96.685)" fill="#f9dad5" stroke="#813e38" stroke-linecap="round" stroke-linejoin="round" stroke-width="1"/>
          <g id="Grupo_53430" data-name="Grupo 53430" transform="translate(24.881 72.082)">
            <path id="Trazado_99794" data-name="Trazado 99794" d="M391.913,178.355c-2.195,3.124-5.465,3.454-7.975,1.691s-3.307-4.952-1.113-8.075,6.551-5,9.06-3.237S394.107,175.231,391.913,178.355Z" transform="translate(-381.547 -168.056)" fill="#fff" stroke="#813e38" stroke-linecap="round" stroke-linejoin="round" stroke-width="1"/>
            <path id="Trazado_99795" data-name="Trazado 99795" d="M384.323,174.187a3.588,3.588,0,1,0,5-.873A3.588,3.588,0,0,0,384.323,174.187Z" transform="translate(-381.806 -168.616)" fill="#f5d977" stroke="#813e38" stroke-linecap="round" stroke-linejoin="round" stroke-width="1"/>
          </g>
          <path id="Trazado_99796" data-name="Trazado 99796" d="M403.667,121.3a14.737,14.737,0,0,0-2.143,17.1c5.054,10.107-13.022,10.3-8.681,32.57,18.743,3.521,26.24-.916,26.24-.916s-6.591-6.315-1.591-16.1c6.421-12.566,1.562-20.332-3.372-25.266s0-7.3,0-7.3a6.532,6.532,0,0,1-6.756-2.658C405.663,121.311,403.667,121.3,403.667,121.3Z" transform="translate(-357.958 -89.969)" fill="#f5d977" stroke="#813e38" stroke-linecap="round" stroke-linejoin="round" stroke-width="1"/>
          <path id="Trazado_99797" data-name="Trazado 99797" d="M406.332,120.782s-5.827,7.136-3.466,13.959,4.809,8.216-2.558,16.772c-7.624,8.855-3.241,20.428-3.241,20.428" transform="translate(-358.403 -90.218)" fill="none" stroke="#813e38" stroke-linecap="round" stroke-linejoin="round" stroke-width="1"/>
          <path id="Trazado_99798" data-name="Trazado 99798" d="M402.414,172.128s-4.767-10.118,1.032-18.939,6.418-11.307,3-18.283c-3.632-7.413,1.941-16.175,1.941-16.175" transform="translate(-358.982 -89.969)" fill="none" stroke="#813e38" stroke-linecap="round" stroke-linejoin="round" stroke-width="1"/>
          <path id="Trazado_99799" data-name="Trazado 99799" d="M413.351,121.669s-3.711,2.15,2.315,10.564,5.756,12.375.412,24.119c-2.843,7.537,1.562,15.4,1.562,15.4" transform="translate(-360.4 -90.326)" fill="none" stroke="#813e38" stroke-linecap="round" stroke-linejoin="round" stroke-width="1"/>
          <path id="Trazado_99800" data-name="Trazado 99800" d="M413.23,172.3c-2.175-6.16-2.564-10.56-1.086-15.551a19.2,19.2,0,0,1,.825-2.319,35.383,35.383,0,0,0,3.268-10.893c.292-3.373-1.142-6.618-2.9-9.405-4.217-6.7-4.076-7.992-2.384-13.6" transform="translate(-360.112 -90.188)" fill="none" stroke="#813e38" stroke-linecap="round" stroke-linejoin="round" stroke-width="1"/>
          <path id="Trazado_99801" data-name="Trazado 99801" d="M409.619,119.508s-4.782,8.968.87,17.352c3.731,5.533.538,10.709-2.261,16.039a19.585,19.585,0,0,0-1.6,13.956l1.425,5.565" transform="translate(-359.644 -90.063)" fill="none" stroke="#813e38" stroke-linecap="round" stroke-linejoin="round" stroke-width="1"/>
          <path id="Trazado_99802" data-name="Trazado 99802" d="M420.066,176.048c-28.631-3.6-40.59,3.227-40.59,3.227S403.825,185.218,420.066,176.048Z" transform="translate(-356.414 -96.819)" fill="#f5d977" stroke="#813e38" stroke-linecap="round" stroke-linejoin="round" stroke-width="1"/>
          <path id="Trazado_99803" data-name="Trazado 99803" d="M424.743,177.683c-28.631-3.6-40.59,3.226-40.59,3.226S408.5,186.853,424.743,177.683Z" transform="translate(-356.983 -97.018)" fill="#f5d977" stroke="#813e38" stroke-linecap="round" stroke-linejoin="round" stroke-width="1"/>
          <path id="Trazado_99804" data-name="Trazado 99804" d="M429.735,178.715c-28.631-3.6-40.59,3.226-40.59,3.226S413.494,187.885,429.735,178.715Z" transform="translate(-357.591 -97.144)" fill="#f5d977" stroke="#813e38" stroke-linecap="round" stroke-linejoin="round" stroke-width="1"/>
          <path id="Trazado_99805" data-name="Trazado 99805" d="M413.107,174.794a147.143,147.143,0,0,1,18.312,5.48,1.6,1.6,0,0,0,1.823-2.485C429.057,172.647,419.589,170.672,413.107,174.794Z" transform="translate(-360.508 -96.524)" fill="#f5d977" stroke="#813e38" stroke-linecap="round" stroke-linejoin="round" stroke-width="1"/>
          <path id="Trazado_99806" data-name="Trazado 99806" d="M411.423,176.477a155.9,155.9,0,0,1,16.126,4.656,2.087,2.087,0,0,0,2.007-3.594C424.829,173.9,417.016,172.921,411.423,176.477Z" transform="translate(-360.303 -96.729)" fill="#f5d977" stroke="#813e38" stroke-linecap="round" stroke-linejoin="round" stroke-width="1"/>
          <path id="Trazado_99807" data-name="Trazado 99807" d="M409.741,178.159s13.949,3.134,22.108,7.138C430.339,177.289,417.758,173.062,409.741,178.159Z" transform="translate(-360.098 -96.934)" fill="#f5d977" stroke="#813e38" stroke-linecap="round" stroke-linejoin="round" stroke-width="1"/>
          <path id="Trazado_99808" data-name="Trazado 99808" d="M404.141,180.121s13.949,3.134,22.108,7.138C424.739,179.251,412.158,175.024,404.141,180.121Z" transform="translate(-359.416 -97.173)" fill="#f5d977" stroke="#813e38" stroke-linecap="round" stroke-linejoin="round" stroke-width="1"/>
          <g id="Grupo_53431" data-name="Grupo 53431" transform="translate(40.764 76.047)">
            <path id="Trazado_99809" data-name="Trazado 99809" d="M410.556,177.245c1.833,3.349.684,6.429-2.006,7.9s-5.9.779-7.736-2.57-1.591-8.086,1.1-9.558S408.724,173.9,410.556,177.245Z" transform="translate(-399.631 -172.57)" fill="#fff" stroke="#813e38" stroke-linecap="round" stroke-linejoin="round" stroke-width="1"/>
            <path id="Trazado_99810" data-name="Trazado 99810" d="M403.231,182.794a3.588,3.588,0,1,0,1.425-4.87A3.587,3.587,0,0,0,403.231,182.794Z" transform="translate(-400.016 -173.168)" fill="#f5d977" stroke="#813e38" stroke-linecap="round" stroke-linejoin="round" stroke-width="1"/>
          </g>
          <path id="Trazado_99811" data-name="Trazado 99811" d="M414.749,183.4s7.306-12.033,12.385-8.689S414.749,183.4,414.749,183.4Z" transform="translate(-360.708 -96.713)" fill="#aabc68" stroke="#813e38" stroke-linecap="round" stroke-linejoin="round" stroke-width="1"/>
          <path id="Trazado_99812" data-name="Trazado 99812" d="M418.465,184.07s7.307-12.033,12.385-8.689S418.465,184.07,418.465,184.07Z" transform="translate(-361.16 -96.794)" fill="#aabc68" stroke="#813e38" stroke-linecap="round" stroke-linejoin="round" stroke-width="1"/>
          <path id="Trazado_99813" data-name="Trazado 99813" d="M422.6,184.882s7.306-12.033,12.385-8.69S422.6,184.882,422.6,184.882Z" transform="translate(-361.664 -96.893)" fill="#aabc68" stroke="#813e38" stroke-linecap="round" stroke-linejoin="round" stroke-width="1"/>
          <path id="Trazado_99814" data-name="Trazado 99814" d="M393.057,182.9s-16.46-.928-16.168-7C382.817,169.825,393.057,182.9,393.057,182.9Z" transform="translate(-356.098 -96.733)" fill="#aabc68" stroke="#813e38" stroke-linecap="round" stroke-linejoin="round" stroke-width="1"/>
          <path id="Trazado_99815" data-name="Trazado 99815" d="M390.131,183.623s-14.076-.163-13.783-6.237S390.131,183.623,390.131,183.623Z" transform="translate(-356.032 -96.905)" fill="#aabc68" stroke="#813e38" stroke-linecap="round" stroke-linejoin="round" stroke-width="1"/>
          <g id="Grupo_53432" data-name="Grupo 53432" transform="translate(31.398 12.519)">
            <path id="Trazado_99816" data-name="Trazado 99816" d="M399.079,107.6a5.417,5.417,0,1,0-10.112-3.886" transform="translate(-388.967 -100.236)" fill="none" stroke="#813e38" stroke-linecap="round" stroke-linejoin="round" stroke-width="2"/>
          </g>
          <g id="Grupo_53433" data-name="Grupo 53433" transform="translate(67.038 11.757)">
            <path id="Trazado_99817" data-name="Trazado 99817" d="M439.859,102.463a5.417,5.417,0,0,0-9.786,4.647" transform="translate(-429.547 -99.368)" fill="none" stroke="#813e38" stroke-linecap="round" stroke-linejoin="round" stroke-width="2"/>
          </g>
          <path id="Trazado_99818" data-name="Trazado 99818" d="M441.081,112.219c0,2.229,3.549,4.036,7.927,4.036s7.928-1.807,7.928-4.036-3.549-4.036-7.928-4.036S441.081,109.99,441.081,112.219Z" transform="translate(-363.914 -88.684)" fill="#ffa7ad"/>
          <path id="Trazado_99819" data-name="Trazado 99819" d="M423.969,117.165c-4.822,5.483-13.538,5.123-14.965.457" transform="translate(-360.009 -89.778)" fill="none" stroke="#813e38" stroke-linecap="round" stroke-linejoin="round" stroke-width="1"/>
          <path id="Trazado_99820" data-name="Trazado 99820" d="M396.187,87.676c-1.15,1.785.636,3.553,3.186,5.2s4.9,2.536,6.048.75.014-4.563-2.535-6.206S397.336,85.891,396.187,87.676Z" transform="translate(-358.405 -86.015)" fill="#fff"/>
          <path id="Trazado_99821" data-name="Trazado 99821" d="M435.727,87.4c1.151,1.785-.636,3.553-3.186,5.2s-4.9,2.536-6.048.751-.015-4.564,2.535-6.207S434.577,85.615,435.727,87.4Z" transform="translate(-362.083 -85.981)" fill="#fff"/>
          <path id="Trazado_99822" data-name="Trazado 99822" d="M404.922,112.842c-2.36,1.934,3.932,5,3.932,5s6.292-3.069,3.933-5A6.26,6.26,0,0,0,404.922,112.842Z" transform="translate(-359.447 -89.083)" fill="#813e38" stroke="#813e38" stroke-linecap="round" stroke-linejoin="round" stroke-width="1"/>
          <path id="Trazado_99823" data-name="Trazado 99823" d="M385.02,141.485l39.389-5.461a.723.723,0,0,1,.822.691h0a.723.723,0,0,1-.577.735l-38.939,8Z" transform="translate(-357.089 -92.073)" fill="#bb6d47" stroke="#813e38" stroke-linecap="round" stroke-linejoin="round" stroke-width="1"/>
          <path id="Trazado_99824" data-name="Trazado 99824" d="M373.049,170.8s-8.078,3-14.69-.431c-6-3.109-6.813-11.488-2.108-16.338a61.3,61.3,0,0,1,15.3-11.779c10.8-5.491,17.338-1.084,16.347,6.746-.5,3.984-4.923,9.75-10.116,14.474" transform="translate(-353.216 -92.535)" fill="#f0b571" stroke="#813e38" stroke-linecap="round" stroke-linejoin="round" stroke-width="1"/>
          <path id="Trazado_99825" data-name="Trazado 99825" d="M376.343,178.209s1.3,19.856,27.155,19.856,26.784-19.856,26.784-19.856A128.2,128.2,0,0,1,376.343,178.209Z" transform="translate(-356.032 -97.21)" fill="#ff666d" stroke="#813e38" stroke-linecap="round" stroke-linejoin="round" stroke-width="1"/>
          <rect id="Rectángulo_5226" data-name="Rectángulo 5226" width="27.754" height="2.618" transform="translate(33.588 98.228)" fill="#ff666d" stroke="#813e38" stroke-linecap="round" stroke-linejoin="round" stroke-width="1"/>
          <path id="Trazado_99826" data-name="Trazado 99826" d="M426.036,114.576a4.106,4.106,0,0,0,2.012,4.29" transform="translate(-362.076 -89.463)" fill="none" stroke="#813e38" stroke-linecap="round" stroke-linejoin="round" stroke-width="1"/>
        </g>
        <path id="Trazado_99827" data-name="Trazado 99827" d="M463.79,146.327c-14.81,14.811-6.768,35.34-35.006,35.34s-25.6,15.83-8.016,18.188c0,0,48.847,8.811,61.63-23.345" transform="translate(-77.59 -41.074)" fill="#f0b571" stroke="#813e38" stroke-linecap="round" stroke-linejoin="round" stroke-width="1"/>
        <path id="Trazado_99828" data-name="Trazado 99828" d="M476.271,312.546s18.1-22.126,23.784-22.126.824,18.033.824,18.033" transform="translate(-85.959 -58.617)" fill="#9d4c31" stroke="#813e38" stroke-linecap="round" stroke-linejoin="round" stroke-width="1"/>
        <path id="Trazado_99829" data-name="Trazado 99829" d="M450.107,321.235s25.5-17.317,54.225-8.13" transform="translate(-82.774 -61.052)" fill="#e1904e"/>
        <path id="Trazado_99830" data-name="Trazado 99830" d="M428.251,339.53c19.444-5.623,23.218,19.858,37.919,34.56,23.195,23.195,40.522,14.278,40.522,30.757s-68.907,14.085-89.966-28.7" transform="translate(-78.71 -64.5)" fill="#9d4c31" stroke="#813e38" stroke-linecap="round" stroke-linejoin="round" stroke-width="1"/>
        <path id="Trazado_99831" data-name="Trazado 99831" d="M264.2,215.791,224.994,227.76l33,11.969L297.2,227.76Z" transform="translate(-55.366 -49.531)" fill="#f0b571" stroke="#813e38" stroke-linecap="round" stroke-linejoin="round" stroke-width="1"/>
        <path id="Trazado_99832" data-name="Trazado 99832" d="M351.314,190.5l-39.208,11.969,33,11.969,39.208-11.969Z" transform="translate(-65.972 -46.453)" fill="#f0b571" stroke="#813e38" stroke-linecap="round" stroke-linejoin="round" stroke-width="1"/>
        <g id="Grupo_53436" data-name="Grupo 53436" transform="translate(123.989 320.441)">
          <path id="Trazado_99833" data-name="Trazado 99833" d="M244.331,408.722c-16.144-7.409-12.149-29.823-57.084-8.213-24.552,11.807-13.762,35.754,5.632,35.754S244.331,408.722,244.331,408.722Z" transform="translate(-173.029 -391.346)" fill="#9d4c31"/>
          <g id="Grupo_53435" data-name="Grupo 53435" clip-path="url(#clip-path-14)">
            <path id="Trazado_99834" data-name="Trazado 99834" d="M173.915,399.606s36.832-.8,48.744,36.911C254.35,420.343,222.659,377.584,173.915,399.606Z" transform="translate(-173.137 -391.6)" fill="#e1904e"/>
          </g>
          <path id="Trazado_99836" data-name="Trazado 99836" d="M244.331,408.722c-16.144-7.409-12.149-29.823-57.084-8.213-24.552,11.807-13.762,35.754,5.632,35.754S244.331,408.722,244.331,408.722Z" transform="translate(-173.029 -391.346)" fill="none" stroke="#813e38" stroke-linecap="round" stroke-linejoin="round" stroke-width="1"/>
        </g>
        <g id="Grupo_53441" data-name="Grupo 53441" transform="translate(187.047 158.078)">
          <g id="Grupo_53438" data-name="Grupo 53438" transform="translate(0 3.589)">
            <path id="Trazado_99837" data-name="Trazado 99837" d="M244.844,210.561s-1.23,18.707,17.726,18.707S280.3,210.561,280.3,210.561Z" transform="translate(-244.827 -210.561)" fill="#f5d977"/>
            <g id="Grupo_53437" data-name="Grupo 53437" clip-path="url(#clip-path-15)">
              <path id="Trazado_99838" data-name="Trazado 99838" d="M241.214,214.331s6.545,4.3,20.916,4.3,20.551-4.3,20.551-4.3v5.98s-10.4,3.542-20.551,3.542-20.346-3.719-20.346-3.719Z" transform="translate(-244.388 -211.02)" fill="#fff"/>
            </g>
            <path id="Trazado_99840" data-name="Trazado 99840" d="M244.844,210.561s-1.23,18.707,17.726,18.707S280.3,210.561,280.3,210.561Z" transform="translate(-244.827 -210.561)" fill="none" stroke="#813e38" stroke-linecap="round" stroke-linejoin="round" stroke-width="1"/>
          </g>
          <g id="Grupo_53440" data-name="Grupo 53440" transform="translate(0.016)">
            <path id="Trazado_99841" data-name="Trazado 99841" d="M244.846,210.064c0,1.981,7.936,3.589,17.726,3.589s17.726-1.607,17.726-3.589-7.936-3.589-17.726-3.589S244.846,208.081,244.846,210.064Z" transform="translate(-244.846 -206.475)" fill="#c38763"/>
            <g id="Grupo_53439" data-name="Grupo 53439" clip-path="url(#clip-path-16)">
              <path id="Trazado_99842" data-name="Trazado 99842" d="M244.846,214.568c0,1.982,7.936,3.589,17.726,3.589s17.726-1.606,17.726-3.589-7.936-3.589-17.726-3.589S244.846,212.585,244.846,214.568Z" transform="translate(-244.846 -207.023)" fill="#aabc68" stroke="#813e38" stroke-linecap="round" stroke-linejoin="round" stroke-width="1"/>
            </g>
            <path id="Trazado_99844" data-name="Trazado 99844" d="M244.846,210.064c0,1.981,7.936,3.589,17.726,3.589s17.726-1.607,17.726-3.589-7.936-3.589-17.726-3.589S244.846,208.081,244.846,210.064Z" transform="translate(-244.846 -206.475)" fill="none" stroke="#813e38" stroke-linecap="round" stroke-linejoin="round" stroke-width="1"/>
          </g>
        </g>
        <g id="Grupo_53446" data-name="Grupo 53446" transform="translate(263.312 135.436)">
          <g id="Grupo_53443" data-name="Grupo 53443" transform="translate(0 3.589)">
            <path id="Trazado_99845" data-name="Trazado 99845" d="M331.682,184.78s-1.23,18.707,17.726,18.707,17.726-18.707,17.726-18.707Z" transform="translate(-331.666 -184.78)" fill="#f5d977"/>
            <g id="Grupo_53442" data-name="Grupo 53442" clip-path="url(#clip-path-17)">
              <path id="Trazado_99846" data-name="Trazado 99846" d="M328.052,188.55s6.545,4.3,20.916,4.3,20.551-4.3,20.551-4.3v5.98s-10.4,3.542-20.551,3.542-20.346-3.719-20.346-3.719Z" transform="translate(-331.226 -185.239)" fill="#fff"/>
            </g>
            <path id="Trazado_99848" data-name="Trazado 99848" d="M331.682,184.78s-1.23,18.707,17.726,18.707,17.726-18.707,17.726-18.707Z" transform="translate(-331.666 -184.78)" fill="none" stroke="#813e38" stroke-linecap="round" stroke-linejoin="round" stroke-width="1"/>
          </g>
          <g id="Grupo_53445" data-name="Grupo 53445" transform="translate(0.016)">
            <path id="Trazado_99849" data-name="Trazado 99849" d="M331.684,184.283c0,1.982,7.936,3.589,17.726,3.589s17.726-1.606,17.726-3.589-7.936-3.589-17.726-3.589S331.684,182.3,331.684,184.283Z" transform="translate(-331.684 -180.694)" fill="#c38763"/>
            <g id="Grupo_53444" data-name="Grupo 53444" clip-path="url(#clip-path-18)">
              <path id="Trazado_99850" data-name="Trazado 99850" d="M331.684,188.787c0,1.982,7.936,3.589,17.726,3.589s17.726-1.606,17.726-3.589S359.2,185.2,349.41,185.2,331.684,186.8,331.684,188.787Z" transform="translate(-331.684 -181.242)" fill="#aabc68" stroke="#813e38" stroke-linecap="round" stroke-linejoin="round" stroke-width="1"/>
            </g>
            <path id="Trazado_99852" data-name="Trazado 99852" d="M331.684,184.283c0,1.982,7.936,3.589,17.726,3.589s17.726-1.606,17.726-3.589-7.936-3.589-17.726-3.589S331.684,182.3,331.684,184.283Z" transform="translate(-331.684 -180.694)" fill="none" stroke="#813e38" stroke-linecap="round" stroke-linejoin="round" stroke-width="1"/>
          </g>
        </g>
        <g id="Grupo_53447" data-name="Grupo 53447" transform="translate(252.781 185.884)">
          <path id="Trazado_99853" data-name="Trazado 99853" d="M356.624,242.89c-3.44-1.317-9.817-2.2-17.122-2.2s-13.68.885-17.121,2.2h-2.707v2.24c0,2.454,8.877,4.442,19.828,4.442s19.829-1.988,19.829-4.442v-2.24Z" transform="translate(-319.674 -238.447)" fill="#f4d096" stroke="#813e38" stroke-linecap="round" stroke-linejoin="round" stroke-width="1"/>
          <path id="Trazado_99854" data-name="Trazado 99854" d="M319.674,242.579c0,2.453,8.877,4.442,19.828,4.442s19.829-1.989,19.829-4.442-8.878-4.443-19.829-4.443S319.674,240.125,319.674,242.579Z" transform="translate(-319.674 -238.136)" fill="#f4d096" stroke="#813e38" stroke-linecap="round" stroke-linejoin="round" stroke-width="1"/>
        </g>
        <g id="Grupo_53448" data-name="Grupo 53448" transform="translate(133.211 108.511)">
          <path id="Trazado_99855" data-name="Trazado 99855" d="M183.529,180.55s9.974,20.271,25.415,24.967c0,6.062,13.106,8.353,15.434,1.264s6.565-22.53,8.751-27.449-6.312-6.326-8.809-3.829c-8.234-8.233-4.855-18.687-14.147-25.466" transform="translate(-183.529 -150.037)" fill="#b6e3f6" stroke="#813e38" stroke-linecap="round" stroke-linejoin="round" stroke-width="1"/>
          <path id="Trazado_99856" data-name="Trazado 99856" d="M227.843,179.033s-9.091,6.325-15.376,30.014" transform="translate(-187.052 -153.567)" fill="#b6e3f6" stroke="#813e38" stroke-linecap="round" stroke-linejoin="round" stroke-width="1"/>
          <path id="Trazado_99857" data-name="Trazado 99857" d="M213.2,210.561s4.468,5.713,14.32,4.662" transform="translate(-187.141 -157.406)" fill="none" stroke="#813e38" stroke-linecap="round" stroke-linejoin="round" stroke-width="1"/>
          <path id="Trazado_99858" data-name="Trazado 99858" d="M214.979,204.853s3.628,4.137,14.36,5.013" transform="translate(-187.358 -156.711)" fill="none" stroke="#813e38" stroke-linecap="round" stroke-linejoin="round" stroke-width="1"/>
          <path id="Trazado_99859" data-name="Trazado 99859" d="M216.786,199.922a31.166,31.166,0,0,0,14.192,4.65" transform="translate(-187.578 -156.11)" fill="none" stroke="#813e38" stroke-linecap="round" stroke-linejoin="round" stroke-width="1"/>
          <path id="Trazado_99860" data-name="Trazado 99860" d="M219.575,193.92a33.129,33.129,0,0,0,13.391,4.427" transform="translate(-187.918 -155.38)" fill="none" stroke="#813e38" stroke-linecap="round" stroke-linejoin="round" stroke-width="1"/>
          <path id="Trazado_99861" data-name="Trazado 99861" d="M222.422,188.335a33.606,33.606,0,0,0,12.243,4.905" transform="translate(-188.264 -154.7)" fill="none" stroke="#813e38" stroke-linecap="round" stroke-linejoin="round" stroke-width="1"/>
          <path id="Trazado_99862" data-name="Trazado 99862" d="M225.878,183.288s5.711,4.37,10.563,5.1" transform="translate(-188.685 -154.085)" fill="none" stroke="#813e38" stroke-linecap="round" stroke-linejoin="round" stroke-width="1"/>
          <path id="Trazado_99863" data-name="Trazado 99863" d="M229.062,179.795a32.565,32.565,0,0,1,8.993,4.678" transform="translate(-189.073 -153.66)" fill="none" stroke="#813e38" stroke-linecap="round" stroke-linejoin="round" stroke-width="1"/>
        </g>
        <g id="Grupo_53455" data-name="Grupo 53455" transform="translate(243.826 164.485)">
          <g id="Grupo_53449" data-name="Grupo 53449" transform="translate(0 2.458)">
            <path id="Trazado_99864" data-name="Trazado 99864" d="M366.416,216.569c-6.713,0-10.07,5.874-10.07,5.874h-33.9c-6.294-6.294-15.274-1.221-12.42,5.707,1.758,4.27,13.763,12.923,29.371,12.923,13.2,0,19.347-7.727,21.406-12.252,2.521-5.54,3.883-8.679,7.484-10.178l.147-.06Zm-48.571,15.576c-.591.242-1.342-.4-2.3-1.216a7.456,7.456,0,0,1-2.83-4.3c-.243-1.627.619-3.112,2.393-3.112a3.948,3.948,0,0,1,1.464.28c2.815,1.115,2.846,4.592,2.1,7.059C318.438,231.62,318.165,232.013,317.845,232.145Z" transform="translate(-309.478 -216.569)" fill="#f5d977" stroke="#813e38" stroke-linecap="round" stroke-linejoin="round" stroke-width="1"/>
          </g>
          <path id="Trazado_99865" data-name="Trazado 99865" d="M343.208,216.287c0-.018.005-.035.005-.054a2.463,2.463,0,1,0-4.925,0c0,.041.01.08.012.12-10.225.815-14.061,5.749-14.061,5.749,17.424,8.927,33.9,0,33.9,0S354.1,216.877,343.208,216.287Z" transform="translate(-311.275 -213.77)" fill="#f5d977" stroke="#813e38" stroke-linecap="round" stroke-linejoin="round" stroke-width="1"/>
          <g id="Grupo_53454" data-name="Grupo 53454" transform="translate(25.154 14.687)">
            <g id="Grupo_53450" data-name="Grupo 53450" transform="translate(3.273)">
              <path id="Trazado_99866" data-name="Trazado 99866" d="M341.855,232.422c.073,1.028.563,1.829,1.1,1.792s.9-.9.832-1.928-.563-1.829-1.1-1.791S341.782,231.4,341.855,232.422Z" transform="translate(-341.846 -230.494)" fill="#fff"/>
              <path id="Trazado_99867" data-name="Trazado 99867" d="M342.268,238.267c.072,1.027.563,1.829,1.094,1.791s.905-.9.833-1.927-.563-1.829-1.1-1.792S342.195,237.239,342.268,238.267Z" transform="translate(-341.896 -231.205)" fill="#fff"/>
            </g>
            <g id="Grupo_53451" data-name="Grupo 53451" transform="translate(0.94 1.317)">
              <path id="Trazado_99868" data-name="Trazado 99868" d="M340.1,234.146c.777.675,1.691.9,2.041.493s0-1.277-.775-1.951-1.691-.895-2.041-.493S339.323,233.471,340.1,234.146Z" transform="translate(-339.189 -231.993)" fill="#fff"/>
              <path id="Trazado_99869" data-name="Trazado 99869" d="M344.525,237.987c.777.674,1.691.895,2.041.493s0-1.277-.775-1.951-1.691-.9-2.041-.493S343.747,237.312,344.525,237.987Z" transform="translate(-339.728 -232.461)" fill="#fff"/>
            </g>
            <g id="Grupo_53452" data-name="Grupo 53452" transform="translate(0 3.273)">
              <path id="Trazado_99870" data-name="Trazado 99870" d="M340.048,236.57c1.027-.073,1.828-.563,1.791-1.1s-.9-.9-1.927-.833-1.829.563-1.792,1.1S339.021,236.642,340.048,236.57Z" transform="translate(-338.119 -234.27)" fill="#fff"/>
              <path id="Trazado_99871" data-name="Trazado 99871" d="M345.892,236.157c1.027-.073,1.829-.563,1.792-1.1s-.9-.9-1.928-.833-1.828.563-1.791,1.1S344.865,236.229,345.892,236.157Z" transform="translate(-338.83 -234.22)" fill="#fff"/>
            </g>
            <g id="Grupo_53453" data-name="Grupo 53453" transform="translate(1.317 0.94)">
              <path id="Trazado_99872" data-name="Trazado 99872" d="M341.772,238.165c.674-.777.895-1.691.492-2.04s-1.276,0-1.951.774-.9,1.692-.493,2.041S341.1,238.942,341.772,238.165Z" transform="translate(-339.618 -232.103)" fill="#fff"/>
              <path id="Trazado_99873" data-name="Trazado 99873" d="M345.612,233.741c.675-.778.9-1.692.493-2.041s-1.276,0-1.951.775-.895,1.691-.492,2.04S344.937,234.518,345.612,233.741Z" transform="translate(-340.086 -231.564)" fill="#fff"/>
            </g>
          </g>
          <path id="Trazado_99874" data-name="Trazado 99874" d="M333.876,230.265s1.3,3.593,3.925,3.408C337.626,231.2,333.876,230.265,333.876,230.265Z" transform="translate(-312.448 -215.778)" fill="#fff"/>
          <path id="Trazado_99875" data-name="Trazado 99875" d="M332.9,234.96s2.358,1.621,3.878.359C335.588,233.891,332.9,234.96,332.9,234.96Z" transform="translate(-312.329 -216.303)" fill="#fff"/>
          <path id="Trazado_99876" data-name="Trazado 99876" d="M353.22,238.322s-2.818-2.578-5.06-1.189C349.464,239.238,353.22,238.322,353.22,238.322Z" transform="translate(-314.187 -216.564)" fill="#fff"/>
          <path id="Trazado_99877" data-name="Trazado 99877" d="M352.591,233.947s-2.842-.338-3.6,1.486C350.705,236.145,352.591,233.947,352.591,233.947Z" transform="translate(-314.288 -216.223)" fill="#fff"/>
        </g>
        <g id="Grupo_53460" data-name="Grupo 53460" transform="translate(121.589 3.111)">
          <g id="Grupo_53456" data-name="Grupo 53456" transform="translate(2.447 82.473)">
            <path id="Trazado_99878" data-name="Trazado 99878" d="M179.219,129.755c-.436.165-8.542,3.589-5.426,15.669,18.334,12.881,49.225,15.8,78.21,4.6a34.7,34.7,0,0,0,10.627-6.373c5-4.454,6.6-8.7,4.786-12.4C265,126.318,209.249,118.386,179.219,129.755Z" transform="translate(-173.082 -123.931)" fill="#b6e3f6" stroke="#813e38" stroke-linecap="round" stroke-linejoin="round" stroke-width="1"/>
            <path id="Trazado_99879" data-name="Trazado 99879" d="M178.4,148.989a16.448,16.448,0,0,1,6.652-16.6" transform="translate(-173.691 -124.961)" fill="none" stroke="#813e38" stroke-linecap="round" stroke-linejoin="round" stroke-width="1"/>
            <path id="Trazado_99880" data-name="Trazado 99880" d="M190.656,135.735s-8.512,7.156-7.144,15.968" transform="translate(-174.334 -125.369)" fill="none" stroke="#813e38" stroke-linecap="round" stroke-linejoin="round" stroke-width="1"/>
            <path id="Trazado_99881" data-name="Trazado 99881" d="M195.834,138.724s-6.83,8.1-4.99,15.913" transform="translate(-175.206 -125.732)" fill="none" stroke="#813e38" stroke-linecap="round" stroke-linejoin="round" stroke-width="1"/>
            <path id="Trazado_99882" data-name="Trazado 99882" d="M201.431,140.518s-4.528,8.983-2.211,16.408" transform="translate(-176.184 -125.951)" fill="none" stroke="#813e38" stroke-linecap="round" stroke-linejoin="round" stroke-width="1"/>
            <path id="Trazado_99883" data-name="Trazado 99883" d="M208.792,141.115s-4.231,9.243-1,17.222" transform="translate(-177.16 -126.024)" fill="none" stroke="#813e38" stroke-linecap="round" stroke-linejoin="round" stroke-width="1"/>
            <path id="Trazado_99884" data-name="Trazado 99884" d="M216.678,141.839s-1.893,11.111.629,17.26" transform="translate(-178.307 -126.112)" fill="none" stroke="#813e38" stroke-linecap="round" stroke-linejoin="round" stroke-width="1"/>
            <path id="Trazado_99885" data-name="Trazado 99885" d="M224.265,142.743a81.637,81.637,0,0,1,1.871,16.306" transform="translate(-179.314 -126.222)" fill="none" stroke="#813e38" stroke-linecap="round" stroke-linejoin="round" stroke-width="1"/>
            <path id="Trazado_99886" data-name="Trazado 99886" d="M231.608,142.24a81.614,81.614,0,0,1,1.872,16.306" transform="translate(-180.208 -126.161)" fill="none" stroke="#813e38" stroke-linecap="round" stroke-linejoin="round" stroke-width="1"/>
            <path id="Trazado_99887" data-name="Trazado 99887" d="M239.468,141.115s4.756,7.925,2.582,16.14" transform="translate(-181.165 -126.024)" fill="none" stroke="#813e38" stroke-linecap="round" stroke-linejoin="round" stroke-width="1"/>
            <path id="Trazado_99888" data-name="Trazado 99888" d="M248.711,140.389s4.74,7.2,1.215,15.358" transform="translate(-182.29 -125.935)" fill="none" stroke="#813e38" stroke-linecap="round" stroke-linejoin="round" stroke-width="1"/>
            <path id="Trazado_99889" data-name="Trazado 99889" d="M261.419,137.056a13.915,13.915,0,0,1,3.564,13.649" transform="translate(-183.837 -125.529)" fill="none" stroke="#813e38" stroke-linecap="round" stroke-linejoin="round" stroke-width="1"/>
            <path id="Trazado_99890" data-name="Trazado 99890" d="M254.156,139.619a13.917,13.917,0,0,1,3.564,13.649" transform="translate(-182.953 -125.841)" fill="none" stroke="#813e38" stroke-linecap="round" stroke-linejoin="round" stroke-width="1"/>
            <path id="Trazado_99891" data-name="Trazado 99891" d="M268.182,135.735a14.284,14.284,0,0,1,3.546,11.371" transform="translate(-184.661 -125.369)" fill="none" stroke="#813e38" stroke-linecap="round" stroke-linejoin="round" stroke-width="1"/>
            <path id="Trazado_99892" data-name="Trazado 99892" d="M273.8,135.138a6.547,6.547,0,0,1,2.839,8.184" transform="translate(-185.345 -125.296)" fill="none" stroke="#813e38" stroke-linecap="round" stroke-linejoin="round" stroke-width="1"/>
          </g>
          <path id="Trazado_99893" data-name="Trazado 99893" d="M237.084,85.56s1.787-35.869,26.529-52.534c3.023-2.036,7.748-1.065,9.162,1.835,7.032,14.42,1.113,40.215,1.113,40.215" transform="translate(-178.427 -30.259)" fill="#f0b571" stroke="#813e38" stroke-linecap="round" stroke-linejoin="round" stroke-width="1"/>
          <path id="Trazado_99894" data-name="Trazado 99894" d="M253.855,72.652s11.877-31.9,16.568-31.739,2.826,26.334,2.826,26.334" transform="translate(-180.469 -31.351)" fill="#fdbdbd"/>
          <g id="Grupo_53459" data-name="Grupo 53459" transform="translate(0 21.94)">
            <path id="Trazado_99895" data-name="Trazado 99895" d="M170.3,100.634c0,27.375,24.533,37.425,54.795,37.425s54.795-10.05,54.795-37.425-24.532-45.627-54.795-45.627S170.3,73.26,170.3,100.634Z" transform="translate(-170.296 -55.007)" fill="#fff"/>
            <g id="Grupo_53458" data-name="Grupo 53458" clip-path="url(#clip-path-19)">
              <path id="Trazado_99896" data-name="Trazado 99896" d="M235.707,51.4s18.129,74.344,60.1,72.579C295.8,69.691,264.908,47.173,235.707,51.4Z" transform="translate(-178.26 -54.507)" fill="#f0b571"/>
              <g id="Grupo_53457" data-name="Grupo 53457" transform="translate(103.785 55.115)">
                <path id="Trazado_99897" data-name="Trazado 99897" d="M288.469,121.8c0,2.229,3.549,4.036,7.927,4.036s7.928-1.807,7.928-4.036-3.549-4.036-7.928-4.036S288.469,119.569,288.469,121.8Z" transform="translate(-288.469 -117.762)" fill="#ffa7ad"/>
              </g>
            </g>
            <path id="Trazado_99899" data-name="Trazado 99899" d="M170.3,100.634c0,27.375,24.533,37.425,54.795,37.425s54.795-10.05,54.795-37.425-24.532-45.627-54.795-45.627S170.3,73.26,170.3,100.634Z" transform="translate(-170.296 -55.007)" fill="none" stroke="#813e38" stroke-linecap="round" stroke-linejoin="round" stroke-width="1"/>
          </g>
          <path id="Trazado_99900" data-name="Trazado 99900" d="M171.78,87.013s6.906-39.244,31.648-55.908c3.023-2.036,7.748-1.065,9.162,1.835,7.032,14.419,7.032,25.483,7.032,25.483" transform="translate(-170.477 -30.025)" fill="#fff" stroke="#813e38" stroke-linecap="round" stroke-linejoin="round" stroke-width="1"/>
          <path id="Trazado_99901" data-name="Trazado 99901" d="M215.732,61.005s0-21.655-4.656-21.059c-3.531.453-9.533,18-12.227,26.454a1.5,1.5,0,0,0,2.277,1.7A53.408,53.408,0,0,1,215.732,61.005Z" transform="translate(-173.763 -31.232)" fill="#fdbdbd"/>
        </g>
        <g id="Grupo_53466" data-name="Grupo 53466" transform="translate(154.008 73.369)">
          <g id="Grupo_53463" data-name="Grupo 53463" transform="translate(16.195)">
            <g id="Grupo_53461" data-name="Grupo 53461">
              <path id="Trazado_99902" data-name="Trazado 99902" d="M225.649,115.439a5.417,5.417,0,1,0,5.416-5.416A5.417,5.417,0,0,0,225.649,115.439Z" transform="translate(-225.649 -110.023)" fill="#813e38" stroke="#813e38" stroke-linecap="round" stroke-linejoin="round" stroke-width="1"/>
              <circle id="Elipse_3957" data-name="Elipse 3957" cx="1.746" cy="1.746" r="1.746" transform="translate(2.053 2.344)" fill="#fff" stroke="#813e38" stroke-linecap="round" stroke-linejoin="round" stroke-width="1"/>
            </g>
            <g id="Grupo_53462" data-name="Grupo 53462" transform="translate(45.573)">
              <path id="Trazado_99903" data-name="Trazado 99903" d="M277.54,115.439a5.417,5.417,0,1,0,5.417-5.416A5.417,5.417,0,0,0,277.54,115.439Z" transform="translate(-277.54 -110.023)" fill="#813e38" stroke="#813e38" stroke-linecap="round" stroke-linejoin="round" stroke-width="1"/>
              <circle id="Elipse_3958" data-name="Elipse 3958" cx="1.746" cy="1.746" r="1.746" transform="translate(2.054 2.344)" fill="#fff" stroke="#813e38" stroke-linecap="round" stroke-linejoin="round" stroke-width="1"/>
            </g>
          </g>
          <g id="Grupo_53464" data-name="Grupo 53464" transform="translate(0 6.797)">
            <path id="Trazado_99904" data-name="Trazado 99904" d="M207.209,121.8c0,2.229,3.549,4.036,7.928,4.036s7.927-1.807,7.927-4.036-3.549-4.036-7.927-4.036S207.209,119.569,207.209,121.8Z" transform="translate(-207.209 -117.762)" fill="#ffa7ad"/>
          </g>
          <g id="Grupo_53465" data-name="Grupo 53465" transform="translate(39.072 9.99)">
            <path id="Trazado_99905" data-name="Trazado 99905" d="M265.162,121.4c-.321,2.83-4.341,4.473-5.5.7-1.154,3.773-6.7,3.773-7.968,0" transform="translate(-251.698 -121.398)" fill="none" stroke="#813e38" stroke-linecap="round" stroke-linejoin="round" stroke-width="1"/>
          </g>
          <path id="Trazado_99906" data-name="Trazado 99906" d="M256.8,115.762c-2.016,1.652,3.359,4.274,3.359,4.274s5.375-2.622,3.359-4.274A5.347,5.347,0,0,0,256.8,115.762Z" transform="translate(-213.192 -110.577)" fill="#813e38" stroke="#813e38" stroke-linecap="round" stroke-linejoin="round" stroke-width="1"/>
          <line id="Línea_145" data-name="Línea 145" y1="3.893" transform="translate(47.041 6.797)" fill="none" stroke="#813e38" stroke-linecap="round" stroke-linejoin="round" stroke-width="1"/>
        </g>
        <g id="Grupo_53469" data-name="Grupo 53469" transform="translate(369.359 100.915)">
          <path id="Trazado_99907" data-name="Trazado 99907" d="M493.852,181.09s-4.855,9.916-14.045,15.2l-6.883-2.5c-11.076-20.086-20.511-18.425-20.511-18.425s1.894-27.034,18.535-33.977" transform="translate(-452.413 -141.388)" fill="#fdbdbd"/>
          <g id="Grupo_53468" data-name="Grupo 53468" clip-path="url(#clip-path-20)">
            <g id="Grupo_53467" data-name="Grupo 53467" transform="translate(-7.687 18.808)">
              <path id="Trazado_99908" data-name="Trazado 99908" d="M446.909,162.8l-3.249,8.882s21.428-2.05,36.944,32.158c2.689-2.5,6.193-5.7,6.193-5.7S474.814,162.8,446.909,162.8Z" transform="translate(-443.66 -162.803)" fill="#ff6b79"/>
              <path id="Trazado_99909" data-name="Trazado 99909" d="M490.489,206.047c-.042-.083-.088-.16-.13-.242C487.339,208.611,485.344,210.533,490.489,206.047Z" transform="translate(-448.976 -168.038)" fill="#ff6b79"/>
            </g>
          </g>
          <path id="Trazado_99911" data-name="Trazado 99911" d="M493.852,181.09s-4.855,9.916-14.045,15.2l-6.883-2.5c-11.076-20.086-20.511-18.425-20.511-18.425s1.894-27.034,18.535-33.977" transform="translate(-452.413 -141.388)" fill="none" stroke="#813e38" stroke-linecap="round" stroke-linejoin="round" stroke-width="1"/>
        </g>
        <g id="Grupo_53472" data-name="Grupo 53472" transform="translate(307.053 158.78)">
          <path id="Trazado_99912" data-name="Trazado 99912" d="M412.3,213.953q-.353-.37-.72-.724c-8.235-7.941-19.408-7.942-27.638.011q-.361.348-.709.713c-5.825,6.1,3.8,7.8,14.5,7.805h.06C408.5,221.752,418.119,220.058,412.3,213.953Z" transform="translate(-381.47 -207.275)" fill="#f4d096"/>
          <g id="Grupo_53471" data-name="Grupo 53471" clip-path="url(#clip-path-21)">
            <g id="Grupo_53470" data-name="Grupo 53470" transform="translate(4.37 -1.703)">
              <path id="Trazado_99913" data-name="Trazado 99913" d="M386.446,209.426s3.507,9.042,5.717,8.128,0-12.045,0-12.045Z" transform="translate(-386.446 -205.356)" fill="#f0b571"/>
              <path id="Trazado_99914" data-name="Trazado 99914" d="M406.949,205.335s-2.211,11.131,0,12.045,5.717-8.127,5.717-8.127Z" transform="translate(-388.823 -205.335)" fill="#f0b571"/>
            </g>
            <path id="Trazado_99915" data-name="Trazado 99915" d="M396.247,206.469s.931,11.189,3.315,11.4,3.315-11.548,3.315-11.548Z" transform="translate(-383.269 -207.158)" fill="#f0b571"/>
          </g>
          <path id="Trazado_99917" data-name="Trazado 99917" d="M412.3,213.953q-.353-.37-.72-.724c-8.235-7.941-19.408-7.942-27.638.011q-.361.348-.709.713c-5.825,6.1,3.8,7.8,14.5,7.805h.06C408.5,221.752,418.119,220.058,412.3,213.953Z" transform="translate(-381.47 -207.275)" fill="none" stroke="#813e38" stroke-linecap="round" stroke-linejoin="round" stroke-width="1"/>
        </g>
        <g id="Grupo_53475" data-name="Grupo 53475" transform="translate(210.503 180.882)">
          <path id="Trazado_99918" data-name="Trazado 99918" d="M302.362,239.119q-.354-.37-.721-.724c-8.235-7.941-19.408-7.941-27.638.011q-.361.349-.709.713c-5.824,6.1,3.8,7.8,14.5,7.805h.059C298.562,246.918,308.185,245.224,302.362,239.119Z" transform="translate(-271.536 -232.441)" fill="#f4d096"/>
          <g id="Grupo_53474" data-name="Grupo 53474" clip-path="url(#clip-path-22)">
            <g id="Grupo_53473" data-name="Grupo 53473" transform="translate(4.37 -1.703)">
              <path id="Trazado_99919" data-name="Trazado 99919" d="M276.512,234.592s3.507,9.042,5.717,8.128,0-12.045,0-12.045Z" transform="translate(-276.512 -230.523)" fill="#f0b571"/>
              <path id="Trazado_99920" data-name="Trazado 99920" d="M297.015,230.5s-2.211,11.13,0,12.044,5.717-8.127,5.717-8.127Z" transform="translate(-278.889 -230.502)" fill="#f0b571"/>
            </g>
            <path id="Trazado_99921" data-name="Trazado 99921" d="M286.312,231.635s.931,11.189,3.315,11.4,3.315-11.548,3.315-11.548Z" transform="translate(-273.335 -232.325)" fill="#f0b571"/>
          </g>
          <path id="Trazado_99923" data-name="Trazado 99923" d="M302.362,239.119q-.354-.37-.721-.724c-8.235-7.941-19.408-7.941-27.638.011q-.361.349-.709.713c-5.824,6.1,3.8,7.8,14.5,7.805h.059C298.562,246.918,308.185,245.224,302.362,239.119Z" transform="translate(-271.536 -232.441)" fill="none" stroke="#813e38" stroke-linecap="round" stroke-linejoin="round" stroke-width="1"/>
        </g>
        <g id="Grupo_53478" data-name="Grupo 53478" transform="translate(326.493 166.022)">
          <path id="Trazado_99924" data-name="Trazado 99924" d="M434.431,222.2q-.354-.37-.721-.724c-8.235-7.941-19.408-7.942-27.638.011q-.361.348-.709.713c-5.824,6.1,3.8,7.8,14.5,7.805h.059C430.631,230,440.254,228.3,434.431,222.2Z" transform="translate(-403.605 -215.521)" fill="#f4d096"/>
          <g id="Grupo_53477" data-name="Grupo 53477" clip-path="url(#clip-path-23)">
            <g id="Grupo_53476" data-name="Grupo 53476" transform="translate(4.37 -1.703)">
              <path id="Trazado_99925" data-name="Trazado 99925" d="M408.581,217.672s3.507,9.042,5.717,8.128,0-12.045,0-12.045Z" transform="translate(-408.581 -213.602)" fill="#f0b571"/>
              <path id="Trazado_99926" data-name="Trazado 99926" d="M429.084,213.581s-2.211,11.13,0,12.045S434.8,217.5,434.8,217.5Z" transform="translate(-410.958 -213.581)" fill="#f0b571"/>
            </g>
            <path id="Trazado_99927" data-name="Trazado 99927" d="M418.381,214.715s.931,11.189,3.314,11.4,3.315-11.548,3.315-11.548Z" transform="translate(-405.404 -215.404)" fill="#f0b571"/>
          </g>
          <path id="Trazado_99929" data-name="Trazado 99929" d="M434.431,222.2q-.354-.37-.721-.724c-8.235-7.941-19.408-7.942-27.638.011q-.361.348-.709.713c-5.824,6.1,3.8,7.8,14.5,7.805h.059C430.631,230,440.254,228.3,434.431,222.2Z" transform="translate(-403.605 -215.521)" fill="none" stroke="#813e38" stroke-linecap="round" stroke-linejoin="round" stroke-width="1"/>
        </g>
        <path id="Trazado_99930" data-name="Trazado 99930" d="M263.2,201.517s2.8-1.141,7.049.886" transform="translate(-60.018 -47.755)" fill="none" stroke="#813e38" stroke-linecap="round" stroke-linejoin="round" stroke-width="1"/>
        <path id="Trazado_99931" data-name="Trazado 99931" d="M264.169,192.867s2.8-1.14,7.049.886" transform="translate(-60.136 -46.701)" fill="none" stroke="#813e38" stroke-linecap="round" stroke-linejoin="round" stroke-width="1"/>
        <path id="Trazado_99932" data-name="Trazado 99932" d="M297.721,190.788a5.5,5.5,0,0,0,6.532-2.453" transform="translate(-64.221 -46.189)" fill="none" stroke="#813e38" stroke-linecap="round" stroke-linejoin="round" stroke-width="1"/>
        <path id="Trazado_99933" data-name="Trazado 99933" d="M304.744,181.322a6.4,6.4,0,0,1-6.237,1.727" transform="translate(-64.316 -45.335)" fill="none" stroke="#813e38" stroke-linecap="round" stroke-linejoin="round" stroke-width="1"/>
        <path id="Trazado_99934" data-name="Trazado 99934" d="M380.993,145.436a9.136,9.136,0,0,1,7.159-4.3" transform="translate(-74.359 -40.443)" fill="none" stroke="#813e38" stroke-linecap="round" stroke-linejoin="round" stroke-width="1"/>
        <path id="Trazado_99935" data-name="Trazado 99935" d="M385.069,151.92s2.917-4,6.808-3.646" transform="translate(-74.855 -41.309)" fill="none" stroke="#813e38" stroke-linecap="round" stroke-linejoin="round" stroke-width="1"/>
        <path id="Trazado_99936" data-name="Trazado 99936" d="M408.438,194.559a13.568,13.568,0,0,0,8.9,0" transform="translate(-77.7 -46.946)" fill="none" stroke="#813e38" stroke-linecap="round" stroke-linejoin="round" stroke-width="1"/>
        <path id="Trazado_99937" data-name="Trazado 99937" d="M411.723,203.386s2.744,1.576,7.9-.091" transform="translate(-78.1 -48.01)" fill="none" stroke="#813e38" stroke-linecap="round" stroke-linejoin="round" stroke-width="1"/>
        <path id="Trazado_99938" data-name="Trazado 99938" d="M504.54,417.354a23.891,23.891,0,0,0,11.312.971" transform="translate(-89.401 -74.072)" fill="none" stroke="#813e38" stroke-linecap="round" stroke-linejoin="round" stroke-width="1"/>
        <path id="Trazado_99939" data-name="Trazado 99939" d="M508.635,408.331a33.654,33.654,0,0,0,8.86,1.23" transform="translate(-89.899 -72.973)" fill="none" stroke="#813e38" stroke-linecap="round" stroke-linejoin="round" stroke-width="1"/>
      </g>
    </g>
  </g>
</svg>
