<svg xmlns="http://www.w3.org/2000/svg" width="78.194" height="101" viewBox="0 0 78.194 101">
  <g id="ilustrador" transform="translate(-8 -1)">
    <path id="Trazado_103697" data-name="Trazado 103697" d="M9,2H83.935V99.742H9Z" transform="translate(0.629 0.629)" fill="#abb8be"/>
    <path id="Trazado_103698" data-name="Trazado 103698" d="M13,6H74.9V54.871H13Z" transform="translate(3.145 3.145)" fill="#fff"/>
    <path id="Trazado_103699" data-name="Trazado 103699" d="M9,40H83.935V75.839H9Z" transform="translate(0.629 24.532)" fill="#f3a845"/>
    <path id="Trazado_103700" data-name="Trazado 103700" d="M9,40V70.952H72.532a4.887,4.887,0,0,0,4.887-4.887V40Z" transform="translate(0.629 24.532)" fill="#eecc61"/>
    <path id="Trazado_103701" data-name="Trazado 103701" d="M35.774,10,26,27.919l.547.815a16.139,16.139,0,0,1,2.711,8.96H42.29A16.139,16.139,0,0,1,45,28.734l.547-.815Z" transform="translate(11.323 5.661)" fill="#939393"/>
    <path id="Trazado_103702" data-name="Trazado 103702" d="M27,27H43.29v6.516H27Z" transform="translate(11.952 16.355)" fill="#f3a845"/>
    <path id="Trazado_103703" data-name="Trazado 103703" d="M29,31l.593,8.145h8.588L38.774,31Z" transform="translate(13.21 18.871)" fill="#eecc61"/>
    <g id="Grupo_54408" data-name="Grupo 54408" transform="translate(12.887 30.323)">
      <ellipse id="Elipse_4102" data-name="Elipse 4102" cx="3" cy="3.5" rx="3" ry="3.5" transform="translate(31.113 -0.322)" fill="#fff"/>
      <path id="Trazado_103704" data-name="Trazado 103704" d="M12.629,55.032A1.629,1.629,0,0,1,11,53.4V43.629a1.629,1.629,0,1,1,3.258,0V53.4A1.629,1.629,0,0,1,12.629,55.032Z" transform="translate(-11 -4.532)" fill="#fff"/>
      <path id="Trazado_103705" data-name="Trazado 103705" d="M12.629,56.887A1.629,1.629,0,0,1,11,55.258V53.629a1.629,1.629,0,0,1,3.258,0v1.629A1.629,1.629,0,0,1,12.629,56.887Z" transform="translate(-11 1.758)" fill="#fff"/>
    </g>
    <path id="Trazado_103706" data-name="Trazado 103706" d="M13.629,57.129h61.9A1.629,1.629,0,0,0,77.161,55.5V6.629A1.629,1.629,0,0,0,75.532,5h-61.9A1.629,1.629,0,0,0,12,6.629V55.5A1.629,1.629,0,0,0,13.629,57.129Zm23.08-26.148,6.242-11.447v6.943a4.887,4.887,0,1,0,3.258,0V19.534L52.454,30.98a17.693,17.693,0,0,0-2.9,8.23H39.614a17.693,17.693,0,0,0-2.9-8.228Zm9.5.083a1.629,1.629,0,1,1-1.629-1.629A1.629,1.629,0,0,1,46.21,31.065Zm-8.145,11.4H51.1v3.258H38.065Zm9.65,6.516-.355,4.887H41.8l-.355-4.887ZM15.258,8.258H73.9V53.871H50.628l.355-4.887h1.743a1.629,1.629,0,0,0,1.629-1.629V40.839a1.616,1.616,0,0,0-1.512-1.6,14.458,14.458,0,0,1,2.326-6.444l.547-.815a1.629,1.629,0,0,0,.075-1.684L46.017,12.371a1.694,1.694,0,0,0-2.861,0L33.383,30.291a1.629,1.629,0,0,0,.075,1.684L34,32.79a14.458,14.458,0,0,1,2.32,6.444,1.616,1.616,0,0,0-1.518,1.6v6.516a1.629,1.629,0,0,0,1.629,1.629h1.743l.355,4.887H15.258Z" transform="translate(2.516 2.516)"/>
    <path id="Trazado_103707" data-name="Trazado 103707" d="M47.887,17.145h3.258V10.629A1.629,1.629,0,0,0,49.516,9H43v3.258h4.887Z" transform="translate(22.016 5.032)"/>
    <path id="Trazado_103708" data-name="Trazado 103708" d="M16,10.629v6.516h3.258V12.258h4.887V9H17.629A1.629,1.629,0,0,0,16,10.629Z" transform="translate(5.032 5.032)"/>
    <path id="Trazado_103709" data-name="Trazado 103709" d="M51.145,34.516V28H47.887v4.887H43v3.258h6.516A1.629,1.629,0,0,0,51.145,34.516Z" transform="translate(22.016 16.984)"/>
    <path id="Trazado_103710" data-name="Trazado 103710" d="M19.258,28H16v6.516a1.629,1.629,0,0,0,1.629,1.629h6.516V32.887H19.258Z" transform="translate(5.032 16.984)"/>
    <path id="Trazado_103711" data-name="Trazado 103711" d="M30.516,44A6.516,6.516,0,0,0,24,50.516v16.29h3.258V60.29h6.516v6.516h3.258V50.516A6.516,6.516,0,0,0,30.516,44ZM27.258,57.032V50.516a3.258,3.258,0,1,1,6.516,0v6.516Z" transform="translate(10.065 27.048)"/>
    <path id="Trazado_103712" data-name="Trazado 103712" d="M34,47.258h3.258v16.29H34v3.258h9.774V63.548H40.516V47.258h3.258V44H34Z" transform="translate(16.355 27.048)"/>
    <path id="Trazado_103713" data-name="Trazado 103713" d="M84.565,1H9.629A1.629,1.629,0,0,0,8,2.629v97.742A1.629,1.629,0,0,0,9.629,102H84.565a1.629,1.629,0,0,0,1.629-1.629V2.629A1.629,1.629,0,0,0,84.565,1ZM82.935,4.258V62.9H11.258V4.258ZM11.258,98.742V66.161H82.935V98.742Z"/>
  </g>
</svg>
