<svg xmlns="http://www.w3.org/2000/svg" width="47.49" height="46.978" viewBox="0 0 47.49 46.978">
  <g id="diseno-de-logo" transform="translate(0 -0.5)">
    <path id="Trazado_100997" data-name="Trazado 100997" d="M408.9.5V16l-1.484-.742V.5h-1.484V15.341l-.742.557-.742-.557V.5h-1.484V15.253L401.484,16V.5H400V17.411l5.194,8.224,5.194-8.224V.5Zm-3.71,22.355-1.466-2.32h2.931Zm2.4-3.8h-4.805l-.984-1.558,1.828-.912,1.558,1.172,1.558-1.172,1.828.912Zm0,0" transform="translate(-362.898 0)" fill="#f57c00"/>
    <path id="Trazado_100998" data-name="Trazado 100998" d="M200.351,176.5l-2.6,10.389h10.805l-2.6-10.389Zm-.7,8.9,1.855-7.42H204.8l1.855,7.42Zm0,0" transform="translate(-179.411 -159.675)" fill="#f57c00"/>
    <path id="Trazado_100999" data-name="Trazado 100999" d="M28.94,10.03V4.952h2.968V3.468H28.94V.5H27.456V3.468h-7.42V.5H18.551V3.468H15.583V4.952h2.968V10.03l-2.2,6.8H5.937V13.856H4.453v2.968H0v1.484H4.453v7.42H0v1.484H4.453v2.968H5.937V27.213h7.041L8.163,42.054H4.453v1.484H7.683L6.555,47.019l1.41.459,1.279-3.94h4.613l-1,3.506,1.428.408L15.4,43.538h3.892V42.054H15.825l2.544-8.9H29.122l2.544,8.9H28.2v1.484H32.09l1.118,3.914,1.428-.408-1-3.506h4.613l1.278,3.94,1.41-.459-1.127-3.481h3.231V42.054h-3.71Zm-8.9-5.078h7.42V9.4h-7.42ZM5.937,25.729v-7.42h9.929l-2.406,7.42Zm8.344,16.325H9.725l1.2-3.71h4.413ZM31.725,36.86l-1.484-5.194H17.25L15.766,36.86H11.41l8.423-25.971h7.825L36.081,36.86Zm1.484,5.194-1.06-3.71h4.413l1.208,3.71Zm0,0" fill="#f57c00"/>
  </g>
</svg>
