<svg id="valor" xmlns="http://www.w3.org/2000/svg" width="48.218" height="48.218" viewBox="0 0 48.218 48.218">
  <path id="Trazado_100968" data-name="Trazado 100968" d="M328.652,4.185a.706.706,0,0,0,.706-.706V.706a.706.706,0,0,0-1.413,0V3.478A.706.706,0,0,0,328.652,4.185Z" transform="translate(-297.062)" fill="#f57c00"/>
  <path id="Trazado_100969" data-name="Trazado 100969" d="M246.094,22.4a.706.706,0,0,0,1.068-.925l-1.8-2.078a.706.706,0,0,0-1.068.925Z" transform="translate(-221.132 -17.348)" fill="#f57c00"/>
  <path id="Trazado_100970" data-name="Trazado 100970" d="M392.912,22.47a.706.706,0,0,0,1-.072l1.8-2.078a.706.706,0,1,0-1.068-.925l-1.8,2.078A.706.706,0,0,0,392.912,22.47Z" transform="translate(-355.688 -17.348)" fill="#f57c00"/>
  <path id="Trazado_100971" data-name="Trazado 100971" d="M209.176,96.609a2.105,2.105,0,0,0,2.927,0l10.865-10.446a2.113,2.113,0,0,0,.224-2.791l-1.458-1.938a.706.706,0,0,0-1.129.849l1.252,1.665H216.25l-1.489-4.917h3.049a.7.7,0,0,1,.558.279l.539.716a.706.706,0,0,0,1.129-.849l-.539-.716a2.122,2.122,0,0,0-1.687-.842h-14.34a2.122,2.122,0,0,0-1.687.842l-3.695,4.912a2.113,2.113,0,0,0,.224,2.791ZM204.989,85.36l4.045,9.154-9.521-9.154Zm16.775,0-9.521,9.154,4.045-9.154h5.476ZM210.639,94.65l-4.105-9.291h8.21Zm2.646-15.62,1.489,4.917H206.5l1.489-4.917Zm-10.374.279a.7.7,0,0,1,.559-.279h3.049l-1.489,4.917h-5.607Z" transform="translate(-179.048 -70.308)" fill="#f57c00"/>
  <path id="Trazado_100972" data-name="Trazado 100972" d="M43.138,303.915l-4.326,2.631a16.5,16.5,0,0,1-13.969,1.513,1.884,1.884,0,0,1-.471-3.324l4.5-3.162a2.617,2.617,0,0,0-2.066-4.7l-11.558,2.536v-.146a1.834,1.834,0,0,0-1.832-1.832H7.623a.706.706,0,0,0,0,1.413h5.792a.419.419,0,0,1,.419.419v15.982a.419.419,0,0,1-.419.419H1.444a.031.031,0,0,1-.031-.031V298.879a.031.031,0,0,1,.031-.031H4.8a.706.706,0,0,0,0-1.413H1.444A1.445,1.445,0,0,0,0,298.879v16.757a1.446,1.446,0,0,0,1.444,1.444H13.415a1.834,1.834,0,0,0,1.832-1.832v-.359l.414.119a34.359,34.359,0,0,0,9.549,1.353,34.937,34.937,0,0,0,3.642-.191,34.406,34.406,0,0,0,12.766-3.927A.706.706,0,1,0,40.949,311a33.23,33.23,0,0,1-24.9,2.652l-.805-.232v-12.56l11.861-2.6a1.2,1.2,0,0,1,.951,2.163l-4.5,3.161a3.3,3.3,0,0,0,.825,5.816,17.906,17.906,0,0,0,15.162-1.643l4.326-2.631c1.24-.755,2.969.067,2.933,1.295a1.311,1.311,0,0,1-.477.974,33.359,33.359,0,0,1-2.936,2.159.706.706,0,0,0,.773,1.182,34.8,34.8,0,0,0,3.061-2.25,2.724,2.724,0,0,0,.991-2.023c.072-2.434-2.96-3.833-5.079-2.543Z" transform="translate(0 -268.862)" fill="#f57c00"/>
  <path id="Trazado_100973" data-name="Trazado 100973" d="M95.237,423.744v-1.532a.706.706,0,1,0-1.413,0v1.532a.706.706,0,1,0,1.413,0Z" transform="translate(-84.988 -381.811)" fill="#f57c00"/>
</svg>
