<svg xmlns="http://www.w3.org/2000/svg" width="51.125" height="46.979" viewBox="0 0 51.125 46.979">
  <g id="brand" transform="translate(0 -0.077)">
    <path id="Trazado_100974" data-name="Trazado 100974" d="M140.982,133.815a2.6,2.6,0,0,0,1.871-4.4l-1.2-1.245a.868.868,0,0,0-.607-.265.9.9,0,0,0-.617.242l-2.5,2.4-2.5,2.4a.866.866,0,1,0,1.2,1.249l1.872-1.8.23.238-1.115,3.146a.866.866,0,1,0,1.633.579l.948-2.677A2.6,2.6,0,0,0,140.982,133.815Zm.023-3.822.6.624a.869.869,0,0,1-1.251,1.206l-.6-.625Zm0,0" transform="translate(-120.518 -113.987)" fill="#f57c00"/>
    <path id="Trazado_100975" data-name="Trazado 100975" d="M102.37,93.477a2.591,2.591,0,0,0,1.786-4.393l-1.2-1.248a.866.866,0,0,0-1.224-.022l-4.991,4.807a.866.866,0,0,0-.022,1.225l1.2,1.247a2.58,2.58,0,0,0,1.819.8h.05a2.579,2.579,0,0,0,2.58-2.413Zm-.063-3.811.6.623a.866.866,0,0,1-.024,1.225.771.771,0,0,1-.617.243.86.86,0,0,1-.606-.265l-.6-.625Zm-1.919,4.252a.789.789,0,0,1-.617.243.861.861,0,0,1-.607-.266l-.6-.624,1.247-1.2.6.623a.866.866,0,0,1-.024,1.222Zm0,0" transform="translate(-86.027 -78.02)" fill="#f57c00"/>
    <path id="Trazado_100976" data-name="Trazado 100976" d="M182.5,185.784a.866.866,0,0,0-.967-.194l-6.795,2.936a.866.866,0,0,0,.687,1.59l1.148-.5,1.871,1.944-.538,1.126a.866.866,0,0,0,.409,1.155.85.85,0,0,0,.373.086.865.865,0,0,0,.78-.493l3.189-6.679a.866.866,0,0,0-.155-.975Zm-4.229,3.1,1.828-.79-.857,1.8Zm0,0" transform="translate(-155.357 -165.362)" fill="#f57c00"/>
    <path id="Trazado_100977" data-name="Trazado 100977" d="M233.728,223.484a.866.866,0,0,0-1.225-.023l-2.817,2.712,1.252-5a.866.866,0,0,0-1.441-.834l-4.991,4.808a.866.866,0,0,0,1.2,1.247l2.816-2.712-1.252,5a.866.866,0,0,0,1.441.835l4.99-4.808A.867.867,0,0,0,233.728,223.484Zm0,0" transform="translate(-199.974 -196.198)" fill="#f57c00"/>
    <path id="Trazado_100978" data-name="Trazado 100978" d="M275.017,266.45a.868.868,0,0,0-.607-.266.963.963,0,0,0-.617.243l-4.991,4.807a.867.867,0,0,0-.023,1.224l.6.625a4.331,4.331,0,1,0,6.237-6.009Zm-.716,5.5a2.6,2.6,0,0,1-3.675-.069l3.743-3.606A2.6,2.6,0,0,1,274.3,271.95Zm0,0" transform="translate(-239.46 -237.293)" fill="#f57c00"/>
    <path id="Trazado_100979" data-name="Trazado 100979" d="M385.557,240.537l.971-.971-1.225-1.225-.971.971v-1.374H382.6v1.374l-.971-.971-1.224,1.225.971.971H380v1.732h1.374l-.971.972,1.224,1.225.971-.972v1.374h1.732v-1.374l.971.972,1.225-1.225-.971-.972h1.374v-1.732Zm0,0" transform="translate(-338.854 -212.105)" fill="#f57c00"/>
    <path id="Trazado_100980" data-name="Trazado 100980" d="M44.611,22.8a6.462,6.462,0,0,0-4.126,1.483L18.313,1.266A.865.865,0,0,0,17.632,1L3.314,1.925,1.789.343a.867.867,0,0,0-1.248,1.2L2.048,3.11.01,16.738a.865.865,0,0,0,.232.729L28.486,46.79a.866.866,0,0,0,1.225.023l12.1-11.659a6.5,6.5,0,1,0,2.8-12.353ZM3.565,4.684,4.856,6.025a2.592,2.592,0,0,0,2.27,3.756h.049a2.6,2.6,0,0,0,.048-5.2A2.5,2.5,0,0,0,6.1,4.822L4.888,3.56l12.455-.8.323.335L2.692,17.514l-.906-.942ZM6.574,6.559a.857.857,0,0,1,.6-.243h.017a.866.866,0,0,1,.584,1.49.814.814,0,0,1-.617.242.866.866,0,0,1-.585-1.49ZM29.134,44.964l-3.826-3.972h7.95Zm5.9-5.678v-.027H23.638L3.9,18.761,18.868,4.339,39.311,25.561a6.464,6.464,0,0,0,1.028,8.616Zm9.582-5.224A4.764,4.764,0,1,1,49.375,29.3,4.764,4.764,0,0,1,44.611,34.062Zm0,0" transform="translate(0 0)" fill="#f57c00"/>
  </g>
</svg>
