<svg xmlns="http://www.w3.org/2000/svg" width="85.119" height="106.909" viewBox="0 0 85.119 106.909">
  <g id="paleta-de-color" transform="translate(-50.521)">
    <g id="Grupo_54329" data-name="Grupo 54329" transform="translate(63.264 29.914)">
      <g id="XMLID_233_">
        <g id="Grupo_54328" data-name="Grupo 54328">
          <path id="Trazado_103461" data-name="Trazado 103461" d="M140.381,287.884l-10.11-.654-20.66,17.71,17.278,22.717,21.62-19.456,2.862-7.046Z" transform="translate(-109.611 -255.201)" fill="#01d0fb"/>
          <path id="Trazado_103462" data-name="Trazado 103462" d="M225.4,241.1l-7.918-1.861-12.075,10.349,18.238,20.97,12.226-11,1.027-5.742Z" transform="translate(-184.751 -217.56)" fill="#62dbfb"/>
          <path id="Trazado_103463" data-name="Trazado 103463" d="M283.744,190.033l-9.865-.393-12.478,10.7,18.389,20.317,12.273-11.046,3.4-6.837Z" transform="translate(-228.667 -178.657)" fill="#99e6fc"/>
          <path id="Trazado_103464" data-name="Trazado 103464" d="M344.4,152.846a7.829,7.829,0,0,1-.556,11.055l-6.4,5.76-18.184-19.968,12.814-10.983,5.534,6.623Z" transform="translate(-274.049 -138.71)" fill="#c8effe"/>
        </g>
      </g>
    </g>
    <path id="Trazado_103465" data-name="Trazado 103465" d="M102.8,239.321,92.4,242.892l-20.25,32.622,28.2,11.542,18.514-26.769,1.035-9.98Z" transform="translate(-16.965 -187.71)" fill="#05e39c"/>
    <g id="Grupo_54331" data-name="Grupo 54331" transform="translate(75.436 10.688)">
      <g id="XMLID_199_" transform="translate(0)">
        <g id="Grupo_54330" data-name="Grupo 54330">
          <path id="Trazado_103466" data-name="Trazado 103466" d="M187.59,174.686l-11.884,1.955L166.051,192.2l26.463,17.395,9.849-14.242,1.227-9.7Z" transform="translate(-166.051 -147.702)" fill="#00f2a6"/>
          <path id="Trazado_103467" data-name="Trazado 103467" d="M247.091,124.261l-18.427-11.833-8.9.971-8.943,14.41,26.657,18.708,10.157-14.688Z" transform="translate(-201.166 -98.87)" fill="#6cf5c2"/>
          <path id="Trazado_103468" data-name="Trazado 103468" d="M283.443,64.02a7.827,7.827,0,0,1,1.984,10.888l-5.264,7.611-27.871-18.43L261.31,49.56l12.763,7.979Z" transform="translate(-233.693 -49.56)" fill="#9cf8d2"/>
        </g>
      </g>
    </g>
    <g id="XMLID_134_" transform="translate(50.521 0)">
      <path id="Trazado_103469" data-name="Trazado 103469" d="M66.364,213.827,51.905,249.643a18.05,18.05,0,0,0,33.476,13.514l14.3-35.415Z" transform="translate(-50.573 -167.714)" fill="#fed402"/>
      <g id="XMLID_186_" transform="translate(14.979 1.938)">
        <g id="Grupo_54332" data-name="Grupo 54332">
          <path id="Trazado_103470" data-name="Trazado 103470" d="M159.12,156.089l-24.6-11.511-7.329,2.217L119.98,164.17,152.7,176.9l6.8-16.872Z" transform="translate(-119.98 -115.337)" fill="#fee45a"/>
          <path id="Trazado_103471" data-name="Trazado 103471" d="M192.18,76.465l-26.188-8.4-5.439,2.469L153.8,86.813l32.24,13.207L192.9,83.03Z" transform="translate(-146.51 -55.329)" fill="#fee97d"/>
          <path id="Trazado_103472" data-name="Trazado 103472" d="M216.832,17.118a7.829,7.829,0,0,1,4.371,10.17l-3.748,9.4L185.107,24.2l5.859-14.123a7.812,7.812,0,0,1,6.873-.528Z" transform="translate(-171.062 -8.988)" fill="#fef0ae"/>
        </g>
      </g>
      <g id="Grupo_54333" data-name="Grupo 54333" transform="translate(0)">
        <path id="Trazado_103473" data-name="Trazado 103473" d="M50.521,72.553V7.826A7.825,7.825,0,0,1,58.347,0H78.794a7.826,7.826,0,0,1,7.828,7.826V88.859a18.05,18.05,0,0,1-36.1,0Z" transform="translate(-50.521 0)" fill="#f9f7f8"/>
      </g>
      <g id="Grupo_54335" data-name="Grupo 54335" transform="translate(0 0)">
        <g id="XMLID_173_">
          <g id="Grupo_54334" data-name="Grupo 54334">
            <path id="Trazado_103474" data-name="Trazado 103474" d="M86.622,7.826V17.841L68.108,19.566,50.521,17.841V7.826A7.825,7.825,0,0,1,58.347,0H78.794a7.826,7.826,0,0,1,7.828,7.826Z" transform="translate(-50.521 0)" fill="#f9b1b1"/>
            <path id="Trazado_103475" data-name="Trazado 103475" d="M86.622,82.73v18.238l-18.276,2.157-17.824-2.157V82.73Z" transform="translate(-50.521 -64.889)" fill="#f79595"/>
            <path id="Trazado_103476" data-name="Trazado 103476" d="M86.622,244.017v18.238h-36.1V244.017l17.587-2.157Z" transform="translate(-50.521 -189.701)" fill="#ee6161"/>
            <path id="Trazado_103477" data-name="Trazado 103477" d="M50.521,167.3h36.1v18.236h-36.1Z" transform="translate(-50.521 -131.221)" fill="#f47c7c"/>
          </g>
        </g>
      </g>
    </g>
    <circle id="Elipse_4093" data-name="Elipse 4093" cx="6.139" cy="6.139" r="6.139" transform="translate(62.065 82.78)" fill="#e5e1e5"/>
  </g>
</svg>
