<svg xmlns="http://www.w3.org/2000/svg" width="84" height="84.041" viewBox="0 0 84 84.041">
  <g id="_3d" data-name="3d" transform="translate(-0.122)">
    <g id="Grupo_54360" data-name="Grupo 54360" transform="translate(54.934 55.274)">
      <path id="Trazado_103551" data-name="Trazado 103551" d="M348.759,342.431a1.265,1.265,0,0,1-.64-.173L323.67,328.01a1.273,1.273,0,1,1,1.282-2.2L349.4,340.058a1.273,1.273,0,0,1-.642,2.373Z" transform="translate(-323.038 -325.636)" fill="#efedef"/>
    </g>
    <g id="Grupo_54361" data-name="Grupo 54361" transform="translate(2.32 57.155)">
      <path id="Trazado_103552" data-name="Trazado 103552" d="M14.348,351.661a1.273,1.273,0,0,1-.644-2.372l21.212-12.4a1.273,1.273,0,1,1,1.285,2.2l-21.213,12.4a1.267,1.267,0,0,1-.641.174Z" transform="translate(-13.073 -336.714)" fill="#efedef"/>
    </g>
    <g id="Grupo_54362" data-name="Grupo 54362" transform="translate(11.535 11.304)">
      <path id="Trazado_103553" data-name="Trazado 103553" d="M72.468,360.051a1.267,1.267,0,0,1-.657-.183l-3.635-2.189a1.273,1.273,0,0,1-.616-1.089l0-4.244a1.273,1.273,0,1,1,2.546,0l0,3.525,3.02,1.818a1.273,1.273,0,0,1-.656,2.364Z" transform="translate(-67.522 -302.784)" fill="#99e6fc"/>
      <path id="Trazado_103554" data-name="Trazado 103554" d="M68.728,259.018a1.273,1.273,0,0,1-1.274-1.272l-.01-8.773a1.273,1.273,0,0,1,2.546,0l.01,8.773A1.273,1.273,0,0,1,68.728,259.018Z" transform="translate(-67.43 -216.957)" fill="#99e6fc"/>
      <path id="Trazado_103555" data-name="Trazado 103555" d="M68.64,167.054a1.273,1.273,0,0,1-1.274-1.272l0-4.244a1.274,1.274,0,0,1,.614-1.091l3.631-2.2a1.273,1.273,0,0,1,1.318,2.178l-3.016,1.825,0,3.525A1.273,1.273,0,0,1,68.64,167.054Z" transform="translate(-67.361 -142.54)" fill="#99e6fc"/>
      <path id="Trazado_103556" data-name="Trazado 103556" d="M133.285,112.7a1.273,1.273,0,0,1-.662-2.362l7.343-4.443a1.273,1.273,0,0,1,1.318,2.178l-7.343,4.443A1.267,1.267,0,0,1,133.285,112.7Z" transform="translate(-121.035 -99.073)" fill="#99e6fc"/>
      <path id="Trazado_103557" data-name="Trazado 103557" d="M227.058,71.343a1.268,1.268,0,0,1-.66-.185l-2.968-1.8-2.97,1.8a1.273,1.273,0,0,1-1.318-2.178l3.631-2.2a1.273,1.273,0,0,1,1.319,0l3.628,2.2a1.273,1.273,0,0,1-.66,2.362Z" transform="translate(-192.867 -66.595)" fill="#99e6fc"/>
      <path id="Trazado_103558" data-name="Trazado 103558" d="M312.809,112.6a1.268,1.268,0,0,1-.66-.185l-7.291-4.424a1.273,1.273,0,0,1,1.321-2.177l7.291,4.424a1.273,1.273,0,0,1-.66,2.361Z" transform="translate(-264.036 -99.005)" fill="#99e6fc"/>
      <path id="Trazado_103559" data-name="Trazado 103559" d="M395.064,166.753a1.273,1.273,0,0,1-1.274-1.272l0-3.528-3.016-1.83a1.273,1.273,0,0,1,1.321-2.177l3.628,2.2a1.273,1.273,0,0,1,.613,1.087l0,4.244A1.273,1.273,0,0,1,395.064,166.753Z" transform="translate(-335.365 -142.287)" fill="#99e6fc"/>
      <path id="Trazado_103560" data-name="Trazado 103560" d="M412.9,258.666a1.273,1.273,0,0,1-1.274-1.272l-.01-8.763a1.273,1.273,0,0,1,2.546,0l.01,8.763A1.273,1.273,0,0,1,412.9,258.666Z" transform="translate(-353.179 -216.674)" fill="#99e6fc"/>
      <path id="Trazado_103561" data-name="Trazado 103561" d="M391.681,359.6a1.273,1.273,0,0,1-.665-2.36l3.012-1.837,0-3.528a1.273,1.273,0,0,1,2.546,0l0,4.244a1.273,1.273,0,0,1-.61,1.088l-3.623,2.209a1.268,1.268,0,0,1-.66.186Z" transform="translate(-335.571 -302.397)" fill="#99e6fc"/>
      <path id="Trazado_103562" data-name="Trazado 103562" d="M305.882,421.765a1.273,1.273,0,0,1-.665-2.36l7.282-4.44a1.273,1.273,0,1,1,1.326,2.174l-7.282,4.44A1.268,1.268,0,0,1,305.882,421.765Z" transform="translate(-264.336 -355.677)" fill="#99e6fc"/>
      <path id="Trazado_103563" data-name="Trazado 103563" d="M223.856,471.853a1.272,1.272,0,0,1-.658-.182l-3.635-2.189a1.273,1.273,0,0,1,1.313-2.181l2.974,1.791,2.965-1.808a1.273,1.273,0,1,1,1.326,2.174l-3.623,2.209a1.275,1.275,0,0,1-.661.186Z" transform="translate(-193.216 -399.115)" fill="#99e6fc"/>
      <path id="Trazado_103564" data-name="Trazado 103564" d="M140.94,422.023a1.267,1.267,0,0,1-.657-.183l-7.353-4.427a1.273,1.273,0,0,1,1.313-2.181l7.353,4.427a1.273,1.273,0,0,1-.657,2.364Z" transform="translate(-121.289 -355.902)" fill="#99e6fc"/>
    </g>
    <g id="XMLID_424_" transform="translate(19.957 21.125)">
      <g id="Grupo_54363" data-name="Grupo 54363">
        <path id="Trazado_103565" data-name="Trazado 103565" d="M269.392,201.2l-4.208-.279-16.529,6.849-1.1,6.719v26.548a1.237,1.237,0,0,0,.648-.182l20.746-12.62a1.25,1.25,0,0,0,.6-1.069V201.809A1.273,1.273,0,0,0,269.392,201.2Z" transform="translate(-225.391 -187.938)" fill="#f47c7c"/>
        <path id="Trazado_103566" data-name="Trazado 103566" d="M138.1,206.45l-18.389-9.4-2.64,1.08a1.263,1.263,0,0,0-.092.472v25.348a1.253,1.253,0,0,0,.6,1.071l20.912,12.622a1.239,1.239,0,0,0,.648.18V211.274Z" transform="translate(-116.976 -184.726)" fill="#ee6161"/>
        <path id="Trazado_103567" data-name="Trazado 103567" d="M161.425,137.712l-.185.121L139.589,151l-21.761-13.135-.312-.01a1.249,1.249,0,0,1,.513-.6l20.912-12.624a1.25,1.25,0,0,1,1.3,0l20.746,12.619A1.263,1.263,0,0,1,161.425,137.712Z" transform="translate(-117.424 -124.453)" fill="#f79595"/>
      </g>
    </g>
    <g id="Grupo_54364" data-name="Grupo 54364" transform="translate(40.849 42.644)">
      <path id="Trazado_103568" data-name="Trazado 103568" d="M241.329,257.038a1.273,1.273,0,0,1-1.273-1.273V252.5a1.273,1.273,0,0,1,2.546,0v3.262A1.273,1.273,0,0,1,241.329,257.038Z" transform="translate(-240.056 -251.23)" fill="#efedef"/>
    </g>
    <g id="Grupo_54365" data-name="Grupo 54365" transform="translate(40.849 28.656)">
      <path id="Trazado_103569" data-name="Trazado 103569" d="M241.329,172.346a1.273,1.273,0,0,1-1.273-1.273V170.1a1.273,1.273,0,0,1,2.546,0v.978A1.273,1.273,0,0,1,241.329,172.346Z" transform="translate(-240.056 -168.822)" fill="#efedef"/>
    </g>
    <g id="Grupo_54366" data-name="Grupo 54366" transform="translate(40.849 35.956)">
      <path id="Trazado_103570" data-name="Trazado 103570" d="M241.329,215.354a1.273,1.273,0,0,1-1.273-1.273V213.1a1.273,1.273,0,0,1,2.546,0v.978A1.273,1.273,0,0,1,241.329,215.354Z" transform="translate(-240.056 -211.83)" fill="#efedef"/>
    </g>
    <g id="Grupo_54367" data-name="Grupo 54367" transform="translate(40.849 1.981)">
      <path id="Trazado_103571" data-name="Trazado 103571" d="M241.329,35.472a1.273,1.273,0,0,1-1.273-1.273V12.945a1.273,1.273,0,0,1,2.546,0V34.2A1.273,1.273,0,0,1,241.329,35.472Z" transform="translate(-240.056 -11.672)" fill="#efedef"/>
    </g>
    <g id="Grupo_54368" data-name="Grupo 54368" transform="translate(0.122 0)">
      <circle id="Elipse_4095" data-name="Elipse 4095" cx="4.054" cy="4.054" r="4.054" transform="translate(75.891 66.717)" fill="#01c0fa"/>
      <circle id="Elipse_4096" data-name="Elipse 4096" cx="4.054" cy="4.054" r="4.054" transform="translate(0 66.717)" fill="#01c0fa"/>
      <circle id="Elipse_4097" data-name="Elipse 4097" cx="4.054" cy="4.054" r="4.054" transform="translate(37.945)" fill="#01c0fa"/>
    </g>
  </g>
</svg>
