<svg xmlns="http://www.w3.org/2000/svg" width="393.978" height="251.209" viewBox="0 0 393.978 251.209">
  <g id="Grupo_54411" data-name="Grupo 54411" transform="translate(-176 -836.729)">
    <g id="Image_Place_Holder" data-name="Image Place Holder" transform="translate(176 873.22)" opacity="0.1">
      <rect id="Image_Place_Holder-2" data-name="Image Place Holder" width="393.978" height="214.719" rx="10" transform="translate(0 0)" fill="#f57c00"/>
    </g>
    <g id="Grupo_53852" data-name="Grupo 53852" transform="translate(260 836.729)">
      <g id="Grupo_53849" data-name="Grupo 53849" transform="translate(11.252 0)">
        <path id="Trazado_101423" data-name="Trazado 101423" d="M789.374,658.977h27.314a83.5,83.5,0,0,0-4.783-13.97c-18.083-2-45.617-5.032-46.029-5.032h43.589A84.17,84.17,0,0,0,672.9,622.329h47.6L669.241,626.6a84.142,84.142,0,0,0-11.2,18.385h35.368l-37.2,4.469a83.561,83.561,0,0,0-4.514,17.514c12.148.021,25.78.084,25.78.084l-26.283,4.127q-.37,3.937-.374,7.973a83.794,83.794,0,0,0,9.09,38.081H810.033a84.487,84.487,0,0,0,7.438-54.751C806.736,661.16,789.374,658.977,789.374,658.977Z" transform="translate(-639.334 -595)" fill="#f4e398"/>
        <path id="Trazado_101424" data-name="Trazado 101424" d="M939.779,695.525s3.743-.14,3.077-3.4-2.2-4.044-2.2-4.044,1.346-.585,2.048-.165a2,2,0,0,0-2.007-1.207c-1.653-.045-2.589-.06-1.544-.811s2.088-1.4,3.283-.656a2.408,2.408,0,0,0-2.373-1.4,6.524,6.524,0,0,0-2.032-2.963c-1.528-1.216-1.466.766-1.466.766a3.766,3.766,0,0,0-2.62-.961c-1.279.225-.327,1.637-.327,1.637s-4.024-.771-3.878.29,1.372,1.161,1.372,1.161-2.121-.561-2.454.941.749,1.261.125,2.363,3.057,1.822,4.387-.521a24.646,24.646,0,0,0-7.877,16.035c-1.129,11.112-8.089,9.161-10.188,3.391-2.271-6.243-14.137-10.018-18.535-1.55,0,0,3.206-1.537,4.64-.877,0,0-10.48,3.544-9.731,17.96,0,0,4.055-10.271,9.607-10.512,0,0-4.429,4.625-3.057,8.77,0,0,3.244-6.247,6.488-3.724,0,0-2.807,1.462-2.433,4.425,0,0,4.872-3.969,8.053,2.608,2.7,5.572,10.226,6.876,12.464,7.144a1.719,1.719,0,0,1,1.072.553c.45.5,1.172,1.278,1.8,1.872a3.252,3.252,0,0,1,1.017,2.184l.293,5.181h0a1.98,1.98,0,0,0,1.978-2.057l-.1-2.536a2.14,2.14,0,0,1,1.554-2.138c1.541-.442,3.685-1.344,4.116-3l.374,1.352s2.95-3.23,2.658-6.009a2.153,2.153,0,0,1,.9-1.951,17.943,17.943,0,0,0,5.74-7.487C946.7,709.941,945.206,700.811,939.779,695.525Z" transform="translate(-829.228 -662.462)" fill="#2d2504"/>
        <path id="Trazado_101425" data-name="Trazado 101425" d="M787.62,1153.18c-25.091-5.843-58.7-9.416-95.636-9.416s-70.545,3.573-95.636,9.416Z" transform="translate(-596.347 -1028.077)" fill="#2d2504"/>
        <g id="Grupo_53848" data-name="Grupo 53848" transform="translate(43.077 65.424)">
          <path id="Trazado_101426" data-name="Trazado 101426" d="M1187.861,1122.333h15.733V1113.4l-15.733,2.2Z" transform="translate(-1106.239 -1069.534)" fill="#2d2504"/>
          <path id="Trazado_101427" data-name="Trazado 101427" d="M837.511,1122.333h15.733V1113.4l-15.733,2.2Z" transform="translate(-829.747 -1069.534)" fill="#2d2504"/>
          <path id="Trazado_101428" data-name="Trazado 101428" d="M882.306,922.23h22.656a.84.84,0,0,0,.84-.84v-4.634a.84.84,0,0,0-.84-.84h-6.923v-2.554a7.99,7.99,0,0,0-8.02-8.021,7.866,7.866,0,0,0-7.713,7.865v2.71H824.18v-2.71a7.866,7.866,0,0,0-7.866-7.866h0a7.866,7.866,0,0,0-7.866,7.866v2.71h-6.923a.84.84,0,0,0-.84.84v4.634a.84.84,0,0,0,.84.84h80.782Z" transform="translate(-800.684 -905.339)" fill="#2d2504"/>
          <path id="Trazado_101429" data-name="Trazado 101429" d="M882.306,987.661v4.97H824.18V985.46l-15.733,2.2v4.97h-6.923a.84.84,0,0,0-.84.84v4.634a.84.84,0,0,0,.84.84H904.962a.84.84,0,0,0,.84-.84v-4.634a.84.84,0,0,0-.84-.84h-6.923V985.46Z" transform="translate(-800.684 -968.569)" fill="#2d2504"/>
          <path id="Trazado_101430" data-name="Trazado 101430" d="M882.306,1056.6H824.18v-7.171l-15.733,2.2v4.97h-6.923a.84.84,0,0,0-.84.84v4.634a.84.84,0,0,0,.84.84H904.962a.84.84,0,0,0,.84-.84v-4.634a.84.84,0,0,0-.84-.84h-6.923v-7.171l-15.733,2.2Z" transform="translate(-800.684 -1019.051)" fill="#2d2504"/>
        </g>
      </g>
      <g id="Grupo_53850" data-name="Grupo 53850" transform="translate(0 141.866)">
        <path id="Trazado_101431" data-name="Trazado 101431" d="M542.971,1270.228h5.294V1299.1h8.711v4.813H542.971Z" transform="translate(-542.971 -1269.747)" fill="#2d2504"/>
        <path id="Trazado_101432" data-name="Trazado 101432" d="M658.028,1270.228h5.294v33.69h-5.294Z" transform="translate(-633.772 -1269.747)" fill="#2d2504"/>
        <path id="Trazado_101433" data-name="Trazado 101433" d="M731.762,1270.228H737.1l3.465,26.134h.1l3.465-26.134h4.861l-5.1,33.69h-7.027Z" transform="translate(-691.962 -1269.747)" fill="#2d2504"/>
        <path id="Trazado_101434" data-name="Trazado 101434" d="M862.115,1270.228h14.438v4.813h-9.144v8.9h7.267v4.813h-7.267V1299.1h9.144v4.813H862.115Z" transform="translate(-794.835 -1269.747)" fill="#2d2504"/>
        <path id="Trazado_101435" data-name="Trazado 101435" d="M979.145,1300.407a9.068,9.068,0,0,1-1.973-6.281V1292.2h5.005v2.31q0,3.274,2.743,3.273a2.58,2.58,0,0,0,2.046-.794,3.864,3.864,0,0,0,.7-2.575,7.138,7.138,0,0,0-.963-3.73,17.822,17.822,0,0,0-3.561-3.875,21.292,21.292,0,0,1-4.572-5.222,10.648,10.648,0,0,1-1.3-5.27,8.785,8.785,0,0,1,2.021-6.185,7.6,7.6,0,0,1,5.872-2.19,7.3,7.3,0,0,1,5.751,2.19,9.15,9.15,0,0,1,1.949,6.281v1.4h-5.005v-1.733a3.87,3.87,0,0,0-.674-2.527,2.444,2.444,0,0,0-1.973-.794q-2.648,0-2.647,3.224a6.36,6.36,0,0,0,.987,3.417,18.842,18.842,0,0,0,3.586,3.85,19.832,19.832,0,0,1,4.572,5.246,11.648,11.648,0,0,1,1.251,5.535,9.028,9.028,0,0,1-2.045,6.353,7.692,7.692,0,0,1-5.944,2.214A7.435,7.435,0,0,1,979.145,1300.407Z" transform="translate(-885.636 -1267.945)" fill="#2d2504"/>
        <path id="Trazado_101436" data-name="Trazado 101436" d="M1101.872,1275.041h-5.535v-4.813H1112.7v4.813h-5.535v28.877h-5.294Z" transform="translate(-979.68 -1269.747)" fill="#2d2504"/>
        <path id="Trazado_101437" data-name="Trazado 101437" d="M1222.827,1300.383a8.814,8.814,0,0,1-2.07-6.257v-17.711a8.815,8.815,0,0,1,2.07-6.257,9.15,9.15,0,0,1,11.936,0,8.817,8.817,0,0,1,2.07,6.257v17.711a8.816,8.816,0,0,1-2.07,6.257,9.151,9.151,0,0,1-11.936,0Zm8.711-5.92v-18.385q0-3.321-2.743-3.321t-2.743,3.321v18.385q0,3.321,2.743,3.321T1231.538,1294.463Z" transform="translate(-1077.87 -1267.945)" fill="#2d2504"/>
        <path id="Trazado_101438" data-name="Trazado 101438" d="M1350.824,1300.432a8.684,8.684,0,0,1-2-6.113v-18.1a8.684,8.684,0,0,1,2-6.112,8.847,8.847,0,0,1,11.6,0,8.686,8.686,0,0,1,2,6.112v3.561h-5.006v-3.9q0-3.128-2.647-3.128t-2.647,3.128V1294.7q0,3.081,2.647,3.08t2.647-3.08v-5.15h5.006v4.765a8.686,8.686,0,0,1-2,6.113,8.848,8.848,0,0,1-11.6,0Z" transform="translate(-1178.941 -1267.945)" fill="#2d2504"/>
        <path id="Trazado_101439" data-name="Trazado 101439" d="M1474.386,1270.228h5.294v14.2l6.738-14.2h5.294l-6.305,12.369,6.4,21.321h-5.535L1481.8,1288.9l-2.118,4.283v10.733h-5.294Z" transform="translate(-1278.031 -1269.747)" fill="#2d2504"/>
      </g>
      <g id="Grupo_53851" data-name="Grupo 53851" transform="translate(22.639 184.598)">
        <path id="Trazado_101440" data-name="Trazado 101440" d="M655.94,1471.572h2.095v.1h-.088a.859.859,0,0,0-.45.137,1.041,1.041,0,0,0-.372.411l-2.32,5.119a5.29,5.29,0,0,0-.479,1.282h-.088l-2.966-6.391a1.081,1.081,0,0,0-.372-.416.853.853,0,0,0-.46-.142h-.078v-.1h3.112v.1H653.4a.377.377,0,0,0-.318.132.413.413,0,0,0-.1.25.737.737,0,0,0,.039.235l1.664,4.042,1.723-4.042a.667.667,0,0,0,.049-.24.41.41,0,0,0-.1-.245.378.378,0,0,0-.318-.132h-.088Z" transform="translate(-650.361 -1471.376)"/>
        <path id="Trazado_101441" data-name="Trazado 101441" d="M710.657,1478.325a.593.593,0,0,0,.435-.181.631.631,0,0,0,.191-.436v-5.432a.613.613,0,0,0-.191-.431.6.6,0,0,0-.435-.176h-.127v-.1h2.975l-.01.1h-.117a.618.618,0,0,0-.44.176.57.57,0,0,0-.186.431v5.432a.586.586,0,0,0,.186.436.609.609,0,0,0,.44.181h.117l.01.1H710.53v-.1Z" transform="translate(-697.846 -1471.376)"/>
        <path id="Trazado_101442" data-name="Trazado 101442" d="M758.809,1471.121a.569.569,0,0,0-.519.293.622.622,0,0,0-.088.294v5.05a5.886,5.886,0,0,0,.088,1.106l.029.147h-.088l-4.943-4.708v3.886a.559.559,0,0,0,.176.416.583.583,0,0,0,.421.171h.186v.1h-2.966v-.1h.176a.594.594,0,0,0,.431-.171.57.57,0,0,0,.176-.426v-5.08a5.494,5.494,0,0,0-.088-1.077l-.02-.147h.088l4.943,4.708v-3.866a.6.6,0,0,0-.186-.426.583.583,0,0,0-.421-.171h-.176v-.1h2.966v.1Z" transform="translate(-729.868 -1470.827)"/>
        <path id="Trazado_101443" data-name="Trazado 101443" d="M817.6,1471.278v5.745a.613.613,0,0,0,.191.431.6.6,0,0,0,.436.176h.117l.01.1H815.38v-.1h.127a.591.591,0,0,0,.426-.176.643.643,0,0,0,.2-.421v-5.755h-1.321a.94.94,0,0,0-.979,1v.118h-.1v-1.7a3.239,3.239,0,0,0,1.155.176h3.944a4.091,4.091,0,0,0,.661-.059,2.455,2.455,0,0,0,.494-.117v1.7h-.1v-.118a.9.9,0,0,0-.46-.861,1.073,1.073,0,0,0-.519-.137Z" transform="translate(-779.294 -1470.681)"/>
        <path id="Trazado_101444" data-name="Trazado 101444" d="M873.452,1477.593h.088v.1h-3.122v-.1h.088a.377.377,0,0,0,.318-.132.414.414,0,0,0,.1-.25.614.614,0,0,0-.049-.235l-.48-1.2h-2.29l-.509,1.2a.668.668,0,0,0-.049.24.4.4,0,0,0,.108.245.391.391,0,0,0,.323.132h.078v.1h-2.094v-.1h.088a.861.861,0,0,0,.45-.137,1.045,1.045,0,0,0,.372-.411l2.261-5.119a5.164,5.164,0,0,0,.489-1.282h.088l2.907,6.382a1.066,1.066,0,0,0,.372.426A.854.854,0,0,0,873.452,1477.593Zm-5.177-2.232h1.957l-.949-2.408Z" transform="translate(-820.513 -1470.644)"/>
        <path id="Trazado_101445" data-name="Trazado 101445" d="M929.461,1478.048a3.736,3.736,0,0,1-2.687-.964,3.845,3.845,0,0,1,0-5.2,3.83,3.83,0,0,1,2.745-.959,7.455,7.455,0,0,1,1.517.152,4.93,4.93,0,0,1,1.184.376l.02,1.684h-.088a2.323,2.323,0,0,0-.871-1.375,2.52,2.52,0,0,0-1.468-.426,2.14,2.14,0,0,0-1.82.847,3.781,3.781,0,0,0-.636,2.32,3.969,3.969,0,0,0,.582,2.3,1.9,1.9,0,0,0,1.649.832,1.927,1.927,0,0,0,1.292-.441,1.349,1.349,0,0,0,.372-.528v-1.5a.406.406,0,0,0-.132-.328.565.565,0,0,0-.377-.113h-.157v-.1h2.75v.1h-.147a.529.529,0,0,0-.362.113.414.414,0,0,0-.127.328v1.615a3.116,3.116,0,0,1-1.263.881A4.925,4.925,0,0,1,929.461,1478.048Z" transform="translate(-867.703 -1470.864)"/>
        <path id="Trazado_101446" data-name="Trazado 101446" d="M987.776,1477.667a.593.593,0,0,0,.436-.181.63.63,0,0,0,.191-.436V1471.6a.545.545,0,0,0-.147-.372.711.711,0,0,0-.48-.215h-.127v-.1H991.4a3.559,3.559,0,0,0,.793-.073,3.42,3.42,0,0,0,.382-.1v1.713l-.1-.01v-.107a.909.909,0,0,0-.45-.861,1.059,1.059,0,0,0-.509-.137h-1.644v2.848h1.292a.835.835,0,0,0,.6-.25.813.813,0,0,0,.235-.592v-.088h.1v2.261h-.1v-.078a.811.811,0,0,0-.812-.842h-1.312v2.75h1.282a1.789,1.789,0,0,0,1.2-.411,2.429,2.429,0,0,0,.719-1.165h.1l-.45,2h-5.07v-.1Z" transform="translate(-916.544 -1470.718)"/>
        <path id="Trazado_101447" data-name="Trazado 101447" d="M1069.207,1473.53a2.094,2.094,0,0,1-.176.851,1.871,1.871,0,0,1-1.233,1.057,1.561,1.561,0,0,1-.489.088,2.2,2.2,0,0,1-1.243-.362v-.1a1.462,1.462,0,0,0,1.184-.48,1.869,1.869,0,0,0,.054-2.217,1.152,1.152,0,0,0-.915-.387h-.656v5.725a.585.585,0,0,0,.186.436.609.609,0,0,0,.44.181h.127v.1h-2.975v-.1h.127a.593.593,0,0,0,.435-.181.63.63,0,0,0,.191-.436v-5.471a.516.516,0,0,0-.186-.406.651.651,0,0,0-.441-.161h-.127v-.1h3.269a2.746,2.746,0,0,1,1.8.509A1.814,1.814,0,0,1,1069.207,1473.53Z" transform="translate(-976.413 -1471.376)"/>
        <path id="Trazado_101448" data-name="Trazado 101448" d="M1119.8,1472h-.45v5.706a.63.63,0,0,0,.191.436.593.593,0,0,0,.436.181h.127v.1h-2.975v-.1h.127a.594.594,0,0,0,.538-.3.686.686,0,0,0,.088-.3v-5.432a.63.63,0,0,0-.191-.435.594.594,0,0,0-.436-.181h-.127v-.1h3.357a2.962,2.962,0,0,1,1.6.411,1.472,1.472,0,0,1,.529.572,2.039,2.039,0,0,1,.2.959,1.875,1.875,0,0,1-.411,1.14,1.615,1.615,0,0,1-1.194.626,1.938,1.938,0,0,1,1,.861,7.438,7.438,0,0,0,1.566,2.016,1.258,1.258,0,0,0,.636.166v.1h-.959a3.832,3.832,0,0,1-1.414-.225,1.75,1.75,0,0,1-.886-.793q-.186-.323-.812-1.674-.274-.6-.666-.656v-.1h.3a1.227,1.227,0,0,0,.778-.264,1.387,1.387,0,0,0,.455-.862,1.834,1.834,0,0,0,.039-.323,1.7,1.7,0,0,0-.323-1.16,1.1,1.1,0,0,0-.832-.367Z" transform="translate(-1018.73 -1471.376)"/>
        <path id="Trazado_101449" data-name="Trazado 101449" d="M1176.255,1471.882a4.592,4.592,0,0,1,5.618,0,3.772,3.772,0,0,1,0,5.207,4.592,4.592,0,0,1-5.618,0,3.772,3.772,0,0,1,0-5.207Zm1.165,4.908a2.015,2.015,0,0,0,3.283,0,4.68,4.68,0,0,0,0-4.61,2.015,2.015,0,0,0-3.283,0,4.713,4.713,0,0,0,0,4.61Z" transform="translate(-1064.567 -1470.864)"/>
        <path id="Trazado_101450" data-name="Trazado 101450" d="M1245.156,1472.492a3.618,3.618,0,0,1,0,5.011,3.912,3.912,0,0,1-2.741.92h-3.553v-.1h.127a.592.592,0,0,0,.435-.181.631.631,0,0,0,.191-.436v-5.481a.5.5,0,0,0-.191-.4.654.654,0,0,0-.435-.161h-.127v-.1h3.553A3.913,3.913,0,0,1,1245.156,1472.492Zm-2.868,5.51a2.061,2.061,0,0,0,1.219-.362,2.274,2.274,0,0,0,.788-1.042,3.939,3.939,0,0,0,.274-1.483,5,5,0,0,0-.161-1.365,2.914,2.914,0,0,0-.455-.954,1.963,1.963,0,0,0-1.664-.812h-1.2V1478Z" transform="translate(-1114.799 -1471.376)"/>
        <path id="Trazado_101451" data-name="Trazado 101451" d="M1307.692,1471.67h-.166a.508.508,0,0,0-.353.132.456.456,0,0,0-.157.328v3.817a2.487,2.487,0,0,1-.754,1.908,2.9,2.9,0,0,1-2.065.7,3.591,3.591,0,0,1-2.369-.69,2.362,2.362,0,0,1-.822-1.913v-3.8a.476.476,0,0,0-.264-.431.561.561,0,0,0-.254-.059h-.157v-.1h2.818v.1h-.156a.523.523,0,0,0-.363.132.465.465,0,0,0-.156.338v3.739a2.478,2.478,0,0,0,.509,1.645,1.73,1.73,0,0,0,1.4.607,1.807,1.807,0,0,0,1.41-.573,2.26,2.26,0,0,0,.528-1.551v-3.866a.471.471,0,0,0-.264-.411.562.562,0,0,0-.254-.059h-.157v-.1h2.046Z" transform="translate(-1163.309 -1471.376)"/>
        <path id="Trazado_101452" data-name="Trazado 101452" d="M1366.029,1478.043a4.348,4.348,0,0,1-2.966-.955,3.7,3.7,0,0,1-.01-5.212,4.231,4.231,0,0,1,2.926-.954,5.233,5.233,0,0,1,2.437.528l.02,1.684h-.078a2.188,2.188,0,0,0-2.28-1.8,2.214,2.214,0,0,0-1.825.837,3.557,3.557,0,0,0-.671,2.285,3.737,3.737,0,0,0,.641,2.3,2.137,2.137,0,0,0,1.737.881,2.42,2.42,0,0,0,1.732-.568,3.587,3.587,0,0,0,.842-2.016h.078l.1,1.684A2.872,2.872,0,0,1,1366.029,1478.043Z" transform="translate(-1211.966 -1470.864)"/>
        <path id="Trazado_101453" data-name="Trazado 101453" d="M1423.838,1471.278v5.745a.612.612,0,0,0,.191.431.6.6,0,0,0,.436.176h.117l.01.1h-2.975v-.1h.127a.592.592,0,0,0,.426-.176.644.644,0,0,0,.2-.421v-5.755h-1.321a.941.941,0,0,0-.979,1v.118h-.1v-1.7a3.242,3.242,0,0,0,1.155.176h3.944a4.091,4.091,0,0,0,.661-.059,2.454,2.454,0,0,0,.494-.117v1.7h-.1v-.118a.9.9,0,0,0-.46-.861,1.071,1.071,0,0,0-.519-.137Z" transform="translate(-1257.728 -1470.681)"/>
      </g>
    </g>
  </g>
</svg>
