<svg xmlns="http://www.w3.org/2000/svg" width="84" height="69.069" viewBox="0 0 84 69.069">
  <g id="calidad" transform="translate(0 -43.684)">
    <path id="Trazado_103490" data-name="Trazado 103490" d="M41.973,186.641l-.35-.9-4.093-28.161L25.053,133.824H4.2L.1,138.267l.014.012h-.1A2.466,2.466,0,0,0,.6,139.754L40.8,186.92a1.878,1.878,0,0,0,1.174.567l.092-.639Z" transform="translate(-0.015 -74.735)" fill="#01d0fb"/>
    <g id="XMLID_422_" transform="translate(0 43.684)">
      <g id="Grupo_54342" data-name="Grupo 54342" transform="translate(0)">
        <g id="XMLID_423_">
          <g id="Grupo_54341" data-name="Grupo 54341">
            <path id="Trazado_103491" data-name="Trazado 103491" d="M286.721,136.609l-3.589-4.785H256.3l-11.792,49.9.171,4.1a2.725,2.725,0,0,0,1.174-.567L286.078,138.1a2.464,2.464,0,0,0,.584-1.448Z" transform="translate(-202.721 -116.761)" fill="#dff6fd"/>
            <path id="Trazado_103492" data-name="Trazado 103492" d="M135.488,159.894h37.776L154.291,209.1Z" transform="translate(-112.333 -140.033)" fill="#99e6fc"/>
            <path id="Trazado_103493" data-name="Trazado 103493" d="M379.338,63.344a2.451,2.451,0,0,1,.2,1.113H356.528l13.843-19.011.533-.661a1.544,1.544,0,0,1,.677.74Z" transform="translate(-295.596 -44.596)" fill="#f2fbff"/>
            <path id="Trazado_103494" data-name="Trazado 103494" d="M306.674,43.872l-.533.661L292.3,63.545l-13.24-19.69v-.171h26.878a1.539,1.539,0,0,1,.738.188Z" transform="translate(-231.366 -43.684)" fill="#dff6fd"/>
            <path id="Trazado_103495" data-name="Trazado 103495" d="M160.024,43.684v.171l13.24,19.69H135.488l13.24-19.69v-.171Z" transform="translate(-112.333 -43.684)" fill="#c8effe"/>
            <path id="Trazado_103496" data-name="Trazado 103496" d="M79.026,43.855l-13.24,19.69L51.943,44.533l-.525-.731a1.519,1.519,0,0,1,.59-.118H79.026Z" transform="translate(-42.63 -43.684)" fill="#99e6fc"/>
            <path id="Trazado_103497" data-name="Trazado 103497" d="M9.312,45.105,23.155,64.117H0A2.474,2.474,0,0,1,.2,63l7.757-17.82a1.549,1.549,0,0,1,.825-.81Z" transform="translate(0 -44.256)" fill="#62dbfb"/>
          </g>
        </g>
      </g>
    </g>
    <g id="Grupo_54343" data-name="Grupo 54343" transform="translate(5.139 88.029)">
      <path id="Trazado_103498" data-name="Trazado 103498" d="M63,388.972V396.1a.881.881,0,0,1-.927.879q-5.8-.3-7.409-4.606a.879.879,0,0,1,.455-1.1l6.631-3.095A.879.879,0,0,1,63,388.972Z" transform="translate(-50.419 -373.577)" fill="#fedf30"/>
      <path id="Trazado_103499" data-name="Trazado 103499" d="M38.465,310.045l-6.7,2.428a.882.882,0,0,1-1.142-.573q-1.694-5.555,1.806-8.535a.878.878,0,0,1,1.189.052l5.169,5.18A.879.879,0,0,1,38.465,310.045Z" transform="translate(-30.072 -303.159)" fill="#fedf30"/>
      <path id="Trazado_103500" data-name="Trazado 103500" d="M386.3,388.972V396.1a.881.881,0,0,0,.927.879q5.8-.3,7.409-4.606a.879.879,0,0,0-.455-1.1l-6.631-3.095A.879.879,0,0,0,386.3,388.972Z" transform="translate(-325.424 -373.577)" fill="#fedf30"/>
      <path id="Trazado_103501" data-name="Trazado 103501" d="M408.02,310.045l6.7,2.428a.882.882,0,0,0,1.142-.573q1.694-5.555-1.806-8.535a.878.878,0,0,0-1.189.052L407.7,308.6A.879.879,0,0,0,408.02,310.045Z" transform="translate(-342.947 -303.159)" fill="#fedf30"/>
    </g>
  </g>
</svg>
