<?xml version="1.0" encoding="UTF-8" standalone="no"?><!DOCTYPE svg PUBLIC "-//W3C//DTD SVG 1.1//EN" "http://www.w3.org/Graphics/SVG/1.1/DTD/svg11.dtd"><svg width="100%" height="100%" viewBox="0 0 328 299" version="1.1" xmlns="http://www.w3.org/2000/svg" xmlns:xlink="http://www.w3.org/1999/xlink" xml:space="preserve" xmlns:serif="http://www.serif.com/" style="fill-rule:evenodd;clip-rule:evenodd;stroke-linejoin:round;stroke-miterlimit:2;"><rect id="Mesa-de-trabajo1" serif:id="Mesa de trabajo1" x="0" y="0" width="328" height="299" style="fill:none;"/><clipPath id="_clip1"><rect x="0" y="0" width="328" height="299"/></clipPath><g clip-path="url(#_clip1)"><g id="Grupo_54391"><g id="Grupo_54385"><circle id="Elipse_4098" cx="115.413" cy="72.113" r="72.113" style="fill:#f8f0fb;"/><g id="Grupo_54369"><path id="Trazado_103572" d="M263.678,177.401c-11.532,-0.001 -21.022,-9.49 -21.022,-21.022c0,-11.533 9.49,-21.022 21.022,-21.022c11.531,-0 21.02,9.487 21.022,21.018c-0.011,11.529 -9.493,21.013 -21.022,21.026Zm-0,-41.739c-11.365,0 -20.716,9.352 -20.716,20.716c0,11.365 9.352,20.716 20.716,20.716c11.365,0 20.716,-9.351 20.716,-20.716c0,-0.001 0,-0.002 0,-0.003c-0.015,-11.359 -9.358,-20.7 -20.716,-20.713Z" style="fill:#26c6da;fill-rule:nonzero;"/></g><path id="Elipse_4099" d="M142.326,197.091c15.288,-15.288 40.111,-15.288 55.399,-0c15.287,15.287 15.287,40.111 -0,55.398c-15.288,15.288 -40.111,15.288 -55.399,0c-15.287,-15.287 -15.287,-40.111 0,-55.398Z" style="fill:#f8f0fb;"/><path id="Trazado_103573" d="M129.215,206c0,0.588 -0.484,1.072 -1.072,1.072c-0.588,-0 -1.071,-0.484 -1.071,-1.072c-0,-0.588 0.483,-1.072 1.071,-1.072c0.588,0 1.072,0.484 1.072,1.072Z" style="fill:#f57c00;fill-rule:nonzero;"/><g id="Grupo_54370"><path id="Trazado_103574" d="M112.492,258.585c-2.65,-0.002 -4.83,-2.183 -4.83,-4.833c0,-2.652 2.182,-4.833 4.834,-4.833c2.651,-0 4.833,2.181 4.833,4.833c-0.005,2.651 -2.186,4.83 -4.837,4.833Zm0,-9.366c-2.482,0.002 -4.524,2.045 -4.524,4.527c0,2.484 2.044,4.528 4.528,4.528c2.483,-0 4.527,-2.044 4.527,-4.528c-0.004,-2.483 -2.047,-4.525 -4.531,-4.527Z" style="fill:#26c6da;fill-rule:nonzero;"/></g><g id="Grupo_54373"><circle id="Elipse_4100" cx="245.006" cy="97.596" r="3.449" style="fill:#26c6da;"/><circle id="Elipse_4101" cx="221.243" cy="128.677" r="2.01" style="fill:#26c6da;"/><g id="Grupo_54372"><path id="Trazado_103575" d="M229.012,104.02c-1.879,1.119 -3.389,2.764 -4.343,4.732c-1.176,2.35 -1.08,6.196 -1.08,6.196c-0,0 -0,13.075 6.974,22.905l1.549,-2.518l16.204,-0.596l1.864,-2.296l-21.168,-28.423Z" style="fill:url(#_Linear2);fill-rule:nonzero;"/><path id="Trazado_103576" d="M230.569,137.853c0,-0 -5.01,-15.149 -4.641,-30.297c-0,0 2.924,-5.329 9.115,-6.268c5.622,-0.857 11.36,1.233 13.816,5.65c0,-0 1.872,2.834 2.181,11.078c0.353,9.421 -0.852,14.427 -0.852,14.427c-0,-0 -9.465,3.977 -16.573,0.463l-3.046,4.947Z" style="fill:url(#_Linear3);fill-rule:nonzero;"/><g id="Grupo_54371"><path id="Trazado_103577" d="M231.93,116.014c0.006,0.636 0.016,1.266 0.03,1.89c0.015,0.624 0.035,1.25 0.062,1.878c0.08,0 0.161,0 0.244,-0.004l0.245,-0.015c0.103,-0.006 0.207,-0.014 0.315,-0.023c0.107,-0.009 0.214,-0.021 0.323,-0.034c0,-0.141 -0.007,-0.28 -0.015,-0.416c-0.008,-0.136 -0.017,-0.276 -0.025,-0.42c-0.029,-0.487 -0.061,-0.972 -0.101,-1.455c-0.04,-0.482 -0.083,-0.969 -0.135,-1.457l1.182,-0.07c-0.011,0.775 -0.01,1.543 0.005,2.306c0.014,0.762 0.044,1.529 0.09,2.301c0.023,0.378 0.05,0.754 0.082,1.128c0.032,0.375 0.067,0.752 0.105,1.132l-1.095,0.065c-0.007,-0.382 -0.015,-0.763 -0.024,-1.141c-0.01,-0.378 -0.019,-0.757 -0.029,-1.137c-0.183,0 -0.365,0.002 -0.546,0.006c-0.181,0.004 -0.362,0.011 -0.542,0.02l-0.038,-0l0.061,0.99c0.013,0.224 0.026,0.445 0.039,0.663c0.013,0.218 0.029,0.437 0.049,0.658l-1.101,0.065c-0.012,-0.463 -0.028,-0.919 -0.05,-1.368c-0.022,-0.451 -0.047,-0.904 -0.073,-1.358c-0.082,-1.377 -0.193,-2.754 -0.332,-4.131l1.274,-0.073Z" style="fill:#fff;fill-rule:nonzero;"/><path id="Trazado_103578" d="M236.827,120.066c-0.099,0 -0.2,0.002 -0.303,0.004c-0.102,0.003 -0.205,0.007 -0.305,0.013c-0.062,0 -0.119,0.009 -0.184,0.016c-0.065,0.006 -0.122,0.011 -0.184,0.015l0.083,1.716c0.262,-0.021 0.517,-0.049 0.764,-0.084c0.246,-0.034 0.508,-0.08 0.785,-0.138l0.061,1.004c-0.18,0.004 -0.354,0.01 -0.522,0.017c-0.168,0.007 -0.335,0.015 -0.502,0.025c-0.249,0.015 -0.496,0.034 -0.739,0.055c-0.243,0.022 -0.494,0.05 -0.752,0.081c-0.007,-0.597 -0.018,-1.188 -0.035,-1.774c-0.017,-0.586 -0.044,-1.177 -0.079,-1.774c-0.034,-0.569 -0.075,-1.136 -0.123,-1.697c-0.047,-0.561 -0.106,-1.126 -0.175,-1.693c0.38,0.006 0.741,-0 1.084,-0.021c0.218,-0.013 0.434,-0.032 0.65,-0.056c0.215,-0.024 0.445,-0.053 0.691,-0.087l0.065,1.105c-0.2,-0.024 -0.398,-0.038 -0.592,-0.047c-0.195,-0.008 -0.389,-0.005 -0.581,0.006l-0.188,0.011c-0.008,0.403 -0.006,0.803 0.007,1.2c0.013,0.397 0.027,0.797 0.044,1.198c0.084,-0 0.168,-0 0.253,-0.006l0.262,-0.015l0.225,-0.013c0.077,-0.005 0.156,-0.013 0.235,-0.024l0.055,0.963Z" style="fill:#fff;fill-rule:nonzero;"/><path id="Trazado_103579" d="M240.492,122.437c-0.18,0.004 -0.354,0.009 -0.523,0.017c-0.168,0.008 -0.335,0.015 -0.501,0.025c-0.25,0.015 -0.497,0.034 -0.739,0.055c-0.243,0.022 -0.494,0.05 -0.753,0.081c-0.006,-0.597 -0.018,-1.188 -0.035,-1.774c-0.017,-0.586 -0.043,-1.177 -0.079,-1.774c-0.034,-0.569 -0.074,-1.136 -0.122,-1.697c-0.048,-0.561 -0.106,-1.126 -0.176,-1.693l0.242,-0l0.173,-0.011c0.102,-0.005 0.213,-0.014 0.333,-0.026c0.12,-0.012 0.241,-0.026 0.361,-0.043c-0.014,0.463 -0.014,0.95 0,1.46c0.014,0.51 0.034,1.025 0.061,1.547c0.026,0.52 0.054,1.039 0.083,1.556c0.029,0.517 0.053,1.016 0.072,1.498c0.262,-0.022 0.517,-0.051 0.764,-0.084c0.247,-0.034 0.509,-0.08 0.785,-0.138l0.054,1.001Z" style="fill:#fff;fill-rule:nonzero;"/><path id="Trazado_103580" d="M243.394,122.264c-0.18,0.005 -0.354,0.01 -0.523,0.018c-0.169,0.007 -0.336,0.015 -0.502,0.025c-0.25,0.014 -0.496,0.033 -0.739,0.055c-0.245,0.022 -0.494,0.05 -0.752,0.081c-0.006,-0.597 -0.018,-1.188 -0.035,-1.775c-0.017,-0.586 -0.044,-1.178 -0.079,-1.774c-0.034,-0.571 -0.075,-1.136 -0.123,-1.696c-0.048,-0.56 -0.106,-1.125 -0.175,-1.694l0.24,0l0.173,-0.01c0.103,-0.006 0.214,-0.016 0.334,-0.027c0.12,-0.012 0.24,-0.026 0.361,-0.044c-0.014,0.464 -0.014,0.951 0,1.461c0.014,0.511 0.035,1.026 0.061,1.547c0.026,0.52 0.054,1.039 0.083,1.556c0.029,0.517 0.053,1.016 0.072,1.498c0.263,-0.022 0.518,-0.05 0.764,-0.084c0.247,-0.035 0.508,-0.081 0.785,-0.139l0.055,1.002Z" style="fill:#fff;fill-rule:nonzero;"/><path id="Trazado_103581" d="M246.829,118.677c0.041,0.549 0.029,1.1 -0.034,1.646c-0.043,0.384 -0.142,0.759 -0.293,1.114c-0.106,0.254 -0.278,0.476 -0.497,0.642c-0.19,0.136 -0.414,0.215 -0.647,0.228c-0.232,0.015 -0.463,-0.034 -0.669,-0.14c-0.238,-0.133 -0.436,-0.327 -0.573,-0.562c-0.197,-0.332 -0.342,-0.693 -0.429,-1.069c-0.128,-0.544 -0.206,-1.1 -0.231,-1.659c-0.041,-0.565 -0.03,-1.133 0.032,-1.697c0.042,-0.395 0.142,-0.782 0.296,-1.149c0.107,-0.26 0.279,-0.488 0.501,-0.661c0.188,-0.139 0.413,-0.221 0.647,-0.234c0.233,-0.014 0.465,0.038 0.669,0.15c0.24,0.142 0.437,0.346 0.57,0.591c0.194,0.346 0.337,0.718 0.425,1.105c0.13,0.556 0.208,1.124 0.233,1.695Zm-1.071,0.061c-0.03,-0.502 -0.071,-0.925 -0.122,-1.27c-0.039,-0.283 -0.101,-0.562 -0.184,-0.835c-0.044,-0.165 -0.12,-0.32 -0.222,-0.457c-0.056,-0.08 -0.147,-0.129 -0.244,-0.13c-0.1,0.013 -0.187,0.073 -0.235,0.161c-0.086,0.149 -0.143,0.312 -0.168,0.482c-0.05,0.282 -0.077,0.567 -0.082,0.854c-0.011,0.349 -0.002,0.772 0.027,1.268c0.029,0.493 0.069,0.907 0.122,1.239c0.038,0.271 0.098,0.538 0.18,0.799c0.044,0.155 0.12,0.299 0.223,0.423c0.062,0.074 0.154,0.117 0.251,0.116c0.095,-0.012 0.179,-0.068 0.227,-0.151c0.085,-0.141 0.142,-0.296 0.167,-0.459c0.051,-0.269 0.079,-0.543 0.085,-0.817c0.012,-0.334 0.004,-0.74 -0.025,-1.22l0,-0.003Z" style="fill:#fff;fill-rule:nonzero;"/></g><path id="Trazado_103582" d="M225.928,107.554c-0,-0 -0,15.148 4.641,30.297c0,0.002 -6.617,-16.307 -4.641,-30.297Z" style="fill:#62eafb;fill-rule:nonzero;"/><path id="Trazado_103583" d="M225.928,107.274c-0,-0 10.743,-11.643 21.902,0.282c4.598,4.913 2.355,24.887 2.355,24.887c-0,-0 2.936,-16.205 -1.329,-25.505c-1.447,-2.527 -3.844,-4.375 -6.656,-5.133c-5.69,-1.602 -11.453,-0.781 -16.272,5.469Z" style="fill:#74f0ff;fill-rule:nonzero;"/></g></g><path id="Trazado_103584" d="M204.661,93.439l3.718,4.08l1.46,-1.685l-3.51,-3.864l-1.668,1.469Z" style="fill:#f57c00;fill-rule:nonzero;"/><path id="Trazado_103585" d="M243.006,205.727l7.18,4.209l-1.54,2.496l-6.759,-4.518l1.119,-2.187Z" style="fill:#26c6da;fill-rule:nonzero;"/><path id="Trazado_103586" d="M117.669,89.957l7.083,-4.371l1.484,2.529l-7.158,3.855l-1.409,-2.013Z" style="fill:#26c6da;fill-rule:nonzero;"/><path id="Trazado_103587" d="M113.258,270.705l7.094,-5.53l1.728,2.389l-6.503,5.145l-2.319,-2.004Z" style="fill:#a74aff;fill-rule:nonzero;"/><g id="Grupo_54377"><g id="Grupo_54374"><path id="Trazado_103588" d="M276.381,99.586l-0.101,-0.018l-18.721,-3.246l0.021,-0.147c0.923,-6.413 3.194,-12.559 6.664,-18.032l0.042,-0.061l0.073,-0.005c12.661,-0.779 20.006,3.689 20.081,3.732l0.088,0.056l-0.019,0.102c-1.279,6.742 -8.006,17.421 -8.075,17.529l-0.053,0.09Zm-18.476,-3.515l18.327,3.178c0.64,-1.025 6.703,-10.863 7.957,-17.23c-0.87,-0.501 -7.982,-4.343 -19.735,-3.64c-3.388,5.378 -5.619,11.404 -6.55,17.692l0.001,0Z" style="fill:#26c6da;fill-rule:nonzero;"/></g><g id="Grupo_54375"><path id="Trazado_103589" d="M265.306,86.535c-0.243,0.001 -0.485,-0.044 -0.713,-0.13c-0.591,-0.233 -1.048,-0.718 -1.246,-1.322c-0.438,-1.338 0.123,-2.812 1.338,-3.521c0.324,-0.194 0.694,-0.297 1.071,-0.297c0.908,0 1.716,0.593 1.988,1.459c0.221,0.65 0.204,1.358 -0.048,1.997c-0.349,1.035 -1.299,1.756 -2.39,1.814Zm0.471,-4.955c-0.331,0.003 -0.656,0.09 -0.944,0.253c-1.085,0.637 -1.585,1.953 -1.198,3.15c0.168,0.519 0.56,0.937 1.067,1.139c1.026,0.392 2.243,-0.285 2.707,-1.507c0.226,-0.571 0.242,-1.203 0.045,-1.785c-0.169,-0.519 -0.56,-0.937 -1.067,-1.139c-0.195,-0.075 -0.401,-0.114 -0.61,-0.114l0,0.003Z" style="fill:#26c6da;fill-rule:nonzero;"/></g><g id="Grupo_54376"><path id="Trazado_103590" d="M277.512,93.663c-0.143,0.004 -0.286,-0.016 -0.422,-0.061c-0.312,-0.116 -0.317,-0.696 -0.325,-1.747c-0.018,-2.039 -0.046,-5.453 -2.793,-5.922c-2.491,-0.426 -6.449,2.515 -9.34,4.663c-2.068,1.537 -3.277,2.403 -3.862,2.316c-1.591,-0.227 -2.009,-2.176 -2.026,-2.258l0.299,-0.061c0.005,0.017 0.393,1.82 1.77,2.018c0.504,0.07 2.023,-1.059 3.637,-2.258c2.936,-2.181 6.958,-5.169 9.573,-4.72c2.998,0.514 3.03,4.087 3.048,6.222c-0.043,0.493 0.001,0.99 0.129,1.468c0.544,0.202 2.187,-0.35 2.775,-0.579l0.11,0.285c-0.823,0.333 -1.689,0.547 -2.573,0.634Z" style="fill:#26c6da;fill-rule:nonzero;"/></g></g><g id="Grupo_54384"><g id="Grupo_54378"><path id="Trazado_103591" d="M71.648,241.365l-0.044,-0.099c-0.057,-0.131 -5.726,-13.218 -6.584,-27.299l-0.007,-0.116l0.113,-0.026c0.168,-0.038 16.931,-3.865 29.615,-5.594l0.122,-0.016l0.03,0.117c0.048,0.184 4.751,18.591 4.751,27.592l-0,0.113l-0.111,0.021l-27.885,5.307Zm-6.349,-27.298c0.839,13.337 5.987,25.757 6.512,26.991l27.559,-5.243c-0.038,-8.63 -4.311,-25.707 -4.711,-27.296c-12.11,1.658 -27.873,5.208 -29.36,5.548Z" style="fill:#26c6da;fill-rule:nonzero;"/></g><g id="Grupo_54382"><g id="Grupo_54379"><path id="Trazado_103592" d="M76.397,230.849l-0.355,-1.879l0.153,-0.011c0.112,-0.008 0.224,-0.019 0.336,-0.034c0.068,-0.009 0.135,-0.017 0.203,-0.025c-0.113,-0.718 -0.227,-1.432 -0.342,-2.141c-0.122,-0.753 -0.258,-1.514 -0.406,-2.264c-0.101,-0.502 -0.207,-0.997 -0.319,-1.486l-0.31,-1.346c-0.083,0.017 -0.167,0.037 -0.252,0.056c-0.13,0.032 -0.262,0.065 -0.396,0.102l-0.143,0.038l-0.343,-1.824l0.143,-0.019c0.381,-0.05 0.759,-0.106 1.138,-0.169c0.379,-0.062 0.757,-0.132 1.137,-0.206l0.412,-0.082c0.133,-0.027 0.269,-0.059 0.406,-0.096l0.145,-0.038l0.293,1.747l-0.129,0.026c-0.116,0.023 -0.229,0.044 -0.343,0.061c-0.067,0.011 -0.136,0.022 -0.205,0.035c0.102,0.847 0.223,1.695 0.358,2.522c0.143,0.871 0.302,1.755 0.477,2.631c0.14,0.713 0.298,1.438 0.468,2.157c0.114,-0.023 0.229,-0.048 0.347,-0.076c0.162,-0.037 0.324,-0.076 0.487,-0.122l0.148,-0.039l0.258,1.762l-0.135,0.02c-0.196,0.029 -0.393,0.061 -0.588,0.093c-0.195,0.033 -0.391,0.07 -0.585,0.109c-0.322,0.064 -0.642,0.134 -0.961,0.211c-0.319,0.076 -0.637,0.158 -0.954,0.244l-0.143,0.043Zm-0.03,-1.63l0.244,1.285c0.273,-0.075 0.547,-0.145 0.821,-0.21c0.322,-0.077 0.646,-0.148 0.971,-0.212c0.196,-0.04 0.394,-0.076 0.593,-0.11c0.153,-0.026 0.306,-0.051 0.46,-0.075l-0.175,-1.191c-0.117,0.029 -0.233,0.057 -0.348,0.083c-0.164,0.038 -0.325,0.073 -0.484,0.104l-0.128,0.025l-0.031,-0.127c-0.183,-0.765 -0.352,-1.537 -0.501,-2.296c-0.175,-0.877 -0.336,-1.764 -0.478,-2.638c-0.142,-0.874 -0.269,-1.767 -0.375,-2.66l-0.016,-0.122l0.123,-0.025c0.114,-0.023 0.228,-0.043 0.341,-0.062c0.067,-0.009 0.134,-0.021 0.201,-0.033l-0.2,-1.191c-0.093,0.023 -0.187,0.044 -0.279,0.061l-0.411,0.082c-0.383,0.076 -0.765,0.145 -1.146,0.208c-0.334,0.055 -0.669,0.105 -1.004,0.151l0.236,1.252c0.089,-0.024 0.176,-0.046 0.262,-0.066c0.133,-0.031 0.263,-0.061 0.392,-0.085l0.13,-0.026l0.367,1.607c0.112,0.489 0.218,0.987 0.319,1.494c0.149,0.752 0.286,1.516 0.408,2.272c0.122,0.756 0.245,1.517 0.367,2.282l0.022,0.142l-0.142,0.015c-0.113,0.013 -0.227,0.026 -0.339,0.04c-0.066,0.012 -0.133,0.019 -0.2,0.026Z" style="fill:#26c6da;fill-rule:nonzero;"/></g><g id="Grupo_54380"><path id="Trazado_103593" d="M80.072,230.27l-0,-0.173c-0.009,-0.428 -0.042,-0.904 -0.099,-1.426c-0.057,-0.538 -0.129,-1.092 -0.212,-1.647c-0.087,-0.578 -0.184,-1.162 -0.289,-1.74c-0.106,-0.588 -0.214,-1.159 -0.324,-1.713c-0.113,-0.567 -0.221,-1.098 -0.326,-1.59c-0.105,-0.493 -0.2,-0.924 -0.284,-1.294c-0.102,-0.432 -0.193,-0.828 -0.275,-1.189l-0.036,-0.16l0.164,-0.007c0.159,-0.007 0.324,-0.018 0.497,-0.034c0.172,-0.017 0.343,-0.038 0.51,-0.061c0.168,-0.024 0.327,-0.049 0.484,-0.074c0.157,-0.026 0.297,-0.051 0.423,-0.077l0.23,-0.046c0.059,-0.011 0.117,-0.025 0.174,-0.041c0.051,-0.01 0.102,-0.022 0.151,-0.038l0.127,-0.04l1.455,4.12c0.218,0.617 0.408,1.15 0.569,1.597c-0.006,-0.083 -0.011,-0.167 -0.016,-0.251c-0.027,-0.404 -0.057,-0.803 -0.09,-1.198c-0.032,-0.395 -0.067,-0.78 -0.103,-1.157c-0.037,-0.376 -0.073,-0.734 -0.109,-1.065c-0.085,-0.786 -0.172,-1.546 -0.262,-2.281l-0.017,-0.138l0.138,-0.014c0.109,-0.012 0.228,-0.025 0.357,-0.041c0.113,-0.012 0.244,-0.031 0.398,-0.056c0.155,-0.025 0.323,-0.057 0.508,-0.094c0.184,-0.036 0.383,-0.08 0.596,-0.129c0.212,-0.05 0.428,-0.109 0.657,-0.18l0.149,-0.046l0.025,0.155c0.306,1.835 0.591,3.437 0.856,4.764c0.194,0.972 0.374,1.823 0.537,2.531c0.163,0.707 0.302,1.284 0.419,1.746c0.136,0.534 0.263,0.984 0.379,1.335l0.046,0.143l-2.01,0.452l-0.025,-0.141c-0.134,-0.751 -0.268,-1.516 -0.401,-2.295c-0.061,-0.326 -0.124,-0.675 -0.19,-1.046c-0.065,-0.367 -0.133,-0.741 -0.203,-1.118c-0.069,-0.378 -0.14,-0.755 -0.213,-1.133c-0.048,-0.254 -0.096,-0.501 -0.143,-0.742c0.022,0.54 0.05,1.128 0.085,1.763c0.038,0.706 0.086,1.453 0.144,2.24c0.057,0.796 0.122,1.58 0.2,2.337l0.014,0.127l-1.642,0.281l-0.038,-0.107c-0.27,-0.74 -0.533,-1.469 -0.79,-2.187c-0.257,-0.717 -0.501,-1.399 -0.734,-2.045c-0.183,-0.511 -0.356,-0.992 -0.517,-1.444l0.137,0.69c0.104,0.528 0.212,1.06 0.324,1.595c0.112,0.534 0.218,1.038 0.319,1.512c0.101,0.471 0.197,0.895 0.287,1.272c0.087,0.367 0.165,0.659 0.231,0.863l0.045,0.137l-2.287,0.598Zm-1.51,-10.672c0.073,0.317 0.152,0.66 0.238,1.031c0.087,0.37 0.179,0.803 0.285,1.297c0.106,0.495 0.215,1.024 0.327,1.591c0.11,0.554 0.219,1.125 0.326,1.713c0.105,0.579 0.203,1.167 0.29,1.748c0.083,0.558 0.156,1.116 0.214,1.658c0.049,0.46 0.081,0.889 0.094,1.278l1.67,-0.435c-0.061,-0.195 -0.122,-0.445 -0.194,-0.745c-0.091,-0.378 -0.187,-0.804 -0.288,-1.278c-0.102,-0.474 -0.209,-0.979 -0.32,-1.515c-0.112,-0.535 -0.22,-1.067 -0.324,-1.596l-0.507,-2.556l0.262,-0.071c0.142,0.408 0.311,0.888 0.507,1.439c0.196,0.552 0.41,1.152 0.643,1.8c0.232,0.645 0.477,1.327 0.734,2.045c0.245,0.682 0.495,1.376 0.751,2.08l1.162,-0.2c-0.072,-0.722 -0.135,-1.469 -0.189,-2.219c-0.058,-0.788 -0.106,-1.536 -0.144,-2.244c-0.039,-0.707 -0.07,-1.356 -0.092,-1.946c-0.023,-0.589 -0.041,-1.07 -0.053,-1.444l-0.043,-1.272l0.311,1.233c0.047,0.187 0.092,0.385 0.133,0.596l0.131,0.657c0.069,0.348 0.14,0.71 0.212,1.089c0.072,0.377 0.144,0.756 0.214,1.133c0.069,0.378 0.137,0.752 0.203,1.121c0.066,0.369 0.128,0.718 0.189,1.046c0.125,0.731 0.251,1.449 0.376,2.154l1.44,-0.323c-0.104,-0.334 -0.218,-0.74 -0.338,-1.21c-0.119,-0.471 -0.257,-1.045 -0.42,-1.753c-0.164,-0.708 -0.345,-1.563 -0.538,-2.539c-0.257,-1.292 -0.536,-2.846 -0.831,-4.619c-0.184,0.053 -0.357,0.099 -0.526,0.139c-0.216,0.05 -0.417,0.095 -0.604,0.132c-0.187,0.036 -0.36,0.069 -0.516,0.095c-0.157,0.025 -0.296,0.045 -0.412,0.061l-0.221,0.025c0.084,0.694 0.165,1.41 0.245,2.148c0.036,0.335 0.071,0.691 0.109,1.068c0.037,0.378 0.071,0.764 0.104,1.162c0.033,0.399 0.061,0.796 0.09,1.203c0.028,0.406 0.05,0.799 0.069,1.182l0.047,0.891l-0.31,-0.837c-0.21,-0.564 -0.506,-1.389 -0.889,-2.474l-1.37,-3.876l-0.04,0.008c-0.06,0.018 -0.121,0.033 -0.183,0.044l-0.231,0.046c-0.128,0.026 -0.272,0.052 -0.431,0.078c-0.16,0.026 -0.323,0.052 -0.49,0.075c-0.167,0.023 -0.344,0.044 -0.52,0.061c-0.122,0.009 -0.238,0.018 -0.352,0.025Z" style="fill:#26c6da;fill-rule:nonzero;"/></g><g id="Grupo_54381"><path id="Trazado_103594" d="M90.47,228.242c-0.088,-0.001 -0.175,-0.006 -0.263,-0.015c-0.251,-0.032 -0.495,-0.105 -0.722,-0.218c-0.277,-0.14 -0.531,-0.321 -0.754,-0.537c-0.284,-0.277 -0.53,-0.592 -0.73,-0.935c-0.262,-0.447 -0.48,-0.918 -0.652,-1.407c-0.226,-0.64 -0.403,-1.296 -0.529,-1.962c-0.139,-0.665 -0.217,-1.341 -0.233,-2.019c-0.012,-0.519 0.031,-1.037 0.129,-1.547c0.075,-0.395 0.207,-0.778 0.391,-1.135c0.147,-0.281 0.332,-0.54 0.55,-0.77c0.18,-0.186 0.388,-0.342 0.618,-0.462c0.176,-0.091 0.363,-0.159 0.556,-0.203c0.15,-0.024 0.301,-0.038 0.452,-0.041c0.14,0.002 0.279,0.015 0.417,0.038c0.151,0.025 0.296,0.077 0.428,0.155l0.062,0.035l0.172,1.774l-0.191,-0.052c-0.127,-0.036 -0.257,-0.06 -0.389,-0.07c-0.105,-0.007 -0.211,-0.001 -0.315,0.018c-0.168,0.031 -0.323,0.112 -0.443,0.235c-0.129,0.136 -0.229,0.297 -0.295,0.473c-0.079,0.209 -0.133,0.427 -0.163,0.649c-0.035,0.24 -0.052,0.483 -0.053,0.725c-0.004,0.651 0.054,1.301 0.173,1.94c0.123,0.563 0.291,1.116 0.502,1.652c0.083,0.201 0.181,0.409 0.289,0.616c0.102,0.191 0.22,0.373 0.352,0.544c0.116,0.151 0.253,0.284 0.406,0.395c0.077,0.055 0.162,0.098 0.251,0.129c-0.125,-0.562 -0.266,-1.12 -0.421,-1.662c-0.175,-0.612 -0.376,-1.233 -0.597,-1.84l-0.053,-0.147l2.051,-0.443l0.009,0.16c0.01,0.18 0.024,0.385 0.042,0.612c0.017,0.227 0.042,0.472 0.074,0.734c0.031,0.262 0.068,0.53 0.112,0.812c0.043,0.281 0.092,0.564 0.148,0.846c0.012,0.061 0.034,0.151 0.064,0.265c0.031,0.115 0.066,0.245 0.104,0.39c0.039,0.146 0.079,0.29 0.123,0.441c0.043,0.151 0.083,0.292 0.122,0.425c0.039,0.132 0.072,0.244 0.102,0.34c0.016,0.058 0.037,0.115 0.062,0.17l0.052,0.104l-0.095,0.069c-0.171,0.126 -0.354,0.235 -0.546,0.327c-0.184,0.085 -0.344,0.155 -0.489,0.21c-0.167,0.059 -0.337,0.109 -0.509,0.149c-0.123,0.023 -0.246,0.034 -0.371,0.033Zm-1.183,-10.974c-0.136,0.003 -0.271,0.016 -0.405,0.037c-0.393,0.093 -0.751,0.298 -1.029,0.59c-0.201,0.21 -0.371,0.448 -0.506,0.707c-0.172,0.334 -0.296,0.691 -0.367,1.06c-0.093,0.491 -0.134,0.99 -0.122,1.489c0.016,0.661 0.093,1.32 0.229,1.967c0.123,0.653 0.296,1.295 0.517,1.921c0.166,0.471 0.376,0.926 0.628,1.357c0.188,0.321 0.418,0.616 0.684,0.877c0.203,0.197 0.434,0.362 0.686,0.489c0.199,0.1 0.413,0.165 0.634,0.193c0.182,0.022 0.366,0.017 0.546,-0.015c0.16,-0.038 0.318,-0.084 0.473,-0.139c0.135,-0.052 0.291,-0.118 0.464,-0.2c0.146,-0.069 0.285,-0.15 0.418,-0.241c-0.01,-0.029 -0.021,-0.062 -0.033,-0.103c-0.029,-0.096 -0.061,-0.209 -0.103,-0.343c-0.042,-0.134 -0.08,-0.276 -0.122,-0.429c-0.042,-0.153 -0.083,-0.299 -0.123,-0.443c-0.039,-0.143 -0.073,-0.272 -0.104,-0.392c-0.031,-0.119 -0.055,-0.215 -0.068,-0.281c-0.057,-0.286 -0.107,-0.572 -0.151,-0.856c-0.044,-0.285 -0.081,-0.559 -0.113,-0.821c-0.033,-0.262 -0.057,-0.511 -0.075,-0.743c-0.012,-0.168 -0.023,-0.321 -0.033,-0.462l-1.434,0.31c0.202,0.565 0.387,1.141 0.551,1.713c0.174,0.612 0.332,1.247 0.47,1.885l0.04,0.184l-0.189,-0.02c-0.206,-0.023 -0.404,-0.099 -0.572,-0.22c-0.175,-0.127 -0.331,-0.278 -0.464,-0.45c-0.142,-0.183 -0.268,-0.378 -0.376,-0.584c-0.114,-0.215 -0.216,-0.428 -0.302,-0.641c-0.218,-0.552 -0.39,-1.12 -0.516,-1.7c-0.124,-0.658 -0.184,-1.327 -0.179,-1.996c0.001,-0.255 0.019,-0.509 0.056,-0.761c0.032,-0.241 0.092,-0.478 0.179,-0.706c0.078,-0.21 0.199,-0.402 0.354,-0.564c0.157,-0.163 0.362,-0.272 0.585,-0.313c0.127,-0.024 0.257,-0.032 0.386,-0.022c0.085,0.006 0.17,0.017 0.253,0.034l-0.122,-1.244c-0.088,-0.043 -0.181,-0.073 -0.277,-0.088c-0.122,-0.021 -0.245,-0.033 -0.368,-0.036Z" style="fill:#26c6da;fill-rule:nonzero;"/></g></g><g id="Grupo_54383"><path id="Trazado_103595" d="M91.484,237.547l-0.232,-0.143l7.108,-11.534l0.232,0.144l-7.108,11.533Z" style="fill:#26c6da;fill-rule:nonzero;"/></g></g></g><g id="Grupo_54390"><path id="Trazado_103596" d="M205.986,170.667c-0,-0 -1.652,-0.498 -2.313,0.825c-0.661,1.323 -2.732,17.209 -2.155,21.676c0.576,4.468 2.233,2.815 2.233,2.815c0,-0 -0.164,2.646 -1.238,3.393l-0.007,-0.007c-0.025,-0.016 -0.049,-0.033 -0.072,-0.053c-0.026,-0.013 -0.061,-0.039 -0.098,-0.065l-0.007,-0c-0.636,-0.419 -2.836,-1.874 -4.868,-3.269c-1.35,-0.917 -2.623,-1.942 -3.806,-3.066c-1.183,-1.124 0.335,-2.646 0.335,-3.387c-0,-0.74 -5.3,-18.375 -10.508,-23.831c-4.861,-5.091 -0.085,-33.764 0.583,-37.635l0.079,-0.432c-0,-0 4.217,1.243 6.038,2.573c1.822,1.33 8.36,17.452 8.688,25.726c0.327,8.274 3.308,12.97 3.308,12.97c0.842,-0.382 1.81,-0.382 2.653,0l1.155,1.767Z" style="fill:url(#_Linear4);fill-rule:nonzero;"/><path id="Trazado_103597" d="M202.331,199.257c-0.636,-0.419 -2.837,-1.873 -4.868,-3.269c-1.35,-0.916 -2.623,-1.942 -3.806,-3.066c-1.183,-1.124 0.334,-2.646 0.334,-3.387c0,-0.74 -5.299,-18.375 -10.507,-23.831c-4.861,-5.09 -0.085,-33.763 0.583,-37.635l0.079,-0.432c-0,-0 3.433,4.304 4.919,12.866c1.487,8.562 -0.616,25.45 -0.616,25.45c0,0 2.974,13.652 10.298,13.901c-0,-0 -6.143,8.997 -3.721,13.508c0.463,0.859 6.185,5.1 7.305,5.895Z" style="fill:url(#_Linear5);fill-rule:nonzero;"/><path id="Trazado_103598" d="M188.325,278.276c-0.111,1.283 -0.35,2.551 -0.714,3.786l-0,0.007c-0.53,1.828 -1.199,3.197 -1.566,4.772c-0.576,2.483 -1.238,12.146 -1.238,12.146l-17.379,-0c1.108,-5.048 1.938,-10.152 2.485,-15.291c0.95,-8.549 -4.16,-38.014 -4.599,-40.536c-0.019,-0.112 -0.033,-0.17 -0.033,-0.17c-4.466,18.695 -15.434,40.378 -16.554,41.617c-0.991,0.95 -2.119,1.745 -3.348,2.358c-1.244,2.359 -3.854,12.021 -3.854,12.021l-19.979,-0c1.113,-5.11 6.203,-12.761 7.822,-15.617c1.618,-2.857 7.69,-22.345 9.308,-35.25c0.673,-5.378 1.192,-11.058 1.572,-15.86l0,-0.015c0.531,-6.708 0.786,-11.685 0.786,-11.685c5.084,-5.208 44.854,-10.344 44.854,-10.344l1.257,4.082c0,-0 1.422,0.305 1.612,1.303c0.189,0.998 -1.147,1.9 -1.147,1.9c4.462,25.317 1.081,56.682 0.715,60.776Z" style="fill:url(#_Linear6);fill-rule:nonzero;"/><path id="Trazado_103599" d="M140.921,222.54c0,-0 12.027,-1.483 19.599,2.117c7.571,3.599 6.891,9.805 6.891,9.805l-2.134,8.523l7.355,-7.695l14.981,-17.79c-2.012,1.138 -4.186,1.962 -6.447,2.441c-2.261,0.479 5.108,-3.165 5.978,-5.647l-1.257,-4.082l-44.967,9.605l0.001,2.723Z" style="fill:url(#_Linear7);fill-rule:nonzero;"/><path id="Trazado_103600" d="M200.3,188.662c-0,-0 -0.497,5.585 2.854,8.192c0,-0 6.889,-3.6 10.281,-9.474c3.393,-5.875 -13.135,1.282 -13.135,1.282Z" style="fill:url(#_Linear8);fill-rule:nonzero;"/><path id="Trazado_103601" d="M141.032,220.559l-0.113,0.864c-0,-0 9.289,-2.351 13.757,-2.517c4.469,-0.165 9.204,3.39 18.721,1.652c9.517,-1.738 13.055,-8.603 13.055,-8.603l-0.565,-1.74l-44.855,10.344Z" style="fill:url(#_Linear9);fill-rule:nonzero;"/><path id="Trazado_103602" d="M144.156,220.655c7.107,-1.662 14.308,-2.895 21.563,-3.694c12.541,-1.427 17.264,-1.862 18.438,-2.794c1.173,-0.931 1.963,-3.237 1.963,-3.237l-0.232,-0.717l-44.856,10.346l-0.113,0.864l3.237,-0.768Z" style="fill:url(#_Linear10);fill-rule:nonzero;"/><path id="Trazado_103603" d="M226.841,171.067c-0,0 1.92,1.556 1.933,2.893c0.012,1.337 -3.174,0.716 -3.174,0.716l1.241,-3.609Z" style="fill:url(#_Linear11);fill-rule:nonzero;"/><path id="Trazado_103604" d="M132.342,164.954l-1.363,-7.448c0,-0 -3.479,-0 -8.562,4.716c-0.219,2.023 -0.855,3.98 -1.867,5.745c-1.012,1.766 -5.857,2.824 -8.575,6.669c-2.718,3.845 -3.747,4.232 -6.584,2.05c-0.753,-0.576 -1.264,-2.535 -1.533,-5.2c-0.385,-4.884 -0.236,-9.796 0.446,-14.648c0.576,-4.099 1.526,-7.737 2.843,-9.629c-0.039,-1.578 0.348,-3.137 1.12,-4.514c0.061,0.039 0.122,0.079 0.183,0.123c0.748,0.5 1.648,0.72 2.542,0.622c1.408,-0.249 2.588,-2.404 2.588,-2.404c0.476,0.059 0.912,0.298 1.218,0.668c3.67,-2.376 6.802,-5.496 9.191,-9.157c3.557,-5.739 4.134,-6.446 4.134,-6.446c0.693,-0.266 1.41,-0.468 2.141,-0.603c1.067,-0.224 2.168,-0.228 3.236,-0.012c1.069,0.215 17.295,26.726 -1.158,39.468Z" style="fill:url(#_Linear12);fill-rule:nonzero;"/><path id="Trazado_103605" d="M169.169,127.634c0,-0 -2.156,-3.22 -2.155,-10.712l-16.783,-8.189c-0,0 0.844,5.781 -2,10.793c-0.752,1.324 -4.256,3.417 -4.256,3.417c0,-0 15.336,18.914 22.702,17.099c7.365,-1.815 5.886,-9.834 5.886,-9.834c0,0 -1.244,0.488 -3.394,-2.574Z" style="fill:url(#_Linear13);fill-rule:nonzero;"/><path id="Trazado_103606" d="M146.038,121.574c-0,0 8.312,8.285 15.468,8.749c7.664,0.498 6.4,-5.873 6.4,-5.873c0,-0 3.467,4.859 2.474,8.687c-0.993,3.828 -8.565,4.015 -14.398,1.469c-5.833,-2.547 -11.416,-12.431 -11.416,-12.431l1.472,-0.601Z" style="fill:url(#_Linear14);fill-rule:nonzero;"/><path id="Trazado_103607" d="M132.343,164.954l-1.363,-7.448c0,-0 -3.478,-0 -8.562,4.716c-0.219,2.023 -0.855,3.98 -1.867,5.745c-1.012,1.766 -5.857,2.824 -8.575,6.669c-2.718,3.845 -3.747,4.232 -6.583,2.05c-0.753,-0.576 -1.265,-2.535 -1.534,-5.2l0.446,-1.068l-0,-13.582c0.576,-4.099 1.526,-7.736 2.843,-9.629c-0.039,-1.578 0.348,-3.137 1.12,-4.514c0.061,0.04 0.122,0.079 0.184,0.123c4.814,3.138 6.516,12.371 6.847,19.239c0.046,-1.742 1.149,-8.486 1.986,-8.358c1.076,0.166 2.893,12.577 2.893,12.577c2.148,-10.645 -4.782,-23.484 -5.339,-24.507c6.334,8.752 7.409,18.801 7.409,18.801l9.845,-7.199c0,-0 5.928,-5.962 3.878,-16.22c-2.05,-10.259 -5.705,-11.654 -5.705,-11.654c1.066,-0.224 2.168,-0.229 3.236,-0.013c1.069,0.216 17.293,26.73 -1.159,39.472Z" style="fill:url(#_Linear15);fill-rule:nonzero;"/><path id="Trazado_103608" d="M173.461,115.174c-0.025,0.021 -0.047,0.046 -0.066,0.073c-0.206,0.26 -0.462,0.476 -0.753,0.635c-3.727,1.907 -13.651,1.407 -19.03,-3.308c-1.939,-1.755 -3.562,-3.831 -4.795,-6.138c-0.002,-0.009 -0.007,-0.018 -0.013,-0.026c-1.952,-3.557 -3.059,-7.252 -4.133,-9.807c-1.736,-4.133 -3.164,-11.057 -2.811,-15.06c0.328,-3.721 1.075,-6.865 6.126,-11.169c5.051,-4.304 17.458,-4.553 20.602,-0.249c3.144,4.304 3.059,13.986 3.806,16.135c0.747,2.148 3.393,4.716 4.14,7.612c0.68,2.679 -0.04,17.523 -3.073,21.302Z" style="fill:url(#_Linear16);fill-rule:nonzero;"/><path id="Trazado_103609" d="M173.496,88.339c-0,0 -0.161,2.585 -2.177,2.763c-1.58,0.14 -2.546,-2.192 -2.546,-2.192c0,-0 -0.281,-6.322 0.52,-9.434l0.752,-2.482c-1.44,-1.384 -3.396,-2.103 -5.389,-1.98c-3.226,0.284 -4.385,3.732 -4.385,3.732c0,0 2.865,8.198 2.452,12.154c-1.62,1.344 -3.706,1.997 -5.803,1.817c-2.388,-0.095 -4.652,-1.095 -6.331,-2.794c-1.678,-1.7 -2.299,2.684 -2.737,4.966c-0.525,2.725 0.379,11.357 0.379,11.357c0,-0 -2.896,-9.351 -3.682,-12.081c-0.787,-2.731 -2.235,-14.853 -1.366,-16.922c0.868,-2.069 3.374,-8.81 14.12,-10.134c10.746,-1.323 12.741,2.273 12.741,2.273l1.107,5.337l-0.005,2.753c-0,0 0.751,7.093 1.018,8.285c0.29,0.932 0.741,1.806 1.332,2.582Z" style="fill:url(#_Linear17);fill-rule:nonzero;"/><path id="Trazado_103610" d="M171.195,77.743c-0.296,-2.548 -1.098,-5.011 -2.359,-7.245c-1.715,1.66 -3.768,2.929 -6.02,3.721c0.934,-0.865 1.783,-1.817 2.535,-2.843c-1.763,1.314 -3.676,2.416 -5.699,3.281c-2.023,0.865 0.93,-1.428 0.93,-2.05c-0,-0.622 -2.359,-3.348 -5.09,-3.288c-4.445,0.332 -8.427,2.908 -10.552,6.826c-2.602,4.965 0.012,5.424 1.44,6.721c-0.417,3.754 -0.603,7.53 -0.556,11.307c0.029,1.394 0.172,2.783 0.428,4.153c0.039,0.19 0.084,0.367 0.13,0.537l-3.727,-3.406c-0.148,-1.919 -0.646,-3.795 -1.469,-5.536c-0.157,-0.373 -0.34,-0.759 -0.544,-1.162l-0.019,-0.033c-0.079,-0.157 -0.164,-0.314 -0.249,-0.478c-0.891,-1.665 -3.632,-4.778 -3.237,-7.947c0.372,-2.981 5.798,-5.541 7.121,-7.533c0,-0 -4.16,1.33 -6.131,3.315c0.239,-1.168 0.901,-2.207 1.857,-2.919c1.539,-1.054 2.836,-0.399 5.078,-1.303c2.242,-0.905 5.28,-8.438 8.876,-11.294c3.597,-2.857 11.858,-2.293 14.524,-0c0.652,0.571 1.188,1.263 1.578,2.037l0.007,0l-0,0.013c0.007,0.013 0.013,0.02 0.013,0.033c0.677,1.362 1.063,2.85 1.133,4.37c0.069,1.519 1.554,6.359 0.002,10.723Z" style="fill:url(#_Linear18);fill-rule:nonzero;"/><path id="Trazado_103611" d="M109.754,146.336l-2.607,0.869c0,-0 -11.915,-7.068 -15.763,-24.262c-0,-0 2.979,-5.154 3.103,-7.016c0.124,-1.862 -1.779,-5.751 -2.359,-10.633c-0.579,-4.882 0.58,-8.605 0.496,-9.185c-0.083,-0.58 -3.058,-0.661 -3.888,1.738c-0.83,2.4 0.414,6.703 -0,7.53c-0.428,0.77 -0.897,1.516 -1.407,2.234c-0.51,0.718 -4.386,-6.62 -5.544,-7.281c-1.159,-0.66 -2.979,2.582 -3.806,2.739c-0.827,0.158 -3.848,-4.021 -6.765,-6.441c-2.917,-2.42 -8.378,-7.509 -8.937,-7.386c-0.802,0.378 -1.278,1.229 -1.179,2.11c0.123,0.993 2.483,5.338 6.082,7.075c0,0 4.344,2.98 6.64,7.013c0,-0 -0.992,1.675 -1.675,1.738c-0.684,0.062 -4.592,-2.545 -7.695,-3.786c-3.103,-1.241 -5.958,-2.048 -6.455,-1.862c-0.497,0.186 -0.309,1.303 0,2.048c0.31,0.744 3.103,2.917 6.144,3.662c0,0 4.531,1.799 6.02,3.661c0,0 -0.183,1.862 -0.682,2.173c-0.5,0.31 -4.222,-0.249 -6.517,-0.559c-2.296,-0.31 -4.956,0.061 -5.271,0.373c-0.315,0.311 -0.066,1.364 1.796,2.047c1.862,0.683 4.099,0.249 4.466,0.311c0.367,0.062 7.137,2.172 7.943,2.669c0.807,0.496 4.344,5.784 6.892,7.397c2.547,1.614 6.203,0.796 6.203,0.796c0,-0 4.075,22.881 6.062,31.981c1.986,9.101 9.598,18.538 16.218,18.949c0,0 5.958,-2.317 6.289,-14.56c0.331,-12.244 -3.804,-16.142 -3.804,-16.142Z" style="fill:url(#_Linear19);fill-rule:nonzero;"/><path id="Trazado_103612" d="M181.492,171.74c-1.424,8.961 -1.171,18.109 0.747,26.977c1.919,8.868 1.985,1.362 2.234,3.098c0.001,0.012 0.003,0.023 0.007,0.033c0.135,1.107 0.091,2.229 -0.131,3.322c0.614,0.642 1.157,1.35 1.618,2.109c0.141,0.25 0.224,0.527 0.245,0.813c0.003,1.002 -0.207,1.993 -0.616,2.908c-0.41,0.915 -1.494,3.855 -17.008,5.215c-9.274,0.81 -18.48,2.261 -27.553,4.343c-9.073,2.082 -0.937,-3.098 0.773,-5.456c-0,-0 -2.64,-2.359 -2.516,-3.23c0.124,-0.871 5.837,-10.796 4.35,-17.746c-1.487,-6.951 -7.075,-12.591 -10.18,-26.157c0,-0 -2.07,-0.695 -2.194,-1.691c-0.124,-0.996 0.91,-2.607 0.91,-2.607l0.373,0.707c0,-0 7.075,-4.055 5.169,-21.185c-1.907,-17.131 -3.911,-18.171 -7.455,-17.694c0,0 2.824,-2.614 3.487,-2.555c0.664,0.059 0.911,1.278 0.911,1.278c1.561,0.542 3.26,0.542 4.821,-0c1.615,-0.582 3.096,-1.482 4.356,-2.647c1.26,-1.165 15.717,13.307 22.611,12.492c7.871,-0.931 2.32,-9.547 2.32,-9.547c0,-0 4.944,0.965 7.59,1.581c2.647,0.616 3.642,0 3.642,0c0,0 1.573,-2.339 3.642,-0.773c2.07,1.567 4.632,10.167 3.806,24.068c-0.825,13.9 -5.959,22.344 -5.959,22.344Z" style="fill:url(#_Linear20);fill-rule:nonzero;"/><path id="Trazado_103613" d="M154.64,88.062c-0.244,0.782 -0.313,1.608 -0.203,2.42c0.217,1.148 4.349,2.267 6.309,0.528c1.959,-1.738 -6.106,-2.948 -6.106,-2.948Z" style="fill:#e87a8d;fill-rule:nonzero;"/><path id="Trazado_103614" d="M237.6,146.337c-5.129,13.737 -19.201,42.948 -19.201,42.948c-18.532,3.557 -35.912,0.576 -35.912,0.576l-0.996,-1.605c6.453,-19.521 20.36,-44.978 20.36,-44.978c17.045,-0.91 35.086,1.815 35.086,1.815l0.663,1.244Z" style="fill:url(#_Linear21);fill-rule:nonzero;"/><path id="Trazado_103615" d="M221.172,167.004c0,0 -0.786,9.226 1.365,13.559l8.463,-18.464l-4.027,0.948l0.529,1.865c-2.279,0.003 -4.498,0.737 -6.33,2.092Z" style="fill:url(#_Linear22);fill-rule:nonzero;"/><path id="Trazado_103616" d="M230.399,162.099c-0,-0 1.346,1.071 1.613,1.945c0.29,0.951 0.662,3.344 -2.11,4.095l-1.241,0.331c0,0 0.91,0.414 1.076,1.035c0.165,0.62 -0.87,1.986 -2.525,2.317c-1.655,0.33 -4.427,-0.331 -5.254,-1.076c-0.828,-0.744 -0.29,-1.779 0.952,-2.068c-0,-0 -1.821,-0.409 -1.739,-1.674c0.083,-1.264 4.262,-2.63 8.688,-2.216l0.54,-2.689Z" style="fill:url(#_Linear23);fill-rule:nonzero;"/><path id="Trazado_103617" d="M169.169,89.292c0.49,0.671 1.348,0.972 2.15,0.755c1.482,-0.313 1.346,-2.885 1.074,-3.785c-0.271,-0.899 -3.201,2.196 -3.224,3.03Z" style="fill:#e87a8d;fill-rule:nonzero;"/><path id="Trazado_103618" d="M233.75,155.806c-0,0 2.234,2.073 2.234,3.501c0,1.427 -3.289,3.227 -8.937,3.931c-0.308,-0.727 -0.308,-1.549 0,-2.276c0.528,-1.179 3.352,-2.834 5.679,-3.207l1.024,-1.949Z" style="fill:url(#_Linear24);fill-rule:nonzero;"/><path id="Trazado_103619" d="M227.242,172.649c0,0 -3.835,-0.372 -3.504,3.133c1.239,0.166 2.498,0.114 3.719,-0.154c1.572,-0.455 1.365,-1.655 1.241,-2.068c-0.124,-0.413 -0.263,-0.745 -1.456,-0.911Z" style="fill:url(#_Linear25);fill-rule:nonzero;"/><path id="Trazado_103620" d="M150.403,85.517c0.356,-1.529 1.142,-2.925 2.264,-4.024c1.407,-1.457 4.125,-2.927 6.03,-3.67c0.214,0.567 0.312,1.172 0.289,1.778c-0.023,0.606 0.31,-1.096 0.58,-2.13c0.308,0.986 0.41,2.024 0.299,3.051c-0.11,1.027 -1.667,0.587 -4.404,1.334c-2.065,0.585 -3.858,1.882 -5.058,3.661Z" style="fill:url(#_Linear26);fill-rule:nonzero;"/><path id="Trazado_103621" d="M168.773,88.062c0,-0 0,-5.234 1.521,-5.524c1.272,-0.244 1.871,2.714 1.871,2.714l-3.392,2.81Z" style="fill:#77485e;fill-rule:nonzero;"/><path id="Trazado_103622" d="M154.437,89.551c0,0 -0.052,-3.676 2.959,-4.979c3.01,-1.303 4.053,2.922 4.053,2.922l-7.012,2.057Z" style="fill:#77485e;fill-rule:nonzero;"/><path id="Trazado_103623" d="M161.761,89.548c-0.085,0.766 -1.12,2.135 -3.353,2.135c-1.985,0 -3.977,-0.996 -3.97,-2.135c0.012,-0.439 0.11,-0.87 0.288,-1.271c0.449,-1.039 1.215,-1.911 2.188,-2.489c0.644,-0.4 1.4,-0.582 2.155,-0.518c2.404,0.249 2.771,3.518 2.692,4.278Z" style="fill:url(#_Linear27);fill-rule:nonzero;"/><path id="Trazado_103624" d="M172.433,86.947c0.033,1.703 -0.707,2.998 -2.004,2.974c-0.416,0.026 -0.823,-0.13 -1.114,-0.428c-0.205,-0.266 -0.346,-0.576 -0.413,-0.905c-0.046,-0.164 -0.091,-0.34 -0.131,-0.53c0.093,-0.988 0.282,-1.964 0.564,-2.915c0.088,-0.27 0.195,-0.532 0.321,-0.786c0.144,-0.363 0.421,-0.658 0.773,-0.826c1.008,-0.364 1.978,1.707 2.004,3.416Z" style="fill:url(#_Linear28);fill-rule:nonzero;"/><path id="Trazado_103625" d="M77.979,103.068c-1.5,2.108 -2.874,4.303 -4.116,6.574c-1.835,3.304 -1.966,8.271 -1.966,8.271c-1.305,-0.598 -2.654,-1.096 -4.034,-1.49c-1.427,-0.311 3.478,-7.882 3.478,-7.882l5.573,-6.139l1.065,0.666Z" style="fill:url(#_Linear29);fill-rule:nonzero;"/><path id="Trazado_103626" d="M159.888,88.342c-0,1.418 -1.167,2.585 -2.585,2.585c-1.417,-0 -2.584,-1.167 -2.584,-2.585c-0.001,-0.022 0.001,-0.044 0.007,-0.065c0.449,-1.039 1.215,-1.911 2.188,-2.489c0.135,-0.022 0.271,-0.033 0.408,-0.033c1.408,-0 2.566,1.158 2.566,2.565c-0,0.007 -0,0.015 -0,0.022Z" style="fill:url(#_Radial30);fill-rule:nonzero;"/><path id="Trazado_103627" d="M159.095,88.341c-0,-0 -0,-0 -0,0c-0,0.982 -0.808,1.79 -1.79,1.79c-0.982,0 -1.791,-0.808 -1.791,-1.79c0,-0.982 0.809,-1.79 1.791,-1.79c0.981,0 1.789,0.808 1.79,1.79Z" style="fill:url(#_Linear31);fill-rule:nonzero;"/><path id="Trazado_103628" d="M171.321,86.941c-0,1.428 -0.786,2.581 -1.756,2.581c-0.084,0.001 -0.167,-0.008 -0.249,-0.026c-0.205,-0.266 -0.347,-0.575 -0.413,-0.905c-0.046,-0.164 -0.092,-0.34 -0.131,-0.53c0.093,-0.988 0.282,-1.964 0.563,-2.915c0.089,-0.27 0.196,-0.532 0.322,-0.786c0.93,0.072 1.664,1.198 1.664,2.581Z" style="fill:url(#_Radial32);fill-rule:nonzero;"/><path id="Trazado_103629" d="M64.139,107.238c0,0 1.739,0.621 2.514,0.435c0.775,-0.186 1.179,-1.875 1.179,-2.086c-0,-0.211 -2.224,-1.691 -2.224,-1.691l2.814,1.418l2.762,-3.258c-1.071,-1.326 -2.331,-2.485 -3.74,-3.442c-1.41,-0.957 2.25,1.363 2.933,0.867c0.576,-0.465 0.927,-1.154 0.964,-1.893c0,-0.465 -2.3,-2.827 -2.3,-2.827c0,0 3.465,2.835 3.75,3.313c0.286,0.477 -1.638,7.358 -1.638,7.358l-3.741,3.383c-0,0 -2.248,-1.052 -3.273,-1.577Z" style="fill:url(#_Linear33);fill-rule:nonzero;"/><path id="Trazado_103630" d="M170.592,86.938c0,0.99 -0.544,1.789 -1.219,1.789c-0.166,-0.004 -0.329,-0.051 -0.471,-0.138c-0.046,-0.164 -0.092,-0.341 -0.131,-0.531c0.093,-0.987 0.281,-1.964 0.563,-2.915l0.039,0c0.675,0.003 1.219,0.808 1.219,1.795Z" style="fill:url(#_Linear34);fill-rule:nonzero;"/><path id="Trazado_103631" d="M169.395,77.783c-0,0 -1.388,7.362 -0.622,11.127c0,0 -0.446,-5.661 1.272,-9.694l-0.65,-1.433Z" style="fill:#e87a8d;fill-rule:nonzero;"/><path id="Trazado_103632" d="M169.124,80.552c0,0 0.166,-2.482 0.538,-4.592l0.249,0.869l0.721,-1.815c0,0 1.865,1.132 0.724,3.566c-0,-0 -1.197,-0.138 -2.232,1.972Z" style="fill:url(#_Linear35);fill-rule:nonzero;"/><path id="Trazado_103633" d="M161.906,98.57c-0,0 0.155,1.682 3.258,2.631c3.103,0.949 5.754,0.367 6.72,-0.71c-0.75,0.801 -1.74,1.338 -2.82,1.53c-1.821,0.331 -4.576,-0.099 -5.873,-1.096c-0.761,-0.509 -1.357,-1.228 -1.717,-2.069l0.432,-0.286Z" style="fill:#e87a8d;fill-rule:nonzero;"/><path id="Trazado_103634" d="M160.561,99.282c0.905,-0.455 1.864,-0.792 2.855,-1.002c-0.688,-0.138 -1.392,-0.173 -2.09,-0.103c-0.662,0.166 -0.765,1.105 -0.765,1.105Z" style="fill:#e37e7f;fill-rule:nonzero;"/><g id="Grupo_54386"><path id="Trazado_103635" d="M163.746,94.702c0,-0 2.151,-0 4.138,0.122c1.986,0.123 3.807,-0.122 4.551,-0.661c-0.04,1.579 -0.948,3.013 -2.359,3.723c-0.658,0.218 -1.369,0.218 -2.027,0c-0.754,-0.717 -1.705,-1.192 -2.731,-1.365c-1.025,-0.172 -1.654,-0.495 -1.572,-1.819Z" style="fill:url(#_Linear36);fill-rule:nonzero;"/><path id="Trazado_103636" d="M167.677,90.924c-2.565,0.359 -3.931,3.778 -3.931,3.778l4.841,0.827c1.381,-0.106 2.709,-0.577 3.848,-1.365c1.14,-0.788 -2.193,-3.6 -4.758,-3.24Z" style="fill:url(#_Linear37);fill-rule:nonzero;"/><path id="Trazado_103637" d="M165.163,96.463c0,-0 0.245,-0.225 1.035,-0.178c0.789,0.046 1.546,1.329 1.546,1.329c-0.755,-0.585 -1.641,-0.98 -2.581,-1.151Z" style="fill:#9f4a8b;fill-rule:nonzero;"/></g><g id="Grupo_54387"><path id="Trazado_103638" d="M76.559,90.117l-8.051,14.974c-0,0 -2.08,8.674 -5.929,12.086c0,0 -0.446,1.662 0.673,4.165l16.943,-31.507c0,-0 -2.024,-0.866 -3.636,0.282Z" style="fill:url(#_Linear38);fill-rule:nonzero;"/><path id="Trazado_103639" d="M81.958,93.021l-8.051,14.972c0,0 -6.09,6.516 -6.814,11.61c-0,0 -1.141,1.289 -3.844,1.738l16.943,-31.508c0,0 1.834,1.208 1.766,3.188Z" style="fill:url(#_Linear39);fill-rule:nonzero;"/><path id="Trazado_103640" d="M62.932,120.534l1.162,0.627c0,-0 -0.989,1.25 -1.325,1.07c-0.336,-0.181 0.163,-1.697 0.163,-1.697Z" style="fill:url(#_Linear40);fill-rule:nonzero;"/><path id="Trazado_103641" d="M62.579,117.176l4.514,2.427c-0,0 0.523,-4.363 6.814,-11.61l-5.399,-2.903c-0.984,4.443 -3.017,8.588 -5.929,12.086Z" style="fill:url(#_Linear41);fill-rule:nonzero;"/></g><path id="Trazado_103642" d="M83.108,101.706c0,-0 -2.647,-3.281 -4.964,-6.921c-2.318,-3.641 -6.492,-9.514 -7.923,-8.896c-1.43,0.618 -0.183,4.344 1.118,6.703c1.301,2.359 2.979,3.227 3.723,4.466c0.745,1.239 2.917,6.007 2.917,6.007c0,0 3.369,0.805 5.129,-1.359Z" style="fill:url(#_Linear42);fill-rule:nonzero;"/><path id="Trazado_103643" d="M206.585,190.777c0,-0 -1.052,5.021 -0.596,5.332c0.455,0.31 2.875,-5.507 2.875,-5.507l-2.279,0.175Z" style="fill:url(#_Linear43);fill-rule:nonzero;"/><g id="Grupo_54388"><path id="Trazado_103644" d="M191.339,299l-0.325,-0.033c0.017,-0.173 1.98,-17.31 22.834,-23.523c11.408,-3.399 18.995,-11.305 20.813,-21.693c1.729,-10.42 -2.546,-20.97 -11.041,-27.248c-16.631,-12.282 -17.786,-30.206 -17.795,-30.386l0.327,-0.018c0.01,0.178 1.162,17.954 17.663,30.14c8.594,6.352 12.918,17.026 11.168,27.568c-1.84,10.514 -9.509,18.515 -21.042,21.95c-20.646,6.15 -22.584,23.074 -22.602,23.243Z" style="fill:url(#_Linear44);fill-rule:nonzero;"/></g><path id="Trazado_103645" d="M145.99,97.659c0,0 -4.099,-4.085 -6.551,-1.774c-2.908,2.742 -0.852,8.785 2.365,11.394c2.795,2.268 5.805,1.666 6.424,-1.034c0.003,-0 0.856,-6.096 -2.238,-8.586Z" style="fill:url(#_Linear45);fill-rule:nonzero;"/><path id="Trazado_103646" d="M145.885,101.506c-0,-0 -2.414,-2.831 -4.405,-2.103c-1.991,0.728 -1.419,3.902 -1.419,3.902c-0,0 0.024,-2.325 1.315,-2.67c1.292,-0.345 2.085,1.323 2.085,1.323c0,-0 -0.691,0.057 -0.668,2.014c0.024,1.958 2.31,3.778 3.217,2.396c0.906,-1.381 -0.125,-4.862 -0.125,-4.862Z" style="fill:#e87a8d;fill-rule:nonzero;"/><path id="Trazado_103647" d="M160.271,88.496c0,0.238 -0.196,0.434 -0.434,0.434c-0.239,0 -0.435,-0.196 -0.435,-0.434c0,-0.238 0.196,-0.434 0.434,-0.434c0,-0 0.001,-0 0.001,-0c0.238,-0 0.434,0.196 0.434,0.434Z" style="fill:#fff;fill-rule:nonzero;"/><path id="Trazado_103648" d="M171.883,86.988c-0,0.001 -0,0.001 -0,0.001c-0,0.24 -0.198,0.438 -0.438,0.438c-0.24,0 -0.438,-0.198 -0.438,-0.438c-0,-0.24 0.198,-0.438 0.438,-0.438c0,0 0,0 0.001,0c0.239,0 0.437,0.198 0.437,0.437Z" style="fill:#fff;fill-rule:nonzero;"/><path id="Trazado_103649" d="M150.227,113.04c0,0 6.45,12.526 17.681,11.409c0,-0 -1.003,-4.392 -0.892,-7.525c0,-0 -5.231,-0.139 -9.107,-1.744c-4.367,-1.809 -7.676,-6.445 -7.676,-6.445l-0.006,4.305Z" style="fill:url(#_Linear46);fill-rule:nonzero;"/><path id="Trazado_103650" d="M83.107,119.94c-3.045,0.87 -8.705,-1.808 -9.2,-4.386c-0.496,-2.579 3.327,-9.557 6.74,-9.123c3.413,0.435 5.054,2.951 4.344,5.213c-0.813,2.595 -0.148,7.799 -1.884,8.296Z" style="fill:url(#_Linear47);fill-rule:nonzero;"/><path id="Trazado_103651" d="M87.329,107.61c-0,0 -3.393,5.648 -3.082,10.303c-0,-0 -0.891,-6.742 2.274,-11.502l0.808,1.199Z" style="fill:url(#_Linear48);fill-rule:nonzero;"/><path id="Trazado_103652" d="M84.992,126.105c-0,-0 3.165,-0.621 4.466,-1.552l-3.732,5.655c-0,0 -0.491,-2.258 -0.734,-4.103Z" style="fill:url(#_Linear49);fill-rule:nonzero;"/><path id="Trazado_103653" d="M107.147,147.205c0,0 2.211,2.613 3.683,12.868c1.471,10.255 -2.574,16.373 -2.574,16.373c0,-0 4.099,-0.776 5.323,-12.774c1.224,-11.999 -3.825,-17.335 -3.825,-17.335l-2.607,0.868Z" style="fill:url(#_Linear50);fill-rule:nonzero;"/><path id="Trazado_103654" d="M185.593,210.999c0,0 -1.493,3.854 -17.008,5.214c-9.273,0.811 -18.479,2.262 -27.552,4.344c-9.073,2.082 -0.937,-3.099 0.772,-5.457c0,0 -2.64,-2.358 -2.515,-3.229c0.124,-0.871 5.836,-10.796 4.35,-17.746c-1.487,-6.951 -7.075,-12.591 -10.18,-26.158c-0,0 -2.07,-0.694 -2.195,-1.69c-0.124,-0.996 0.911,-2.608 0.911,-2.608l0.373,0.708c-0,-0 7.075,-4.055 5.168,-21.186c-1.906,-17.13 -3.91,-18.17 -7.454,-17.693c-0,-0 2.823,-2.614 3.487,-2.555c-0,-0 4.205,3.16 7.106,20.145c2.43,14.226 6.472,23.107 6.472,23.107c5.562,1.893 11.413,2.796 17.287,2.668c9.317,-0.31 8.368,-1.485 16.55,-0.896c0,-0 -17.667,1.886 -24.369,3.098c-4.382,0.845 -8.675,2.103 -12.82,3.756c-4.145,1.653 5.676,13.222 4.749,22.032c-0.456,3.977 -1.458,7.873 -2.977,11.576c-1.518,3.704 1.169,0.46 12.561,-0.031c11.392,-0.492 26.164,-6.584 26.164,-6.584c0.001,0.011 0.003,0.023 0.007,0.033c0.202,1.103 0.157,2.238 -0.131,3.322c-0.289,1.083 -11.379,2.482 -21.886,4.466c-10.507,1.983 -16.712,5.214 -16.712,5.214c0,0 2.146,1.202 18.516,-0.581c16.371,-1.782 21.104,-2.865 21.936,-6.193l0.006,0.013c0.004,1.003 -0.206,1.995 -0.616,2.911Z" style="fill:url(#_Linear51);fill-rule:nonzero;"/><path id="Trazado_103655" d="M141.805,171.75c-0,0 1.943,-2.59 6.424,-3.321c4.48,-0.731 11.595,1.002 15.967,0.993c0,0 -12.232,2.317 -16.873,2.979c-4.641,0.662 -5.518,-0.651 -5.518,-0.651Z" style="fill:url(#_Linear52);fill-rule:nonzero;"/><path id="Trazado_103656" d="M180.005,126.101c0,0 4.466,7.823 5.296,24.537c0,0 0.743,-13.214 -3.807,-25.721c-0.605,0.234 -1.124,0.647 -1.489,1.184Z" style="fill:url(#_Linear53);fill-rule:nonzero;"/><path id="Trazado_103657" d="M179.385,133.137c0,-0 -1.358,9.817 -11.974,23.874c0,-0 6.947,-5.629 9.386,-11.089c2.588,-5.793 2.588,-12.785 2.588,-12.785Z" style="fill:url(#_Linear54);fill-rule:nonzero;"/><path id="Trazado_103658" d="M153.003,196.12c2.318,3.281 5.836,5.522 9.789,6.236c6.703,1.241 15.639,-1.075 15.639,-1.075c-0,-0 -8.606,1.489 -15.061,-0.663c-3.595,-1.154 -7.068,-2.661 -10.367,-4.498Z" style="fill:url(#_Linear55);fill-rule:nonzero;"/><path id="Trazado_103659" d="M130.979,157.506c0,-0 5.023,-2.074 6.959,-5.836c0,0 -0.297,9.317 -5.384,12.707c-0.74,-2.235 -1.268,-4.536 -1.575,-6.871Z" style="fill:url(#_Linear56);fill-rule:nonzero;"/><path id="Trazado_103660" d="M165.278,242.985l2.648,-9.682c-0,0 4.6,-6.662 12.064,-9.702l-7.356,11.274l-7.356,8.11Z" style="fill:url(#_Linear57);fill-rule:nonzero;"/><path id="Trazado_103661" d="M148.725,284.602c-0.99,0.95 -2.119,1.746 -3.347,2.359c-1.245,2.358 -3.855,12.02 -3.855,12.02l-19.977,0c1.113,-5.11 6.203,-12.761 7.822,-15.617c1.618,-2.857 7.69,-22.345 9.308,-35.25c0.673,-5.378 1.192,-11.057 1.572,-15.859c0.02,0.367 0.683,4.117 -1.25,22.341c-1.984,18.703 -3.342,26.783 -3.181,28.434c0.161,1.65 8.278,5.629 12.908,1.572Z" style="fill:url(#_Linear58);fill-rule:nonzero;"/><path id="Trazado_103662" d="M187.61,282.069c-0.53,1.828 -1.198,3.197 -1.565,4.772c-0.577,2.483 -1.239,12.146 -1.239,12.146l-17.378,-0c1.107,-5.048 1.936,-10.152 2.483,-15.29c0.95,-8.548 -4.161,-38.014 -4.599,-40.536c0.576,2.712 6.997,33.27 8.446,35.863c3.146,5.625 11.684,7.526 13.852,3.045Z" style="fill:url(#_Linear59);fill-rule:nonzero;"/><path id="Trazado_103663" d="M136.031,283.498c1.025,3.712 4.205,6.451 8.028,6.914l1.319,-3.452c0,-0 2.519,-1.534 2.934,-1.946c-0,0 -1.858,1.408 -6.14,0.748c-4.283,-0.66 -6.141,-2.264 -6.141,-2.264Z" style="fill:url(#_Linear60);fill-rule:nonzero;"/><path id="Trazado_103664" d="M177.032,282.954c0,0 3.012,3.386 9.013,3.884c-0,0 1.121,-2.927 1.565,-4.772c0,0 -2.508,2.386 -5.289,2.386c-1.861,-0.04 -3.682,-0.555 -5.289,-1.498Z" style="fill:url(#_Linear61);fill-rule:nonzero;"/><path id="Trazado_103665" d="M237.6,146.337c-25.076,-3.23 -35.269,-1.736 -35.269,-1.736c-8.972,15.356 -19.843,45.259 -19.843,45.259l-0.996,-1.604c6.453,-19.522 20.36,-44.978 20.36,-44.978c17.045,-0.911 35.087,1.814 35.087,1.814l0.661,1.245Z" style="fill:url(#_Linear62);fill-rule:nonzero;"/><path id="Trazado_103666" d="M228.661,168.47c-1.909,0.211 -3.831,0.28 -5.751,0.207c2.043,0.351 4.129,0.366 6.176,0.043l-0.425,-0.25Z" style="fill:url(#_Linear63);fill-rule:nonzero;"/><path id="Trazado_103667" d="M143.922,127.412c0.015,0.051 0.032,0.101 0.053,0.15c-0.025,-0.072 -0.045,-0.124 -0.053,-0.15Z" style="fill:url(#_Linear64);fill-rule:nonzero;"/><path id="Trazado_103668" d="M145.748,208.431c0,-0 6.057,0.196 18.519,-2.019c13.256,-2.359 17.972,-7.694 17.972,-7.694c-0,0 1.904,1.24 2.233,3.099c0,0 -11.246,4.747 -20.205,5.911c-8.96,1.165 -16.702,1.247 -18.519,0.703Z" style="fill:url(#_Linear65);fill-rule:nonzero;"/><path id="Trazado_103669" d="M158.661,214.817c0,-0 7.508,-1.207 15.886,-3.256c8.378,-2.049 11.422,-4.283 11.422,-4.283c-0,0 1.38,2.692 -4.121,4.249c-5.501,1.557 -23.187,3.29 -23.187,3.29Z" style="fill:url(#_Linear66);fill-rule:nonzero;"/><path id="Trazado_103670" d="M192.656,164.408l27.008,22.23l-1.265,2.643c0,-0 -17.045,3.513 -35.912,0.576l-0.996,-1.604c0,-0 6.092,-16.295 10.181,-24.749l0.984,0.904Z" style="fill:url(#_Linear67);fill-rule:nonzero;"/><path id="Trazado_103671" d="M140.921,239.012c-0.937,9.279 -0.516,18.646 1.25,27.803l-1.25,-27.803Z" style="fill:url(#_Linear68);fill-rule:nonzero;"/><path id="Trazado_103672" d="M168.711,242.157c-0,0 4.598,18.204 8.32,25.94c0,0 -7.328,-10.054 -9.992,-16.841l-1.729,-8.1l2.1,-8.696l1.301,7.697Z" style="fill:url(#_Linear69);fill-rule:nonzero;"/><path id="Trazado_103673" d="M168.774,124.52l-0.868,-0.071c0,0 1.791,2.866 2.164,5.224c0.373,2.358 -1.192,3.876 -3.616,4.395c-0,-0 3.906,-0.227 4.405,-2.916c0.499,-2.689 -2.085,-6.632 -2.085,-6.632Z" style="fill:url(#_Linear70);fill-rule:nonzero;"/><path id="Trazado_103674" d="M140.967,75.672c0,0 -4.16,2.397 -4.286,5.563c-0.126,3.165 2.552,5.204 2.552,5.204l0.367,-1.709c1.335,0.179 2.693,0.052 3.972,-0.371c1.015,-0.333 1.966,-0.839 2.81,-1.493c0.845,-0.655 -2.447,-1.439 -2.503,-3.831c-0.057,-2.393 4.172,-6.709 4.172,-6.709l-3.794,0.444c-1.148,0.907 -2.246,1.876 -3.29,2.902Z" style="fill:url(#_Linear71);fill-rule:nonzero;"/><path id="Trazado_103675" d="M160.582,72.607c-0,0 3.813,-4.136 4.581,-7.033c0.768,-2.896 -2.29,-4.303 -2.29,-4.303c0,0 1.081,1.204 0.87,3.972c-0.211,2.769 -3.161,7.364 -3.161,7.364Z" style="fill:url(#_Linear72);fill-rule:nonzero;"/><path id="Trazado_103676" d="M148.734,71.799c-0,0 3.876,-6.804 7.517,-6.886c3.641,-0.083 4.7,6.622 4.332,7.694c-0,0 -0.104,-2.654 -4.626,-2.785c-2.558,-0.139 -5.093,0.555 -7.223,1.977Z" style="fill:url(#_Linear73);fill-rule:nonzero;"/><path id="Trazado_103677" d="M168.836,70.498c0,0 1.995,-2.551 2.359,-3.478c0.283,1.27 0.481,2.557 0.593,3.854c0.112,1.296 0.288,0.747 -2.189,1.118l-0.763,-1.494Z" style="fill:url(#_Linear74);fill-rule:nonzero;"/><path id="Trazado_103678" d="M142.653,95.456l6.647,-5.535c-0,0 0.25,5.256 4.844,6.187c4.594,0.93 8.015,-0.571 9.271,-3.471c1.257,-2.901 1.488,-6.93 1.488,-6.93c0,-0 0.306,-0.469 1.774,-0.454c0.745,-0.05 1.485,0.159 2.094,0.591l-0,-2.499c-0,0 -3.045,-0.471 -4.364,0.602c0,0 0.453,8.058 -2.419,10.051c-2.871,1.994 -5.308,2.252 -8.385,0.692c-2.379,-1.205 -3.373,-5.044 -2.638,-7.264l-2.231,0.45l-6.37,7.482l0.289,0.098Z" style="fill:url(#_Linear75);fill-rule:nonzero;"/><g id="Grupo_54389"><path id="Trazado_103679" d="M163.881,83.408c-1.258,-1.67 -9.998,-0.092 -12.449,2.621c-2.452,2.713 0.691,8.084 4.58,8.852c4.548,0.896 6.682,-0.574 7.943,-2.495c1.33,-2.027 1.064,-7.466 -0.074,-8.978Zm-0.061,8.043c-1.022,2.826 -4.787,3.779 -7.954,2.937c-1.953,-0.519 -5.283,-3.549 -4.538,-6.963c0.745,-3.415 10.853,-4.886 12.085,-3.585c0.997,1.051 1.431,4.784 0.41,7.611l-0.003,-0Z" style="fill:url(#_Linear76);fill-rule:nonzero;"/><path id="Trazado_103680" d="M164.116,83.381c-1.257,-1.67 -9.997,-0.092 -12.449,2.621c-2.451,2.714 0.692,8.084 4.579,8.85c4.547,0.897 6.682,-0.573 7.942,-2.494c1.334,-2.026 1.066,-7.465 -0.072,-8.977Zm-0.061,8.043c-1.022,2.826 -4.786,3.779 -7.953,2.937c-1.953,-0.52 -5.284,-3.549 -4.539,-6.963c0.746,-3.415 10.853,-4.886 12.085,-3.585c0.997,1.051 1.432,4.784 0.41,7.613l-0.003,-0.002Z" style="fill:url(#_Linear77);fill-rule:nonzero;"/><path id="Trazado_103681" d="M174.911,82.524c-0.745,-1.227 -4.997,-0.759 -6.057,0c-0.688,0.49 -0.314,6.447 1.571,8.951c0.736,1.112 2.216,1.483 3.389,0.848c1.407,-0.993 1.841,-8.572 1.097,-9.799Zm-0.6,8.123c-0.583,1.615 -2.027,1.99 -3.444,0.678c-1.275,-1.18 -2.399,-6.957 -1.573,-8.21c0.69,-1.045 4.16,-1.362 5.154,-0.267c0.993,1.094 0.54,5.923 -0.137,7.799Z" style="fill:url(#_Linear78);fill-rule:nonzero;"/><path id="Trazado_103682" d="M175.174,82.524c-0.744,-1.227 -4.997,-0.759 -6.057,0c-0.687,0.49 -0.314,6.447 1.572,8.951c0.735,1.112 2.216,1.483 3.388,0.848c1.406,-0.993 1.841,-8.572 1.097,-9.799Zm-0.6,8.123c-0.583,1.615 -2.027,1.99 -3.444,0.678c-1.275,-1.18 -2.398,-6.957 -1.572,-8.21c0.69,-1.045 4.16,-1.362 5.153,-0.267c0.994,1.094 0.54,5.923 -0.137,7.799Z" style="fill:url(#_Linear79);fill-rule:nonzero;"/><path id="Trazado_103683" d="M164.54,84.226c1.261,-0.849 2.869,-1.001 4.266,-0.405c-0.024,-0.292 0.011,-0.587 0.105,-0.864c0.093,-0.278 -1.68,-0.499 -4.926,0.286c0.207,0.315 0.393,0.643 0.555,0.983Z" style="fill:url(#_Linear80);fill-rule:nonzero;"/><path id="Trazado_103684" d="M150.965,86.707l-2.231,0.72l-7.269,7.76c0.31,-0.027 0.621,0.033 0.899,0.172l6.512,-6.89c0.561,-0.301 1.195,-0.442 1.831,-0.407c-0.021,-0.465 0.067,-0.929 0.258,-1.355Z" style="fill:url(#_Linear81);fill-rule:nonzero;"/><path id="Trazado_103685" d="M147.878,88.341l0.066,1.114l-1.49,1.577l-0.071,-1.095l1.495,-1.596Z" style="fill:url(#_Linear82);fill-rule:nonzero;"/><path id="Trazado_103686" d="M164.557,83.112l0.382,0.398c0.725,-0.153 1.462,-0.24 2.203,-0.261c0.452,-0.041 0.908,0 1.346,0.123l0.283,-0.45c-1.402,-0.238 -2.839,-0.173 -4.214,0.19Z" style="fill:#d7e2ff;fill-rule:nonzero;"/><path id="Trazado_103687" d="M169.76,82.216l0.232,0.306c1.244,-0.58 2.658,-0.689 3.977,-0.306l-0.062,-0.349c-1.39,-0.205 -2.81,-0.085 -4.147,0.349Z" style="fill:#d7e2ff;fill-rule:nonzero;"/><path id="Trazado_103688" d="M160.271,83.15l0.118,-0.349c-0,-0 2.787,-0.293 3.544,0.482c0.758,0.774 0.971,2.424 0.971,2.424l-0.346,0.048c-0,0 -0.266,-1.749 -1.108,-2.264c-0.863,-0.526 -3.179,-0.341 -3.179,-0.341Z" style="fill:#d7e2ff;fill-rule:nonzero;"/><path id="Trazado_103689" d="M154.142,93.291c-0,0 1.468,1.83 4.816,1.55c1.931,-0.125 3.699,-1.139 4.782,-2.742c-1.129,1.569 -2.927,2.525 -4.858,2.585c-3.272,0.103 -4.74,-1.393 -4.74,-1.393Z" style="fill:#d7d9ff;fill-rule:nonzero;"/><path id="Trazado_103690" d="M171.13,91.325c-0,-0 0.91,1.018 1.934,0.879c0.662,-0.163 1.195,-0.657 1.407,-1.306c0.213,-0.648 -0.584,1.19 -1.67,1.128c-0.623,-0.023 -1.218,-0.272 -1.671,-0.701Z" style="fill:#d7d9ff;fill-rule:nonzero;"/><path id="Trazado_103691" d="M157.707,94.654c0.302,0.162 0.643,0.236 0.984,0.213c0.515,-0.015 1.021,-0.138 1.486,-0.36c-0.816,0.132 -1.644,0.181 -2.47,0.147Z" style="fill:#d7d9ff;fill-rule:nonzero;"/><path id="Trazado_103692" d="M171.901,91.91c0.47,0.162 0.98,0.162 1.45,0c0.304,-0.101 0.576,-0.282 0.785,-0.525c-0.026,0.44 -0.376,0.797 -0.816,0.832c-0.493,0.05 -0.99,-0.057 -1.419,-0.307Z" style="fill:#d7d9ff;fill-rule:nonzero;"/><path id="Trazado_103693" d="M155.147,94.112c0,-0 -0.122,-2.686 3.059,-4.561c1.864,-1.105 4.161,-1.21 6.118,-0.281c0.008,1.476 -0.572,2.896 -1.612,3.943c-1.713,1.603 -5.448,1.696 -7.565,0.899Z" style="fill:#d7d9ff;fill-rule:nonzero;"/><path id="Trazado_103694" d="M170.47,90.298c-0,0 2.141,-2.733 4.554,-3.591c-0,0 -0.051,3.698 -0.888,4.678c-0.836,0.979 -2.432,1.302 -3.666,-1.087Z" style="fill:#d7d9ff;fill-rule:nonzero;"/><path id="Trazado_103695" d="M151.658,88.258c0,-0 0.342,2.174 1.582,3.344l1.252,-0.299c-0,0 -0.972,-3.757 -0.993,-5.628c-0.932,0.582 -1.595,1.512 -1.841,2.583Z" style="fill:url(#_Linear83);fill-rule:nonzero;"/></g><path id="Trazado_103696" d="M173.396,115.247c-0.206,0.26 -0.462,0.476 -0.753,0.635c-3.728,1.907 -13.652,1.407 -19.03,-3.308c-1.94,-1.755 -3.562,-3.831 -4.795,-6.138c2.31,3.461 5.633,6.126 9.514,7.629c6.799,2.705 14.586,1.863 15.064,1.182Z" style="fill:url(#_Linear84);fill-rule:nonzero;"/></g></g></g><defs><linearGradient id="_Linear2" x1="0" y1="0" x2="1" y2="0" gradientUnits="userSpaceOnUse" gradientTransform="matrix(2.07166e-15,-33.8328,33.8328,2.07166e-15,236.883,137.853)"><stop offset="0" style="stop-color:#26c6da;stop-opacity:1"/><stop offset="1" style="stop-color:#71efff;stop-opacity:1"/></linearGradient><linearGradient id="_Linear3" x1="0" y1="0" x2="1" y2="0" gradientUnits="userSpaceOnUse" gradientTransform="matrix(2.25052e-15,-36.7537,36.7537,2.25052e-15,238.507,137.853)"><stop offset="0" style="stop-color:#16c9df;stop-opacity:1"/><stop offset="1" style="stop-color:#26c6da;stop-opacity:1"/></linearGradient><linearGradient id="_Linear4" x1="0" y1="0" x2="1" y2="0" gradientUnits="userSpaceOnUse" gradientTransform="matrix(4.39312e-15,-71.745,71.745,4.39312e-15,193.655,199.376)"><stop offset="0" style="stop-color:#744fd8;stop-opacity:1"/><stop offset="1" style="stop-color:#3996f7;stop-opacity:1"/></linearGradient><linearGradient id="_Linear5" x1="0" y1="0" x2="1" y2="0" gradientUnits="userSpaceOnUse" gradientTransform="matrix(4.38547e-15,-71.6202,71.6202,4.38547e-15,191.828,199.257)"><stop offset="0" style="stop-color:#9d68c2;stop-opacity:0.83"/><stop offset="1" style="stop-color:#ccedff;stop-opacity:0.83"/></linearGradient><linearGradient id="_Linear6" x1="0" y1="0" x2="1" y2="0" gradientUnits="userSpaceOnUse" gradientTransform="matrix(5.43567e-15,-88.7712,88.7712,5.43567e-15,155.721,298.987)"><stop offset="0" style="stop-color:#1c257b;stop-opacity:1"/><stop offset="1" style="stop-color:#482c83;stop-opacity:1"/></linearGradient><linearGradient id="_Linear7" x1="0" y1="0" x2="1" y2="0" gradientUnits="userSpaceOnUse" gradientTransform="matrix(2.00678e-15,-32.7732,32.7732,2.00678e-15,164.266,242.985)"><stop offset="0" style="stop-color:#8b8be0;stop-opacity:0.62"/><stop offset="1" style="stop-color:#a177b7;stop-opacity:0.62"/></linearGradient><linearGradient id="_Linear8" x1="0" y1="0" x2="1" y2="0" gradientUnits="userSpaceOnUse" gradientTransform="matrix(7.21905e-16,-11.7896,11.7896,7.21905e-16,207.084,196.854)"><stop offset="0" style="stop-color:#ffc2a9;stop-opacity:1"/><stop offset="0.02" style="stop-color:#ffc2a9;stop-opacity:1"/><stop offset="1" style="stop-color:#ff9595;stop-opacity:1"/></linearGradient><linearGradient id="_Linear9" x1="0" y1="0" x2="1" y2="0" gradientUnits="userSpaceOnUse" gradientTransform="matrix(6.86296e-16,-11.2081,11.2081,6.86296e-16,163.686,221.423)"><stop offset="0" style="stop-color:#d1c8f8;stop-opacity:1"/><stop offset="1" style="stop-color:#eee5f9;stop-opacity:1"/></linearGradient><linearGradient id="_Linear10" x1="0" y1="0" x2="1" y2="0" gradientUnits="userSpaceOnUse" gradientTransform="matrix(6.8637e-16,-11.2093,11.2093,6.8637e-16,163.519,221.423)"><stop offset="0" style="stop-color:#8b8be0;stop-opacity:0.62"/><stop offset="1" style="stop-color:#a177b7;stop-opacity:0.62"/></linearGradient><linearGradient id="_Linear11" x1="0" y1="0" x2="1" y2="0" gradientUnits="userSpaceOnUse" gradientTransform="matrix(2.29788e-16,-3.75272,3.75272,2.29788e-16,227.187,174.82)"><stop offset="0" style="stop-color:#ffa58b;stop-opacity:1"/><stop offset="0.02" style="stop-color:#ffa58b;stop-opacity:1"/><stop offset="1" style="stop-color:#ff898e;stop-opacity:1"/></linearGradient><linearGradient id="_Linear12" x1="0" y1="0" x2="1" y2="0" gradientUnits="userSpaceOnUse" gradientTransform="matrix(3.22616e-15,-52.6872,52.6872,3.22616e-15,122.381,178.014)"><stop offset="0" style="stop-color:#744fd8;stop-opacity:1"/><stop offset="1" style="stop-color:#3996f7;stop-opacity:1"/></linearGradient><linearGradient id="_Linear13" x1="0" y1="0" x2="1" y2="0" gradientUnits="userSpaceOnUse" gradientTransform="matrix(1.92461e-15,-31.4313,31.4313,1.92461e-15,158.33,140.165)"><stop offset="0" style="stop-color:#ffa58b;stop-opacity:1"/><stop offset="0.02" style="stop-color:#ffa58b;stop-opacity:1"/><stop offset="1" style="stop-color:#ff898e;stop-opacity:1"/></linearGradient><linearGradient id="_Linear14" x1="0" y1="0" x2="1" y2="0" gradientUnits="userSpaceOnUse" gradientTransform="matrix(9.01826e-16,-14.7279,14.7279,9.01826e-16,157.562,136.302)"><stop offset="0" style="stop-color:#d1c8f8;stop-opacity:1"/><stop offset="1" style="stop-color:#eee5f9;stop-opacity:1"/></linearGradient><linearGradient id="_Linear15" x1="0" y1="0" x2="1" y2="0" gradientUnits="userSpaceOnUse" gradientTransform="matrix(3.22639e-15,-52.6909,52.6909,3.22639e-15,122.487,178.014)"><stop offset="0" style="stop-color:#9d68c2;stop-opacity:0.83"/><stop offset="1" style="stop-color:#ccedff;stop-opacity:0.83"/></linearGradient><linearGradient id="_Linear16" x1="0" y1="0" x2="1" y2="0" gradientUnits="userSpaceOnUse" gradientTransform="matrix(3.0557e-15,-49.9034,49.9034,3.0557e-15,159.288,116.922)"><stop offset="0" style="stop-color:#ffc2a9;stop-opacity:1"/><stop offset="0.02" style="stop-color:#ffc2a9;stop-opacity:1"/><stop offset="1" style="stop-color:#ff9595;stop-opacity:1"/></linearGradient><linearGradient id="_Linear17" x1="0" y1="0" x2="1" y2="0" gradientUnits="userSpaceOnUse" gradientTransform="matrix(2.41433e-15,-39.429,39.429,2.41433e-15,158.205,106.246)"><stop offset="0" style="stop-color:#ffa58b;stop-opacity:1"/><stop offset="0.02" style="stop-color:#ffa58b;stop-opacity:1"/><stop offset="1" style="stop-color:#ff898e;stop-opacity:1"/></linearGradient><linearGradient id="_Linear18" x1="0" y1="0" x2="1" y2="0" gradientUnits="userSpaceOnUse" gradientTransform="matrix(-5.88149,-37.1755,37.1755,-5.88149,157.805,97.0529)"><stop offset="0" style="stop-color:#d49092;stop-opacity:1"/><stop offset="0.13" style="stop-color:#d18e91;stop-opacity:1"/><stop offset="0.2" style="stop-color:#c98891;stop-opacity:1"/><stop offset="0.27" style="stop-color:#ba7e90;stop-opacity:1"/><stop offset="0.32" style="stop-color:#a6708e;stop-opacity:1"/><stop offset="0.37" style="stop-color:#8c5e8c;stop-opacity:1"/><stop offset="0.42" style="stop-color:#6c488a;stop-opacity:1"/><stop offset="0.46" style="stop-color:#462e87;stop-opacity:1"/><stop offset="0.47" style="stop-color:#3e2987;stop-opacity:1"/><stop offset="0.61" style="stop-color:#352177;stop-opacity:1"/><stop offset="0.85" style="stop-color:#281661;stop-opacity:1"/><stop offset="1" style="stop-color:#24135a;stop-opacity:1"/></linearGradient><linearGradient id="_Linear19" x1="0" y1="0" x2="1" y2="0" gradientUnits="userSpaceOnUse" gradientTransform="matrix(5.37609e-15,-87.7982,87.7982,5.37609e-15,85.5753,177.038)"><stop offset="0" style="stop-color:#ffc2a9;stop-opacity:1"/><stop offset="0.02" style="stop-color:#ffc2a9;stop-opacity:1"/><stop offset="1" style="stop-color:#ff9595;stop-opacity:1"/></linearGradient><linearGradient id="_Linear20" x1="0" y1="0" x2="1" y2="0" gradientUnits="userSpaceOnUse" gradientTransform="matrix(6.09464e-15,-99.533,99.533,6.09464e-15,158.938,221.041)"><stop offset="0" style="stop-color:#744fd8;stop-opacity:1"/><stop offset="1" style="stop-color:#3996f7;stop-opacity:1"/></linearGradient><linearGradient id="_Linear21" x1="0" y1="0" x2="1" y2="0" gradientUnits="userSpaceOnUse" gradientTransform="matrix(2.93535e-15,-47.9379,47.9379,2.93535e-15,209.546,191.03)"><stop offset="0" style="stop-color:#1c257b;stop-opacity:1"/><stop offset="1" style="stop-color:#482c83;stop-opacity:1"/></linearGradient><linearGradient id="_Linear22" x1="0" y1="0" x2="1" y2="0" gradientUnits="userSpaceOnUse" gradientTransform="matrix(1.13059e-15,-18.4639,18.4639,1.13059e-15,226.016,180.563)"><stop offset="0" style="stop-color:#8b8be0;stop-opacity:0.62"/><stop offset="1" style="stop-color:#a177b7;stop-opacity:0.62"/></linearGradient><linearGradient id="_Linear23" x1="0" y1="0" x2="1" y2="0" gradientUnits="userSpaceOnUse" gradientTransform="matrix(6.00685e-16,-9.80993,9.80993,6.00685e-16,226.689,171.909)"><stop offset="0" style="stop-color:#ffc2a9;stop-opacity:1"/><stop offset="0.02" style="stop-color:#ffc2a9;stop-opacity:1"/><stop offset="1" style="stop-color:#ff9595;stop-opacity:1"/></linearGradient><linearGradient id="_Linear24" x1="0" y1="0" x2="1" y2="0" gradientUnits="userSpaceOnUse" gradientTransform="matrix(4.55045e-16,-7.43146,7.43146,4.55045e-16,231.4,163.238)"><stop offset="0" style="stop-color:#ffc2a9;stop-opacity:1"/><stop offset="0.02" style="stop-color:#ffc2a9;stop-opacity:1"/><stop offset="1" style="stop-color:#ff9595;stop-opacity:1"/></linearGradient><linearGradient id="_Linear25" x1="0" y1="0" x2="1" y2="0" gradientUnits="userSpaceOnUse" gradientTransform="matrix(1.98311e-16,-3.23866,3.23866,1.98311e-16,226.25,175.877)"><stop offset="0" style="stop-color:#ffc2a9;stop-opacity:1"/><stop offset="0.02" style="stop-color:#ffc2a9;stop-opacity:1"/><stop offset="1" style="stop-color:#ff9595;stop-opacity:1"/></linearGradient><linearGradient id="_Linear26" x1="0" y1="0" x2="1" y2="0" gradientUnits="userSpaceOnUse" gradientTransform="matrix(4.92694e-16,-8.04631,8.04631,4.92694e-16,155.156,85.5171)"><stop offset="0" style="stop-color:#1c257b;stop-opacity:1"/><stop offset="1" style="stop-color:#482c83;stop-opacity:1"/></linearGradient><linearGradient id="_Linear27" x1="0" y1="0" x2="1" y2="0" gradientUnits="userSpaceOnUse" gradientTransform="matrix(3.93474e-16,-6.42592,6.42592,3.93474e-16,158.104,91.6834)"><stop offset="0" style="stop-color:#d0c7f8;stop-opacity:1"/><stop offset="1" style="stop-color:#fff;stop-opacity:1"/></linearGradient><linearGradient id="_Linear28" x1="0" y1="0" x2="1" y2="0" gradientUnits="userSpaceOnUse" gradientTransform="matrix(3.94002e-16,-6.43454,6.43454,3.94002e-16,170.603,89.9237)"><stop offset="0" style="stop-color:#d0c7f8;stop-opacity:1"/><stop offset="1" style="stop-color:#fff;stop-opacity:1"/></linearGradient><linearGradient id="_Linear29" x1="0" y1="0" x2="1" y2="0" gradientUnits="userSpaceOnUse" gradientTransform="matrix(81.4034,0,0,81.4034,-3.42402,110.157)"><stop offset="0" style="stop-color:#cf6074;stop-opacity:1"/><stop offset="1" style="stop-color:#ff817f;stop-opacity:1"/></linearGradient><radialGradient id="_Radial30" cx="0" cy="0" r="1" gradientUnits="userSpaceOnUse" gradientTransform="matrix(2.52903,0,0,2.52903,157.386,89.3905)"><stop offset="0" style="stop-color:#cf95ff;stop-opacity:1"/><stop offset="1" style="stop-color:#8161ff;stop-opacity:1"/></radialGradient><linearGradient id="_Linear31" x1="0" y1="0" x2="1" y2="0" gradientUnits="userSpaceOnUse" gradientTransform="matrix(2.19225e-16,-3.58022,3.58022,2.19225e-16,157.305,90.1313)"><stop offset="0" style="stop-color:#8642a0;stop-opacity:1"/><stop offset="1" style="stop-color:#4e37b7;stop-opacity:1"/></linearGradient><radialGradient id="_Radial32" cx="0" cy="0" r="1" gradientUnits="userSpaceOnUse" gradientTransform="matrix(3.44105,0,0,1.69844,170.129,87.9888)"><stop offset="0" style="stop-color:#cf95ff;stop-opacity:1"/><stop offset="1" style="stop-color:#8161ff;stop-opacity:1"/></radialGradient><linearGradient id="_Linear33" x1="0" y1="0" x2="1" y2="0" gradientUnits="userSpaceOnUse" gradientTransform="matrix(76.4731,0,0,76.4731,-3.65283,101.788)"><stop offset="0" style="stop-color:#cf6074;stop-opacity:1"/><stop offset="1" style="stop-color:#ff817f;stop-opacity:1"/></linearGradient><linearGradient id="_Linear34" x1="0" y1="0" x2="1" y2="0" gradientUnits="userSpaceOnUse" gradientTransform="matrix(2.19412e-16,-3.58327,3.58327,2.19412e-16,169.681,88.7266)"><stop offset="0" style="stop-color:#8642a0;stop-opacity:1"/><stop offset="1" style="stop-color:#4e37b7;stop-opacity:1"/></linearGradient><linearGradient id="_Linear35" x1="0" y1="0" x2="1" y2="0" gradientUnits="userSpaceOnUse" gradientTransform="matrix(2.17667e-15,35.5476,-35.5476,2.17667e-15,170.425,39.4668)"><stop offset="0" style="stop-color:#1c257b;stop-opacity:1"/><stop offset="1" style="stop-color:#482c83;stop-opacity:1"/></linearGradient><linearGradient id="_Linear36" x1="0" y1="0" x2="1" y2="0" gradientUnits="userSpaceOnUse" gradientTransform="matrix(1.5219,-4.656,4.656,1.5219,167.148,97.5908)"><stop offset="0" style="stop-color:#ff8883;stop-opacity:1"/><stop offset="1" style="stop-color:#e8868d;stop-opacity:1"/></linearGradient><linearGradient id="_Linear37" x1="0" y1="0" x2="1" y2="0" gradientUnits="userSpaceOnUse" gradientTransform="matrix(2.8394e-16,-4.6371,4.6371,2.8394e-16,168.206,95.5291)"><stop offset="0" style="stop-color:#ff8883;stop-opacity:1"/><stop offset="1" style="stop-color:#ffb1a4;stop-opacity:1"/></linearGradient><linearGradient id="_Linear38" x1="0" y1="0" x2="1" y2="0" gradientUnits="userSpaceOnUse" gradientTransform="matrix(2.19003e-15,-35.7659,35.7659,2.19003e-15,77.1149,138.557)"><stop offset="0" style="stop-color:#1c257b;stop-opacity:1"/><stop offset="1" style="stop-color:#482c83;stop-opacity:1"/></linearGradient><linearGradient id="_Linear39" x1="0" y1="0" x2="1" y2="0" gradientUnits="userSpaceOnUse" gradientTransform="matrix(2.18972e-15,-35.7609,35.7609,2.18972e-15,191.869,138.67)"><stop offset="0" style="stop-color:#1c257b;stop-opacity:1"/><stop offset="1" style="stop-color:#482c83;stop-opacity:1"/></linearGradient><linearGradient id="_Linear40" x1="0" y1="0" x2="1" y2="0" gradientUnits="userSpaceOnUse" gradientTransform="matrix(9.61539e-17,-1.57031,1.57031,9.61539e-17,78.6308,139.568)"><stop offset="0" style="stop-color:#1c257b;stop-opacity:1"/><stop offset="1" style="stop-color:#482c83;stop-opacity:1"/></linearGradient><linearGradient id="_Linear41" x1="0" y1="0" x2="1" y2="0" gradientUnits="userSpaceOnUse" gradientTransform="matrix(8.23825e-16,-13.4541,13.4541,8.23825e-16,78.6424,135.205)"><stop offset="0" style="stop-color:#6a4fac;stop-opacity:1"/><stop offset="1" style="stop-color:#513689;stop-opacity:1"/></linearGradient><linearGradient id="_Linear42" x1="0" y1="0" x2="1" y2="0" gradientUnits="userSpaceOnUse" gradientTransform="matrix(1.06345e-15,-17.3675,17.3675,1.06345e-15,76.3463,103.211)"><stop offset="0" style="stop-color:#ffa58b;stop-opacity:1"/><stop offset="0.02" style="stop-color:#ffa58b;stop-opacity:1"/><stop offset="1" style="stop-color:#ff898e;stop-opacity:1"/></linearGradient><linearGradient id="_Linear43" x1="0" y1="0" x2="1" y2="0" gradientUnits="userSpaceOnUse" gradientTransform="matrix(3.3789e-16,-5.51817,5.51817,3.3789e-16,207.369,196.121)"><stop offset="0" style="stop-color:#1c257b;stop-opacity:1"/><stop offset="1" style="stop-color:#482c83;stop-opacity:1"/></linearGradient><linearGradient id="_Linear44" x1="0" y1="0" x2="1" y2="0" gradientUnits="userSpaceOnUse" gradientTransform="matrix(6.30088e-15,-102.901,102.901,6.30088e-15,213.19,299)"><stop offset="0" style="stop-color:#1c257b;stop-opacity:1"/><stop offset="1" style="stop-color:#482c83;stop-opacity:1"/></linearGradient><linearGradient id="_Linear45" x1="0" y1="0" x2="1" y2="0" gradientUnits="userSpaceOnUse" gradientTransform="matrix(8.64525e-16,-14.1188,14.1188,8.64525e-16,288.334,104.22)"><stop offset="0" style="stop-color:#ffac8b;stop-opacity:1"/><stop offset="0.02" style="stop-color:#ffac8b;stop-opacity:1"/><stop offset="1" style="stop-color:#ff9595;stop-opacity:1"/></linearGradient><linearGradient id="_Linear46" x1="0" y1="0" x2="1" y2="0" gradientUnits="userSpaceOnUse" gradientTransform="matrix(165.873,0,0,165.873,2.03563,116.627)"><stop offset="0" style="stop-color:#cf6074;stop-opacity:1"/><stop offset="1" style="stop-color:#ff817f;stop-opacity:1"/></linearGradient><linearGradient id="_Linear47" x1="0" y1="0" x2="1" y2="0" gradientUnits="userSpaceOnUse" gradientTransform="matrix(8.38605e-16,-13.6955,13.6955,8.38605e-16,79.5083,120.107)"><stop offset="0" style="stop-color:#ff997c;stop-opacity:1"/><stop offset="0.02" style="stop-color:#ff997c;stop-opacity:1"/><stop offset="1" style="stop-color:#ff898e;stop-opacity:1"/></linearGradient><linearGradient id="_Linear48" x1="0" y1="0" x2="1" y2="0" gradientUnits="userSpaceOnUse" gradientTransform="matrix(3.19777,0,0,3.19777,84.131,112.162)"><stop offset="0" style="stop-color:#cf6074;stop-opacity:1"/><stop offset="1" style="stop-color:#ff817f;stop-opacity:1"/></linearGradient><linearGradient id="_Linear49" x1="0" y1="0" x2="1" y2="0" gradientUnits="userSpaceOnUse" gradientTransform="matrix(3.46295e-16,-5.65542,5.65542,3.46295e-16,87.2248,130.208)"><stop offset="0" style="stop-color:#cf6074;stop-opacity:1"/><stop offset="1" style="stop-color:#ff817f;stop-opacity:1"/></linearGradient><linearGradient id="_Linear50" x1="0" y1="0" x2="1" y2="0" gradientUnits="userSpaceOnUse" gradientTransform="matrix(1.84363e-15,-30.1088,30.1088,1.84363e-15,110.459,176.446)"><stop offset="0" style="stop-color:#cf6074;stop-opacity:1"/><stop offset="1" style="stop-color:#ff817f;stop-opacity:1"/></linearGradient><linearGradient id="_Linear51" x1="0" y1="0" x2="1" y2="0" gradientUnits="userSpaceOnUse" gradientTransform="matrix(6.00677e-15,-98.098,98.098,6.00677e-15,158.236,221.04)"><stop offset="0" style="stop-color:#8b8be0;stop-opacity:0.62"/><stop offset="1" style="stop-color:#a177b7;stop-opacity:0.62"/></linearGradient><linearGradient id="_Linear52" x1="0" y1="0" x2="1" y2="0" gradientUnits="userSpaceOnUse" gradientTransform="matrix(2.65643e-16,-4.33827,4.33827,2.65643e-16,153.001,172.587)"><stop offset="0" style="stop-color:#8b8be0;stop-opacity:0.62"/><stop offset="1" style="stop-color:#a177b7;stop-opacity:0.62"/></linearGradient><linearGradient id="_Linear53" x1="0" y1="0" x2="1" y2="0" gradientUnits="userSpaceOnUse" gradientTransform="matrix(1.575e-15,-25.7216,25.7216,1.575e-15,182.676,150.638)"><stop offset="0" style="stop-color:#8b8be0;stop-opacity:0.62"/><stop offset="1" style="stop-color:#a177b7;stop-opacity:0.62"/></linearGradient><linearGradient id="_Linear54" x1="0" y1="0" x2="1" y2="0" gradientUnits="userSpaceOnUse" gradientTransform="matrix(1.46186e-15,-23.874,23.874,1.46186e-15,173.398,157.011)"><stop offset="0" style="stop-color:#8b8be0;stop-opacity:0.62"/><stop offset="1" style="stop-color:#a177b7;stop-opacity:0.62"/></linearGradient><linearGradient id="_Linear55" x1="0" y1="0" x2="1" y2="0" gradientUnits="userSpaceOnUse" gradientTransform="matrix(4.04224e-16,-6.60148,6.60148,4.04224e-16,165.717,202.722)"><stop offset="0" style="stop-color:#8b8be0;stop-opacity:0.62"/><stop offset="1" style="stop-color:#a177b7;stop-opacity:0.62"/></linearGradient><linearGradient id="_Linear56" x1="0" y1="0" x2="1" y2="0" gradientUnits="userSpaceOnUse" gradientTransform="matrix(7.78076e-16,-12.707,12.707,7.78076e-16,134.459,164.377)"><stop offset="0" style="stop-color:#9d68c2;stop-opacity:0.5"/><stop offset="1" style="stop-color:#90aeff;stop-opacity:0.5"/></linearGradient><linearGradient id="_Linear57" x1="0" y1="0" x2="1" y2="0" gradientUnits="userSpaceOnUse" gradientTransform="matrix(1.18693e-15,-19.3841,19.3841,1.18693e-15,172.634,242.985)"><stop offset="0" style="stop-color:#8b8be0;stop-opacity:0.62"/><stop offset="1" style="stop-color:#a177b7;stop-opacity:0.62"/></linearGradient><linearGradient id="_Linear58" x1="0" y1="0" x2="1" y2="0" gradientUnits="userSpaceOnUse" gradientTransform="matrix(4.08582e-15,-66.7265,66.7265,4.08582e-15,135.136,298.981)"><stop offset="0" style="stop-color:#8b8be0;stop-opacity:0.62"/><stop offset="1" style="stop-color:#a177b7;stop-opacity:0.62"/></linearGradient><linearGradient id="_Linear59" x1="0" y1="0" x2="1" y2="0" gradientUnits="userSpaceOnUse" gradientTransform="matrix(3.41833e-15,-55.8255,55.8255,3.41833e-15,176.461,298.987)"><stop offset="0" style="stop-color:#8b8be0;stop-opacity:0.62"/><stop offset="1" style="stop-color:#a177b7;stop-opacity:0.62"/></linearGradient><linearGradient id="_Linear60" x1="0" y1="0" x2="1" y2="0" gradientUnits="userSpaceOnUse" gradientTransform="matrix(4.23315e-16,-6.91327,6.91327,4.23315e-16,142.171,290.412)"><stop offset="0" style="stop-color:#8b8be0;stop-opacity:0.62"/><stop offset="1" style="stop-color:#a177b7;stop-opacity:0.62"/></linearGradient><linearGradient id="_Linear61" x1="0" y1="0" x2="1" y2="0" gradientUnits="userSpaceOnUse" gradientTransform="matrix(2.922e-16,-4.77199,4.77199,2.922e-16,182.321,286.838)"><stop offset="0" style="stop-color:#8b8be0;stop-opacity:0.62"/><stop offset="1" style="stop-color:#a177b7;stop-opacity:0.62"/></linearGradient><linearGradient id="_Linear62" x1="0" y1="0" x2="1" y2="0" gradientUnits="userSpaceOnUse" gradientTransform="matrix(2.86376e-15,-46.7687,46.7687,2.86376e-15,209.546,189.86)"><stop offset="0" style="stop-color:#8642a0;stop-opacity:1"/><stop offset="1" style="stop-color:#6456c0;stop-opacity:1"/></linearGradient><linearGradient id="_Linear63" x1="0" y1="0" x2="1" y2="0" gradientUnits="userSpaceOnUse" gradientTransform="matrix(6.17544,0,0,6.17544,222.91,168.711)"><stop offset="0" style="stop-color:#cf6074;stop-opacity:1"/><stop offset="1" style="stop-color:#ff817f;stop-opacity:1"/></linearGradient><linearGradient id="_Linear64" x1="0" y1="0" x2="1" y2="0" gradientUnits="userSpaceOnUse" gradientTransform="matrix(5.17307e-15,84.4826,-84.4826,5.17307e-15,143.948,42.9289)"><stop offset="0" style="stop-color:#9d68c2;stop-opacity:0.83"/><stop offset="1" style="stop-color:#ccedff;stop-opacity:0.83"/></linearGradient><linearGradient id="_Linear65" x1="0" y1="0" x2="1" y2="0" gradientUnits="userSpaceOnUse" gradientTransform="matrix(6.1456e-16,-10.0365,10.0365,6.1456e-16,165.11,208.755)"><stop offset="0" style="stop-color:#b9acf4;stop-opacity:1"/><stop offset="1" style="stop-color:#e1d1f5;stop-opacity:1"/></linearGradient><linearGradient id="_Linear66" x1="0" y1="0" x2="1" y2="0" gradientUnits="userSpaceOnUse" gradientTransform="matrix(4.61601e-16,-7.53852,7.53852,4.61601e-16,172.392,214.817)"><stop offset="0" style="stop-color:#b9acf4;stop-opacity:1"/><stop offset="1" style="stop-color:#e1d1f5;stop-opacity:1"/></linearGradient><linearGradient id="_Linear67" x1="0" y1="0" x2="1" y2="0" gradientUnits="userSpaceOnUse" gradientTransform="matrix(1.68539e-15,-27.5245,27.5245,1.68539e-15,200.578,191.028)"><stop offset="0" style="stop-color:#b9acf4;stop-opacity:0.5"/><stop offset="1" style="stop-color:#e1d1f5;stop-opacity:0.5"/></linearGradient><linearGradient id="_Linear68" x1="0" y1="0" x2="1" y2="0" gradientUnits="userSpaceOnUse" gradientTransform="matrix(1.70244e-15,-27.803,27.803,1.70244e-15,141.303,266.815)"><stop offset="0" style="stop-color:#8b8be0;stop-opacity:0.62"/><stop offset="1" style="stop-color:#a177b7;stop-opacity:0.62"/></linearGradient><linearGradient id="_Linear69" x1="0" y1="0" x2="1" y2="0" gradientUnits="userSpaceOnUse" gradientTransform="matrix(2.05967e-15,-33.637,33.637,2.05967e-15,171.171,268.097)"><stop offset="0" style="stop-color:#8b8be0;stop-opacity:0.62"/><stop offset="1" style="stop-color:#a177b7;stop-opacity:0.62"/></linearGradient><linearGradient id="_Linear70" x1="0" y1="0" x2="1" y2="0" gradientUnits="userSpaceOnUse" gradientTransform="matrix(5.8897e-16,-9.61862,9.61862,5.8897e-16,168.688,134.068)"><stop offset="0" style="stop-color:#3d2cb0;stop-opacity:1"/><stop offset="1" style="stop-color:#0355c7;stop-opacity:1"/></linearGradient><linearGradient id="_Linear71" x1="0" y1="0" x2="1" y2="0" gradientUnits="userSpaceOnUse" gradientTransform="matrix(-1.99043,-12.561,12.561,-1.99043,143.728,85.7334)"><stop offset="0" style="stop-color:#5e3187;stop-opacity:1"/><stop offset="0.38" style="stop-color:#412271;stop-opacity:1"/><stop offset="0.76" style="stop-color:#2b1760;stop-opacity:1"/><stop offset="1" style="stop-color:#24135a;stop-opacity:1"/></linearGradient><linearGradient id="_Linear72" x1="0" y1="0" x2="1" y2="0" gradientUnits="userSpaceOnUse" gradientTransform="matrix(6.94125e-16,-11.3359,11.3359,6.94125e-16,162.934,72.607)"><stop offset="0" style="stop-color:#8b8be0;stop-opacity:0.84"/><stop offset="1" style="stop-color:#a177b7;stop-opacity:0.84"/></linearGradient><linearGradient id="_Linear73" x1="0" y1="0" x2="1" y2="0" gradientUnits="userSpaceOnUse" gradientTransform="matrix(4.712e-16,-7.69528,7.69528,4.712e-16,154.693,72.607)"><stop offset="0" style="stop-color:#8b8be0;stop-opacity:0.84"/><stop offset="1" style="stop-color:#a177b7;stop-opacity:0.84"/></linearGradient><linearGradient id="_Linear74" x1="0" y1="0" x2="1" y2="0" gradientUnits="userSpaceOnUse" gradientTransform="matrix(3.0445e-16,-4.97205,4.97205,3.0445e-16,170.339,71.9916)"><stop offset="0" style="stop-color:#8b8be0;stop-opacity:0.84"/><stop offset="1" style="stop-color:#a177b7;stop-opacity:0.84"/></linearGradient><linearGradient id="_Linear75" x1="0" y1="0" x2="1" y2="0" gradientUnits="userSpaceOnUse" gradientTransform="matrix(8.04614e-16,-13.1403,13.1403,8.04614e-16,155.567,96.3826)"><stop offset="0" style="stop-color:#f2c7cc;stop-opacity:0.62"/><stop offset="1" style="stop-color:#a177b7;stop-opacity:0.62"/></linearGradient><linearGradient id="_Linear76" x1="0" y1="0" x2="1" y2="0" gradientUnits="userSpaceOnUse" gradientTransform="matrix(1.5424,-12.7258,12.7258,1.5424,156.921,95.0384)"><stop offset="0" style="stop-color:#1c257b;stop-opacity:1"/><stop offset="1" style="stop-color:#482c83;stop-opacity:1"/></linearGradient><linearGradient id="_Linear77" x1="0" y1="0" x2="1" y2="0" gradientUnits="userSpaceOnUse" gradientTransform="matrix(1.52814,-12.7242,12.7242,1.52814,157.157,95.01)"><stop offset="0" style="stop-color:#1c257b;stop-opacity:1"/><stop offset="1" style="stop-color:#65459c;stop-opacity:1"/></linearGradient><linearGradient id="_Linear78" x1="0" y1="0" x2="1" y2="0" gradientUnits="userSpaceOnUse" gradientTransform="matrix(1.29339,-10.7546,10.7546,1.29339,171.033,92.4587)"><stop offset="0" style="stop-color:#1c257b;stop-opacity:1"/><stop offset="1" style="stop-color:#482c83;stop-opacity:1"/></linearGradient><linearGradient id="_Linear79" x1="0" y1="0" x2="1" y2="0" gradientUnits="userSpaceOnUse" gradientTransform="matrix(1.29329,-10.7546,10.7546,1.29329,171.296,92.4587)"><stop offset="0" style="stop-color:#1c257b;stop-opacity:1"/><stop offset="1" style="stop-color:#65459c;stop-opacity:1"/></linearGradient><linearGradient id="_Linear80" x1="0" y1="0" x2="1" y2="0" gradientUnits="userSpaceOnUse" gradientTransform="matrix(0.216879,-1.9286,1.9286,0.216879,166.287,84.4512)"><stop offset="0" style="stop-color:#1c257b;stop-opacity:1"/><stop offset="1" style="stop-color:#65459c;stop-opacity:1"/></linearGradient><linearGradient id="_Linear81" x1="0" y1="0" x2="1" y2="0" gradientUnits="userSpaceOnUse" gradientTransform="matrix(1.14942,-9.54314,9.54314,1.14942,145.635,95.7484)"><stop offset="0" style="stop-color:#1c257b;stop-opacity:1"/><stop offset="1" style="stop-color:#65459c;stop-opacity:1"/></linearGradient><linearGradient id="_Linear82" x1="0" y1="0" x2="1" y2="0" gradientUnits="userSpaceOnUse" gradientTransform="matrix(1.64831e-16,-2.69189,2.69189,1.64831e-16,147.164,91.0324)"><stop offset="0" style="stop-color:#8642a0;stop-opacity:1"/><stop offset="1" style="stop-color:#6456c0;stop-opacity:1"/></linearGradient><linearGradient id="_Linear83" x1="0" y1="0" x2="1" y2="0" gradientUnits="userSpaceOnUse" gradientTransform="matrix(3.62927e-16,-5.92706,5.92706,3.62927e-16,153.075,91.602)"><stop offset="0" style="stop-color:#000;stop-opacity:1"/><stop offset="1" style="stop-color:#e1d1f5;stop-opacity:1"/></linearGradient><linearGradient id="_Linear84" x1="0" y1="0" x2="1" y2="0" gradientUnits="userSpaceOnUse" gradientTransform="matrix(6.42088e-16,-10.4861,10.4861,6.42088e-16,161.107,116.922)"><stop offset="0" style="stop-color:#ffa58b;stop-opacity:1"/><stop offset="0.02" style="stop-color:#ffa58b;stop-opacity:1"/><stop offset="1" style="stop-color:#ff898e;stop-opacity:1"/></linearGradient></defs></svg>