<svg xmlns="http://www.w3.org/2000/svg" width="77" height="78" viewBox="0 0 77 78">
  <g id="Grupo_54430" data-name="Grupo 54430" transform="translate(-734 -2025)">
    <ellipse id="Elipse_3991" data-name="Elipse 3991" cx="38.5" cy="39" rx="38.5" ry="39" transform="translate(734 2025)" fill="#26c6da"/>
    <g id="feliz" transform="translate(749.333 2040.333)">
      <g id="Grupo_53856" data-name="Grupo 53856" transform="translate(0 0)">
        <g id="Grupo_53855" data-name="Grupo 53855">
          <path id="Trazado_101466" data-name="Trazado 101466" d="M39.832,6.834a23.333,23.333,0,1,0-33,33,23.333,23.333,0,1,0,33-33Zm-16.5,37.055A20.555,20.555,0,1,1,43.889,23.333,20.579,20.579,0,0,1,23.333,43.889Z" transform="translate(0 0)" fill="#fff"/>
        </g>
      </g>
      <g id="Grupo_53858" data-name="Grupo 53858" transform="translate(9.629 15.466)">
        <g id="Grupo_53857" data-name="Grupo 53857">
          <path id="Trazado_101467" data-name="Trazado 101467" d="M114.306,171.386a5.84,5.84,0,0,0-8.249,0,1.389,1.389,0,0,0,1.964,1.964,3.059,3.059,0,0,1,4.321,0,1.389,1.389,0,0,0,1.964-1.964Z" transform="translate(-105.65 -169.681)" fill="#fff"/>
        </g>
      </g>
      <g id="Grupo_53860" data-name="Grupo 53860" transform="translate(27.974 15.466)">
        <g id="Grupo_53859" data-name="Grupo 53859">
          <path id="Trazado_101468" data-name="Trazado 101468" d="M315.568,171.386a5.84,5.84,0,0,0-8.25,0,1.389,1.389,0,1,0,1.964,1.964,3.059,3.059,0,0,1,4.321,0,1.389,1.389,0,0,0,1.964-1.964Z" transform="translate(-306.912 -169.681)" fill="#fff"/>
        </g>
      </g>
      <g id="Grupo_53862" data-name="Grupo 53862" transform="translate(9.63 24.352)">
        <g id="Grupo_53861" data-name="Grupo 53861">
          <path id="Trazado_101469" data-name="Trazado 101469" d="M131.669,267.175H107.04a1.389,1.389,0,0,0-1.389,1.389,13.7,13.7,0,0,0,27.407,0A1.389,1.389,0,0,0,131.669,267.175ZM119.355,279.49a10.942,10.942,0,0,1-10.838-9.537h21.676A10.942,10.942,0,0,1,119.355,279.49Z" transform="translate(-105.651 -267.175)" fill="#fff"/>
        </g>
      </g>
    </g>
  </g>
</svg>
