<svg xmlns="http://www.w3.org/2000/svg" xmlns:xlink="http://www.w3.org/1999/xlink" width="84" height="84" viewBox="0 0 84 84">
  <defs>
    <clipPath id="clip-path">
      <rect id="Rectángulo_5409" data-name="Rectángulo 5409" width="84" height="84" transform="translate(804 13764)" fill="#fff" stroke="#707070" stroke-width="1"/>
    </clipPath>
  </defs>
  <g id="Enmascarar_grupo_25" data-name="Enmascarar grupo 25" transform="translate(-804 -13764)" clip-path="url(#clip-path)">
    <g id="t-shirt" transform="translate(804 13764)">
      <g id="Grupo_53833" data-name="Grupo 53833">
        <path id="Trazado_101378" data-name="Trazado 101378" d="M71.948,38.554a2.461,2.461,0,0,1-1.448-.471L54.453,26.4a2.462,2.462,0,0,1-.58-3.384l9.59-13.957c.376-.548,4.127-.123,4.127-.123l15.4,11.2a2.462,2.462,0,0,1,.58,3.384l-9.59,13.957a2.46,2.46,0,0,1-2.029,1.067Z" fill="#d01273"/>
      </g>
      <g id="Grupo_53834" data-name="Grupo 53834">
        <path id="Trazado_101379" data-name="Trazado 101379" d="M12.052,38.554a2.462,2.462,0,0,1-2.029-1.067L.433,23.53a2.462,2.462,0,0,1,.58-3.384L16.391,8.955a11.535,11.535,0,0,0,1.2-.431c.52-.223,1.027-.544,1.331-.492a2.462,2.462,0,0,1,1.613,1.032l9.59,13.957a2.461,2.461,0,0,1-.58,3.384L13.5,38.083a2.462,2.462,0,0,1-1.448.471Z" fill="#ff4a4a"/>
      </g>
      <path id="Trazado_101380" data-name="Trazado 101380" d="M28.37,3.56l-11.979,5.4V69.74A2.462,2.462,0,0,0,18.852,72.2H65.128A2.462,2.462,0,0,0,67.59,69.74V8.941L55.611,3.558Z" fill="#ffd321"/>
      <path id="Trazado_101381" data-name="Trazado 101381" d="M18.852,81.138H65.128a2.462,2.462,0,0,0,2.462-2.462V68.83h-51.2v9.846a2.461,2.461,0,0,0,2.462,2.462Z" fill="#ff4a4a" fill-rule="evenodd"/>
      <path id="Trazado_101382" data-name="Trazado 101382" d="M55.611,3.558H41.99V72.2H65.128A2.462,2.462,0,0,0,67.59,69.74V8.941Z" fill="#ff9d21"/>
      <path id="Trazado_101383" data-name="Trazado 101383" d="M41.99,14.938A11.192,11.192,0,0,0,53.149,3.779V2.862H30.831v.917A11.192,11.192,0,0,0,41.99,14.938Z" fill="#ff9d21" fill-rule="evenodd"/>
      <g id="Grupo_53835" data-name="Grupo 53835">
        <path id="Trazado_101384" data-name="Trazado 101384" d="M36.717,50.526a2.462,2.462,0,0,1-2.456-2.63l.32-4.684-3.012-3.6a2.462,2.462,0,0,1,1.289-3.967L37.411,34.5,39.9,30.526a2.461,2.461,0,0,1,4.171,0L46.569,34.5l4.553,1.142a2.462,2.462,0,0,1,1.289,3.967l-3.012,3.6.32,4.684a2.462,2.462,0,0,1-3.375,2.452L41.99,48.6l-4.355,1.752a2.458,2.458,0,0,1-.918.178Z" fill="#ff4a4a"/>
      </g>
      <path id="Trazado_101385" data-name="Trazado 101385" d="M52.865,37.272a2.461,2.461,0,0,0-1.742-1.627L46.569,34.5l-2.494-3.977a2.461,2.461,0,0,0-2.086-1.154V48.6l4.355,1.752A2.462,2.462,0,0,0,49.72,47.9l-.32-4.684,3.012-3.6a2.461,2.461,0,0,0,.453-2.34Z" fill="#d01273"/>
      <path id="Trazado_101386" data-name="Trazado 101386" d="M41.99,2.862V14.938A11.192,11.192,0,0,0,53.149,3.779V2.862Z" fill="#ff7d43" fill-rule="evenodd"/>
      <path id="Trazado_101387" data-name="Trazado 101387" d="M41.99,68.83V81.138H65.128a2.462,2.462,0,0,0,2.462-2.462V68.83Z" fill="#d01273" fill-rule="evenodd"/>
      <path id="Trazado_101388" data-name="Trazado 101388" d="M54.061,2.862H50.688v.917a8.7,8.7,0,0,1-17.395,0V2.862H29.919l-1.549.7v.219a13.62,13.62,0,0,0,27.241,0V3.558Z" fill="#ff4a4a"/>
      <path id="Trazado_101389" data-name="Trazado 101389" d="M54.061,2.862H50.688v.917a8.707,8.707,0,0,1-8.7,8.7V17.4a13.636,13.636,0,0,0,13.62-13.62V3.558Z" fill="#d01273"/>
    </g>
  </g>
</svg>
