<svg xmlns="http://www.w3.org/2000/svg" width="280.706" height="189.955" viewBox="0 0 280.706 189.955">
  <g id="Grupo_54156" data-name="Grupo 54156" transform="translate(0)">
    <g id="Grupo_54149" data-name="Grupo 54149" transform="translate(0 1.363)">
      <path id="Trazado_101873" data-name="Trazado 101873" d="M253.251,138.288c-20.8,8.495-44.166-1.807-74.293-15.086-15.545-6.854-33.166-14.621-53.545-21.321C57.8,79.658,25.9,154.859,25.586,155.619l-3.131-1.29c.326-.791,33.461-78.853,104.017-55.666,20.533,6.752,38.233,14.554,53.853,21.438,37.439,16.5,62.169,27.4,85.051,6.272C277.842,114.858,279.9,98.645,270.88,83c-8.815-15.293-25.351-24.292-37.645-20.487-12,3.719-19.258,11.623-19.849,21.684-.591,10.077,5.693,20.086,15.287,24.341,6.447,2.863,13.208-.409,15.484-5.256,2.241-4.781-.323-9.572-6.869-12.811l1.5-3.036c9.908,4.9,10.733,12.38,8.433,17.288-2.953,6.3-11.666,10.576-19.923,6.912C216.443,106.819,209.33,95.452,210,84c.68-11.549,8.79-20.554,22.23-24.72,13.972-4.323,31.848,5.148,41.583,22.032,9.865,17.112,7.568,34.893-6.145,47.553A47.944,47.944,0,0,1,253.251,138.288Z" transform="translate(-22.455 -58.234)"/>
    </g>
    <g id="Grupo_54150" data-name="Grupo 54150" transform="translate(0.175 52.113)">
      <path id="Trazado_101874" data-name="Trazado 101874" d="M120.082,176.982c-.108.046-.212.089-.32.132a44.617,44.617,0,0,1-34.36-.428,36.253,36.253,0,0,1-19.031-47.615,29.385,29.385,0,0,1,38.532-15.4,23.845,23.845,0,0,1,12.5,31.272,19.414,19.414,0,0,1-25.465,10.182l1.333-3.113a15.915,15.915,0,0,0,12.251.151l.114-.046a15.883,15.883,0,0,0,8.652-8.507,20.452,20.452,0,0,0-10.721-26.826,25.985,25.985,0,0,0-34.086,13.627A32.867,32.867,0,0,0,86.734,173.57a41.247,41.247,0,0,0,31.771.4l.3-.12a41.22,41.22,0,0,0,22.445-22.063,52.311,52.311,0,0,0-27.457-68.7c-32.473-13.926-73.668,3.5-88.164,37.294l-3.113-1.333C37.986,82.975,80.4,65.084,115.122,79.976a55.69,55.69,0,0,1,29.237,73.141A44.576,44.576,0,0,1,120.082,176.982Z" transform="translate(-22.512 -74.717)"/>
    </g>
    <g id="Grupo_54151" data-name="Grupo 54151" transform="translate(62.975 51.686)">
      <path id="Trazado_101875" data-name="Trazado 101875" d="M168.647,188.338a27.863,27.863,0,0,1-17.276,1.1c-9.942-2.506-27.895-12.583-36.429-51.906-14.948-68.92-69.1-59.477-71.4-59.04l-.634-3.328c.594-.114,59.681-10.56,75.346,61.648,8.144,37.544,24.76,47.03,33.945,49.342,8.689,2.189,17.685-.351,22.919-6.469a14.124,14.124,0,0,0,2.58-15.139c-2.131-5-6.136-7.746-10.985-7.525a10.493,10.493,0,0,0-9.662,6.924c-1.309,4.058,1.207,6.6,3.762,7.549,2.457.908,5.483.566,6.493-1.857l3.125,1.312c-1.841,4.384-6.823,5.191-10.795,3.719-4.132-1.53-7.713-5.862-5.807-11.764a13.883,13.883,0,0,1,12.725-9.267c6.25-.283,11.58,3.3,14.258,9.578,2.716,6.37,1.579,13.174-3.122,18.67A23.54,23.54,0,0,1,168.647,188.338Z" transform="translate(-42.909 -74.578)"/>
    </g>
    <g id="Grupo_54152" data-name="Grupo 54152" transform="translate(18.224 43.331)">
      <path id="Trazado_101876" data-name="Trazado 101876" d="M224.668,159.2a22.034,22.034,0,0,1-2.679.9c-17.023,4.5-34.77-12.673-50.066-29.126-12.783-13.753-52.741-50.481-83.69-55.241-28.991-4.461-57.15,24.126-57.43,24.415l-2.429-2.361c1.195-1.235,29.646-30.127,60.374-25.4,31.9,4.9,72.649,42.291,85.657,56.282,14.628,15.733,31.506,32.183,46.719,28.156a15.806,15.806,0,0,0,12.14-15.053c.049-4.449-2.087-9.834-8.227-11.6-4.2-1.21-9.28-.129-12.082,2.568a6.912,6.912,0,0,0-1.884,7c.764,3.067,2.525,4.969,4.963,5.354a5.725,5.725,0,0,0,5.6-2.318c.853-1.367.68-2.974-.5-4.646l2.771-1.949c1.964,2.793,2.18,5.85.6,8.387a9.088,9.088,0,0,1-9.006,3.87c-3.809-.6-6.623-3.476-7.719-7.882A10.266,10.266,0,0,1,210.6,130.3c3.676-3.541,9.994-4.932,15.37-3.384,6.666,1.921,10.758,7.629,10.678,14.9A19.08,19.08,0,0,1,224.668,159.2Z" transform="translate(-28.374 -71.864)"/>
    </g>
    <g id="Grupo_54153" data-name="Grupo 54153" transform="translate(247.112 0)">
      <path id="Trazado_101877" data-name="Trazado 101877" d="M128.377,84.541A10.924,10.924,0,0,1,114.8,79.882a9.06,9.06,0,0,1,3.334-12.374l1.687,2.934a5.672,5.672,0,0,0-2.084,7.749,7.524,7.524,0,0,0,10.265,2.765,9.835,9.835,0,0,0,3.612-13.408,12.7,12.7,0,0,0-17.34-4.671,16.289,16.289,0,0,0-5.995,22.251l-2.937,1.69a19.682,19.682,0,0,1,7.245-26.878,16.088,16.088,0,0,1,21.965,5.921,13.228,13.228,0,0,1-4.862,18.033A10.64,10.64,0,0,1,128.377,84.541Z" transform="translate(-102.715 -57.791)" fill="#1b2a47"/>
    </g>
    <g id="Grupo_54154" data-name="Grupo 54154" transform="translate(94.002 147.981)">
      <path id="Trazado_101878" data-name="Trazado 101878" d="M72.192,140.315a16.063,16.063,0,0,1-5.573,1.182A13.21,13.21,0,0,1,52.992,128.72,10.9,10.9,0,0,1,63.54,117.473a9.055,9.055,0,0,1,9.347,8.769l-3.387.108a5.669,5.669,0,0,0-5.85-5.49,7.515,7.515,0,0,0-7.272,7.753,9.813,9.813,0,0,0,10.129,9.5,12.694,12.694,0,0,0,12.282-13.1,16.3,16.3,0,0,0-16.808-15.764l-.111-3.384A19.678,19.678,0,0,1,82.176,124.9a16.115,16.115,0,0,1-9.985,15.41Z" transform="translate(-52.986 -105.854)"/>
    </g>
    <g id="Grupo_54155" data-name="Grupo 54155" transform="translate(63.088 154.234)">
      <path id="Trazado_101879" data-name="Trazado 101879" d="M63.969,142.632a13.179,13.179,0,0,1-5.142.973,16.084,16.084,0,0,1-15.881-16.287,19.675,19.675,0,0,1,19.93-19.431l-.043,3.387a16.289,16.289,0,0,0-16.5,16.087,12.7,12.7,0,0,0,12.537,12.857,9.833,9.833,0,0,0,9.942-9.692,7.512,7.512,0,0,0-7.42-7.611,5.666,5.666,0,0,0-5.748,5.6l-3.387-.043a9.057,9.057,0,0,1,9.175-8.944A10.9,10.9,0,0,1,72.2,130.569,13.231,13.231,0,0,1,63.969,142.632Z" transform="translate(-42.946 -107.885)"/>
    </g>
  </g>
</svg>
