<svg xmlns="http://www.w3.org/2000/svg" width="84" height="84" viewBox="0 0 84 84">
  <g id="Grupo_53547" data-name="Grupo 53547" transform="translate(1120.294 -577.749)">
    <rect id="Rectángulo_5256" data-name="Rectángulo 5256" width="84" height="84" rx="5" transform="translate(-1120.294 577.749)" fill="#26c6da"/>
    <g id="Grupo_53546" data-name="Grupo 53546" transform="translate(-1096.992 590.783)">
      <path id="Trazado_100831" data-name="Trazado 100831" d="M-1063.025,668.327c-.049,0-.1,0-.146,0a2.78,2.78,0,0,1-2.632-2.92l2.823-54.541a2.779,2.779,0,0,1,1.668-2.406,2.78,2.78,0,0,1,2.9.422l42.264,35.545a2.779,2.779,0,0,1,.338,3.917,2.779,2.779,0,0,1-3.917.338l-37.988-31.948-2.534,48.961A2.78,2.78,0,0,1-1063.025,668.327Z" transform="translate(1065.808 -608.226)" fill="#fff"/>
    </g>
  </g>
</svg>
