<svg xmlns="http://www.w3.org/2000/svg" width="84" height="84" viewBox="0 0 84 84">
  <g id="Grupo_53572" data-name="Grupo 53572" transform="translate(1171.095 -768.072)">
    <rect id="Rectángulo_5263" data-name="Rectángulo 5263" width="84" height="84" rx="5" transform="translate(-1171.095 768.072)" fill="#26c6da"/>
    <g id="Grupo_53571" data-name="Grupo 53571" transform="translate(-1164.063 785.519)">
      <g id="Grupo_53566" data-name="Grupo 53566">
        <path id="Trazado_100839" data-name="Trazado 100839" d="M-1086.854,857.973h-65.66a2.138,2.138,0,0,1-2.138-2.138V811a2.138,2.138,0,0,1,2.138-2.138h65.66a2.138,2.138,0,0,1,2.138,2.138v44.83A2.138,2.138,0,0,1-1086.854,857.973Zm-63.522-4.277h61.383V813.143h-61.383Z" transform="translate(1154.653 -808.866)" fill="#fff"/>
      </g>
      <g id="Grupo_53567" data-name="Grupo 53567" transform="translate(0 29.887)">
        <path id="Trazado_100840" data-name="Trazado 100840" d="M-1086.854,883.026h-65.66a2.138,2.138,0,0,1-2.138-2.138,2.138,2.138,0,0,1,2.138-2.138h65.66a2.138,2.138,0,0,1,2.138,2.138A2.138,2.138,0,0,1-1086.854,883.026Z" transform="translate(1154.653 -878.749)" fill="#fff"/>
      </g>
      <g id="Grupo_53568" data-name="Grupo 53568" transform="translate(0 14.944)">
        <path id="Trazado_100841" data-name="Trazado 100841" d="M-1086.854,848.085h-65.66a2.138,2.138,0,0,1-2.138-2.138,2.138,2.138,0,0,1,2.138-2.138h65.66a2.138,2.138,0,0,1,2.138,2.138A2.139,2.139,0,0,1-1086.854,848.085Z" transform="translate(1154.653 -843.808)" fill="#fff"/>
      </g>
      <g id="Grupo_53569" data-name="Grupo 53569" transform="translate(43.774)">
        <path id="Trazado_100842" data-name="Trazado 100842" d="M-1050.162,857.973a2.138,2.138,0,0,1-2.138-2.138V811a2.138,2.138,0,0,1,2.138-2.138,2.138,2.138,0,0,1,2.138,2.138v44.83A2.138,2.138,0,0,1-1050.162,857.973Z" transform="translate(1052.3 -808.866)" fill="#fff"/>
      </g>
      <g id="Grupo_53570" data-name="Grupo 53570" transform="translate(21.887)">
        <path id="Trazado_100843" data-name="Trazado 100843" d="M-1101.339,857.973a2.138,2.138,0,0,1-2.138-2.138V811a2.138,2.138,0,0,1,2.138-2.138A2.138,2.138,0,0,1-1099.2,811v44.83A2.138,2.138,0,0,1-1101.339,857.973Z" transform="translate(1103.477 -808.866)" fill="#fff"/>
      </g>
    </g>
  </g>
</svg>
