<svg id="Grupo_53377" data-name="Grupo 53377" xmlns="http://www.w3.org/2000/svg" width="260.521" height="207.867" viewBox="0 0 260.521 207.867">
  <path id="Trazado_99465" data-name="Trazado 99465" d="M595.494,272.079a86.565,86.565,0,0,1,63.432,27.554l-37.139,4.89,42.176,5.552,3.648.481a86.492,86.492,0,0,1,5.194,8.816l-19.113,2.516,21.634,2.848a87.168,87.168,0,0,1,5.481,50.254l-18.977,2.163L619.65,381.96l42.179,4.808,15.284,1.744a86.827,86.827,0,0,1-134.1,39.522c22.479-32.39,6.084-91.26-9.1-130.335a86.535,86.535,0,0,1,61.574-25.62" transform="translate(-421.781 -258.072)" fill="#c6664e" fill-rule="evenodd"/>
  <path id="Trazado_99466" data-name="Trazado 99466" d="M125,861.052c3.861-3.109,7.79-6.192,11.653-9.2q5.718-4.447,11.227-8.712c15.678.562,30.292,1.091,43.959,1.576q-14.424-4.059-30.152-8.521c.9-1.8,1.776-3.586,2.7-5.362q25.72.281,47.628.524c-10.87-1.908-22.31-3.917-34.462-6.048q12.4-4.586,23.805-8.824c16.981,1.787,32.59,3.421,46.991,4.924q20.887,2.181,38.7,4.038c10.515,1.1,20.439,2.139,29.676,3.1q13.534,1.4,25.46,2.646,1.245,2.526,2.441,5.017c.789,1.651,1.61,3.307,2.415,4.952-1.99.067-4.026.14-6.134.207,2.533,1.85,4.974,3.674,7.436,5.47l2.438,3.107-15.412,3.208,23.348,1.636c1.041,1.255,2.059,2.492,3.126,3.727-10.658.117-22.263.248-35.053.384l-43.627.47q-14.388.155-30.743.335-16.626.174-35.6.377-19.715.21-42.276.453-23.058.24-49.55.517" transform="translate(-125.001 -653.184)" fill="#2e081f" fill-rule="evenodd"/>
  <path id="Trazado_99467" data-name="Trazado 99467" d="M360.381,351.486a44.954,44.954,0,0,1-.575-9.161,43.19,43.19,0,0,1,7.36-23.071l2.383-3.5a22.363,22.363,0,0,0-10.784-11.539c8.827-1.222,17.5-.267,24.221,6.632a13.528,13.528,0,0,1,1.3-.731,14.014,14.014,0,0,1,9.176-11.86c-3.6-2.21-7.977-6.194-11.395-7.175-1.988-.571-4.739-.192-6.988-.062.093-6.149.634-8.141,3.327-13.717,1.787-3.7,2.844-6.414,2.807-10.625l-.009-.947,2.193-4.478c-5.3-7.011-4.892-13.246-4.588-21.683,5.183,2.628,9.734,5.219,15.65,5.455-2-2.5-2.833-4.853-3.941-7.6l6.957.725a27.178,27.178,0,0,1-2.012-8.04c4.953,2.88,13.482,6.632,19.624,6.666,4.621-4.467,8.851-9.232,13.04-14.1L429.568,221c4.584,7.057,8.113,13.035,8.653,21.692,6.951,3.935,16.226,9.958,21.667,15.685l1.216,1.281a25.6,25.6,0,0,1-1.61,8.007l3.012-1.22,11.912,2.51.938,7.863,6.442,3.6,2.874,36.9-11.578,35.91c1.939,1.882,4.549,4.616,5.442,6.731a18.443,18.443,0,0,1,1.1,3.821,5.924,5.924,0,0,1,3.411,4.955c.039,1.179.043,2.359.039,3.538a21.311,21.311,0,0,0,3.825,3.939c6.731,5.078,6.376,3.8,8.527,13.091.235,1.012-.028.384.936,1.317a25.213,25.213,0,0,1,7.165,14.174,2.746,2.746,0,0,1-.392,2.3,6.606,6.606,0,0,1-3.3,3.023,7.452,7.452,0,0,1-6.231-.414,11.974,11.974,0,0,1-8.189-.47,9.437,9.437,0,0,1-9.723-2.482,2.823,2.823,0,0,1-.953-1.733c-1.218-4.685-.237-10.254,3.646-13.361a2.183,2.183,0,0,0-.248-.673c-.66-.757-3.764-2.347-4.9-2.909a24.828,24.828,0,0,1-14.838.735c-3.439-.791-8.626-1.374-11.381-3.592-7.678,9.064-18.788,13.078-30.54,12.578-10.42-.442-21.825-3.534-30.019-10.3l-2.7,2.829c-2.288,2.993-6.058,5.7-9.963,5.547a17.148,17.148,0,0,1-7.393-2.292,10.976,10.976,0,0,1-5.694-.336c-3.532.226-7.264-.936-8.417-4.679l-.121-1.854c.8-4.709,4.075-9.219,8.716-10.284-3.238-1.378-4.482-2.641-6.714-4.978.61-6.766,2.178-14.273,6.2-19.965" transform="translate(-289.881 -221)" fill="#2e081f" fill-rule="evenodd"/>
  <path id="Trazado_99468" data-name="Trazado 99468" d="M722.323,443.681l-8.795,28.905,2.275,11,15.944,1.447,4.258-10.9-2.941-29.667s-5.823-1.733-10.741-.784m14.424-2.1,2.646,33.972q-5.857,18.169-11.716,36.337a32.476,32.476,0,0,1-12.656-.987l-6.281-40.513L718.9,440.212A36.468,36.468,0,0,1,736.746,441.585Z" transform="translate(-548.66 -379.714)" fill="#a98167" fill-rule="evenodd"/>
  <path id="Trazado_99469" data-name="Trazado 99469" d="M769.983,441.795l2.646,33.972q-5.857,18.169-11.716,36.337a30.812,30.812,0,0,1-6.378.129l1.9-1.337,7.195-23.5-6.777-2.9,8.135.739,4.258-10.9-3.117-31.484-5.56-2.885a37.228,37.228,0,0,1,9.419,1.822" transform="translate(-581.896 -379.924)" fill="#785451" fill-rule="evenodd"/>
  <path id="Trazado_99470" data-name="Trazado 99470" d="M825.043,816.056s-1.108,2.218-4.045.875c0-.043.009-.088.011-.131,0,0-1.826-6.867-6.028-9.81,0,0,3.4,5.425,4.14,9.232-5.882,2.717-9.032-4.48-10.845-9.15a16.8,16.8,0,0,0,2.98,8.5c-4.327,1.792-8.128.046-7.366-5.344a6.715,6.715,0,0,1,4.254-5.686s.078-3.9-1.7-5.655a28.911,28.911,0,0,0-5.789-3.562l4.733-8.363s5.48,4.417,8.113,6.392,3.128,7.115,3.734,9.2a19.362,19.362,0,0,0-5.558,1.267c4.5-.6,6.738.647,6.746.652a16.436,16.436,0,0,1,6.621,11.58" transform="translate(-615.368 -631.758)" fill="#af9498" fill-rule="evenodd"/>
  <path id="Trazado_99471" data-name="Trazado 99471" d="M816.58,854.511a16.8,16.8,0,0,0,2.98,8.5c-4.327,1.792-8.128.046-7.365-5.344a6.785,6.785,0,0,1,3.5-5.341,1.115,1.115,0,0,1-.093.856,5.957,5.957,0,0,0-1.257,6.134c.481,1.207,2.3,3.3,2.479,1,.063-.78-.839-4.111-.244-5.808m6.705-.082v0l0,0c.1.164,3.409,5.481,4.138,9.228-5.882,2.717-9.032-4.48-10.845-9.15a17.511,17.511,0,0,0,3.857,3.948C823.216,860.658,823.635,857.374,823.285,854.429Zm10.062,9.066s-1.108,2.218-4.045.875c0-.043.009-.088.011-.131a25.282,25.282,0,0,0-2.5-5.8l.117.032s3.154,2.208,5.9,2.389A19.167,19.167,0,0,1,833.347,863.5Z" transform="translate(-623.672 -679.197)" fill="#856f79" fill-rule="evenodd"/>
  <path id="Trazado_99472" data-name="Trazado 99472" d="M805.291,820.628a6.465,6.465,0,0,1,2.852-2.106s.078-3.9-1.7-5.655a28.913,28.913,0,0,0-5.789-3.562l1.742-3.081a56.665,56.665,0,0,0,6.744,3.754c3.87,1.746,5.11,7.024,5.11,7.024a18.1,18.1,0,0,0-2.574.8q.754-.1,1.423-.136a12.4,12.4,0,0,1,4.53,1.7,16.477,16.477,0,0,0-12.337,1.263" transform="translate(-615.368 -645.737)" fill="#856f79" fill-rule="evenodd"/>
  <path id="Trazado_99473" data-name="Trazado 99473" d="M541.2,778.4c-3.3,4.243-11.6,12.712-27.968,12.016s-24.8-6.733-27.981-9.713l7.645-6.522-4.243-5.235s30.5-6.933,52.546,9.454" transform="translate(-386.461 -617.625)" fill="#856f79" fill-rule="evenodd"/>
  <path id="Trazado_99474" data-name="Trazado 99474" d="M497.629,789.138l4.252-3.627-1.261-1.555s16.787-3.141,30.154,2.611c0,0-10.412-1.8-18.175-.789,0,0,12.432.875,19.941,5.937,0,0-6.781,4.051-17.044,2.374,0,0,7.613,2.007,13.232,1.821,0,0-22.225,3.385-31.1-6.774" transform="translate(-395.442 -628.955)" fill="#af9498" fill-rule="evenodd"/>
  <path id="Trazado_99475" data-name="Trazado 99475" d="M366.593,784.7s1.727-10.038,10.9-6.442c3.542-2.255,8.624.629,9.556,4.554a6.277,6.277,0,0,0-1.4-4.209l4.433-3.361a13.553,13.553,0,0,1,5.4.366,8.548,8.548,0,0,0-6.309-1.138l-1.416-1.2a34.257,34.257,0,0,0,9.172-4.834l6.587,5.05-6.708,5.645-5.638,5.912s-3.159,4.284-6.738,4.137a13.119,13.119,0,0,1-5.724-1.873c-.069-4.03,4.231-6.382,4.231-6.382a6.464,6.464,0,0,0-5.438,5.606,7.894,7.894,0,0,1-4.454.412,9.969,9.969,0,0,1,1.33-6.371c-2.522,1.718-2.569,5.888-2.569,5.888-1.705.266-4.588.257-5.209-1.759" transform="translate(-300.34 -618.314)" fill="#af9498" fill-rule="evenodd"/>
  <path id="Trazado_99476" data-name="Trazado 99476" d="M390.081,775.243a13.553,13.553,0,0,1,5.4.366,8.548,8.548,0,0,0-6.309-1.138l-1.416-1.2a34.257,34.257,0,0,0,9.172-4.834l6.587,5.05-6.708,5.645-5.638,5.912c-1.13,1.343-3.758,4.8-8.1,3.975a14.4,14.4,0,0,1-4.366-1.712c-.069-4.03,4.231-6.382,4.231-6.382a6.464,6.464,0,0,0-5.438,5.606,7.894,7.894,0,0,1-4.454.412,9.969,9.969,0,0,1,1.33-6.371c-2.522,1.718-2.569,5.888-2.569,5.888-1.705.266-4.588.257-5.209-1.759,0,0,.963-5.586,5.259-6.931a6.089,6.089,0,0,0-2.452,2.652c-.728,1.9.641,2.736,2.413,1.264,1.6-1.33,2.132-1.887,3.861-2.229,0,0-1.667,3.6-.312,4.236s5.073-4.7,8.318-3.551a5.533,5.533,0,0,0,.449,4.189c2.464.494,3.566-.739,5.211-2.126l6.007-5.064a9.114,9.114,0,0,0-5.265-1.9" transform="translate(-300.34 -618.314)" fill="#856f79" fill-rule="evenodd"/>
  <path id="Trazado_99477" data-name="Trazado 99477" d="M391.812,694.115s-11.8,1.164-17.177-4.458c0,0,1.043-11.433,6.354-17.526,6.132-5,19.687-14.463,28.233-9.086.007,0,.97.692,1.053.761,2.227,1.552,7.6,4.978,12.244,5.422a25.7,25.7,0,0,1-6.539-.325c2.643,1.986,6.033,2.363,10.206,2.365,6.552-.85,3.424,3.736,4.946,4.873a27.673,27.673,0,0,0,10.685,5.36l-1.254,1.056s5.088.968,8.831-.44l3.618-11.8s3.73,2.825,6.605,3.258l5.962-2.365,5.241,2.482-3.724,1.871,5.591-1.41s7.1.718,10.108,1.2,6.994,5.03,8.95,7.727a21.826,21.826,0,0,1,.513,3.223s3.029.724,3.077,2.225.032,4.7.032,4.7-3.943,8.589-5.806,10.073c0,0-5.578,3.367-13.991,1.255,0,0-6.949-1.268-9.01-2.326a3.824,3.824,0,0,1-2.163-2.973l-1.878-.166a49.569,49.569,0,0,1-7.641-6.011,20.351,20.351,0,0,1-7.289-2.182c-3.5-1.9-12.8-6.138-18.893-7.727a17.794,17.794,0,0,1,4.931,4.232s-16.72-1.33-23.805-.334-16.332,1.925-21.31.754a21.844,21.844,0,0,0,12.733,1.485s-4.469,4.043-9.433,4.808" transform="translate(-306.177 -540.659)" fill="#c6664e" fill-rule="evenodd"/>
  <path id="Trazado_99478" data-name="Trazado 99478" d="M422.405,667.227c6.69-4.278,15.37-8.031,21.487-4.183.007,0,.971.692,1.052.761,2.227,1.552,7.6,4.978,12.244,5.422a25.7,25.7,0,0,1-6.539-.326c2.643,1.986,6.033,2.363,10.206,2.365,6.552-.85,3.424,3.736,4.946,4.872a26.939,26.939,0,0,0,6.716,4,1.257,1.257,0,0,1-.517.241c-3.047.658-4.879-.7-8.049-3.014s-7.2-2.9-13.932-4.767-5.7-5.151-11.314-7.111-16.263,1.809-16.263,1.809c-.013-.024-.023-.047-.037-.071" transform="translate(-340.847 -540.659)" fill="#9d4b49" fill-rule="evenodd"/>
  <path id="Trazado_99479" data-name="Trazado 99479" d="M770.829,716.448a29.738,29.738,0,0,1,6.334,6.55,21.791,21.791,0,0,1,.513,3.223s3.029.725,3.077,2.225.032,4.7.032,4.7-.642-2.014-1.468-3.888a2.951,2.951,0,0,0-2.553-1.872c-3.9,2.272-8.864,1.727-8.864,1.727,6.278-.546,8.285-3.092,8.285-3.092l-.25-2.913c-.97-1.7-5.108-6.664-5.108-6.664" transform="translate(-591.597 -580.581)" fill="#dfa772" fill-rule="evenodd"/>
  <path id="Trazado_99480" data-name="Trazado 99480" d="M374.635,704.615s1.043-11.433,6.354-17.526a73.757,73.757,0,0,1,6.955-5.037,29.493,29.493,0,0,0-3.934,6.1,11.789,11.789,0,0,1,4.155,4.538c-3.734-2.99-5.513-2.68-5.513-2.68-4.461,5.2-8.016,14.6-8.016,14.6" transform="translate(-306.177 -555.617)" fill="#dfa772" fill-rule="evenodd"/>
  <path id="Trazado_99481" data-name="Trazado 99481" d="M430.959,699.461l0,0ZM391.812,717.6s-11.8,1.164-17.177-4.458a55.78,55.78,0,0,0,13.848.157,9.5,9.5,0,0,1-8.176-4.959,45.843,45.843,0,0,0,16.425.069c8.607-1.639,15.664-2.421,21.782-1.236a28.819,28.819,0,0,0-10.939-2.935s17.123-3.613,29.294,2.551a20.073,20.073,0,0,0-5.4-6.913,27.278,27.278,0,0,0,10.346,5.108l-.511.787a14.73,14.73,0,0,0,8.088-.17l3.618-11.8s3.73,2.824,6.605,3.258l5.962-2.365,5.241,2.482-3.724,1.871,5.591-1.41s7.1.718,10.108,1.2a6.759,6.759,0,0,1,2.615,1.177c-.011.013-3.689,4.262-17.848,3.051,0,0,7.07,2.613,12.57,1.9,0,0-13.8,3.319-26.146.145,0,0,.349,4.773-1.365,6.449,0,0,8.46,3.611,13.417,9.07a8.246,8.246,0,0,0-.251-4.7,33.269,33.269,0,0,1,6.811,6.656c2.807,3.846,11.58,3.234,15.325.983s7.442-6.845,7.442-6.845-3.943,8.589-5.806,10.073c0,0-5.578,3.367-13.991,1.255,0,0-6.949-1.268-9.01-2.326a3.823,3.823,0,0,1-2.163-2.973l-1.878-.166a49.57,49.57,0,0,1-7.641-6.011,20.346,20.346,0,0,1-7.289-2.182c-3.5-1.9-12.8-6.138-18.893-7.727a17.792,17.792,0,0,1,4.931,4.232s-16.72-1.33-23.805-.334-16.332,1.925-21.31.754a21.846,21.846,0,0,0,12.733,1.485S396.775,716.838,391.812,717.6Z" transform="translate(-306.177 -564.147)" fill="#9d4b49" fill-rule="evenodd"/>
  <path id="Trazado_99482" data-name="Trazado 99482" d="M395.031,582.1c-.759-4.885-1.641-17.328,6.2-28.821a43.634,43.634,0,0,0,1.123,10.034c3.892-6.772,4.036-17.272-1.811-22.97,8.406.619,13.335,8.473,7.686,15.683-3.277,4.181-2.617,10.194-2.617,10.194a4.871,4.871,0,0,0-2.19.336c4.01,1.41,8.859,5.742,8.859,5.742-9.107,1.709-17.248,9.8-17.248,9.8" transform="translate(-320.633 -452.772)" fill="#856f79" fill-rule="evenodd"/>
  <path id="Trazado_99483" data-name="Trazado 99483" d="M418.2,563.317c3.892-6.772,4.036-17.272-1.811-22.97.071,0,.142.011.213.017,8.381,3.6,6.455,13.943,6.455,13.943a8.592,8.592,0,0,0-1.311-4.273,28.113,28.113,0,0,1-2.6,14.57Z" transform="translate(-336.483 -452.772)" fill="#af9498" fill-rule="evenodd"/>
  <path id="Trazado_99484" data-name="Trazado 99484" d="M395.031,616.341c-.759-4.885-1.641-17.328,6.2-28.821-4.39,11.5-1.828,20.137-1.828,20.137a9,9,0,0,0-2.381,3.135,11.1,11.1,0,0,1,6.621-2.85,15.826,15.826,0,0,0-8.611,8.4" transform="translate(-320.633 -487.009)" fill="#af9498" fill-rule="evenodd"/>
  <path id="Trazado_99485" data-name="Trazado 99485" d="M464.8,525.06a15.2,15.2,0,0,1,2.5-.841,18.8,18.8,0,0,0-2.518-.121c.071-2.719,1.164-10.316,11.125-10.9a15.543,15.543,0,0,0-3.741,4.489,10.46,10.46,0,0,1,1.775-1,102.274,102.274,0,0,0-7.813,13.244l1.729-1.171A17.871,17.871,0,0,1,470.6,534.4a15.807,15.807,0,0,0-3.629-.865,24.051,24.051,0,0,0-9.217.69,10.926,10.926,0,0,1,3.861-5.088s-2.481.9-3.385,2.408c.878-3.474,2.6-5.744,6.569-6.481" transform="translate(-366.501 -433.07)" fill="#9d4b49" fill-rule="evenodd"/>
  <path id="Trazado_99486" data-name="Trazado 99486" d="M484.9,524.131c-.418-.026-.942-.043-1.516-.032.071-2.719,1.164-10.316,11.125-10.9a11.084,11.084,0,0,0-9.609,10.931" transform="translate(-385.103 -433.07)" fill="#c6664e" fill-rule="evenodd"/>
  <path id="Trazado_99487" data-name="Trazado 99487" d="M460.017,560.64a5.165,5.165,0,0,0-1.787,1.628c.878-3.473,2.6-5.744,6.569-6.481A7.526,7.526,0,0,0,460.017,560.64Zm-.841,3.926c-.479.105-.955.231-1.423.382a11.567,11.567,0,0,1,2.576-4.047l1.285-1.041A13.585,13.585,0,0,0,459.176,564.566Zm5.622-8.779s.255-.108.615-.25A4.236,4.236,0,0,1,464.8,555.787Z" transform="translate(-366.501 -463.796)" fill="#c6664e" fill-rule="evenodd"/>
  <path id="Trazado_99488" data-name="Trazado 99488" d="M534.759,359.084c5.384.3,12.348,5.362,16.543,5.1l0,0a7.054,7.054,0,0,1,3.984,6.114c.262-2.406.436-5.381-.994-7.466q4.631-2.981,9.26-5.965c6.692-4.312,14.062-2.779,20.8.985,0,0,0,.037-.011.112a20.169,20.169,0,0,1-9.068,11.237,17.62,17.62,0,0,0,6.668-3.426s-5.392,9.622-14.271,12.067c0,0,2.814.328,7.264-1.643-4.383,4.849-13.18,7.376-19.562,8.016l-.968-1.324-11.782-1.279-9.23,4.924a62.768,62.768,0,0,1-5.711-4.491,35.4,35.4,0,0,0,4.321,1.94c-2.275-2.523-2.6-4.528-1.775-6.216,3.741-7.634,18.169-6.722,24.932-4.571-7.734-5.329-10.711-3.078-16.709-4.784-3.568-1.013-5.627-5.485-5.886-6.078a5.256,5.256,0,0,0,2.191-3.26" transform="translate(-417.256 -317.719)" fill="#e4cdbe" fill-rule="evenodd"/>
  <path id="Trazado_99489" data-name="Trazado 99489" d="M523.956,386.621a6.624,6.624,0,0,1,2.343,5.828c-.485,5.146-5.918,4.648-5.187,11.567-4.674-3.5-2.35-12.981-.008-17.272a8.6,8.6,0,0,0,2.852-.123" transform="translate(-410.524 -341.202)" fill="#e4cdbe" fill-rule="evenodd"/>
  <path id="Trazado_99490" data-name="Trazado 99490" d="M453.588,426.241a8.166,8.166,0,0,1,3.9-.888c-4.806-1.567-6.964.677-6.964.677.065-4.312,3.527-7.225,5.194-13.158l10.881,2.991a18.969,18.969,0,0,0,2.3,8.691,34.506,34.506,0,0,1-4.064-3.523l0,0v0a21.8,21.8,0,0,0,10.709,10,13.309,13.309,0,0,1-5.983,1.438,11.059,11.059,0,0,0,4.254.491c-8.717,3.215-14-5.474-20.224-6.727" transform="translate(-361.252 -360.255)" fill="#e4cdbe" fill-rule="evenodd"/>
  <path id="Trazado_99491" data-name="Trazado 99491" d="M549.5,335.293c2.95-.136,6.177,1.164,8.726,2.245,7.2,3.051,9.163,2.9,13.622.032l7.566-4.875c4.829-3.111,10.3-3.007,17.164-.409-1.677-1.438-5.882-4.592-7.74-5.849l1.783,2.378c-3.57-.983-7.119-2.044-10.735-2.857a80.118,80.118,0,0,0-12.93-1.912c-.871-.05-1.749-.08-2.624-.084,5.813.722,8.1,2.087,8.1,2.087l-1.757.666s-.524,3.76-5.278,5.321a9.872,9.872,0,0,1-8.626-1.514,35.267,35.267,0,0,1-3.525,2.7,24.323,24.323,0,0,1-3.747,2.068" transform="translate(-433.09 -295.726)" fill="#856f79" fill-rule="evenodd"/>
  <path id="Trazado_99492" data-name="Trazado 99492" d="M614.671,334.621c4.064-1.436,8.633-.944,14.072,1.117-1.677-1.438-5.881-4.592-7.74-5.849l1.783,2.378c-3.57-.983-7.119-2.044-10.735-2.857-1.106-.248-2.221-.481-3.344-.692,0,0-2.143,9.094-14.888,9.648a13.3,13.3,0,0,0,10.726-1.9s-2.688,3.344-6.248,3.659a9.468,9.468,0,0,0,7.41-1.464c3.419-2.512,7.371-4.12,8.961-4.036Z" transform="translate(-465.254 -299.178)" fill="#af9498" fill-rule="evenodd"/>
  <path id="Trazado_99493" data-name="Trazado 99493" d="M470.473,379.9l7.206,1.979c3.728,1.024,4.2.688,5-2.38.134-.52.278-1.041.437-1.559a4.754,4.754,0,0,1-2.337-.114c-2.7-.735-1.826-2.74-1.826-2.74a9.833,9.833,0,0,0-2.827.024c4.222-3.549,7.909-2.4,9.038-1.912a10.186,10.186,0,0,1,3.195-3.357,49.506,49.506,0,0,1-9.9,1.248c-5.073-.028-5.2-.513-7.436,3.2a25.511,25.511,0,0,1-.541,5.617" transform="translate(-375.733 -329.021)" fill="#856f79" fill-rule="evenodd"/>
  <path id="Trazado_99494" data-name="Trazado 99494" d="M470.473,383.107l6.731,1.85a6.594,6.594,0,0,1-3.307-3.5,4.014,4.014,0,0,0-.025,1.49c.041.132-3.618-6.929,4.064-8.652-4.568-.052-4.76-.38-6.921,3.2a25.51,25.51,0,0,1-.541,5.617" transform="translate(-375.733 -332.231)" fill="#af9498" fill-rule="evenodd"/>
  <path id="Trazado_99495" data-name="Trazado 99495" d="M538.728,293.484l0,0c-9.456-4.976-26.746-9.907-26.746-9.907-6.082.72-15.413-3.508-15.413-3.508.722,2.879,3.706,4.97,3.706,4.97-2.13.7-7.682.063-7.682.063,1.255,2.229,5.084,3.275,5.084,3.275a17.109,17.109,0,0,0-6.36,3.536c-5.1,4.609-7.964,11.61-7.964,11.61a44.919,44.919,0,0,0,14.965-1.328c8.184-2.13,15.468-12.278,15.468-12.278,11.267-.662,24.917,3.56,24.945,3.57" transform="translate(-385.08 -263.869)" fill="#9d4b49" fill-rule="evenodd"/>
  <path id="Trazado_99496" data-name="Trazado 99496" d="M489.369,309.663a38.514,38.514,0,0,0-6.018,9.629,33.732,33.732,0,0,0,4.015.14c12.229-.669,18.779-7.99,18.779-7.99a12.968,12.968,0,0,1-7.615.492,19.084,19.084,0,0,0,13.751-8.007l5.813-.621-8.141-1.507a39.052,39.052,0,0,1-7.35,1.479,12.854,12.854,0,0,0,5.629.142c-2.393,2.208-12.63,2.712-18.863,6.244" transform="translate(-385.08 -279.641)" fill="#c6664e" fill-rule="evenodd"/>
  <path id="Trazado_99497" data-name="Trazado 99497" d="M442.9,598.924a9.708,9.708,0,0,0,3.982,3.376,6.086,6.086,0,0,1-1.839.056,14.711,14.711,0,0,0,6.945,2.389,17.116,17.116,0,0,1-6.324-4.784c-2.3-6.845,6.24-8.156,10.974-7.859a11.41,11.41,0,0,0,3.3,4.032,7.571,7.571,0,0,1-2.9-1.807,9.607,9.607,0,0,0,4.4,4.842,9.541,9.541,0,0,0-2.671,6.166,12.868,12.868,0,0,1,2.96-4.241c-1.291,2.555-.933,7.708-1.343,7.992-3.209,2.236-19.6.244-17.486-10.164" transform="translate(-355.583 -490.307)" fill="#856f79" fill-rule="evenodd"/>
  <path id="Trazado_99498" data-name="Trazado 99498" d="M504.013,501.237l10.28-19.505,11.66-3.572-8.6,21.982-7.968.83,7.766.558.563,2.967-7.917.731,8.174.621,1.732,9.131-11.987-.543Z" transform="translate(-400.075 -407.638)" fill="#785451" fill-rule="evenodd"/>
  <path id="Trazado_99499" data-name="Trazado 99499" d="M504.013,560.008l.459-.871.629.688,2,.256,1.115,6.994-1.252.466,1.386.194.791,4.769,10.556,1.246-11.987-.543Z" transform="translate(-400.075 -466.41)" fill="#a98167" fill-rule="evenodd"/>
  <path id="Trazado_99500" data-name="Trazado 99500" d="M514.293,481.731l11.66-3.572-10.81,4.532-3.066,6.291-.774.093.528.362-4.689,11.269-3.128.53Z" transform="translate(-400.075 -407.638)" fill="#a98167" fill-rule="evenodd"/>
  <path id="Trazado_99501" data-name="Trazado 99501" d="M566.59,453.7l39.956-10.129L606,445.316l-15.042,3.428L605.53,446.8l-.687,2.182-30.4,4.706,29.964-3.327-3.344,10.61-27.427,5.647,26.668-3.234-2.738,8.687-28.436,3.406,28.408-1.009.517,3.562-14.335.916,14.559.632,4.545,33.336-30.085-11.4-9.995-3.922L557.953,475.8Z" transform="translate(-439.223 -382.537)" fill="#a98167" fill-rule="evenodd"/>
  <path id="Trazado_99502" data-name="Trazado 99502" d="M579.555,475.384l25.786-.917.517,3.562-14.335.916,14.559.632,4.545,33.336-30.085-11.4-10-3.922-1.845-8.385,19.05,3.642-14.336.606,30.288,5.351L603,481.336l-15.851-2.169,11.561-1.818.05-1.414Zm1.932-8.771,26.62-3.23-2.738,8.686-27.3,3.271-3.893-.112,28.168-4.542,2.07-4.241Zm2.2-13.087,28.52-3.165-3.344,10.61-27.4,5.642-4.771.035,29.583-7.774,1.516-5.806Zm-9.3.177,39.955-10.129-.548,1.742-15.042,3.428,14.574-1.945-.688,2.182-29.419,4.553Z" transform="translate(-447.025 -382.537)" fill="#785451" fill-rule="evenodd"/>
  <path id="Trazado_99503" data-name="Trazado 99503" d="M725.586,412.236l6.339-1.848-.835,5.008-7.177,2.316Z" transform="translate(-559.671 -358.452)" fill="#785451" fill-rule="evenodd"/>
  <path id="Trazado_99504" data-name="Trazado 99504" d="M758.583,410.475l-.762,4.952,6.593,1.085-.228-5.082Z" transform="translate(-584.281 -358.515)" fill="#a98167" fill-rule="evenodd"/>
  <path id="Trazado_99505" data-name="Trazado 99505" d="M738.387,493.642l.338,3.1,13.335,1.207,3.6-9.215L752.89,460.8a34.143,34.143,0,0,0-4.307-.64l.224,27.767-2.719,6.423Z" transform="translate(-570.176 -394.571)" fill="#785451" fill-rule="evenodd"/>
  <path id="Trazado_99506" data-name="Trazado 99506" d="M471.091,319.216a31.439,31.439,0,0,1,3.328-4.073,32.569,32.569,0,0,1-11.4-3.038,20.167,20.167,0,0,0,2.337,10.142,18.524,18.524,0,0,1-.673-6.878,13.691,13.691,0,0,0,6.408,3.846" transform="translate(-370.313 -287.121)" fill="#856f79" fill-rule="evenodd"/>
  <path id="Trazado_99507" data-name="Trazado 99507" d="M596.965,258.779l.878.278a49.728,49.728,0,0,0,5.484-8.337s3.308,1.427,5.017,8.7a36.342,36.342,0,0,0-4.924-13.85c-3.4,4.152-8.741,9.441-11.14,11.774,1.567.457,3.13.943,4.685,1.436" transform="translate(-464.137 -238.831)" fill="#856f79" fill-rule="evenodd"/>
  <path id="Trazado_99508" data-name="Trazado 99508" d="M581.924,461.436l-.336,3.486,9.37-2.475Z" transform="translate(-456.376 -395.501)" fill="#a98167" fill-rule="evenodd"/>
  <path id="Trazado_99509" data-name="Trazado 99509" d="M587.91,668.926l1.442-14.81-.627,15.2.811.39.729-8.9-.155,9.176,1.539.742.988-12.458-.045,12.912,2.964,1.432,1.2-11.794.106,12.369,4.538.364,3.318-12.733-6.865-2.354-.9-.362-3.236-2.87-.589-.45-6.854-3.2-.722,16.2Z" transform="translate(-459.252 -533.507)" fill="#785451" fill-rule="evenodd"/>
  <path id="Trazado_99510" data-name="Trazado 99510" d="M550,468.969l6.969-2.264.409-3.626-6.291,3.124Z" transform="translate(-433.455 -396.694)" fill="#785451" fill-rule="evenodd"/>
  <path id="Trazado_99511" data-name="Trazado 99511" d="M523.189,626.977a4.253,4.253,0,0,0,3.961.226c-1.354-.015-2.633-.106-3.961-.226m-.906-3.8a3.81,3.81,0,0,0,3.961.226C524.89,623.391,523.609,623.3,522.283,623.18Zm-.138-3.034a4.161,4.161,0,0,0,3.96.226C524.752,620.357,523.471,620.267,522.145,620.146Zm-1.384,6.992a3.656,3.656,0,0,0,1.615-.252c-1.919-.284-3.956-1.766-3.413-3.98a4.08,4.08,0,0,0,1.9.2c-2.059-.733-3.627-2.348-2.1-4.691a2.873,2.873,0,0,0,2.145.708c-2.913-1.891-3.2-5.446,1.457-6.449-2.329,2.945,2.891,5.619,5.453,2.613a3.859,3.859,0,0,0,1.856-.136,1.774,1.774,0,0,1,.327,2.736,4.705,4.705,0,0,1-2.542,1.678,3.025,3.025,0,0,1,.078,1.755,3.827,3.827,0,0,0,.535-1.294,5.05,5.05,0,0,0,2.611-1.979c.953.3,2.41,1.093.992,3.023a6.95,6.95,0,0,1-3.469,2.031,4.839,4.839,0,0,1,.017,1.546,3.494,3.494,0,0,0,.585-1.134,5.975,5.975,0,0,0,3.374-2.165c.731.483,1.85,1.594.386,3.325a9.741,9.741,0,0,1-3.158,2.156,2.087,2.087,0,0,1-.093.879,2.4,2.4,0,0,0,.547-.683,7.958,7.958,0,0,0,2.933-1.87C534.818,630.588,521,632.224,520.761,627.138Z" transform="translate(-410.338 -505.261)" fill="#856f79" fill-rule="evenodd"/>
  <path id="Trazado_99512" data-name="Trazado 99512" d="M518.516,626.977a4.253,4.253,0,0,0,3.96.226c-1.354-.015-2.633-.106-3.96-.226m-.906-3.8a3.81,3.81,0,0,0,3.96.226C520.216,623.391,518.935,623.3,517.61,623.18Zm-.138-3.034a4.161,4.161,0,0,0,3.96.226C520.079,620.357,518.8,620.267,517.472,620.146Zm-1.451-1.016-.007-.164c.073.052.146.1.224.153A1.793,1.793,0,0,1,516.021,619.131Zm1.457,7.839-.043-.131c.089.019.179.035.268.047C517.7,626.886,517.62,626.923,517.478,626.97Zm-5.34-9.534s-1.315,5.453.69,8.322a11.187,11.187,0,0,0,5.851,4.122l-.02-.039a8.393,8.393,0,0,0,1.665.319,3.848,3.848,0,0,0,2.529-1.47c.871-1.5-.836-3.269-.836-3.269a2.95,2.95,0,0,0-.556-3.368,3.16,3.16,0,0,0,.151-2.9,2.6,2.6,0,0,0,.086-2.822v0c-2.637,1.059-5.944-1.209-4-3.663-2.212.477-3.307,1.529-3.536,2.706-.293.233-.584.47-.874.722a29.238,29.238,0,0,0,.138,7.9C512.175,621.884,512.138,617.436,512.138,617.436Z" transform="translate(-405.665 -505.261)" fill="#a28e81" fill-rule="evenodd"/>
  <path id="Trazado_99513" data-name="Trazado 99513" d="M618.422,636.828a3.536,3.536,0,0,1,4.614,1.242,3.135,3.135,0,0,1,3.8,2.29,3.811,3.811,0,0,1,2.281.727,3.531,3.531,0,0,1,1.606,3.137c-.235,1.649-2.9,2.044-2.738,4.2a2.951,2.951,0,0,1-.659,2.281c-1.18,1.309-3.6.975-5.185.888-1.154-.064-3.017-.06-3.878-.791a.263.263,0,0,1-.041-.034l-.257-.077c-.142-.044-.285-.084-.427-.125-.442-.125-.9-.25-1.344-.407l-2.783-1.632a8.233,8.233,0,0,1-2.837-2.921,4.254,4.254,0,0,1-.136-2.969c.7-2.483,2.3-5.519,5.041-6.149a4.538,4.538,0,0,1,2.947.339" transform="translate(-477.166 -522.469)" fill="#2e081f" fill-rule="evenodd"/>
  <path id="Trazado_99514" data-name="Trazado 99514" d="M630.486,652.568c-.218-2.833,2.675-4.008,2.751-4.536a2.359,2.359,0,0,0-3.562-1.779,5.276,5.276,0,0,0-2.165,2.632,3.376,3.376,0,0,0-1.943-.3,4.277,4.277,0,0,1,1.5-.442,5.656,5.656,0,0,1,2.51-2.673c-.218-1.093-.932-2.81-3.247-1.46a7.789,7.789,0,0,0-2.667,3.622,5.424,5.424,0,0,0-1.718-.2,3.9,3.9,0,0,1,1.333-.515,6.659,6.659,0,0,1,2.8-3.5c-.451-.873-1.555-2.249-3.65-.823a10.928,10.928,0,0,0-2.773,3.26,2.334,2.334,0,0,0-.99,0,2.647,2.647,0,0,1,.826-.526,8.885,8.885,0,0,1,2.425-3.042c-2.8-1.391-5.051,1.412-6,4.786-.59,2.091.718,2.967,2.43,4.264a4.927,4.927,0,0,1,.625-3.007c-.072.748-.119,1.479-.153,2.208-.086,1.9,1.865,2.2,3.6,2.723a4.762,4.762,0,0,1,.664-3.476c-.084.891-.136,1.755-.168,2.622-.069,1.8.893,1.479,2.766,1.612a6.187,6.187,0,0,1,.763-3.721c-.123,1.293-.179,2.533-.2,3.8,2.962.164,4.385.3,4.243-1.533" transform="translate(-481.187 -526.493)" fill="#af9498" fill-rule="evenodd"/>
  <path id="Trazado_99515" data-name="Trazado 99515" d="M630.486,665.4a3.716,3.716,0,0,1,.017-.748c-1.276-2.967-5.69-1.46-5.69-1.46-.757-2.1-3.874-.894-3.874-.894-.619-3.265-4.933-2.646-4.946-2.644-.026.084-.05.168-.075.253-.59,2.091.718,2.967,2.43,4.264a4.926,4.926,0,0,1,.625-3.007c-.072.748-.119,1.479-.153,2.208-.086,1.9,1.865,2.2,3.6,2.723a4.762,4.762,0,0,1,.664-3.476c-.084.891-.136,1.755-.168,2.622-.069,1.8.893,1.479,2.766,1.612a6.185,6.185,0,0,1,.763-3.721c-.123,1.294-.179,2.533-.2,3.8,2.962.164,4.385.3,4.243-1.533" transform="translate(-481.187 -539.33)" fill="#856f79" fill-rule="evenodd"/>
  <path id="Trazado_99516" data-name="Trazado 99516" d="M585.486,337.2c4.948,1.087,9.879-3.773,3.959-3.572a13.3,13.3,0,0,1-1.076,1.246,1.335,1.335,0,0,1-2.011,1.755c-.276.2-.567.393-.871.571" transform="translate(-459.206 -302.74)" fill="#fff" fill-rule="evenodd"/>
  <path id="Trazado_99517" data-name="Trazado 99517" d="M505.239,387.8s.328,2.3,3.161,1.981l.451-1.022a.991.991,0,0,1-.886-.985c0-.017,0-.036,0-.056-.908.037-1.817.067-2.727.082" transform="translate(-400.965 -342.002)" fill="#fff" fill-rule="evenodd"/>
  <path id="Trazado_99518" data-name="Trazado 99518" d="M534.759,360.822a12.49,12.49,0,0,1,2.229.351,6.411,6.411,0,0,1,2.872,5.03c.177,3.458,14.512,2.725,19.058,10.349a4.527,4.527,0,0,0-.669-2.993s10.658-1.362,16.362-8.1a28.429,28.429,0,0,1-6.942,2.878s3.542-.847,9.6-11.677a30.168,30.168,0,0,1,7.091,2.937s0,.037-.011.112a20.169,20.169,0,0,1-9.068,11.237,17.619,17.619,0,0,0,6.668-3.426s-5.392,9.622-14.271,12.067c0,0,2.814.328,7.264-1.643-4.383,4.849-13.18,7.376-19.562,8.016l-.968-1.324-11.782-1.278-9.23,4.924a62.77,62.77,0,0,1-5.711-4.491,35.405,35.405,0,0,0,4.321,1.941c-2.275-2.523-2.6-4.528-1.775-6.216,3.741-7.634,18.169-6.722,24.932-4.571-7.734-5.329-10.711-3.078-16.709-4.784-3.568-1.013-5.627-5.485-5.886-6.078a5.256,5.256,0,0,0,2.191-3.26" transform="translate(-417.256 -319.457)" fill="#a28e81" fill-rule="evenodd"/>
  <path id="Trazado_99519" data-name="Trazado 99519" d="M471.646,420.468l3.3.907a18.966,18.966,0,0,0,2.3,8.691,34.512,34.512,0,0,1-4.064-3.523l0,0v0a21.807,21.807,0,0,0,10.707,10,13.293,13.293,0,0,1-5.981,1.438,11.062,11.062,0,0,0,4.254.491c-8.676,3.2-13.95-5.392-20.135-6.707,5.043-.935,6.634,1.5,10.48,1.956A10,10,0,0,1,468.6,426a16.862,16.862,0,0,0,5.224,5.5c-4.189-4.621-2.178-11.041-2.178-11.041" transform="translate(-369.606 -365.768)" fill="#a28e81" fill-rule="evenodd"/>
</svg>
