<svg xmlns="http://www.w3.org/2000/svg" width="85.412" height="85.412" viewBox="0 0 85.412 85.412">
  <g id="Grupo_53607" data-name="Grupo 53607" transform="translate(2585 -82.029)">
    <rect id="Rectángulo_5286" data-name="Rectángulo 5286" width="85.412" height="85.412" rx="5" transform="translate(-2585 82.029)" fill="#26c6da"/>
    <g id="Grupo_53606" data-name="Grupo 53606" transform="translate(-2569.771 97.259)">
      <path id="Trazado_100861" data-name="Trazado 100861" d="M-2517.372,138.626a1.247,1.247,0,0,0-.883-.366h0a1.25,1.25,0,0,0-.884.37l-25.479,25.73c-.012.012-.012.031-.023.044a1.213,1.213,0,0,0-.291.493l-2.169,7.594-2.827,9.906a1.25,1.25,0,0,0,.318,1.227,1.247,1.247,0,0,0,.883.367,1.272,1.272,0,0,0,.343-.048l9.9-2.83,7.587-2.17c.023-.007.038-.024.061-.032a1.228,1.228,0,0,0,.22-.114,1.233,1.233,0,0,0,.2-.134c.016-.014.038-.02.053-.035l25.708-25.5a1.253,1.253,0,0,0,.37-.885,1.248,1.248,0,0,0-.366-.886Zm-15.121,38.17-5.975,1.71-6.031-6.036,1.708-5.98h3.281l.976,1.952a1.245,1.245,0,0,0,.553.554l2.983,2.986a1.247,1.247,0,0,0,.553.554l1.95.977Z" transform="translate(2549.979 -129.037)" fill="#fff"/>
      <path id="Trazado_100862" data-name="Trazado 100862" d="M-2452.315,125.969l-7.494-7.5a5.107,5.107,0,0,0-7.068,0l-4.575,4.62a1.251,1.251,0,0,0,0,1.764l12.75,12.761a1.245,1.245,0,0,0,.883.366,1.243,1.243,0,0,0,.879-.363l4.62-4.582a4.967,4.967,0,0,0,1.463-3.535A4.967,4.967,0,0,0-2452.315,125.969Z" transform="translate(2505.804 -117.051)" fill="#fff"/>
    </g>
  </g>
</svg>
