<svg id="Grupo_53636" data-name="Grupo 53636" xmlns="http://www.w3.org/2000/svg" width="85" height="85" viewBox="0 0 85 85">
  <rect id="Rectángulo_5342" data-name="Rectángulo 5342" width="85" height="85" rx="5" fill="#26c6da"/>
  <g id="Grupo_53635" data-name="Grupo 53635" transform="translate(14.095 18.8)">
    <path id="Trazado_100909" data-name="Trazado 100909" d="M-4616.294,284.049v10.964h3.612v-6.759h9.03v28.087h-5.161v4.205h18.061v-4.205h-5.159V288.254h9.03v6.759h3.612V284.049Z" transform="translate(4634.296 -278.682)" fill="#fff"/>
    <g id="Grupo_53634" data-name="Grupo 53634" transform="translate(12.219 0)">
      <path id="Trazado_100910" data-name="Trazado 100910" d="M-4597.416,318.879h-19.89c-2.74,0-5.075-2.173-5.678-5.284l-6.528-33.679a7.6,7.6,0,0,1,1.132-5.723,5.529,5.529,0,0,1,4.546-2.545h32.946a5.53,5.53,0,0,1,4.546,2.545,7.6,7.6,0,0,1,1.131,5.723l-6.528,33.679C-4592.341,316.706-4594.676,318.879-4597.416,318.879Zm-26.418-45.391a4.028,4.028,0,0,0-3.312,1.854,5.536,5.536,0,0,0-.824,4.169l6.528,33.68a4.414,4.414,0,0,0,4.136,3.849h19.89a4.414,4.414,0,0,0,4.136-3.849l6.528-33.68a5.536,5.536,0,0,0-.824-4.169,4.029,4.029,0,0,0-3.312-1.854Z" transform="translate(4629.656 -271.647)" fill="#fff"/>
    </g>
    <path id="Trazado_100911" data-name="Trazado 100911" d="M-4653.118,311.964V272.33a.683.683,0,0,0-.683-.683.684.684,0,0,0-.684.683v39.634h-3.407l4.09,7.083,4.09-7.083Z" transform="translate(4657.892 -271.647)" fill="#fff"/>
  </g>
</svg>
