<svg xmlns="http://www.w3.org/2000/svg" width="83.667" height="83.667" viewBox="0 0 83.667 83.667">
  <g id="Grupo_53638" data-name="Grupo 53638" transform="translate(4693.588 -1072.834)">
    <rect id="Rectángulo_5343" data-name="Rectángulo 5343" width="83.667" height="83.667" rx="5" transform="translate(-4693.588 1072.834)" fill="#26c6da"/>
    <g id="Grupo_53637" data-name="Grupo 53637" transform="translate(-4681.209 1086.065)">
      <path id="Trazado_100912" data-name="Trazado 100912" d="M-4619.136,1188.717a10.028,10.028,0,0,1-7.114-2.941l-27.439-27.439a5.275,5.275,0,0,0-7.452,0l-3.387-3.387a10.071,10.071,0,0,1,14.227,0l27.438,27.438a5.275,5.275,0,0,0,7.452,0l3.388,3.388A10.03,10.03,0,0,1-4619.136,1188.717Z" transform="translate(4664.528 -1131.513)" fill="#fff"/>
      <path id="Trazado_100913" data-name="Trazado 100913" d="M-4623.7,1126.619l6.485,6.485,2.992-2.992-2.3-2.3,6.287-6.287,15.771,15.771-4.521,4.521,3.59,3.59,13.21-13.211-3.59-3.59-4.5,4.5-15.771-15.771,6.267-6.266,2.3,2.3,2.992-2.992-6.486-6.485Z" transform="translate(4641.092 -1103.895)" fill="#fff"/>
    </g>
  </g>
</svg>
