<svg xmlns="http://www.w3.org/2000/svg" width="330.297" height="187.879" viewBox="0 0 330.297 187.879">
  <g id="Grupo_54421" data-name="Grupo 54421" transform="translate(-284 -17829)">
    <g id="Grupo_53692" data-name="Grupo 53692" transform="translate(249.756 17797.039)">
      <g id="Grupo_53671" data-name="Grupo 53671" transform="translate(34.244 31.96)">
        <g id="Grupo_53665" data-name="Grupo 53665" transform="translate(218.325)">
          <g id="Grupo_53664" data-name="Grupo 53664">
            <path id="Trazado_100914" data-name="Trazado 100914" d="M189.694,31.96H173.06a15.471,15.471,0,0,0-15.454,15.452V219.84h14.355V140.751h18.831V219.84h14.355V47.412A15.47,15.47,0,0,0,189.694,31.96ZM171.961,126.4V47.437a1.126,1.126,0,0,1,1.124-1.126h16.583a1.126,1.126,0,0,1,1.124,1.126V126.4Z" transform="translate(-157.606 -31.96)" fill="#93ebed"/>
          </g>
        </g>
        <g id="Grupo_53666" data-name="Grupo 53666" transform="translate(152.993)">
          <path id="Trazado_100915" data-name="Trazado 100915" d="M153.678,31.96H120.691V219.84h32.987a15.471,15.471,0,0,0,15.454-15.452V47.412A15.471,15.471,0,0,0,153.678,31.96ZM135.046,46.311h18.608a1.125,1.125,0,0,1,1.124,1.124V204.363a1.126,1.126,0,0,1-1.124,1.126H135.046V46.311Z" transform="translate(-120.691 -31.96)" fill="#93ebed"/>
        </g>
        <g id="Grupo_53667" data-name="Grupo 53667">
          <path id="Trazado_100916" data-name="Trazado 100916" d="M78.08,31.96H49.7A15.47,15.47,0,0,0,34.244,47.412V219.84H48.6V133.075H72.006V118.724H48.6V47.435a1.126,1.126,0,0,1,1.126-1.124H78.08V31.96Z" transform="translate(-34.244 -31.96)" fill="#93ebed"/>
        </g>
        <g id="Grupo_53668" data-name="Grupo 53668" transform="translate(121.748)">
          <path id="Trazado_100917" data-name="Trazado 100917" d="M117.391,31.96H103.036V219.84h14.355V31.96Z" transform="translate(-103.036 -31.96)" fill="#93ebed"/>
        </g>
        <g id="Grupo_53669" data-name="Grupo 53669" transform="translate(55.844)">
          <path id="Trazado_100918" data-name="Trazado 100918" d="M65.8,31.96V219.84H80.151V143.972h12.2l8.392,75.868h14.884l-10.73-76.575A18.713,18.713,0,0,0,110.13,139a16.35,16.35,0,0,0,4.109-10.482V47.412A15.471,15.471,0,0,0,98.785,31.96ZM80.151,46.311H98.76a1.125,1.125,0,0,1,1.124,1.124V128.5a1.126,1.126,0,0,1-1.124,1.126H80.151V46.311Z" transform="translate(-65.798 -31.96)" fill="#93ebed"/>
        </g>
        <g id="Grupo_53670" data-name="Grupo 53670" transform="translate(282.756)">
          <path id="Trazado_100919" data-name="Trazado 100919" d="M241.552,31.96H227.2v90.948a1.125,1.125,0,0,1-1.126,1.124H209.491a1.124,1.124,0,0,1-1.124-1.124V31.96H194.012v90.971a15.471,15.471,0,0,0,15.454,15.454h1.14V219.84H224.96V138.385h1.14a15.471,15.471,0,0,0,15.452-15.454V31.96Z" transform="translate(-194.012 -31.96)" fill="#93ebed"/>
        </g>
      </g>
      <g id="Grupo_53684" data-name="Grupo 53684" transform="translate(40.067 37.782)">
        <g id="Grupo_53673" data-name="Grupo 53673" transform="translate(218.325 0)">
          <g id="Grupo_53672" data-name="Grupo 53672">
            <path id="Trazado_100920" data-name="Trazado 100920" d="M187.16,35.25H170.527a9.642,9.642,0,0,0-9.631,9.629V211.486H163.6V132.4h30.479v79.087h2.708V44.879A9.642,9.642,0,0,0,187.16,35.25Zm6.923,9.652V129.69H163.6V44.9a6.955,6.955,0,0,1,6.948-6.945h16.583A6.955,6.955,0,0,1,194.083,44.9Z" transform="translate(-160.896 -35.25)" fill="#fff"/>
          </g>
        </g>
        <g id="Grupo_53675" data-name="Grupo 53675" transform="translate(152.993 0)">
          <g id="Grupo_53674" data-name="Grupo 53674">
            <path id="Trazado_100921" data-name="Trazado 100921" d="M151.147,35.25H123.981V211.486h27.166a9.643,9.643,0,0,0,9.629-9.633V44.879A9.642,9.642,0,0,0,151.147,35.25Zm6.922,9.652V201.83a6.956,6.956,0,0,1-6.948,6.948H126.689V37.958h24.432A6.955,6.955,0,0,1,158.069,44.9Z" transform="translate(-123.981 -35.25)" fill="#fff"/>
          </g>
        </g>
        <g id="Grupo_53677" data-name="Grupo 53677" transform="translate(0 0)">
          <g id="Grupo_53676" data-name="Grupo 53676">
            <path id="Trazado_100922" data-name="Trazado 100922" d="M47.19,37.958H69.727V35.25H47.163a9.642,9.642,0,0,0-9.629,9.629V211.486h2.708V124.72H63.651v-2.708H40.242V44.9A6.956,6.956,0,0,1,47.19,37.958Z" transform="translate(-37.534 -35.25)" fill="#fff"/>
          </g>
        </g>
        <g id="Grupo_53679" data-name="Grupo 53679" transform="translate(121.748)">
          <g id="Grupo_53678" data-name="Grupo 53678">
            <rect id="Rectángulo_5366" data-name="Rectángulo 5366" width="2.708" height="176.236" fill="#fff"/>
          </g>
        </g>
        <g id="Grupo_53681" data-name="Grupo 53681" transform="translate(55.844 0)">
          <g id="Grupo_53680" data-name="Grupo 53680">
            <path id="Trazado_100923" data-name="Trazado 100923" d="M105.882,125.987V44.881a9.641,9.641,0,0,0-9.629-9.631H69.088V211.486H71.8V135.62h21.97l9.66,75.866h2.768l-9.638-75.871A9.645,9.645,0,0,0,105.882,125.987ZM71.8,37.958H96.228a6.953,6.953,0,0,1,6.946,6.945v81.06a6.954,6.954,0,0,1-6.946,6.948H71.8Z" transform="translate(-69.088 -35.25)" fill="#fff"/>
          </g>
        </g>
        <g id="Grupo_53683" data-name="Grupo 53683" transform="translate(282.758 0)">
          <g id="Grupo_53682" data-name="Grupo 53682">
            <path id="Trazado_100924" data-name="Trazado 100924" d="M230.488,35.25v85.125a6.956,6.956,0,0,1-6.948,6.948H206.957a6.955,6.955,0,0,1-6.946-6.948V35.25H197.3V120.4a9.643,9.643,0,0,0,9.629,9.633h6.962v81.455H216.6V130.031h6.964A9.643,9.643,0,0,0,233.2,120.4V35.25Z" transform="translate(-197.303 -35.25)" fill="#fff"/>
          </g>
        </g>
      </g>
      <g id="Grupo_53691" data-name="Grupo 53691" transform="translate(73.571 67.983)">
        <g id="Grupo_53685" data-name="Grupo 53685" transform="translate(236.287 68.91)">
          <path id="Trazado_100925" data-name="Trazado 100925" d="M194.512,100.282a4.418,4.418,0,0,1-.628-.048,4.654,4.654,0,0,1-3.9-4.913v-.005a4.395,4.395,0,0,1,1.607-3.131,4.242,4.242,0,0,1,3.292-.887,4.652,4.652,0,0,1,3.9,4.913,4.4,4.4,0,0,1-1.607,3.136A4.247,4.247,0,0,1,194.512,100.282Z" transform="translate(-189.976 -91.251)" fill="#363636"/>
        </g>
        <g id="Grupo_53690" data-name="Grupo 53690" transform="translate(0 0)">
          <g id="Grupo_53686" data-name="Grupo 53686" transform="translate(56.525 16.614)">
            <path id="Trazado_100926" data-name="Trazado 100926" d="M91.944,159.609a3.542,3.542,0,0,1-3.506-4.028c1.715-12.33,13.222-62.21,24.2-91.58a3.54,3.54,0,0,1,6.631,2.478c-9.569,25.609-19.537,66.971-22.871,84.531,36.976-10.686,104.076-19.2,171.606-13.773a3.539,3.539,0,1,1-.566,7.054C200.46,138.915,129,147.836,93.029,159.437A3.526,3.526,0,0,1,91.944,159.609Z" transform="translate(-88.404 -61.702)" fill="#363636"/>
          </g>
          <g id="Grupo_53687" data-name="Grupo 53687" transform="translate(243.631)">
            <path id="Trazado_100927" data-name="Trazado 100927" d="M197.668,111.736a3.545,3.545,0,0,1-3.375-4.614c8.58-26.979,18.91-52.35,19.013-52.6a3.539,3.539,0,1,1,6.554,2.674c-.1.251-10.33,25.374-18.818,52.074A3.544,3.544,0,0,1,197.668,111.736Z" transform="translate(-194.126 -52.314)" fill="#363636"/>
          </g>
          <g id="Grupo_53688" data-name="Grupo 53688" transform="translate(195.992 25.65)">
            <path id="Trazado_100928" data-name="Trazado 100928" d="M181.8,119.663c-5.7,0-10.175-2.51-12.658-7.141-3.251-6.062-2.329-15.164,2.143-21.17a3.54,3.54,0,0,1,5.679,4.226c-2.844,3.821-3.556,9.921-1.584,13.6,1.324,2.469,3.658,3.591,7.122,3.389,5.69-.306,10.829-6.8,13.633-14.346a13.685,13.685,0,0,1-11.1-3.925,18.1,18.1,0,0,1-3.049-21.9,10.74,10.74,0,0,1,8.637-5.571,13.079,13.079,0,0,1,10.87,5.449c4.469,5.771,4.386,12.532,3.715,18.385-.09.779-.195,1.538-.317,2.283a3.578,3.578,0,0,1-.073.434c-2.987,17.431-14.381,25.851-21.937,26.257Q182.34,119.662,181.8,119.663Zm9.449-45.776c-.067,0-.135,0-.2.005a3.8,3.8,0,0,0-2.986,2.138,11.033,11.033,0,0,0,1.869,13.15,6.822,6.822,0,0,0,8.178,1.2c.023-.175.046-.35.064-.522.534-4.662.63-9.493-2.276-13.245A6.4,6.4,0,0,0,191.252,73.888Z" transform="translate(-167.208 -66.807)" fill="#363636"/>
          </g>
          <g id="Grupo_53689" data-name="Grupo 53689" transform="translate(0 1.632)">
            <path id="Trazado_100929" data-name="Trazado 100929" d="M71.32,182.19a14.627,14.627,0,0,1-10.346-4.281c-5.724-5.771-7.247-17.257,2.936-28.842,9.249-10.523,19.942-16.54,31.18-20.471,3.5-14.682,6.175-24.993,9.238-36.785,1.165-4.479,2.384-9.171,3.724-14.4-4.888,1.285-10.36.619-15.719-.034-5.253-.639-10.688-1.3-15.679-.214a10.64,10.64,0,0,0-8.1,6.808,12.692,12.692,0,0,0,1.31,11.564,10.809,10.809,0,0,0,8.906,4.391h.03c3.437,0,6.8-1.442,8.385-3.594a3.539,3.539,0,1,1,5.7,4.191c-2.94,4-8.334,6.483-14.088,6.483h-.05A17.879,17.879,0,0,1,64.135,99.7a19.766,19.766,0,0,1-2.2-18.25,17.671,17.671,0,0,1,13.213-11.2c6.168-1.338,12.473-.572,18.038.106,8.621,1.048,14.088,1.481,17.744-2.662a3.54,3.54,0,0,1,6.085,3.21c-2.218,8.762-4.088,15.965-5.835,22.689-2.764,10.64-5.214,20.066-8.233,32.587,7.014-1.9,14.153-3.223,21.215-4.532,5.649-1.048,11.159-2.071,16.447-3.361.011-.12.023-.241.037-.363,1.318-12.019,5.771-22.694,11.912-28.556,3.575-3.412,7.734-5.139,11.711-4.835a12.007,12.007,0,0,1,8.638,4.761,15.212,15.212,0,0,1,2.789,12.663c-1.3,6.2-5.955,12.013-12.456,15.546a78.51,78.51,0,0,1-15.533,6.2,8.927,8.927,0,0,0,3.271,6.207c2.54,1.849,6.3,1.878,10.307.08,6.766-3.03,14.424-10.038,19.077-14.567.446-18.645,14.344-45.112,14.535-45.461,4.963-9.075,9.971-14.295,14.886-15.509A9.137,9.137,0,0,1,217.2,55.77c10.587,7.033.809,21.9-3.368,28.244-.575.876-1.2,1.851-1.888,2.911-5.1,7.9-12.8,19.836-24.184,31.152-.108.106-.216.212-.327.324.214,2.795.963,4.984,2.4,6.276,1.4,1.258,3.37,2.37,7.329,1.042,6.95-2.326,14.774-8.883,19.726-13.238,1.485-18.586,16.877-44.181,17.087-44.517C239.433,59.221,244.723,54.32,249.7,53.4a9.14,9.14,0,0,1,7.346,1.763c10.159,7.667-.444,21.9-4.971,27.979-.623.835-1.3,1.768-2.046,2.782-5.532,7.571-13.895,19.013-25.906,29.61l-.335.3c.057,2.805.681,5.039,2.046,6.419.319.319,1.557,1.363,4.217,1.182,3.98-.264,12.719-3.428,26.506-21.653a3.539,3.539,0,1,1,5.644,4.271c-11.808,15.61-22.466,23.836-31.681,24.448a12.414,12.414,0,0,1-9.718-3.269,13.276,13.276,0,0,1-3.3-5.955c-5.127,4.235-11.712,9.024-18.091,11.16-5.57,1.862-10.385,1.03-14.305-2.488a13.17,13.17,0,0,1-3.653-5.8c-4.9,4.486-11.167,9.576-17.27,12.311-6.392,2.862-12.723,2.566-17.371-.819a15.521,15.521,0,0,1-5.982-10.134c-5.1,1.2-10.27,2.157-15.374,3.1a215.671,215.671,0,0,0-24.4,5.516c-3.986,17.424-8.686,35.127-18.232,43.381A17.532,17.532,0,0,1,71.32,182.19Zm21.807-45.229a63.022,63.022,0,0,0-23.9,16.778c-7.185,8.175-6.709,15.675-3.228,19.183,2.6,2.621,7.375,3.394,12.194-.773C85.378,165.938,89.723,151.259,93.128,136.961Zm70.25-45.385c-1.864,0-3.954,1.023-5.931,2.91-5.272,5.033-8.251,14.112-9.437,21.74a67.965,67.965,0,0,0,11.852-4.947c4.628-2.515,8.04-6.644,8.907-10.778a8.2,8.2,0,0,0-1.455-6.869,4.956,4.956,0,0,0-3.571-2.042C163.624,91.582,163.5,91.576,163.378,91.576Zm48.68-30.324a2.353,2.353,0,0,0-.577.076c-2.747.678-6.624,5.175-10.371,12.029A138.628,138.628,0,0,0,188.552,106.9a192.585,192.585,0,0,0,17.44-23.807c.7-1.08,1.338-2.072,1.924-2.964,6.877-10.454,8.584-16.319,5.366-18.457A2.142,2.142,0,0,0,212.058,61.253Zm39.392-.938a2.539,2.539,0,0,0-.464.046c-2.775.513-6.89,4.757-11.006,11.351a137.7,137.7,0,0,0-14.441,32.746,191.009,191.009,0,0,0,18.774-22.712c.756-1.034,1.448-1.982,2.083-2.833,7.456-10.01,9.484-15.762,6.384-18.1A2.12,2.12,0,0,0,251.45,60.315Z" transform="translate(-56.465 -53.237)" fill="#363636"/>
          </g>
        </g>
      </g>
    </g>
  </g>
</svg>
