<svg xmlns="http://www.w3.org/2000/svg" width="39.165" height="48.931" viewBox="0 0 39.165 48.931">
  <g id="briefing" transform="translate(-51.091)">
    <g id="Grupo_53696" data-name="Grupo 53696" transform="translate(51.091 11.347)">
      <g id="Grupo_53695" data-name="Grupo 53695">
        <path id="Trazado_100942" data-name="Trazado 100942" d="M79.723,154.878h-27.2V119.448a.718.718,0,0,0-1.436,0v35.669a1.2,1.2,0,0,0,1.2,1.2H79.723a.718.718,0,1,0,0-1.436Z" transform="translate(-51.091 -118.73)" fill="#f57c00"/>
      </g>
    </g>
    <g id="Grupo_53698" data-name="Grupo 53698" transform="translate(51.091)">
      <g id="Grupo_53697" data-name="Grupo 53697">
        <path id="Trazado_100943" data-name="Trazado 100943" d="M90.053,6.494,83.949.218A.718.718,0,0,0,83.434,0H52.288a1.2,1.2,0,0,0-1.2,1.2V6.8a.718.718,0,1,0,1.436,0V1.436h30.6l5.69,5.85V47.494H84.75a.718.718,0,1,0,0,1.436h4.31a1.2,1.2,0,0,0,1.2-1.2V6.995A.718.718,0,0,0,90.053,6.494Z" transform="translate(-51.091)" fill="#f57c00"/>
      </g>
    </g>
    <g id="Grupo_53700" data-name="Grupo 53700" transform="translate(82.716 0)">
      <g id="Grupo_53699" data-name="Grupo 53699">
        <path id="Trazado_100944" data-name="Trazado 100944" d="M389.341,6.494l-6.1-6.276a.718.718,0,0,0-1.233.5V7a.718.718,0,0,0,.718.718h6.1a.718.718,0,0,0,.515-1.219Zm-5.9-.218V2.487l3.686,3.79H383.44Z" transform="translate(-382.004 -0.001)" fill="#f57c00"/>
      </g>
    </g>
    <g id="Grupo_53702" data-name="Grupo 53702" transform="translate(55.496 3.813)">
      <g id="Grupo_53701" data-name="Grupo 53701">
        <path id="Trazado_100945" data-name="Trazado 100945" d="M115.69,39.9h-17.3a1.2,1.2,0,0,0-1.2,1.2v3.969a1.2,1.2,0,0,0,1.2,1.2h17.3a1.2,1.2,0,0,0,1.2-1.2V41.1A1.2,1.2,0,0,0,115.69,39.9Zm-.239,4.927H98.625v-3.49h16.825Z" transform="translate(-97.189 -39.899)" fill="#f57c00"/>
      </g>
    </g>
    <g id="Grupo_53704" data-name="Grupo 53704" transform="translate(56.346 13.788)">
      <g id="Grupo_53703" data-name="Grupo 53703">
        <path id="Trazado_100946" data-name="Trazado 100946" d="M112.4,144.426a.718.718,0,0,0-1.006.137l-3.173,4.175-.953-.834a.718.718,0,0,0-.946,1.081l1.532,1.341a.719.719,0,0,0,.473.178c.024,0,.048,0,.073,0a.718.718,0,0,0,.5-.28l3.639-4.788A.718.718,0,0,0,112.4,144.426Z" transform="translate(-106.079 -144.28)" fill="#f57c00"/>
      </g>
    </g>
    <g id="Grupo_53706" data-name="Grupo 53706" transform="translate(65.477 13.788)">
      <g id="Grupo_53705" data-name="Grupo 53705">
        <path id="Trazado_100947" data-name="Trazado 100947" d="M220.428,144.277H202.339a.718.718,0,1,0,0,1.436h18.088a.718.718,0,1,0,0-1.436Z" transform="translate(-201.621 -144.277)" fill="#f57c00"/>
      </g>
    </g>
    <g id="Grupo_53708" data-name="Grupo 53708" transform="translate(65.477 16.182)">
      <g id="Grupo_53707" data-name="Grupo 53707">
        <path id="Trazado_100948" data-name="Trazado 100948" d="M214.083,169.326H202.339a.718.718,0,1,0,0,1.436h11.744a.718.718,0,0,0,0-1.436Z" transform="translate(-201.621 -169.326)" fill="#f57c00"/>
      </g>
    </g>
    <g id="Grupo_53710" data-name="Grupo 53710" transform="translate(65.477 18.576)">
      <g id="Grupo_53709" data-name="Grupo 53709">
        <path id="Trazado_100949" data-name="Trazado 100949" d="M216.764,194.376H202.339a.718.718,0,0,0,0,1.436h14.425a.718.718,0,1,0,0-1.436Z" transform="translate(-201.621 -194.376)" fill="#f57c00"/>
      </g>
    </g>
    <g id="Grupo_53712" data-name="Grupo 53712" transform="translate(56.346 23.556)">
      <g id="Grupo_53711" data-name="Grupo 53711">
        <path id="Trazado_100950" data-name="Trazado 100950" d="M112.4,246.629a.718.718,0,0,0-1.006.137l-3.173,4.175-.953-.834a.718.718,0,0,0-.946,1.081l1.532,1.341a.719.719,0,0,0,.473.178c.024,0,.048,0,.073,0a.718.718,0,0,0,.5-.28l3.639-4.788A.718.718,0,0,0,112.4,246.629Z" transform="translate(-106.079 -246.482)" fill="#f57c00"/>
      </g>
    </g>
    <g id="Grupo_53714" data-name="Grupo 53714" transform="translate(65.477 23.556)">
      <g id="Grupo_53713" data-name="Grupo 53713">
        <path id="Trazado_100951" data-name="Trazado 100951" d="M220.428,246.481H202.339a.718.718,0,1,0,0,1.436h18.088a.718.718,0,1,0,0-1.436Z" transform="translate(-201.621 -246.481)" fill="#f57c00"/>
      </g>
    </g>
    <g id="Grupo_53716" data-name="Grupo 53716" transform="translate(65.477 25.949)">
      <g id="Grupo_53715" data-name="Grupo 53715">
        <path id="Trazado_100952" data-name="Trazado 100952" d="M214.083,271.53H202.339a.718.718,0,1,0,0,1.436h11.744a.718.718,0,1,0,0-1.436Z" transform="translate(-201.621 -271.53)" fill="#f57c00"/>
      </g>
    </g>
    <g id="Grupo_53718" data-name="Grupo 53718" transform="translate(65.477 28.343)">
      <g id="Grupo_53717" data-name="Grupo 53717">
        <path id="Trazado_100953" data-name="Trazado 100953" d="M216.764,296.579H202.339a.718.718,0,1,0,0,1.436h14.425a.718.718,0,1,0,0-1.436Z" transform="translate(-201.621 -296.579)" fill="#f57c00"/>
      </g>
    </g>
    <g id="Grupo_53720" data-name="Grupo 53720" transform="translate(65.477 33.323)">
      <g id="Grupo_53719" data-name="Grupo 53719">
        <path id="Trazado_100954" data-name="Trazado 100954" d="M220.428,348.685H202.339a.718.718,0,1,0,0,1.436h18.088a.718.718,0,1,0,0-1.436Z" transform="translate(-201.621 -348.685)" fill="#f57c00"/>
      </g>
    </g>
    <g id="Grupo_53722" data-name="Grupo 53722" transform="translate(65.477 35.717)">
      <g id="Grupo_53721" data-name="Grupo 53721">
        <path id="Trazado_100955" data-name="Trazado 100955" d="M214.083,373.734H202.339a.718.718,0,0,0,0,1.436h11.744a.718.718,0,0,0,0-1.436Z" transform="translate(-201.621 -373.734)" fill="#f57c00"/>
      </g>
    </g>
    <g id="Grupo_53724" data-name="Grupo 53724" transform="translate(65.477 38.111)">
      <g id="Grupo_53723" data-name="Grupo 53723">
        <path id="Trazado_100956" data-name="Trazado 100956" d="M216.764,398.783H202.339a.718.718,0,1,0,0,1.436h14.425a.718.718,0,1,0,0-1.436Z" transform="translate(-201.621 -398.783)" fill="#f57c00"/>
      </g>
    </g>
    <g id="Grupo_53726" data-name="Grupo 53726" transform="translate(56.346 33.323)">
      <g id="Grupo_53725" data-name="Grupo 53725">
        <path id="Trazado_100957" data-name="Trazado 100957" d="M111.1,348.685h-3.83a1.2,1.2,0,0,0-1.2,1.2v3.83a1.2,1.2,0,0,0,1.2,1.2h3.83a1.2,1.2,0,0,0,1.2-1.2v-3.83A1.2,1.2,0,0,0,111.1,348.685Zm-.239,4.788h-3.351v-3.351h3.351Z" transform="translate(-106.077 -348.685)" fill="#f57c00"/>
      </g>
    </g>
  </g>
</svg>
