<svg xmlns="http://www.w3.org/2000/svg" width="48.926" height="48.931" viewBox="0 0 48.926 48.931">
  <g id="documentos" transform="translate(-0.022)">
    <path id="Trazado_100958" data-name="Trazado 100958" d="M247.36,55.676h7.566a1.2,1.2,0,0,0,1.195-1.195v-7.6a1.2,1.2,0,0,0-1.195-1.195H247.36a1.2,1.2,0,0,0-1.195,1.195v1.8a.717.717,0,1,0,1.434,0V47.122h7.088v7.121H247.6V52.129a.717.717,0,1,0-1.434,0v2.352A1.2,1.2,0,0,0,247.36,55.676Z" transform="translate(-222.619 -41.322)" fill="#f57c00"/>
    <path id="Trazado_100959" data-name="Trazado 100959" d="M112.2,124.509h9.765a.717.717,0,0,0,0-1.434H112.2a.717.717,0,0,0,0,1.434Z" transform="translate(-100.809 -111.313)" fill="#f57c00"/>
    <path id="Trazado_100960" data-name="Trazado 100960" d="M183.145,187.2a.717.717,0,0,0-.717-.717h-9.853a.717.717,0,0,0,0,1.434h9.853A.717.717,0,0,0,183.145,187.2Z" transform="translate(-155.414 -168.657)" fill="#f57c00"/>
    <path id="Trazado_100961" data-name="Trazado 100961" d="M112.2,91.876h9.765a.717.717,0,0,0,0-1.434H112.2a.717.717,0,0,0,0,1.434Z" transform="translate(-100.809 -81.799)" fill="#f57c00"/>
    <path id="Trazado_100962" data-name="Trazado 100962" d="M112.2,59.243h9.765a.717.717,0,0,0,0-1.434H112.2a.717.717,0,0,0,0,1.434Z" transform="translate(-100.809 -52.284)" fill="#f57c00"/>
    <path id="Trazado_100963" data-name="Trazado 100963" d="M112.2,270.895h14.7a.717.717,0,1,0,0-1.434H112.2a.717.717,0,1,0,0,1.434Z" transform="translate(-100.809 -243.709)" fill="#f57c00"/>
    <path id="Trazado_100964" data-name="Trazado 100964" d="M112.2,228.938h11.629a.717.717,0,1,0,0-1.434H112.2a.717.717,0,0,0,0,1.434Z" transform="translate(-100.809 -205.762)" fill="#f57c00"/>
    <path id="Trazado_100965" data-name="Trazado 100965" d="M273.09,227.5h-6.7a.717.717,0,0,0,0,1.434h6.7a.717.717,0,1,0,0-1.434Z" transform="translate(-240.261 -205.762)" fill="#f57c00"/>
    <path id="Trazado_100966" data-name="Trazado 100966" d="M48.117,44.337l-.027-.025-4.411-3.925a9.352,9.352,0,0,0,1.147-4.175.717.717,0,1,0-1.433-.051,7.936,7.936,0,1,1-.453-2.961.717.717,0,1,0,1.351-.48,9.383,9.383,0,0,0-7.684-6.16V1.195A1.2,1.2,0,0,0,35.413,0H8.762A1.2,1.2,0,0,0,7.567,1.195V3.787H4.989A1.2,1.2,0,0,0,3.795,4.982V7.574H1.217A1.2,1.2,0,0,0,.022,8.769V44.526A1.2,1.2,0,0,0,1.217,45.72H24.04a1.2,1.2,0,0,0,1.195-1.195V41.933h3.112a9.334,9.334,0,0,0,11.564,2.2l4.444,3.98a2.668,2.668,0,1,0,3.762-3.779ZM9,1.434H35.174V26.5a9.367,9.367,0,0,0-7.469,4.157h-2.91a.717.717,0,1,0,0,1.434h2.122q-.144.327-.264.669a9.383,9.383,0,0,0-.528,3.116c0,.284.013.564.038.841H16.191a5.164,5.164,0,0,0,1.6-3.739v-.887h3.9a.717.717,0,1,0,0-1.434H17.072a.717.717,0,0,0-.717.717v1.6a3.734,3.734,0,0,1-3.722,3.739H9ZM5.228,40.5V30.7a.717.717,0,1,0-1.434,0V40.738a1.2,1.2,0,0,0,1.195,1.195H23.8v2.354H1.456V9.008H3.795V27.672a.717.717,0,0,0,1.434,0V5.221H7.567V37.429a.717.717,0,0,0,.717.717H26.4a9.336,9.336,0,0,0,.942,2.353H5.228Zm41.947,6.656a1.3,1.3,0,0,1-1.85-.1l-4.169-3.734a9.5,9.5,0,0,0,1.73-1.726l4.235,3.769A1.269,1.269,0,0,1,47.175,47.156Z" fill="#f57c00"/>
    <path id="Trazado_100967" data-name="Trazado 100967" d="M313.2,311.233a6.126,6.126,0,1,0,6.11,6.126A6.145,6.145,0,0,0,313.2,311.233Zm0,10.819a4.693,4.693,0,1,1,4.676-4.693A4.69,4.69,0,0,1,313.2,322.052Z" transform="translate(-277.723 -281.488)" fill="#f57c00"/>
  </g>
</svg>
