<svg xmlns="http://www.w3.org/2000/svg" width="393.978" height="243.177" viewBox="0 0 393.978 243.177">
  <g id="Grupo_54413" data-name="Grupo 54413" transform="translate(-596 -3079.542)">
    <g id="Grupo_53853" data-name="Grupo 53853" transform="translate(682 3079.542)">
      <path id="Trazado_101455" data-name="Trazado 101455" d="M591.024,576.665c.091,0,.182,0,.272.005.2.007.408.019.611.036a11.244,11.244,0,0,1,3.486.883,11.3,11.3,0,0,1,3.347,2.238,11.147,11.147,0,0,1,1.755,2.192,11.268,11.268,0,0,1,1.237,2.834,11.425,11.425,0,0,1,.274,1.241,11.226,11.226,0,0,1,.13,2.362,11.209,11.209,0,0,1-.882,3.825,11.348,11.348,0,0,1-1.206,2.143,11.175,11.175,0,0,1-4.569,3.716,11.219,11.219,0,0,1-15.645-8.6,11.19,11.19,0,0,1,.12-3.987,11.27,11.27,0,0,1,.57-1.866,11.5,11.5,0,0,1,.707-1.441,11.224,11.224,0,0,1,1.544-2.066,11.127,11.127,0,0,1,1.389-1.245,11.255,11.255,0,0,1,5.31-2.172c.334-.044.671-.072,1.007-.086.135-.006.271-.008.406-.009Zm11.381-25.88c.2.033.4.051.6.1a4.49,4.49,0,0,1,2.874,2.128l22.725,39.361a4.488,4.488,0,0,1-7.431,5c-.125-.161-.227-.339-.342-.508L598.11,557.5c-.09-.183-.193-.362-.27-.55a4.488,4.488,0,0,1,3.344-6.107c.2-.037.405-.047.609-.07l.612.014Z" transform="translate(-523.869 -505.889)" fill="#d8a450" fill-rule="evenodd"/>
      <path id="Trazado_101456" data-name="Trazado 101456" d="M535.24,642.408H524V620.674h10.619a10.392,10.392,0,0,1,6.1,1.521,4.814,4.814,0,0,1,2.127,4.129,5.224,5.224,0,0,1-2.888,4.782,5.729,5.729,0,0,1,2.919,1.972,5.435,5.435,0,0,1,1.056,3.4,5.022,5.022,0,0,1-2.22,4.393,11.348,11.348,0,0,1-6.473,1.537Zm17.542,0h-5.03V620.674h9.408a12.079,12.079,0,0,1,5.015.962,7.191,7.191,0,0,1,4.424,6.924,7.082,7.082,0,0,1-4.471,6.862L567,642.408h-5.4l-4.192-6.054h-4.627v6.054Zm39.308,0h-5.278l-1.924-4.657H574.8l-1.926,4.657h-5.154l9.688-21.734h4.968l9.718,21.734Zm7.235,0h-4.968V620.674h4.161l10.8,13.2v-13.2h4.969v21.734h-4.13l-10.836-13.2v13.2Zm29.993,0h-9.873V620.674h9.873a13.882,13.882,0,0,1,6.257,1.35,10.117,10.117,0,0,1,4.223,3.8,11.592,11.592,0,0,1,0,11.426,10.117,10.117,0,0,1-4.223,3.8,13.882,13.882,0,0,1-6.257,1.35Zm27.82,0h-2.3V620.674h1.893l14,17.635V620.674H673v21.734H671.11l-13.972-17.635v17.635Zm41.605,0h-2.422l-2.608-5.806H681.6L679,642.408h-2.391l9.936-21.734h2.266l9.935,21.734Zm5.806,0h-2.205V620.674h1.894l9.439,16.115,9.346-16.115h1.893v21.734h-2.2V625.02l-8.539,14.624h-1.087l-8.538-14.531v17.294ZM746.9,622.661H734.3v7.731h11.24v1.957H734.3v8.073h13.072v1.987H732V620.674h14.9v1.987ZM534.867,638.62a5.578,5.578,0,0,0,3-.652,2.235,2.235,0,0,0,1.009-2.019q0-2.7-4.005-2.7H529v5.372Zm94.2-13.816h-4.595v13.474h4.595a7.3,7.3,0,0,0,5.2-1.816,7.21,7.21,0,0,0,0-9.842,7.3,7.3,0,0,0-5.2-1.816Zm63.806,9.935-5.216-11.674-5.216,11.674ZM583.3,633.932l-3.446-8.321-3.447,8.321Zm-21.8-5.372a3.446,3.446,0,0,0-1.18-2.811,5.287,5.287,0,0,0-3.447-.977h-4.1v7.576h4.1a5.231,5.231,0,0,0,3.447-.993,3.455,3.455,0,0,0,1.18-2.795ZM529,624.462v5.123h5a5.056,5.056,0,0,0,2.826-.652,2.176,2.176,0,0,0,.962-1.926,2.136,2.136,0,0,0-.962-1.909,5.15,5.15,0,0,0-2.826-.636Z" transform="translate(-524 -505.725)" fill="#3a3a39" fill-rule="evenodd"/>
      <path id="Trazado_101457" data-name="Trazado 101457" d="M599.56,658.545h1.077V662.6a5.187,5.187,0,0,1-1.761,1,6.549,6.549,0,0,1-2.14.349,5.879,5.879,0,0,1-2.87-.7,5.16,5.16,0,0,1-2-1.936,5.631,5.631,0,0,1,0-5.541,5.154,5.154,0,0,1,2-1.936,5.912,5.912,0,0,1,2.885-.7,6.212,6.212,0,0,1,2.231.388,4.419,4.419,0,0,1,1.715,1.146l-.7.714a4.367,4.367,0,0,0-3.2-1.245,4.77,4.77,0,0,0-2.33.569,4.183,4.183,0,0,0-1.632,1.579,4.577,4.577,0,0,0,0,4.5,4.262,4.262,0,0,0,1.625,1.579,5.045,5.045,0,0,0,5.1-.243v-3.582ZM572.1,663.858h-1.124V654.2H567.24v-.972h8.592v.972H572.1v9.655Zm16.243,0h-1.185l-1.275-2.839h-5.92l-1.276,2.839h-1.169l4.858-10.627h1.108l4.858,10.627Zm24.668,0h-7.074V653.231h1.124v9.655h5.951v.972Zm5.116,0H617V653.231h1.124v10.627Zm6.71,0h-1.124V653.231h.926l6.846,8.622v-8.622h1.109v10.627h-.926l-6.831-8.623v8.623Zm20.63-9.655H639.3v3.78H644.8v.956H639.3v3.946h6.391v.972h-7.515V653.231h7.287v.972Zm12.22,9.655h-1.124V653.231h1.124v4.736h6.65v-4.736h1.108v10.627h-1.108v-4.9h-6.65v4.9Zm20.63-9.655h-6.163v3.78h5.5v.956h-5.5v3.946h6.391v.972h-7.515V653.231h7.287v.972Zm6.117,9.655H683.31V653.231h3.977a4.8,4.8,0,0,1,3.188.972,3.306,3.306,0,0,1,1.154,2.671,3.456,3.456,0,0,1-.63,2.1,3.5,3.5,0,0,1-1.8,1.237l2.6,3.644h-1.23l-2.429-3.416a7.763,7.763,0,0,1-.85.045h-2.855v3.371ZM703.7,654.2h-6.163v3.78h5.5v.956h-5.5v3.946h6.391v.972H696.41V653.231H703.7v.972Zm-118.225,5.9-2.55-5.708-2.551,5.708Zm101.784-.577a3.673,3.673,0,0,0,2.414-.7,2.741,2.741,0,0,0,0-3.939,3.7,3.7,0,0,0-2.414-.691h-2.823v5.328Z" transform="translate(-523.899 -505.649)" fill="#3a3a39" fill-rule="evenodd"/>
    </g>
    <g id="Grupo_54412" data-name="Grupo 54412" transform="translate(4 2234.78)">
      <g id="Image_Place_Holder" data-name="Image Place Holder" transform="translate(592 873.22)" opacity="0.1">
        <rect id="Image_Place_Holder-2" data-name="Image Place Holder" width="393.978" height="214.719" rx="10" transform="translate(0 0)" fill="#f57c00"/>
      </g>
      <path id="Trazado_101454" data-name="Trazado 101454" d="M623.937,530.641l-2.592-4.484c-.108-.188-.212-.38-.311-.574q-.253-.492-.463-1a13.548,13.548,0,0,1-.585-1.755c-.075-.293-.141-.588-.2-.885a13.484,13.484,0,0,1,.488-6.817,13.573,13.573,0,0,1,1.1-2.424,13.373,13.373,0,0,1,3.353-3.848,13.586,13.586,0,0,1,1.558-1.051v0l.01-.007.107-.061c.112-.063.226-.125.34-.185q.359-.189.73-.358a13.391,13.391,0,0,1,4.214-1.132c.284-.028.569-.047.855-.057.149-.005.3-.008.448-.008h.081c.135,0,.271,0,.406.008q.4.013.809.052a13.437,13.437,0,0,1,9.625,5.485q.213.295.412.6.174.272.337.55l.021.035,46.045,79.753.27.55c.064.194.141.384.193.582a4.489,4.489,0,0,1-5.362,5.484,4.453,4.453,0,0,1-1.142-.436,4.5,4.5,0,0,1-1.39-1.184c-.125-.161-.228-.339-.342-.508-15.355-26.6-30.475-53.33-46.066-79.79a4.548,4.548,0,0,0-.539-.734,4.47,4.47,0,0,0-2.1-1.3,4.55,4.55,0,0,0-.7-.14,4.427,4.427,0,0,0-2.223.3,4.538,4.538,0,0,0-1.488.991,4.444,4.444,0,0,0-.815,1.13,4.516,4.516,0,0,0-.468,2.466,4.39,4.39,0,0,0,.216,1,4.658,4.658,0,0,0,.2.487c.047.1.1.2.154.3l.014.023,30.5,52.825.016.034,2.593,4.487c.115.2.225.4.331.612.192.378.367.766.522,1.161a13.421,13.421,0,0,1,.485,1.478q.075.283.138.569c.09.414.161.833.212,1.254a13.489,13.489,0,0,1-.323,4.953,13.583,13.583,0,0,1-.8,2.277,13.424,13.424,0,0,1-3.984,5.029,13.577,13.577,0,0,1-3.731,2.046,13.445,13.445,0,0,1-6.273.669,13.516,13.516,0,0,1-4.623-1.487,13.4,13.4,0,0,1-4.134-3.438,13.727,13.727,0,0,1-.844-1.177c-.076-.121-.151-.243-.225-.366l-.083-.142-30.5-52.832a4.488,4.488,0,0,1,7.431-5c.125.161.228.339.342.508l30.492,52.816c.009.015.018.031.028.046a4.456,4.456,0,0,0,2.636,2.035,4.641,4.641,0,0,0,.784.149,4.45,4.45,0,0,0,2.1-.3,4.614,4.614,0,0,0,.584-.285,4.531,4.531,0,0,0,.823-.608,4.4,4.4,0,0,0,.691-.822,4.544,4.544,0,0,0,.584-1.324c.024-.09.044-.181.062-.274.01-.052.02-.1.028-.157a4.886,4.886,0,0,0,.053-.528,4.545,4.545,0,0,0-.022-.651,4.338,4.338,0,0,0-.123-.67c-.029-.11-.062-.22-.1-.327a4.6,4.6,0,0,0-.354-.769l-30.5-52.824-.018-.036Z" transform="translate(154.196 338.768)" fill="#3a3a39" fill-rule="evenodd"/>
    </g>
  </g>
</svg>
