<svg xmlns="http://www.w3.org/2000/svg" width="82.781" height="83.483" viewBox="0 0 82.781 83.483">
  <g id="diseno-grafico" transform="translate(-2.097)">
    <path id="Trazado_103535" data-name="Trazado 103535" d="M238.692,10.235h-5.434V2.717a2.717,2.717,0,1,1,5.434,0Z" transform="translate(-192.487)" fill="#aa9ea9"/>
    <path id="Trazado_103536" data-name="Trazado 103536" d="M83.417,131.891H77.592v-1.2A34.11,34.11,0,0,0,57.118,99.424v15.9a20.508,20.508,0,0,1,6.923,15.369v1.2H22.934v-1.2a20.531,20.531,0,0,1,8.113-16.349V98.928A34.141,34.141,0,0,0,9.383,130.691v1.2H3.558A1.46,1.46,0,0,0,2.1,133.35v10.634a1.461,1.461,0,0,0,1.461,1.459h79.86a1.461,1.461,0,0,0,1.461-1.459V133.35A1.46,1.46,0,0,0,83.417,131.891Z" transform="translate(0 -82.377)" fill="#fee45a"/>
    <g id="Grupo_54356" data-name="Grupo 54356" transform="translate(57.036 17.011)">
      <path id="Trazado_103537" data-name="Trazado 103537" d="M330.478,101.677h0Z" transform="translate(-330.478 -101.677)" fill="#99e6fc"/>
      <path id="Trazado_103538" data-name="Trazado 103538" d="M330.49,101.682l.08.035v0Z" transform="translate(-330.488 -101.681)" fill="#99e6fc"/>
    </g>
    <g id="XMLID_947_" transform="translate(32.519 6.052)">
      <g id="Grupo_54357" data-name="Grupo 54357" transform="translate(0)">
        <path id="Trazado_103539" data-name="Trazado 103539" d="M216.89,89.418,214.166,83.9l-3.349-39.567-.572-6.759a1.528,1.528,0,0,0-1.521-1.4h-3.071l-1.754,1.5-3.071,38.967L197.086,89.7l.981,2.919,1.672,1.534h13.749l3.5-4.452A1.228,1.228,0,0,0,216.89,89.418Z" transform="translate(-194.886 -36.174)" fill="#c9bfc8"/>
        <path id="Trazado_103540" data-name="Trazado 103540" d="M187.875,89.831a1.239,1.239,0,0,1,.1-.283l2.724-5.519,3.349-39.567.572-6.759a1.528,1.528,0,0,1,1.521-1.4h2.248a1.516,1.516,0,0,0-.615-.131H192.2a1.528,1.528,0,0,0-1.521,1.4l-.572,6.759L186.761,83.9l-2.724,5.519a1.24,1.24,0,0,0-.1.283l4.853,4.452h3.8Z" transform="translate(-183.937 -36.173)" fill="#baafb9"/>
      </g>
    </g>
    <path id="Trazado_103541" data-name="Trazado 103541" d="M237.338,267.618h-2.284a1.45,1.45,0,0,1-1.45-1.45v-8.507a1.45,1.45,0,0,1,1.45-1.45h2.284a1.45,1.45,0,0,1,1.45,1.45v8.507A1.45,1.45,0,0,1,237.338,267.618Z" transform="translate(-192.775 -213.346)" fill="#baafb9"/>
    <path id="Trazado_103542" data-name="Trazado 103542" d="M175.141,87.275v15.414a20.509,20.509,0,0,1,26.07.98V87.77a34.2,34.2,0,0,0-26.07-.494Z" transform="translate(-144.093 -70.724)" fill="#fee45a"/>
    <path id="Trazado_103543" data-name="Trazado 103543" d="M25.273,133.789H3.558A1.46,1.46,0,0,1,2.1,132.331V121.7a1.461,1.461,0,0,1,1.461-1.459H9.383v-1.2A34.116,34.116,0,0,1,49.119,85.4a33.6,33.6,0,0,0-23.846,48.389Z" transform="translate(0 -70.724)" fill="#fed402"/>
    <path id="Trazado_103544" data-name="Trazado 103544" d="M216.257,356.114H196.206l.444.881,5.643,14.276.96,1.337h5.876a1.88,1.88,0,0,0,1.763-1.233l5.32-14.523A1.294,1.294,0,0,0,216.257,356.114Z" transform="translate(-161.634 -296.535)" fill="#baafb9"/>
    <path id="Trazado_103545" data-name="Trazado 103545" d="M193.072,371.506l-5.32-14.523a1.293,1.293,0,0,1-.059-.649h0l.014-.076s0-.009,0-.013h0l.023-.131h-3.962a1.293,1.293,0,0,0,.045.738l5.32,14.523a1.88,1.88,0,0,0,1.763,1.233h3.251A1.881,1.881,0,0,1,193.072,371.506Z" transform="translate(-151.249 -296.535)" fill="#aa9ea9"/>
    <g id="Grupo_54359" data-name="Grupo 54359" transform="translate(10.421 57.855)">
      <path id="Trazado_103546" data-name="Trazado 103546" d="M238.812,423.7h-5.373v9.911a2.687,2.687,0,1,0,5.373,0Z" transform="translate(-203.059 -410.668)" fill="#aa9ea9"/>
      <path id="Trazado_103547" data-name="Trazado 103547" d="M117.284,351.02v-3.956a1.255,1.255,0,0,0-2.51,0v3.956Z" transform="translate(-104.247 -345.809)" fill="#baafb9"/>
      <path id="Trazado_103548" data-name="Trazado 103548" d="M54.363,351.02v-3.956a1.255,1.255,0,0,0-2.51,0v3.956Z" transform="translate(-51.853 -345.809)" fill="#baafb9"/>
      <g id="Grupo_54358" data-name="Grupo 54358" transform="translate(53.264)">
        <path id="Trazado_103549" data-name="Trazado 103549" d="M372.731,347.064a1.255,1.255,0,1,0-2.51,0v3.956h2.51Z" transform="translate(-370.221 -345.809)" fill="#c9bfc8"/>
        <path id="Trazado_103550" data-name="Trazado 103550" d="M435.652,351.02v-3.956a1.255,1.255,0,1,0-2.51,0v3.956Z" transform="translate(-422.615 -345.809)" fill="#c9bfc8"/>
      </g>
    </g>
  </g>
</svg>
